<?xml version="1.0" encoding="UTF-8"?>
<!DOCTYPE svg PUBLIC "-//W3C//DTD SVG 1.1//EN" "http://www.w3.org/Graphics/SVG/1.1/DTD/svg11.dtd">
<!-- Creator: CorelDRAW 2021 (64-Bit) -->
<svg xmlns="http://www.w3.org/2000/svg" xml:space="preserve" width="27.8623mm" height="24.6758mm" version="1.1" style="shape-rendering:geometricPrecision; text-rendering:geometricPrecision; image-rendering:optimizeQuality; fill-rule:evenodd; clip-rule:evenodd"
viewBox="0 0 1399.38 1239.34"
 xmlns:xlink="http://www.w3.org/1999/xlink"
 xmlns:xodm="http://www.corel.com/coreldraw/odm/2003">
 <defs>
  <style type="text/css">
   <![CDATA[
    .fil0 {fill:black}
    .fil1 {fill:black;fill-rule:nonzero}
   ]]>
  </style>
 </defs>
 <g id="Слой_x0020_1">
  <metadata id="CorelCorpID_0Corel-Layer"/>
  <g id="_2908126118112">
   <path class="fil0" d="M1060.86 651.35l0.02 -94.32c11.09,-2.05 104.65,-0.58 123.99,-0.59 18.75,-0.01 42.56,-3.13 57.01,5.91 11.66,7.3 21.56,21.6 21.47,41.36 -0.09,19.61 -9.94,34.83 -20.71,42.09 -13.32,8.99 -38.89,5.81 -56.84,5.81 -19.99,0 -113.63,1.07 -124.93,-0.25zm-134.64 -145.62c24.94,1.79 49.84,0.59 74.54,1.22l185.95 2.8c9.53,0.08 28.5,-1.23 30.07,7.73 1.95,11.13 -18.86,9.46 -27.32,9.46l-112.31 1.3c-50.02,0.74 -100.14,0.96 -150.17,1.75l-1.03 213.81c90.07,0.69 179.89,0.05 269.95,0.04 41.47,-0.01 90.93,5.78 127.53,-8.92 70.35,-28.25 90.1,-119.16 66.34,-186.07 -12,-33.79 -34.49,-59.19 -63.89,-72.36 -31.65,-14.18 -89.29,-9.25 -127.21,-8.91 -16.49,0.15 -128.38,2 -134.12,-0.12 -1.89,-1.5 -0.94,-42.26 -0.94,-44.17 0,-8.24 -1.1,-38.98 0.45,-44.21 4.58,-2.08 137.23,-0.74 141.98,-0.74 47.45,0 96.37,1.16 143.65,-0.07l0.09 -87.05 -422.67 0.08 -0.89 214.46z"/>
   <path class="fil0" d="M330.28 507.43c25.53,2.16 58.11,0.74 84.18,0.34 15.76,-0.24 14.49,1.02 14.97,-5.67 1.43,-20.1 -1.03,-41.68 -0.4,-62.4l9.51 0.23c1.44,21.7 -3.14,46.35 0.44,67.74l27.55 -0.35 -0.11 -217.47 -143.1 0.12 -138.47 209.33c-6.26,9.52 -41.97,64.66 -46.6,68.53l-0.51 -276.76 -136.05 0.24c-1.8,6.91 -0.46,46.23 -0.45,56.48l0.3 393.14 144.49 -0.55c4.21,-4.09 13.73,-20.16 17.96,-26.29 11.51,-16.67 121.16,-176.91 124.15,-184.07 -33.97,-2.55 -19.64,6.74 -32.9,4.84 -8.94,-1.28 -6.23,-11.96 -19.06,-8.89 -2.58,0.62 -2.82,1.91 -4.79,4.21 -9.85,11.5 -28.14,11.97 -38.41,0.42 -2.32,-2.61 -1.78,-3.6 -3.47,-5.75 -1.9,-2.43 -2.86,-1.56 -5.14,-3.73 0.53,-6.09 1.56,-2.46 4.88,-6.4 2.34,-2.78 3.65,-10.64 16.72,-13.55 15.37,-3.43 21.68,3.75 28.05,11.73l11.04 -0.27c3.09,-2.82 4.97,-7.2 9.48,-8.2 5.61,-1.23 8.43,2.59 13.67,3.23 9.84,1.22 24.53,0.21 34.77,0.01 2.16,-2.8 4.58,-7.05 6.79,-10.48 5.61,-8.71 14.31,-24.76 19.79,-29.35l0.71 39.58z"/>
   <path class="fil0" d="M350.38 243.79l0.18 -238.63 -97.35 -0.07c0.09,21.43 1.27,185.05 -0.64,191.98l-28.76 -0.35c-1.59,-5.8 -0.68,-181.81 -0.57,-191.56l-96.37 -0.1c-0.14,32.22 -0.02,64.47 -0.02,96.7 0,4.17 1.31,90.46 -0.92,94.79l-28.29 0.04 -0.02 -191.01 -96.87 -0.01 0.02 238.23 349.61 0z"/>
   <path class="fil0" d="M485.53 504.05l130.77 1.54c-0.05,-20.08 -1.7,-87.41 2.03,-102.08 8.24,-32.38 46.05,-25.12 79.57,-25.02 19.02,0.06 195.13,1.56 209.62,-0.52l0.12 -86.77c-39.01,-2.43 -116.03,-1.1 -158.19,-0.95 -26.39,0.09 -52.78,0.14 -79.16,-0.01 -50.34,-0.29 -98.98,-7.32 -139.16,19.65 -16.01,10.74 -27.05,23.23 -36.59,43.52 -11.91,25.31 -9.27,41.38 -9.21,70.79 0.07,25.68 -1.7,54.6 0.21,79.86z"/>
   <path class="fil0" d="M616.54 532.83l-129.95 1.06c-1.13,1.51 -0.22,-0.59 -0.8,1.92l-0.21 7.13c0.03,3.38 0.01,6.77 0.01,10.14l-0.02 57.08c0,37.42 -3.96,48.59 14.99,80.41 24.5,41.13 64.21,52.74 113.56,52.79l294.52 -0.45 -0.41 -89.3 -241.65 1.15c-17.7,-0.05 -33.38,1.66 -44.06,-11.58 -8.44,-10.46 -6.44,-37.28 -6.42,-54.19l0.42 -56.15z"/>
   <path class="fil0" d="M1012.11 53.08c0.22,-0.13 0.51,-0.29 0.68,-0.35 0.18,-0.06 0.49,-0.24 0.72,-0.31l27.03 0.15c1.67,6.12 0.6,180.3 0.6,191.48l96.11 0.13 0.05 -238.95 -222.58 -0.02c1.87,49.71 0.06,118.58 0.1,171.91 0.02,27.21 -5.16,25.09 -30.79,26.24l-0.35 41.05c24.09,0.99 54.13,0.24 77.74,-2.06 25.44,-2.47 42.24,-9.63 48.24,-31.69 4.62,-17 2.49,-57.53 2.49,-77.43 0,-26.66 0.32,-53.52 -0.04,-80.16z"/>
   <path class="fil0" d="M389.21 244.53l97.03 -0.02 0.82 -101.25c8.43,-0.71 16.72,1.85 22.55,6.15 7.29,5.39 7.21,10.46 7.18,21.99 -0.02,15.18 -1.64,43.97 2.72,56.86 7.33,21.64 20.52,16.24 42.55,16.24 16.97,0 43.75,1.6 59.53,-0.21 -19.71,-17.47 -8.45,-62.07 -12.28,-83.9 -3.49,-19.85 -22.98,-28.4 -40.16,-32.27 -6.42,-1.44 -15.53,-1.41 -20.62,-4.1 27.05,-2.15 57.51,-11.12 60.95,-35.89 3.07,-22.13 -5.38,-60.82 6.61,-77.38 1.36,-1.87 4.24,-5.16 5.43,-5.67 -12.44,-2.02 -44.02,-0.31 -58.5,-0.31 -24.84,0 -35.04,-5.08 -42.94,15.88 -8.9,23.63 1.27,67.05 -10.43,78.28 -4.63,4.44 -14.02,8.03 -22.63,6.58l-0.49 -100.64 -96.92 -0.11 -0.39 239.74z"/>
   <path class="fil0" d="M747.03 41.25c20.83,-5.61 19.76,12.77 19.77,28.07l-0.01 99.22c0.01,12.03 3.22,36.63 -9.39,39.88 -21.66,5.56 -20.26,-12.27 -20.37,-28.42l-0.01 -99.23c0,-16.93 -2.93,-36.05 10,-39.53zm-9.99 -40.86c-35.8,2.1 -69.72,12.61 -85.7,33.23 -9.83,12.68 -10.73,28.76 -11.32,48.15 -0.7,23.36 -1.53,95.08 2.44,115.19 3.07,15.53 15.42,27.3 25.41,33.67 41.7,26.54 148.48,29.56 184.65,-14.9 10.37,-12.74 10.74,-28.87 11.3,-48.12 0.69,-23.54 1.54,-94.96 -2.51,-115.22 -9.18,-45.97 -82.36,-54.46 -124.27,-52z"/>
   <path class="fil0" d="M1259.77 159.12c1.27,-16.33 5.17,-34.99 8.13,-50.79 3.04,-16.28 6.18,-32.78 9.93,-48.62l14.67 99.3 -32.73 0.11zm-105.38 85.29l100.14 0.11 5.64 -42.59 35.16 -0.48 5.2 43.06 98.84 0 -55.17 -239.71 -140.43 0 -49.39 239.61z"/>
   <path class="fil0" d="M330.76 530.38c-2.28,11.84 -1.61,194.12 -1.51,209.62l135.44 -0.31 0.09 -209.31c-8.62,-0.22 -18.96,-1.59 -27,0.99 -1.74,22.77 0.73,43.88 -0.1,66.11l-9.66 -0.27c-1.21,-20.5 2.76,-46.27 -0.14,-66.26l-97.11 -0.57z"/>
   <path class="fil0" d="M125.94 196.55c2.23,-4.33 0.92,-90.62 0.92,-94.79 0,-32.22 -0.13,-64.48 0.02,-96.7l96.37 0.1c-0.12,9.75 -1.02,185.77 0.57,191.56l28.76 0.35c1.9,-6.93 0.73,-170.55 0.64,-191.98l97.35 0.07c-0.51,-0.28 -0.62,-0.6 -2.24,-0.85l-46.71 -0.1c-8.65,0 -43.59,-1.24 -49.1,0.75l-0.25 191.23 -28.08 -0.05 -0.01 -191.28c-4.99,-1.4 -91.49,-1.49 -97.86,-0.17l-0.37 191.86z"/>
   <path class="fil0" d="M1012.11 53.08l28.04 -0.01 0 191.37c4.79,1.14 93,1.16 97.72,0.03l0.35 -239.63c-7.8,-1.79 -182.61,-0.24 -216.51,-0.54 -0.88,-0.01 -3.09,-0.09 -3.85,0.01 -3.11,0.35 1.28,-0.41 -1.69,0.31l-1.45 0.6 222.58 0.02 -0.05 238.95 -96.11 -0.13c0,-11.19 1.07,-185.37 -0.6,-191.48l-27.03 -0.15c-0.23,0.07 -0.54,0.25 -0.72,0.31 -0.18,0.06 -0.46,0.22 -0.68,0.35z"/>
   <path class="fil0" d="M350.38 243.79l-349.61 0 -0.02 -238.23 96.87 0.01c-1.08,-0.69 -0.19,-0.58 -2.16,-0.94 -5.55,-1.02 -94.39,0.01 -95.09,0.07l-0.39 239.93c15.86,1.09 68.13,0.16 87.91,0.16l251.86 0c3.85,0.01 7.95,0.68 10.62,-0.99z"/>
   <path class="fil1" d="M337.69 1077.76c0,37.31 -1.31,63.66 -4.02,79.14 -2.6,15.56 -10.88,29.72 -24.83,42.55 -13.94,12.83 -32.86,22.68 -56.62,29.57 -23.76,6.88 -51.43,10.32 -82.99,10.32 -30.02,0 -56.85,-3.28 -80.74,-9.78 -23.88,-6.49 -43.15,-16.19 -57.57,-29.17 -14.54,-12.99 -23.16,-27.14 -26.01,-42.39 -2.71,-15.33 -4.14,-42.08 -4.14,-80.24l0 -63.5c0,-37.31 1.31,-63.66 4.02,-79.14 2.6,-15.56 10.87,-29.72 24.83,-42.55 13.94,-12.83 32.87,-22.68 56.63,-29.56 23.75,-6.88 51.43,-10.32 82.98,-10.32 30.03,0 56.87,3.28 80.74,9.77 23.88,6.49 43.15,16.19 57.57,29.17 14.54,12.99 23.17,27.14 26.01,42.39 2.72,15.32 4.14,42.07 4.14,80.24l0 63.5zm-146.12 -121.93c0,-17.2 -1.42,-28.23 -4.25,-33.08 -2.84,-4.77 -8.64,-7.2 -17.39,-7.2 -7.44,0 -13.12,1.96 -17.14,5.87 -3.9,3.83 -5.91,15.32 -5.91,34.41l0 173.23c0,21.51 1.31,34.81 3.91,39.81 2.6,5.08 8.62,7.59 18.08,7.59 9.7,0 15.96,-2.89 18.68,-8.68 2.72,-5.79 4.02,-19.63 4.02,-41.45l0 -170.49zm200.97 -95.65l146.94 0c39.72,0 70.22,2.03 91.63,6.18 21.28,4.14 37.35,10.09 48.11,17.83 10.76,7.82 17.97,17.28 21.87,28.31 3.78,11.1 5.67,28.23 5.67,51.46l0 32.3c0,23.62 -3.66,40.9 -11.11,51.69 -7.32,10.87 -20.92,19.24 -40.55,25.03 -19.74,5.78 -45.51,8.67 -77.31,8.67l-39.13 0 0 149.7 -146.11 0 0 -371.18zm146.11 63.35l0 94.55c4.14,0.16 7.68,0.23 10.64,0.23 13.35,0 22.59,-2.19 27.78,-6.56 5.08,-4.3 7.68,-13.37 7.68,-27.14l0 -30.58c0,-12.67 -2.96,-20.96 -8.99,-24.79 -5.91,-3.84 -18.32,-5.71 -37.12,-5.71zm209.95 -63.35l243.29 0 0 74.14 -97.17 0 0 70.86 90.79 0 0 70.39 -90.79 0 0 81.65 107.1 0 0 74.14 -253.22 0 0 -371.18zm98.59 -71.33l0 59.6 -90.08 0 0 -59.6 90.08 0zm151.79 0l0 59.6 -90.07 0 0 -59.6 90.07 0zm400.4 442.51l-146.12 0 0 -297.04 -42.55 0 0 210.15c0,27.68 -5.44,47.55 -16.2,59.59 -10.88,12.12 -27.19,19.63 -49.06,22.68 -21.98,3.05 -56.86,4.62 -104.86,4.62l-22.82 0 0 -63.82c17.86,0 30.03,-1.49 36.77,-4.37 6.74,-2.9 10.05,-12.83 10.05,-29.8l0 -273.18 334.78 0 0 371.18z"/>
  </g>
 </g>
</svg>
