<?xml version="1.0" encoding="UTF-8"?>
<!DOCTYPE svg PUBLIC "-//W3C//DTD SVG 1.1//EN" "http://www.w3.org/Graphics/SVG/1.1/DTD/svg11.dtd">
<!-- Creator: CorelDRAW 2021.5 -->
<svg xmlns="http://www.w3.org/2000/svg" xml:space="preserve" width="27.7902mm" height="19.5388mm" version="1.1" style="shape-rendering:geometricPrecision; text-rendering:geometricPrecision; image-rendering:optimizeQuality; fill-rule:evenodd; clip-rule:evenodd"
viewBox="0 0 240.57 169.14"
 xmlns:xlink="http://www.w3.org/1999/xlink"
 xmlns:xodm="http://www.corel.com/coreldraw/odm/2003">
 <defs>
  <style type="text/css">
   <![CDATA[
    .fil0 {fill:black}
    .fil1 {fill:black;fill-rule:nonzero}
   ]]>
  </style>
 </defs>
 <g id="Слой_x0020_1">
  <metadata id="CorelCorpID_0Corel-Layer"/>
  <path class="fil0" d="M182.8 94.84c0.15,-0.09 0.02,-0.05 0.31,-0.13l21.33 -0.02c4.97,-0 7.97,-0.73 10.92,2.52 4.11,4.52 1.38,13.99 -4.82,13.99l-27.9 -0.03c0,-1.17 -0.1,-15.8 0.17,-16.34zm-23.1 -8.87c1.3,0 46.72,0.54 48.1,0.88 2.42,0.6 2.06,2.55 -0.47,2.77l-35 0.38c-3.9,0.03 -8.85,-0.18 -12.62,0.16l-0.11 37.02c15.45,-0.16 30.98,-0 46.43,-0 6.53,0 16.07,0.75 21.58,-1.61 5.23,-2.24 9.13,-6.5 11.2,-12.21 2.28,-6.28 2.37,-13.67 0.06,-19.94 -2.17,-5.87 -5.7,-10.15 -10.92,-12.49 -3.34,-1.5 -6.13,-1.6 -10.04,-1.59l-23.11 0.11c-3.54,0.01 -8.3,0.31 -11.7,0.01l0.01 -15.4 49.09 -0.01 -0.01 -15.28 -72.4 -0.01 -0.1 37.24z"/>
  <path class="fil0" d="M23.62 96.84l-0 -47.94 -23.61 -0.05 -0.01 77.71 24.98 0.02c0.63,-1.32 2.17,-3.1 3.07,-4.53 2.56,-4.1 6.47,-9.5 9.23,-13.65 0.8,-1.2 12.06,-17.53 12.3,-18.24l-3.68 -0c-0.55,0.5 -1.05,1.04 -2.08,0.88 -0.88,-0.14 -1.35,-0.9 -1.67,-1.55l-1.91 -0.01c-0.77,1.47 -2.47,2.66 -4.83,2.16 -1.08,-0.23 -1.71,-0.72 -2.25,-1.31 -0.41,-0.43 -0.48,-0.82 -0.71,-1.1 -0.25,-0.29 -1.63,-0.67 -0.39,-1.44 0.03,-0.02 0.08,-0.03 0.11,-0.05 0.67,-0.42 0.31,-0.59 0.97,-1.31 2.31,-2.51 6.32,-1.33 7.01,0.79l2.08 -0c1,-2.7 3.32,-0.94 3.82,-0.91 1.72,0.09 4.27,0.06 6.01,-0.03 0.73,-0.84 1.72,-2.59 2.33,-3.59 0.52,-0.85 1.74,-2.95 2.33,-3.59l0.04 7.2 17 0c0.81,-2.75 -0.03,-8.59 0.08,-11.75l1.76 -0.03c0.19,3.96 -0.37,7.57 0,11.75l4.78 0.03 0 -37.63 -24.58 0c-0.49,0.28 -1.66,2.25 -2.05,2.86l-28.96 43.74c-0.42,0.64 -0.69,1.21 -1.17,1.58z"/>
  <path class="fil0" d="M0 40.87l60.07 0.03c0.3,-0.99 0.1,-38.69 0.11,-40.85l-16.82 0 0 32.63 -4.94 0.04 -0 -32.67 -16.73 0.01 -0 32.67 -4.95 0.02 0 -32.6c-0.76,-0.19 -15.93,-0.19 -16.73,-0l0 40.73z"/>
  <path class="fil0" d="M83.52 85.85l22.64 0.09c-0.02,-3.32 -0.38,-15.47 0.29,-17.74 1.65,-5.55 7.78,-4.29 13.77,-4.29 12.04,0 24.13,-0.1 36.17,0l0.06 -15.07c-13.52,0.09 -27.5,-0.07 -41.09,-0.14 -4.3,-0.02 -9.62,-0.32 -13.8,0.04 -8.34,0.7 -13.89,5.05 -16.52,11.02 -1.96,4.43 -1.55,7.19 -1.55,12.31 0,2.75 -0.13,11.79 0.04,13.77z"/>
  <path class="fil0" d="M156.64 126.97l-0 -15.44 -44.69 0.19c-2.88,0 -4.82,-1.25 -5.54,-3.44 -0.56,-1.72 -0.28,-14.79 -0.25,-17.64l-22.64 0.12c-0.16,1.68 -0.04,11.1 -0.04,13.6 0,5.88 -0.36,8.98 2.99,14.12 3.32,5.1 9.2,8.08 15.41,8.47 4.23,0.26 9.32,0.02 13.64,0.02l41.13 0z"/>
  <path class="fil0" d="M151.91 33.9l-0.03 6.96c3.66,0.3 9.6,0.03 13.29,-0.32 4.32,-0.41 7.35,-1.63 8.35,-5.32 1.02,-3.78 0.22,-21.37 0.48,-26.96l4.83 -0.04 0.02 32.63 16.73 0.06 -0 -40.85c-12.43,0.14 -25.8,0 -38.34,0l0.01 29.25c0,4.86 -0.94,4.32 -5.33,4.6z"/>
  <path class="fil0" d="M66.89 40.88c4.68,0.15 11.17,0.03 16,0.03 1.06,0 0.73,-0.35 0.73,-1.54l0.08 -15.75c8.24,0.02 3.9,7.12 5.35,13.66 0.36,1.61 1.44,3.63 2.93,3.63l14.81 -0.01 -0.45 -0.64c-3.48,-3.93 0.39,-12.61 -2.98,-16.49 -0.66,-0.76 -2.38,-1.72 -3.8,-2.21 -1.6,-0.55 -3.47,-0.87 -5.24,-1.03 0.52,-0.27 0.55,-0.2 1.24,-0.29 0.49,-0.06 0.93,-0.14 1.42,-0.23 2.81,-0.52 6.54,-1.77 7.54,-4.79 1.17,-3.54 -1.29,-11.45 1.93,-14.79 0.03,-0.03 0.06,-0.06 0.09,-0.08l0.17 -0.19c0.02,-0.02 0.06,-0.07 0.08,-0.1l-14.8 -0.01c-1.37,0 -2.47,2.07 -2.84,3.52 -0.43,1.66 -0.4,4.15 -0.46,5.93 -0.17,4.76 0.54,7.76 -4.96,7.78l-0.09 -17.13c-0.72,-0.19 -15.71,-0.21 -16.73,-0.03l0 40.75z"/>
  <path class="fil0" d="M128.59 6.87c3.42,-0.72 3.21,2.1 3.21,4.66l0 16.13c0,2.53 0.41,6.03 -1.72,6.47 -1.03,0.21 -2.67,0.22 -3.07,-1.01 -0.33,-1.01 -0.33,-2.67 -0.34,-3.75 -0.02,-3.03 -0.13,-18.1 0.09,-20.15 0.16,-1.54 0.37,-2.04 1.83,-2.35zm-2.71 -6.59c-5.03,0.35 -11.37,1.81 -14.21,5.72 -1.62,2.23 -1.59,4.94 -1.69,8.01 -0.11,3.57 -0.29,15.92 0.59,18.84 3.04,10.07 29.94,10.56 36.17,2.17 1.68,-2.26 1.65,-4.85 1.74,-7.98 0.1,-3.23 0.04,-6.53 0.03,-9.77 -0.01,-7.64 0.26,-11.1 -5.38,-14.31 -4.41,-2.51 -11.51,-3.08 -17.26,-2.68z"/>
  <path class="fil0" d="M216.59 26.35c-0.1,-1.64 2.47,-15.35 3.05,-16.96l2.48 16.95 -5.53 0.01zm-18.16 14.53l17.22 0.02 0.98 -7.33 5.97 -0 0.95 7.27 17.03 0.06 -9.51 -40.83 -24.19 -0.02 -8.44 40.82z"/>
  <path class="fil0" d="M56.43 126.58l23.61 0 0.01 -36.38 -4.72 -0.05c-0.7,3.09 0.32,9.89 -0.13,11.71l-1.65 -0.01c-0.22,-1.23 0.02,-4.34 0.05,-5.76 0.03,-1.51 0.15,-4.58 -0.18,-5.94l-16.83 -0.05 -0.17 36.48z"/>
  <path class="fil1" d="M14.07 147.34c1.11,0.38 1.94,1 2.49,1.85 0.54,0.86 0.82,2.87 0.82,6.03 0,2.35 -0.27,4.17 -0.8,5.47 -0.54,1.3 -1.46,2.28 -2.77,2.95 -1.31,0.68 -3,1.01 -5.05,1.01 -2.33,0 -4.17,-0.39 -5.49,-1.18 -1.33,-0.78 -2.21,-1.75 -2.63,-2.89 -0.42,-1.13 -0.63,-3.11 -0.63,-5.93l0 -2.34 7.36 0 0 4.81c0,1.28 0.07,2.1 0.23,2.44 0.15,0.35 0.49,0.52 1.02,0.52 0.57,0 0.95,-0.22 1.13,-0.66 0.18,-0.44 0.27,-1.58 0.27,-3.43l0 -2.05c0,-1.13 -0.12,-1.96 -0.38,-2.48 -0.26,-0.52 -0.63,-0.87 -1.13,-1.03 -0.5,-0.17 -1.46,-0.26 -2.89,-0.29l0 -4.3c1.75,0 2.83,-0.07 3.24,-0.2 0.41,-0.14 0.71,-0.42 0.89,-0.88 0.18,-0.45 0.27,-1.15 0.27,-2.11l0 -1.64c0,-1.03 -0.11,-1.71 -0.32,-2.04 -0.22,-0.33 -0.55,-0.49 -1,-0.49 -0.52,0 -0.86,0.17 -1.05,0.52 -0.19,0.35 -0.29,1.08 -0.29,2.22l0 2.42 -7.36 0 0 -2.51c0,-2.82 0.65,-4.72 1.94,-5.71 1.29,-0.99 3.34,-1.49 6.15,-1.49 3.51,0 5.9,0.68 7.15,2.06 1.25,1.38 1.88,3.29 1.88,5.73 0,1.66 -0.22,2.85 -0.67,3.59 -0.45,0.73 -1.25,1.41 -2.37,2.02z"/>
  <polygon id="_1" class="fil1" points="20.26,134.51 33.08,134.51 33.08,140.41 27.96,140.41 27.96,146.05 32.74,146.05 32.74,151.66 27.96,151.66 27.96,158.16 33.6,158.16 33.6,164.06 20.26,164.06 "/>
  <path id="_2" class="fil1" d="M54.54 164.06l-7.7 0 0 -23.65 -2.24 0 0 16.73c0,2.2 -0.29,3.79 -0.85,4.74 -0.57,0.97 -1.43,1.56 -2.58,1.81 -1.16,0.24 -3,0.37 -5.52,0.37l-1.2 0 0 -5.08c0.94,0 1.58,-0.12 1.94,-0.35 0.35,-0.23 0.53,-1.02 0.53,-2.37l0 -21.75 17.63 0 0 29.55z"/>
  <polygon id="_3" class="fil1" points="57.6,134.51 70.42,134.51 70.42,140.41 65.3,140.41 65.3,146.05 70.08,146.05 70.08,151.66 65.3,151.66 65.3,158.16 70.94,158.16 70.94,164.06 57.6,164.06 "/>
  <polygon id="_4" class="fil1" points="90.76,134.51 90.76,164.06 83.06,164.06 83.06,151.66 80.82,151.66 80.82,164.06 73.12,164.06 73.12,134.51 80.82,134.51 80.82,145.08 83.06,145.08 83.06,134.51 "/>
  <path id="_5" class="fil1" d="M111.38 151.83c0,2.97 -0.07,5.07 -0.21,6.3 -0.14,1.24 -0.57,2.37 -1.31,3.39 -0.73,1.02 -1.73,1.81 -2.98,2.35 -1.25,0.55 -2.71,0.82 -4.37,0.82 -1.58,0 -3,-0.26 -4.25,-0.78 -1.26,-0.52 -2.27,-1.29 -3.03,-2.32 -0.77,-1.03 -1.22,-2.16 -1.37,-3.38 -0.14,-1.22 -0.22,-3.35 -0.22,-6.39l0 -5.06c0,-2.97 0.07,-5.07 0.21,-6.3 0.14,-1.24 0.57,-2.37 1.31,-3.39 0.73,-1.02 1.73,-1.81 2.98,-2.35 1.25,-0.55 2.71,-0.82 4.37,-0.82 1.58,0 2.99,0.26 4.25,0.78 1.26,0.52 2.27,1.29 3.03,2.32 0.77,1.03 1.22,2.16 1.37,3.37 0.14,1.22 0.22,3.35 0.22,6.39l0 5.06zm-7.7 -9.71c0,-1.37 -0.07,-2.25 -0.22,-2.63 -0.15,-0.38 -0.45,-0.57 -0.92,-0.57 -0.39,0 -0.69,0.15 -0.9,0.47 -0.21,0.31 -0.31,1.22 -0.31,2.74l0 13.79c0,1.71 0.07,2.77 0.21,3.17 0.14,0.41 0.45,0.6 0.95,0.6 0.51,0 0.84,-0.23 0.98,-0.69 0.14,-0.46 0.21,-1.56 0.21,-3.3l0 -13.57z"/>
  <path id="_6" class="fil1" d="M136.24 169.14l-5.3 0 0 -5.08 -12.4 0 0 5.08 -5.3 0 0 -11.25 1.57 0c0.83,-2.42 1.51,-5.6 2.04,-9.55 0.53,-3.95 0.8,-8.26 0.8,-12.94l0 -0.9 17.04 0 0 23.35 1.57 0 0 11.28zm-9.26 -11.28l0 -17.52 -2.28 0 0 0.22c0,5.66 -0.61,11.43 -1.83,17.3l4.11 0z"/>
  <path id="_7" class="fil1" d="M156.15 151.83c0,2.97 -0.07,5.07 -0.21,6.3 -0.14,1.24 -0.57,2.37 -1.31,3.39 -0.73,1.02 -1.73,1.81 -2.98,2.35 -1.25,0.55 -2.71,0.82 -4.37,0.82 -1.58,0 -3,-0.26 -4.25,-0.78 -1.26,-0.52 -2.27,-1.29 -3.03,-2.32 -0.77,-1.03 -1.22,-2.16 -1.37,-3.38 -0.14,-1.22 -0.22,-3.35 -0.22,-6.39l0 -5.06c0,-2.97 0.07,-5.07 0.21,-6.3 0.14,-1.24 0.57,-2.37 1.31,-3.39 0.73,-1.02 1.73,-1.81 2.98,-2.35 1.25,-0.55 2.71,-0.82 4.37,-0.82 1.58,0 2.99,0.26 4.25,0.78 1.26,0.52 2.27,1.29 3.03,2.32 0.77,1.03 1.22,2.16 1.37,3.37 0.14,1.22 0.22,3.35 0.22,6.39l0 5.06zm-7.7 -9.71c0,-1.37 -0.07,-2.25 -0.22,-2.63 -0.15,-0.38 -0.45,-0.57 -0.92,-0.57 -0.39,0 -0.69,0.15 -0.9,0.47 -0.21,0.31 -0.31,1.22 -0.31,2.74l0 13.79c0,1.71 0.07,2.77 0.21,3.17 0.14,0.41 0.45,0.6 0.95,0.6 0.51,0 0.84,-0.23 0.98,-0.69 0.14,-0.46 0.21,-1.56 0.21,-3.3l0 -13.57z"/>
  <path id="_8" class="fil1" d="M177.79 164.06l-7.7 0 0 -23.65 -2.24 0 0 16.73c0,2.2 -0.29,3.79 -0.85,4.74 -0.57,0.97 -1.43,1.56 -2.58,1.81 -1.16,0.24 -3,0.37 -5.52,0.37l-1.2 0 0 -5.08c0.94,0 1.58,-0.12 1.94,-0.35 0.35,-0.23 0.53,-1.02 0.53,-2.37l0 -21.75 17.63 0 0 29.55z"/>
  <path id="_9" class="fil1" d="M198.75 157.15c0,2.2 -0.29,3.78 -0.86,4.74 -0.57,0.97 -1.44,1.56 -2.6,1.81 -1.16,0.24 -3.01,0.37 -5.55,0.37l-8.89 0 0 -29.55 7.7 0 0 10.12 1.19 0c2.37,0 4.17,0.14 5.38,0.42 1.21,0.28 2.12,0.9 2.73,1.86 0.6,0.95 0.9,2.45 0.9,4.5l0 5.75zm-7.7 -0.89l0 -4.27c0,-1.25 -0.12,-2 -0.37,-2.27 -0.25,-0.27 -0.96,-0.42 -2.13,-0.45l0 9.71c0.98,0 1.64,-0.12 1.98,-0.37 0.35,-0.25 0.52,-1.03 0.52,-2.35z"/>
  <path id="_10" class="fil1" d="M219.4 147.4l-7.7 0 0 -5.13c0,-1.49 -0.08,-2.42 -0.24,-2.8 -0.16,-0.37 -0.52,-0.55 -1.08,-0.55 -0.62,0 -1.02,0.22 -1.19,0.67 -0.17,0.46 -0.26,1.43 -0.26,2.92l0 13.71c0,1.44 0.09,2.37 0.26,2.81 0.17,0.44 0.55,0.65 1.13,0.65 0.57,0 0.94,-0.22 1.11,-0.66 0.17,-0.44 0.26,-1.47 0.26,-3.09l0 -3.72 7.7 0 0 1.15c0,3.06 -0.22,5.24 -0.65,6.51 -0.43,1.28 -1.39,2.4 -2.86,3.37 -1.48,0.97 -3.3,1.44 -5.47,1.44 -2.25,0 -4.1,-0.41 -5.57,-1.22 -1.46,-0.82 -2.43,-1.94 -2.9,-3.39 -0.47,-1.44 -0.71,-3.61 -0.71,-6.51l0 -8.63c0,-2.13 0.08,-3.72 0.22,-4.79 0.15,-1.06 0.58,-2.09 1.31,-3.08 0.72,-0.98 1.72,-1.76 3.01,-2.33 1.28,-0.57 2.76,-0.85 4.43,-0.85 2.26,0 4.13,0.44 5.6,1.31 1.47,0.87 2.43,1.96 2.9,3.27 0.46,1.31 0.69,3.34 0.69,6.1l0 2.81z"/>
  <path id="_11" class="fil1" d="M222.15 134.51l7.7 0 0.04 12.48c1.43,-0.04 2.16,-0.84 2.21,-2.41l0.14 -5.77c0.05,-2.12 0.46,-3.56 1.23,-4.3l7.1 0c-0.68,0.72 -1.02,2.2 -1.01,4.45l0.04 5.07c0.03,3.06 -1.7,4.81 -5.18,5.24 3.48,0.42 5.21,2.2 5.18,5.31l-0.04 4.7c-0.01,2.24 0.32,3.84 1.01,4.78l-7.1 0c-0.82,-0.74 -1.23,-2.18 -1.23,-4.31l0 -5.76c0,-0.73 -0.22,-1.32 -0.65,-1.76 -0.44,-0.44 -1.01,-0.67 -1.7,-0.68l-0.04 12.52 -7.7 0 0 -29.55z"/>
 </g>
</svg>
