<?xml version="1.0" encoding="UTF-8"?>
<!DOCTYPE svg PUBLIC "-//W3C//DTD SVG 1.1//EN" "http://www.w3.org/Graphics/SVG/1.1/DTD/svg11.dtd">
<!-- Creator: CorelDRAW 2021 (64-Bit) -->
<svg xmlns="http://www.w3.org/2000/svg" xml:space="preserve" width="28.5501mm" height="17.7153mm" version="1.1" style="shape-rendering:geometricPrecision; text-rendering:geometricPrecision; image-rendering:optimizeQuality; fill-rule:evenodd; clip-rule:evenodd"
viewBox="0 0 343.66 213.24"
 xmlns:xlink="http://www.w3.org/1999/xlink"
 xmlns:xodm="http://www.corel.com/coreldraw/odm/2003">
 <defs>
  <style type="text/css">
   <![CDATA[
    .fil0 {fill:white}
   ]]>
  </style>
 </defs>
 <g id="Слой_x0020_1">
  <metadata id="CorelCorpID_0Corel-Layer"/>
  <g id="_2055588643456">
   <polygon class="fil0" points="188.63,27.38 227.07,27.41 227.06,1.15 216.4,1.13 216.37,22.08 213.34,22.16 213.27,1.13 202.6,1.13 202.57,22.09 199.55,22.15 199.47,1.15 188.65,1.13 "/>
   <path class="fil0" d="M18.71 173.87l7.79 37.95 12.82 -0.27c0.34,-5.18 4.22,-24.56 5.53,-32.61l1.03 -4.04c0.04,-0.26 0.18,-0.3 0.27,-0.44l0.24 37.03c2.59,0.73 15.51,0.57 18.52,0.14l-0.01 -60.31 -27.67 0.16 -4.42 27.05c-1.13,-2.06 -4.91,-23.13 -5.67,-27.24l-27.06 0.2 -0.06 60.31 18.54 0.05 0.18 -37.97z"/>
   <path class="fil0" d="M104.85 21.94c-0.55,-0.36 -0.33,0.46 -0.47,-1l0.03 -20.28 -9.94 -0.06 -0 26.57 35.94 0.08c-0.19,-4.28 0.31,-24.69 -0.22,-26.67l-9.75 -0 -0.06 21.37 -2.79 0.02 -0.12 -21.35 -10.04 -0.04 -0.04 21.34 -2.53 0.02z"/>
   <path class="fil0" d="M286.37 22.82l0 4.58c17.49,0.34 14.14,-1.07 14.32,-20.88l3 -0.07 -0 20.85 11.02 0.12 -0.02 -26.29 -24.83 0 -0 18.87c-0.05,2.91 -0.75,2.83 -3.47,2.83z"/>
   <path class="fil0" d="M231.33 27.34l10.99 0.07 -0.01 -11.17c3.27,0.4 3.32,1.3 3.32,4.48 -0,2.97 -0.39,5.14 1.58,6.61l9.72 -0.33c-2.16,-3.66 -0.21,-6.04 -1.06,-9.09 -0.62,-2.21 -3.87,-3.56 -6.57,-3.66 7.73,-1.57 6.69,-2.66 6.62,-8.73 -0.03,-2.38 0.21,-2.86 1.19,-4.4l-9.98 -0c-1.8,2.48 -1.42,1.93 -1.65,6.1 -0.17,3.16 0.37,4.63 -3.16,5l-0.01 -11.08 -10.97 -0.01 -0.01 26.21z"/>
   <path class="fil0" d="M270.02 8.47c0,-2.33 -0.07,-4.02 2.83,-3.08 0.87,0.69 0.51,12.62 0.51,14.36 0,2.71 0.09,4.23 -2.94,3.48 -0.72,-2 -0.41,-12.2 -0.41,-14.76zm-1.25 -7.73c-11.36,1.12 -9.62,7.4 -9.55,16.8 0.04,4.94 0.42,7.1 4.11,8.87 4.95,2.39 17.09,2.53 20.03,-2.87 1.27,-2.32 0.8,-9.26 0.8,-12.38 0,-4.24 0.18,-6.83 -3.97,-8.97 -3.11,-1.6 -7.54,-1.84 -11.42,-1.46z"/>
   <path class="fil0" d="M259.99 184.47l5.8 0.98c0.9,3.42 1.35,10.39 0.18,13.92 -1.59,2 -3.34,1.93 -6.06,1.72l0.08 -16.62zm-0.03 -22.53c7.94,-0.63 7.28,4.96 6.09,11.63 -1.67,1.16 -3.12,1.69 -6.14,1.46l0.05 -13.09zm16.81 16.87c7.37,-1.36 9.72,-3.67 9.26,-12.2 -0.36,-6.7 -2.97,-10.72 -7.87,-13.03 -5.03,-2.37 -33.3,-3.31 -39.41,-2.05l0.01 60.02c4.12,0.89 17.98,0.27 23.13,0.27 23.05,-0.01 26.34,-0.83 25.79,-20.21 -0.18,-6.3 -1.86,-9.06 -6.69,-10.94l-4.23 -1.87z"/>
   <path class="fil0" d="M330.21 7.68l1.42 10.35 -3.48 -0.03c-0.07,-1.65 1.26,-9.23 2.06,-10.32zm-13.77 19.73c2.15,-0 9.81,0.28 11.26,-0.16l0.89 -4.52c0.87,-0.15 -0.41,0 0.44,-0.07l3.04 0.23 0.51 4.36c1.29,0.37 9.43,0.27 11.08,0.09l-6.25 -26.24 -15.53 0.02 -5.44 26.28z"/>
   <path class="fil0" d="M219.51 181.61c14.07,-4.96 12.23,-2.89 12.3,-21.52 0.02,-4.76 0.86,-5.58 2.4,-8.82l-19.58 0.19c-3.22,4.71 -3.05,7.02 -3.2,14.06 -0.14,6.33 0.72,10.79 -6.08,11.22l-0.06 -25.45 -21.1 -0.01 -0.04 60.54 21.18 -0.1 0.03 -25.37c13.13,1.19 1.29,15.31 9.36,25.44l19.68 0c-7.59,-16.74 5.89,-26.02 -14.88,-30.18z"/>
   <path class="fil0" d="M92.61 193.25l0 -25.54c0,-3.22 -0.13,-4.99 1.36,-6.96l3.67 -0.1c2.1,3.53 1.14,29.6 1.15,35.85 0,3 -0.33,7.81 -4.67,5.9 -2.23,-0.98 -1.51,-6.51 -1.51,-9.16zm27.09 3.8c0.85,-7.19 0.21,-19.42 0.16,-27.18 -0.07,-10.27 -2.8,-14.01 -10.24,-17.28 -9.91,-4.34 -36.07,-4.97 -37.81,12.95 -0.78,8.03 -0.36,19.41 -0.22,27.7 0.17,10.08 2.88,14.19 10.37,17.45 10.04,4.37 31.4,3.97 36.6,-8.11 0.75,-1.75 0.91,-3.48 1.15,-5.53z"/>
   <path class="fil0" d="M317.09 166.62c0.9,2.01 2.99,20.25 3.11,23.6l-7.07 -0.2 3.97 -23.4zm-3.46 34.78c1.47,-0.66 2.59,-0.52 4.56,-0.5 3.28,0.03 3.19,-1.37 3.89,10.9l21.58 -0.16 -11.98 -60.26c-4.1,-0.3 -27.87,-0.51 -30.59,0.25l-10.39 60.15 21.55 -0 1.39 -10.38z"/>
   <path class="fil0" d="M154.31 160.75c2.36,2.83 1.27,10.99 1.69,17.1l20.78 -0.2c0.05,-10.16 1.06,-19.44 -8.38,-24.08 -6.29,-3.09 -14.72,-4.14 -22.6,-3.08 -21.84,2.96 -18.64,15.19 -18.64,32.97 0,7.39 -0.67,17.5 3.44,22.6 7.24,8.97 30.81,9.24 40.48,1.79 5.9,-4.55 5.75,-11.48 5.75,-20.3l-21 0.1c0,3.55 0.12,7.4 -0.16,10.92 -0.32,3.93 -1.94,4.72 -6.02,3.66 -1.52,-1.85 -1.34,-4.88 -1.33,-7.9 0,-6.01 -0.74,-28.79 0.8,-33.55l5.19 -0.03z"/>
   <path class="fil0" d="M9.93 15.35c3.11,0.11 3.29,-0.02 3.29,3.27 0,3.75 0.1,4.06 -3.3,4.13l0 -5.56 0.01 -1.83zm-0.01 -10.12c2.84,0.08 3.34,0.04 3.28,3.05 -0.05,2.79 -0.59,2.79 -3.26,2.82l-0.02 -5.88zm6.01 21.9c10.5,1.48 7.08,-11.12 6.47,-11.97 -1.14,-1.58 -2.53,-1.57 -4.59,-2.23 4.56,-0.98 5.7,-3.03 4.39,-7.62 -0.94,-3.31 -4.74,-4.79 -8.67,-4.51l-13.54 -0.14 0 26.52 15.94 -0.06z"/>
   <path class="fil0" d="M168.8 10.04c-0.8,-2.88 -0.53,-4.93 2.86,-4.72l-0.01 5.71c-1.46,0.12 -2.21,0.04 -2.85,-1zm-9.34 7.42l-0.12 9.75 9.25 -0.17c0.11,-9.02 -1.29,-12.12 3.09,-11.56l-0 11.92 10.02 -0.04 -0.01 -26.78c-5,0.03 -15.13,-0.55 -18.86,1.01 -4.97,2.08 -3.71,8.88 -2.66,10.25 0.9,1.18 2.24,0.97 3.57,1.6 -2.1,1.19 -4.3,0.86 -4.26,4.01z"/>
   <path class="fil0" d="M144.87 7.42c0.67,1.14 1.48,8.52 1.63,10.37l-3.39 -0.12 1.76 -10.25zm-12.66 19.97c2.37,-0.05 8.66,0.31 10.45,-0.2l0.53 -4.45 3.68 -0.2 0.5 4.86 10.2 -0.03 -5.67 -26.76 -14.54 -0.01 -5.14 26.8z"/>
   <path class="fil0" d="M90.78 16.61l-9.98 -0.02c-0.12,3.95 1,7.69 -3.35,6.47 -0.49,-2.09 -0.61,-15.63 -0.05,-17.81 0.72,-0.59 1.64,-0.81 2.74,-0.37 1.11,1.46 0.63,5.36 0.65,7.38l9.97 0.04c0.15,-3.79 0.27,-7.75 -2.26,-9.78 -3.9,-3.14 -15.14,-3.74 -19.6,0.56 -2.42,2.34 -1.9,6.32 -1.9,10.38 0,3.7 -0.44,8.1 1.34,10.94 2.65,4.25 14.22,4.68 19.35,1.5 3.13,-1.94 3.1,-4.78 3.1,-9.28z"/>
   <path class="fil0" d="M36.87 14.06c1.19,-0.1 2.1,-0.02 3,0.54 0.69,1.72 0.81,6.24 -0.14,7.54 -0.66,0.69 -2.05,0.61 -2.87,0.49l0.02 -8.58zm-10.05 13.28c2.94,0.17 16.7,0.27 19.67,-0.42 4.66,-1.07 3.72,-5.19 3.73,-10.02 0.02,-9.5 -6.48,-6.1 -13.37,-7.22l-0.02 -9.11 -10 0.04 -0.03 26.73z"/>
   <polygon class="fil0" points="53.64,27.41 63.77,27.37 63.76,0.59 53.71,0.59 "/>
   <path class="fil0" d="M130.18 0.6c0.53,1.98 0.03,22.38 0.22,26.67l-35.94 -0.08 0 -26.57 9.94 0.06 -0.03 20.28c0.14,1.46 -0.08,0.64 0.47,1 -0.73,-2.52 0.27,-16.88 -0.29,-21.42 -1.7,-0.26 -8.72,-0.31 -10.28,0.06l-0.07 26.8 36.34 0.1 0.1 -25.54c-0.03,-1.58 0.16,-0.89 -0.47,-1.34z"/>
   <path class="fil0" d="M261.16 98.73l38.76 -0.02c13.61,0.01 13.62,21.06 2.55,23.48 -2.74,0.6 -35.58,0.21 -41.38,0.2l0.07 -23.66zm0.6 -43.98l69.97 0 0.03 -21.93 -103.27 0c-0.01,7.06 -0.41,49.3 0.06,53.22 2.54,0.67 14.75,0.39 18.34,0.45l45.69 0.71c3.01,0.04 6.15,-0.34 6.65,2.57 -1.51,2.42 -5.13,1.69 -7.87,1.72 -9.32,0.08 -61.83,0.27 -62.58,0.97 -0.68,0.64 -0.45,1.07 -0.43,3.52l-0.03 49.21 84.66 0.06c29.28,0 37.32,-33.9 25.36,-54.71 -7.83,-13.63 -18.81,-13.88 -31.48,-13.83 -15.02,0.06 -30.05,0.13 -45.08,0.2l-0.01 -3.3 -0 -18.85z"/>
   <path class="fil0" d="M104.9 69.77l2.57 0.09c-0.29,7.87 -0.58,9.06 0.03,16.76l6.71 0.05 -0 -53.94 -35.06 0.08 -39.89 60.66c-1.8,2.77 -3.81,5.97 -5.68,8.29l-0.05 -68.78 -33.52 0.16 0.05 111.26 35.44 -0.02c5.05,-8.48 33.35,-48.71 34.93,-52.12 -8.44,-0.43 -4.74,1.59 -8.04,1.14 -2.2,-0.3 -1.16,-1.51 -3.37,-2.21 -2.58,0 -1.88,0.77 -3.51,2.07 -3.9,3.12 -8.49,-0.1 -10.58,-3.51 0.67,-1.37 0.38,-0.47 1.31,-1.69 1.04,-1.37 1.91,-2.86 4.66,-3.17 4.72,-0.53 5.06,2.41 6.89,3.08l2.06 0.01c2.25,-3.62 2.85,-1.71 5.83,-1.34 1.81,0.23 6.36,0.08 8.31,-0.03 1.91,-2.57 4.93,-8.47 6.67,-10.07 0,2.91 -0.33,7.36 0.26,10.12l24.01 -0.07 0.36 -5.55 -0.37 -11.29z"/>
   <path class="fil0" d="M151.62 85.91c0,-4.89 -0.59,-22.28 0.59,-25.61 2.66,-7.47 11.51,-5.72 19.92,-5.72 17.19,0 34.39,0 51.58,0l-0.07 -21.58c-8.01,-0.03 -72.81,-0.68 -78.9,-0.13 -11.59,1.04 -20.03,7.47 -23.51,15.94 -2.68,6.53 -2.12,10.29 -2.12,17.73 0,6.47 -0.06,12.96 0.01,19.42 4.3,0.26 29.79,0.65 32.49,-0.05z"/>
   <path class="fil0" d="M119.11 93.15c0.01,6.61 0,13.23 0,19.84 0,7.38 -0.52,10.6 2.6,16.81 4.1,8.15 11.82,14.5 23.86,15.14 12.45,0.65 26.75,0.03 39.41,0.03 13,0 26,-0 39,-0l-0 -22.12c-17.14,0.13 -34.29,0.14 -51.44,0.22 -7.93,0.03 -18.67,1.98 -20.65,-5.18 -0.83,-3 -0.28,-20.47 -0.28,-24.98l-32.5 0.25z"/>
   <path class="fil0" d="M107.36 92.2c-0.39,5.05 0.43,15.17 -0.34,16.76l-2.16 0.01 -0.04 -16.77 -24.26 0.02 -0.12 52.2 33.77 0 0.03 -52.23 -6.87 0z"/>
  </g>
 </g>
</svg>
