<svg width="44" height="45" viewBox="0 0 44 45" fill="none" xmlns="http://www.w3.org/2000/svg">
<path d="M22.0148 44.4927C19.0022 44.4927 16.1711 43.9211 13.5215 42.7777C10.8719 41.6344 8.56712 40.0828 6.60713 38.1228C4.64715 36.1628 3.09549 33.858 1.95217 31.2084C0.808845 28.5588 0.237183 25.7277 0.237183 22.7151C0.237183 19.7025 0.808845 16.8715 1.95217 14.2218C3.09549 11.5722 4.64715 9.26744 6.60713 7.30745C8.56712 5.34747 10.8719 3.79581 13.5215 2.65249C16.1711 1.50916 19.0022 0.9375 22.0148 0.9375C25.0274 0.9375 27.8584 1.50916 30.5081 2.65249C33.1577 3.79581 35.4625 5.34747 37.4225 7.30745C39.3824 9.26744 40.9341 11.5722 42.0774 14.2218C43.2207 16.8715 43.7924 19.7025 43.7924 22.7151C43.7924 23.6951 43.738 24.6569 43.6291 25.6006C43.5202 26.5443 43.3387 27.4699 43.0846 28.3773C42.5765 27.7966 41.9867 27.3066 41.3152 26.9073C40.6437 26.508 39.9087 26.2358 39.1102 26.0906C39.2191 25.5462 39.3008 24.9927 39.3552 24.4301C39.4097 23.8675 39.4369 23.2958 39.4369 22.7151C39.4369 17.8514 37.7491 13.7318 34.3736 10.3563C30.9981 6.98079 26.8785 5.29302 22.0148 5.29302C17.1511 5.29302 13.0315 6.98079 9.656 10.3563C6.28047 13.7318 4.5927 17.8514 4.5927 22.7151C4.5927 27.5788 6.28047 31.6984 9.656 35.0739C13.0315 38.4494 17.1511 40.1372 22.0148 40.1372C23.8659 40.1372 25.6353 39.865 27.3231 39.3205C29.0108 38.7761 30.5625 38.0139 31.978 37.0339C32.4136 37.6509 32.949 38.1954 33.5841 38.6672C34.2193 39.1391 34.8999 39.502 35.6258 39.7561C33.7747 41.2442 31.6968 42.4057 29.392 43.2405C27.0872 44.0753 24.6281 44.4927 22.0148 44.4927ZM37.8036 35.7817C37.0413 35.7817 36.3971 35.5185 35.8708 34.9922C35.3445 34.4659 35.0814 33.8217 35.0814 33.0595C35.0814 32.2973 35.3445 31.653 35.8708 31.1267C36.3971 30.6004 37.0413 30.3373 37.8036 30.3373C38.5658 30.3373 39.21 30.6004 39.7363 31.1267C40.2626 31.653 40.5258 32.2973 40.5258 33.0595C40.5258 33.8217 40.2626 34.4659 39.7363 34.9922C39.21 35.5185 38.5658 35.7817 37.8036 35.7817ZM29.2014 32.9506L19.837 23.5862V11.8263H24.1926V21.844L32.2503 29.9017L29.2014 32.9506Z" fill="#FDA215"/>
</svg>
