<?xml version="1.0" encoding="UTF-8"?>
<!DOCTYPE svg PUBLIC "-//W3C//DTD SVG 1.1//EN" "http://www.w3.org/Graphics/SVG/1.1/DTD/svg11.dtd">
<!-- Creator: CorelDRAW 2021 (64-Bit) -->
<svg xmlns="http://www.w3.org/2000/svg" xml:space="preserve" width="28.3908mm" height="21.0551mm" version="1.1" style="shape-rendering:geometricPrecision; text-rendering:geometricPrecision; image-rendering:optimizeQuality; fill-rule:evenodd; clip-rule:evenodd"
viewBox="0 0 699.9 519.06"
 xmlns:xlink="http://www.w3.org/1999/xlink"
 xmlns:xodm="http://www.corel.com/coreldraw/odm/2003">
 <defs>
  <style type="text/css">
   <![CDATA[
    .fil0 {fill:black}
    .fil1 {fill:black;fill-rule:nonzero}
   ]]>
  </style>
 </defs>
 <g id="Слой_x0020_1">
  <metadata id="CorelCorpID_0Corel-Layer"/>
  <path class="fil0" d="M171.79 119.73l0.09 -117.19 -47.81 -0.03c0.05,10.53 0.62,90.88 -0.31,94.28l-14.12 -0.17c-0.78,-2.85 -0.34,-89.29 -0.28,-94.08l-47.33 -0.05c-0.07,15.82 -0.01,31.66 -0.01,47.49 0,2.05 0.64,44.42 -0.45,46.55l-13.89 0.02 -0.01 -93.81 -47.57 -0 0.01 116.99 171.7 0z"/>
  <path class="fil0" d="M496.77 26.07c0.11,-0.06 0.25,-0.14 0.34,-0.17 0.09,-0.03 0.24,-0.12 0.35,-0.15l13.27 0.07c0.82,3.01 0.29,88.54 0.29,94.04l47.2 0.06 0.02 -117.35 -109.31 -0.01c0.92,24.41 0.02,58.23 0.05,84.43 0.01,13.36 -2.53,12.32 -15.12,12.89l-0.17 20.16c11.83,0.48 26.58,0.12 38.18,-1.01 12.5,-1.22 20.75,-4.73 23.69,-15.57 2.27,-8.35 1.22,-28.25 1.22,-38.02 0,-13.1 0.16,-26.29 -0.02,-39.37z"/>
  <path class="fil0" d="M190.85 120.09l47.65 -0.01 0.4 -49.72c4.14,-0.35 8.21,0.91 11.07,3.02 3.58,2.65 3.54,5.14 3.53,10.8 -0.01,7.45 -0.81,21.6 1.34,27.93 3.6,10.63 10.08,7.98 20.9,7.98 8.34,0 21.48,0.79 29.23,-0.11 -9.68,-8.58 -4.15,-30.48 -6.03,-41.2 -1.72,-9.75 -11.29,-13.95 -19.72,-15.85 -3.16,-0.71 -7.63,-0.69 -10.12,-2.01 13.29,-1.06 28.24,-5.46 29.93,-17.62 1.51,-10.87 -2.64,-29.87 3.25,-38 0.67,-0.92 2.08,-2.53 2.67,-2.78 -6.11,-0.99 -21.62,-0.15 -28.73,-0.15 -12.2,0 -17.21,-2.5 -21.09,7.8 -4.37,11.61 0.62,32.93 -5.12,38.45 -2.27,2.18 -6.89,3.94 -11.11,3.23l-0.24 -49.42 -47.6 -0.05 -0.19 117.74z"/>
  <path class="fil0" d="M366.59 20.26c10.23,-2.76 9.7,6.27 9.71,13.79l-0 48.73c0,5.91 1.58,17.99 -4.61,19.58 -10.64,2.73 -9.95,-6.03 -10,-13.96l-0 -48.73c0,-8.31 -1.44,-17.7 4.92,-19.41zm-4.91 -20.07c-17.58,1.03 -34.24,6.19 -42.09,16.32 -4.83,6.23 -5.27,14.13 -5.56,23.65 -0.35,11.47 -0.75,46.69 1.2,56.57 1.51,7.63 7.57,13.41 12.48,16.53 20.48,13.03 72.92,14.52 90.68,-7.32 5.09,-6.26 5.27,-14.18 5.55,-23.63 0.34,-11.56 0.75,-46.64 -1.23,-56.58 -4.51,-22.57 -40.45,-26.75 -61.03,-25.54z"/>
  <path class="fil0" d="M618.39 78.15c0.63,-8.02 2.54,-17.18 3.99,-24.94 1.5,-8 3.03,-16.1 4.88,-23.88l7.2 48.77 -16.08 0.05zm-51.75 41.89l49.18 0.05 2.77 -20.92 17.27 -0.23 2.55 21.15 48.54 0 -27.1 -117.72 -68.97 0 -24.25 117.67z"/>
  <path class="fil0" d="M61.56 96.53c1.09,-2.13 0.45,-44.5 0.45,-46.55 0,-15.83 -0.06,-31.66 0.01,-47.49l47.33 0.05c-0.06,4.79 -0.5,91.23 0.28,94.08l14.12 0.17c0.93,-3.4 0.36,-83.75 0.31,-94.28l47.81 0.03c-0.25,-0.14 -0.31,-0.29 -1.1,-0.42l-22.94 -0.05c-4.25,0 -21.4,-0.61 -24.11,0.37l-0.12 93.91 -13.79 -0.02 -0.01 -93.94c-2.45,-0.69 -44.93,-0.73 -48.06,-0.08l-0.18 94.22z"/>
  <path class="fil0" d="M496.77 26.07l13.77 -0 0 93.98c2.35,0.56 45.67,0.57 47.99,0.01l0.17 -117.68c-3.83,-0.88 -89.68,-0.12 -106.33,-0.27 -0.43,-0 -1.52,-0.04 -1.89,0 -1.53,0.17 0.63,-0.2 -0.83,0.15l-0.71 0.3 109.31 0.01 -0.02 117.35 -47.2 -0.06c0,-5.5 0.53,-91.03 -0.29,-94.04l-13.27 -0.07c-0.11,0.03 -0.27,0.12 -0.35,0.15 -0.09,0.03 -0.23,0.11 -0.34,0.17z"/>
  <path class="fil0" d="M520.77 325.77l0.01 -48c5.45,-1.05 51.38,-0.3 60.87,-0.3 9.21,-0 20.9,-1.59 27.99,3.01 5.72,3.72 10.58,10.99 10.54,21.04 -0.04,9.98 -4.88,17.73 -10.17,21.42 -6.54,4.58 -19.09,2.95 -27.9,2.95 -9.82,0 -55.79,0.54 -61.33,-0.13zm-66.1 -74.11c12.24,0.91 24.47,0.3 36.59,0.62l91.29 1.42c4.68,0.04 13.99,-0.62 14.76,3.93 0.96,5.67 -9.26,4.81 -13.41,4.81l-55.14 0.66c-24.56,0.38 -49.16,0.49 -73.72,0.89l-0.51 108.81c44.22,0.35 88.31,0.02 132.53,0.02 20.36,-0 44.64,2.94 62.61,-4.54 34.54,-14.38 44.23,-60.64 32.57,-94.69 -5.89,-17.19 -16.93,-30.12 -31.37,-36.83 -15.54,-7.22 -43.84,-4.7 -62.45,-4.53 -8.1,0.08 -63.02,1.02 -65.84,-0.06 -0.93,-0.76 -0.47,-21.51 -0.47,-22.48 0,-4.19 -0.54,-19.84 0.22,-22.5 2.25,-1.06 67.37,-0.37 69.7,-0.37 23.3,0 47.31,0.59 70.52,-0.03l0.04 -44.31 -207.5 0.04 -0.44 109.14z"/>
  <path class="fil0" d="M161.85 252.53c12.54,1.1 28.53,0.38 41.33,0.17 7.74,-0.13 7.12,0.52 7.35,-2.89 0.7,-10.23 -0.51,-21.21 -0.2,-31.76l4.67 0.12c0.71,11.04 -1.54,23.59 0.22,34.47l13.52 -0.18 -0.05 -110.67 -70.25 0.06 -67.97 106.53c-3.08,4.84 -20.6,32.91 -22.88,34.88l-0.25 -140.84 -66.79 0.12c-0.89,3.52 -0.22,23.53 -0.22,28.74l0.15 200.07 70.94 -0.28c2.07,-2.08 6.74,-10.26 8.82,-13.38 5.65,-8.49 59.48,-90.03 60.95,-93.67 -16.67,-1.3 -9.64,3.43 -16.15,2.46 -4.39,-0.65 -3.06,-6.09 -9.36,-4.53 -1.27,0.32 -1.38,0.97 -2.35,2.14 -4.84,5.85 -13.81,6.09 -18.86,0.21 -1.14,-1.33 -0.87,-1.83 -1.7,-2.92 -0.93,-1.24 -1.41,-0.79 -2.52,-1.9 0.26,-3.1 0.76,-1.25 2.39,-3.26 1.15,-1.41 1.79,-5.41 8.21,-6.9 7.55,-1.74 10.64,1.91 13.77,5.97l5.42 -0.14c1.52,-1.44 2.44,-3.66 4.65,-4.17 2.75,-0.63 4.14,1.32 6.71,1.65 4.83,0.62 12.05,0.1 17.07,0 1.06,-1.42 2.25,-3.59 3.33,-5.33 2.75,-4.43 7.03,-12.6 9.72,-14.94l0.35 20.14z"/>
  <path class="fil0" d="M238.33 250.81l64.2 0.78c-0.03,-10.22 -0.84,-44.48 1,-51.95 4.05,-16.48 22.61,-12.78 39.06,-12.74 9.34,0.03 95.8,0.79 102.91,-0.26l0.06 -44.16c-19.15,-1.24 -56.96,-0.56 -77.66,-0.49 -12.95,0.05 -25.91,0.07 -38.86,-0 -24.71,-0.15 -48.59,-3.72 -68.32,10 -7.86,5.47 -13.28,11.82 -17.96,22.15 -5.85,12.88 -4.55,21.06 -4.52,36.03 0.03,13.06 -0.84,27.79 0.1,40.64z"/>
  <path class="fil0" d="M302.64 265.45l-63.8 0.54c-0.55,0.77 -0.11,-0.3 -0.39,0.98l-0.1 3.63c0.01,1.72 0,3.44 0,5.16l-0.01 29.05c0,19.04 -1.94,24.73 7.36,40.92 12.03,20.93 31.52,26.84 55.75,26.87l144.59 -0.23 -0.2 -45.44 -118.63 0.58c-8.69,-0.02 -16.39,0.85 -21.63,-5.89 -4.14,-5.32 -3.16,-18.97 -3.15,-27.58l0.2 -28.57z"/>
  <path class="fil0" d="M162.35 264.21c-1.12,6.03 -0.79,98.79 -0.74,106.68l66.49 -0.16 0.04 -106.52c-4.23,-0.11 -9.31,-0.81 -13.26,0.51 -0.85,11.59 0.36,22.33 -0.05,33.64l-4.74 -0.14c-0.59,-10.43 1.36,-23.55 -0.07,-33.72l-47.67 -0.29z"/>
  <path class="fil1" d="M-0 395.55l46.27 0 0.22 51.12c8.57,-0.15 12.99,-3.44 13.29,-9.87l0.86 -23.62c0.3,-8.7 2.77,-14.59 7.41,-17.63l42.67 0c-4.12,2.93 -6.14,9.03 -6.06,18.24l0.22 20.76c0.15,12.55 -10.22,19.72 -31.14,21.45 20.93,1.74 31.3,9.01 31.14,21.76l-0.22 19.26c-0.08,9.18 1.95,15.71 6.06,19.59l-42.67 0c-4.94,-3.03 -7.41,-8.93 -7.41,-17.65l0 -23.59c0,-3.01 -1.31,-5.41 -3.93,-7.22 -2.66,-1.81 -6.06,-2.75 -10.22,-2.81l-0.22 51.27 -46.27 0 0 -121.06z"/>
  <path id="_1" class="fil1" d="M200.11 395.55l26.43 121.06 -47.2 0 -2.51 -21.73 -16.66 0 -2.51 21.73 -47.8 0 23.43 -121.06 66.82 0zm-24.52 77.9c-2.21,-13.72 -4.53,-30.71 -7,-50.99 -4.57,23.26 -7.45,40.25 -8.68,50.99l15.68 0z"/>
  <path id="_2" class="fil1" d="M316.34 448.12c6.7,1.56 11.68,4.08 14.97,7.58 3.25,3.52 4.9,11.76 4.9,24.72 0,9.62 -1.61,17.09 -4.83,22.4 -3.22,5.31 -8.76,9.34 -16.66,12.09 -7.9,2.78 -18.01,4.16 -30.36,4.16 -14,0 -25.04,-1.61 -33.01,-4.82 -8.01,-3.21 -13.29,-7.17 -15.8,-11.84 -2.51,-4.64 -3.78,-12.76 -3.78,-24.29l0 -9.57 44.25 0 0 19.69c0,5.25 0.45,8.6 1.39,10 0.9,1.43 2.96,2.14 6.1,2.14 3.44,0 5.73,-0.89 6.81,-2.7 1.08,-1.78 1.65,-6.48 1.65,-14.05l0 -8.39c0,-4.64 -0.75,-8.03 -2.29,-10.18 -1.53,-2.14 -3.82,-3.55 -6.81,-4.21 -2.99,-0.69 -8.8,-1.07 -17.4,-1.17l0 -17.6c10.52,0 16.99,-0.28 19.5,-0.82 2.47,-0.56 4.26,-1.73 5.35,-3.59 1.08,-1.84 1.65,-4.72 1.65,-8.65l0 -6.71c0,-4.24 -0.64,-7.02 -1.91,-8.37 -1.31,-1.35 -3.29,-2.02 -5.99,-2.02 -3.1,0 -5.2,0.71 -6.32,2.12 -1.16,1.43 -1.72,4.44 -1.72,9.08l0 9.92 -44.25 0 0 -10.31c0,-11.55 3.9,-19.33 11.64,-23.39 7.75,-4.06 20.06,-6.1 36.95,-6.1 21.11,0 35.45,2.81 42.97,8.44 7.52,5.64 11.3,13.47 11.3,23.47 0,6.79 -1.35,11.68 -4.04,14.69 -2.73,3.01 -7.49,5.77 -14.26,8.27z"/>
  <path id="_3" class="fil1" d="M433.28 395.55l26.43 121.06 -47.2 0 -2.51 -21.73 -16.66 0 -2.51 21.73 -47.8 0 23.43 -121.06 66.82 0zm-24.52 77.9c-2.21,-13.72 -4.53,-30.71 -7,-50.99 -4.57,23.26 -7.45,40.25 -8.68,50.99l15.68 0z"/>
  <polygon id="_4" class="fil1" points="573.65,395.55 573.65,516.61 527.38,516.61 527.38,465.8 513.91,465.8 513.91,516.61 467.64,516.61 467.64,395.55 513.91,395.55 513.91,438.86 527.38,438.86 527.38,395.55 "/>
  <path id="_5" class="fil1" d="M699.9 488.3c0,9 -1.72,15.48 -5.16,19.41 -3.4,3.95 -8.65,6.4 -15.61,7.4 -7,0.99 -18.12,1.5 -33.39,1.5l-53.42 0 0 -121.06 46.27 0 0 41.48 7.15 0c14.22,0 25.04,0.56 32.34,1.71 7.3,1.15 12.77,3.67 16.4,7.6 3.63,3.9 5.43,10.05 5.43,18.42l0 23.55zm-46.27 -3.65l0 -17.5c0,-5.1 -0.75,-8.19 -2.25,-9.29 -1.5,-1.09 -5.76,-1.71 -12.8,-1.86l0 39.79c5.87,0 9.84,-0.51 11.9,-1.53 2.09,-1.02 3.14,-4.24 3.14,-9.62z"/>
 </g>
</svg>
