<?xml version="1.0" encoding="UTF-8"?>
<!DOCTYPE svg PUBLIC "-//W3C//DTD SVG 1.1//EN" "http://www.w3.org/Graphics/SVG/1.1/DTD/svg11.dtd">
<!-- Creator: CorelDRAW 2021.5 -->
<svg xmlns="http://www.w3.org/2000/svg" xml:space="preserve" width="29.1445mm" height="20.8994mm" version="1.1" style="shape-rendering:geometricPrecision; text-rendering:geometricPrecision; image-rendering:optimizeQuality; fill-rule:evenodd; clip-rule:evenodd"
viewBox="0 0 260.27 186.64"
 xmlns:xlink="http://www.w3.org/1999/xlink"
 xmlns:xodm="http://www.corel.com/coreldraw/odm/2003">
 <defs>
  <style type="text/css">
   <![CDATA[
    .fil0 {fill:black}
   ]]>
  </style>
 </defs>
 <g id="Слой_x0020_1">
  <metadata id="CorelCorpID_0Corel-Layer"/>
  <path class="fil0" d="M197.32 101.53l29.56 -0.01c10.38,0.01 10.39,15.8 1.95,17.62 -2.09,0.45 -27.14,0.16 -31.56,0.15l0.06 -17.75zm-25 -9.52c1.7,0.41 37.01,0.7 41.81,0.76 2.29,0.03 4.56,0.08 6.84,0.1 2.36,0.03 4.99,-0.32 5.38,1.93 -1.12,1.76 -3.55,1.27 -5.69,1.29 -7.18,0.06 -47.48,0.21 -48.04,0.73 -0.33,0.38 -0.19,0.06 -0.3,0.82 -0.04,0.26 -0.04,0.9 -0.03,1.19 0.01,9.9 -0.48,30.49 -0.01,37.53 2.82,0.3 46.16,0.08 50.26,0.08 7.16,0 17.38,0.8 23.46,-1.67 18.95,-7.71 18.91,-39.62 0.74,-47.98 -5.8,-2.67 -16.51,-1.77 -23.58,-1.74 -8.45,0.04 -16.9,0.07 -25.36,0.11l-0.02 -16.62 53.24 -0 0.15 -16.46 -78.77 0.01 -0.08 39.94z"/>
  <path class="fil0" d="M-0 135.71l26.87 0.11c0.99,-1.67 2.14,-3.2 3.28,-4.83l23.18 -34.28c-4.65,-0.45 -3.7,0.32 -5.09,0.74 -2.51,0.76 -1.75,-1.56 -4.17,-1.56 -0.81,0.09 -4.56,4.78 -8.16,1.17l-1.88 -2.25 1.66 -2.17c1.5,-1.71 4.01,-1.93 5.88,-0.94 2.32,1.23 0.3,1.77 3.75,1.78 1.7,-2.72 2.16,-1.28 4.42,-1 1.37,0.17 4.81,0.06 6.29,-0.02 1.44,-1.93 3.74,-6.35 5.05,-7.56l0 7.59 18.4 -0.01c0.4,-4.49 0.01,-8.32 -0.03,-12.66l1.92 0.03c-0.05,4.42 -0.32,8.21 -0.03,12.63l5.15 0 0 -40.47 -26.55 0 -17.2 25.91c-2.85,4.35 -5.64,8.47 -8.56,12.9 -1.49,2.26 -2.79,4.25 -4.32,6.58 -1.35,2.05 -2.97,4.62 -4.39,6.41l-0.05 -51.6 -25.39 0.01 -0.02 83.49z"/>
  <path class="fil0" d="M-0 45l64.93 0.02 -0 -44.03 -18.1 -0.05c-0.6,6.98 0.61,31.8 -0.24,35.24l-5.04 -0.02 -0.09 -35.22 -17.98 0.01c-0.77,7.25 0.71,31.06 -0.24,35.23l-5.03 -0.01 -0.12 -35.23 -17.98 0 -0.1 44.06z"/>
  <path class="fil0" d="M89.96 91.95c3.23,0.19 22.35,0.49 24.38,-0.04 0,-3.5 -0.42,-16.57 0.36,-18.98 1.87,-5.82 8.38,-4.52 14.72,-4.52 13,0 26.01,0 39.01,0l-0.01 -16.19c-9.92,-0.03 -19.8,-0.06 -29.67,-0.1 -5.76,-0.02 -25.45,-0.36 -29.57,0.01 -8.7,0.78 -15.03,5.61 -17.64,11.96 -1.98,4.83 -1.59,7.48 -1.59,12.99 0,4.96 -0.04,9.93 0.01,14.88z"/>
  <path class="fil0" d="M168.64 136.22l-0 -16.6 -47 0.2c-5.8,0.02 -7.32,-1.94 -7.31,-7.59 0.02,-5.02 -0,-10.05 0,-15.07l-24.39 0.13c0.01,4.91 0,9.77 0,14.63 0,5.5 -0.43,8.09 1.85,12.72 3.06,6.21 8.86,11.08 18.01,11.56 9.25,0.49 19.86,0.02 29.26,0.02 9.86,0 19.72,-0 29.57,-0z"/>
  <path class="fil0" d="M214.23 185.66l18.21 -0c0.9,-2.44 3.74,-7.15 5.19,-9.75 0.98,-1.75 1.69,-3.21 2.64,-4.91 0.89,-1.6 1.97,-3.37 2.74,-4.81l0.03 19.47 17.22 -0 0 -43.42 -16.77 -0c-1,0.52 -0.2,-0.2 -1.07,1l-10.94 18.32 -0.06 -19.32 -17.2 0 0 43.42z"/>
  <path class="fil0" d="M93.06 148.84c3.8,-0.98 4.06,1.6 4.08,4.77l-0 18.36c0,2.54 0.48,6.59 -2,7.13 -4.23,0.92 -4.19,-1.66 -4.25,-4.94l0.11 -22.88c0.23,-1.75 0.5,-2.03 2.05,-2.44zm-4.49 -7.24c-6.77,0.66 -13.07,2.6 -16.07,6.74 -2.44,3.38 -2.69,27.04 -0.05,31.13 6.08,9.42 36.27,9.7 43.07,0.06 2.51,-3.55 1.79,-15.99 1.71,-21.26 -0.13,-8.94 -1.29,-11.7 -8.11,-14.53 -5.64,-2.35 -14,-2.77 -20.55,-2.13z"/>
  <path class="fil0" d="M164.49 37.46l-0.13 7.46c3.48,0.45 10.58,0.05 14.2,-0.27 4.55,-0.41 7.88,-1.62 9.07,-5.51 1.27,-4.16 0.53,-23.61 0.57,-29.35l5.22 0.04 -0.01 35.2 18.07 -0.01 -0 -44.02 -41.25 -0.06c-0.37,2.27 -0.1,27.09 -0.12,31.65 -0.02,5 -1.16,4.45 -5.63,4.88z"/>
  <path class="fil0" d="M47.48 168.23l-20.1 0c-0,2.49 0.19,5.88 -0.16,8.27 -0.23,1.57 -0.41,2.06 -1.55,2.44 -1.18,0.39 -2.9,0.4 -3.95,-0.06 -2.04,-0.88 -1.56,-4.64 -1.56,-6.92l-0 -17.11c0,-3.08 -0.33,-5.69 2.66,-6.09 3.38,-0.45 4.37,0.35 4.53,3.59 0.14,2.86 0.02,5.94 0.03,8.82l20.1 -0c0.01,-8.16 0.43,-13.28 -5.92,-16.45 -9.72,-4.84 -39.54,-6.14 -41.24,7.63 -0.42,3.43 -0.26,7.37 -0.26,10.9 0,6.71 -0.81,14.55 3.54,18.5 7.78,7.06 38.63,6.71 42.71,-3.31 1.17,-2.88 1.16,-6.89 1.17,-10.21z"/>
  <path class="fil0" d="M72.37 45.01l18.09 -0 0.07 -18.68c9.56,0.42 3.59,8.71 6.1,15.68 1.4,3.88 3.53,3 7.9,3 3.67,0 7.34,0.01 11.01,-0 -1.4,-2.19 -2.12,-3.06 -2.22,-6.52 -0.17,-5.98 1.64,-10.9 -3.83,-13.68 -2.23,-1.13 -5.04,-1.14 -6.79,-1.9 1.55,-0.71 4.47,-0.8 6.75,-1.92 1.91,-0.94 3.52,-2.18 3.87,-4.92 0.31,-2.43 -0.03,-6.14 0,-8.73 0.06,-4.27 0.78,-4.22 2.09,-6.42 -3.63,-0.02 -7.25,-0 -10.88,-0 -7.93,0 -8.2,-0.86 -8.67,12.97 -0.14,4.23 -1.03,5.4 -5.34,5.6l-0.08 -18.52 -17.94 -0.05 -0.14 44.08z"/>
  <path class="fil0" d="M138.96 7.68c3.62,-1.36 3.67,2.12 3.69,4.98l-0 18.05c0,2.47 0.48,6.93 -1.57,7.6 -4.03,1.32 -3.98,-2.16 -4.01,-5.11l-0.01 -18.05c-0,-4.35 -0.56,-6.54 1.9,-7.46zm-4.13 -7.39c-6.48,0.73 -12.24,2.96 -14.54,7.28 -1.96,3.67 -1.33,15.77 -1.28,20.65 0.08,8.8 0.57,11.9 6.85,15.08 5.06,2.56 12.65,3 18.81,2.39 6.72,-0.67 12.23,-2.91 14.67,-7.17 2.06,-3.61 1.4,-15.75 1.37,-20.57 -0.06,-8.45 -0.54,-12.19 -6.72,-15.23 -5.21,-2.56 -12.73,-3.16 -19.15,-2.43z"/>
  <path class="fil0" d="M161.27 142.24l-20.1 -0c0,5.03 0,10.07 0,15.1 0,5.25 -0.56,9.83 2.95,12.37 4.48,3.25 13.43,2.81 19.09,1.52 2.26,-0.52 4,-1.5 5.85,-2.05l0.03 16.32 20.1 0.16 -0 -43.43 -20.02 0.01c-0.43,3.67 -0.07,9.68 -0.07,13.54 0,4.77 1.23,10.06 -3.88,10.42 -4.98,0.35 -3.95,-4.05 -3.95,-9.79 0,-4.72 0,-9.44 0,-14.17z"/>
  <path class="fil0" d="M234.34 29.19c0.27,-3.13 2.24,-15.57 3.46,-17.51l2.63 17.57 -6.09 -0.05zm-19.56 15.82l18.65 0.01 0.71 -6.01c0.32,-2.5 -0.28,-1.93 6.87,-1.93l0.91 7.76c2.33,0.6 14.98,0.18 18.35,0.18 -1.36,-7.71 -5.57,-24.24 -7.76,-33.18 -0.61,-2.5 -1.82,-9.12 -2.68,-10.9l-25.77 -0 -9.3 44.08z"/>
  <path class="fil0" d="M60.86 135.81l25.27 0 0.14 -39.19 -5.14 0c-0.33,5.6 -0.02,5.56 0.04,10.65 0.03,2.21 -0.14,1.94 -1.96,1.94l0.03 -12.47 -18.23 -0.17 -0.16 39.24z"/>
 </g>
</svg>
