<?xml version="1.0" encoding="UTF-8"?>
<!DOCTYPE svg PUBLIC "-//W3C//DTD SVG 1.1//EN" "http://www.w3.org/Graphics/SVG/1.1/DTD/svg11.dtd">
<!-- Creator: CorelDRAW 2021 (64-Bit) -->
<svg xmlns="http://www.w3.org/2000/svg" xml:space="preserve" width="27.8622mm" height="21.2113mm" version="1.1" style="shape-rendering:geometricPrecision; text-rendering:geometricPrecision; image-rendering:optimizeQuality; fill-rule:evenodd; clip-rule:evenodd"
viewBox="0 0 674.05 513.15"
 xmlns:xlink="http://www.w3.org/1999/xlink"
 xmlns:xodm="http://www.corel.com/coreldraw/odm/2003">
 <defs>
  <style type="text/css">
   <![CDATA[
    .fil0 {fill:black}
    .fil1 {fill:black;fill-rule:nonzero}
   ]]>
  </style>
 </defs>
 <g id="Слой_x0020_1">
  <metadata id="CorelCorpID_0Corel-Layer"/>
  <g id="_2908337869856">
   <path class="fil0" d="M510.89 332.2l-0 -48.35c6.65,-1.78 49.97,-0.39 60.43,-0.47 8.76,-0.07 19.29,-1.74 26.86,3.27 14.03,9.3 12.15,33.66 0.82,42.1 -7.2,5.36 -18.32,3.58 -26.94,3.58 -12.33,0 -52.09,0.6 -61.16,-0.14zm1.31 -140.14l138.16 -0.21 0.02 -45.57 -204.33 0.11c-0.28,11.63 -0.81,107.08 0.32,111 23.73,1.02 48.33,0.74 72.16,1.17l53.11 0.89c4.78,0.1 13.14,-0.82 14.24,4.99 -2.19,4.89 -9.5,3.67 -14.56,3.7 -41.84,0.3 -83.68,0.87 -125.52,1.34l-0.01 110.64c44.01,-1.1 89.42,-0.06 133.59,-0.06 18.39,0 44.2,2.51 60.5,-6.06 47.27,-24.84 43.88,-109.37 -0.56,-131.39 -15.93,-7.89 -43.24,-5.19 -61.41,-5.15 -21.91,0.06 -43.9,0.46 -65.95,0.35l0.22 -45.76z"/>
   <path class="fil0" d="M206.12 258.24c1.14,-12.26 -0.08,-22.89 0.02,-34.96l4.69 0.02c-0.21,10.86 -1.68,24.58 0.1,35.07l13.37 0 -0.06 -112.33 -69.17 0.33c-7.3,9.28 -15.51,25.1 -22.24,35.65 -7.77,12.18 -63.42,104.02 -66.67,106.72l-0.23 -142.19 -65.93 0.3 -0 230.92c3.45,1.1 64.98,1.15 70.03,0.18 8.53,-14.79 67.08,-103.5 68.3,-108.29 -2.34,-0.05 -5.21,-0.17 -7.51,-0.09 -7.11,0.27 -7.11,7.32 -13.18,-2.03l-5.22 -0.05c-5.42,9.42 -15.77,8.03 -20.01,2.37 -0.6,-0.8 -3.85,-5.19 -3.99,-5.5 1.29,-2.55 5.82,-8.52 10.3,-9.43 7.14,-1.47 9.85,1.23 13.78,6.11 7.62,0.33 3.74,0.09 7.5,-3.18 2.7,-2.34 4.07,-1.07 6.47,-0.11 4.02,1.6 14.21,0.67 18.98,0.56l12.68 -20.37 0.29 20.43 47.71 -0.13z"/>
   <polygon class="fil0" points="0,124.33 168.77,124.35 168.76,2.5 121.49,2.54 121.4,99.85 107.89,99.89 107.84,2.6 60.96,2.52 60.71,99.54 47.22,99.91 47.07,2.55 0.24,2.51 "/>
   <path class="fil0" d="M296.92 256.95c0,-7.88 -0.55,-46.55 0.36,-51.01 3.7,-18.2 22.64,-14.24 37.24,-14.24 33.7,0 68.88,0.98 102.52,-0.08l-0.19 -45.02c-12.32,-0.18 -146.78,-1.33 -156.95,0.17 -20.52,3.02 -36.17,15.7 -43.24,35.15 -4.51,12.4 -3.22,23.33 -3.22,36.29 0,12.91 -0.04,25.83 0.02,38.8l63.47 -0.06z"/>
   <path class="fil0" d="M233.84 271.47c-1.41,5.88 -0.4,31.25 -0.4,39.12 0,13.85 -1.25,21.61 3.88,34.87 7.46,19.28 24.56,30.92 44.75,33.71 9.9,1.37 28.44,0.28 39.25,0.28 14.79,0 110.21,0.82 116.25,-0.34l-0.01 -45.44c-5.11,-1.01 -93.54,0.04 -101.58,0.03 -12.62,-0.01 -36.45,4.68 -38.9,-12.13 -1.14,-7.77 0.54,-38.07 -0.27,-50.49l-62.98 0.39z"/>
   <path class="fil0" d="M440.59 2.96c-1.23,4.75 -0.34,70.8 -0.32,85.22 0.01,13.43 -0.33,15.16 -14.56,14.93l-0.41 21.26c12.8,-0.18 26.12,0.27 38.75,-1.24 28.88,-3.44 23.44,-24.54 23.44,-55.49 0,-13.44 -0.29,-27.22 0.08,-40.62l13.26 0.05 0.02 97.33 47.03 -0.05 0.04 -121.88c-13.11,0.33 -103.63,-0.74 -107.33,0.48z"/>
   <path class="fil0" d="M187.25 124.21c6.41,0.43 43.3,0.92 47.2,-0.49l0.18 -50.91c23.89,1.43 9.4,22.27 15.05,42.26 3.28,11.63 9.19,9.27 19.59,9.27 9.87,0 19.94,-0.2 29.79,0.05 -3.46,-7.98 -5.36,-8.42 -5.58,-18.59 -0.45,-20.5 7.23,-38.3 -28.25,-42.3 10.82,-0.84 26.81,-6.19 28.31,-18.57 1.27,-10.58 -1.56,-23.88 1.11,-34.06 1.2,-4.6 2.98,-5.1 4.24,-8.38l-42.57 0.26c-9.28,2.8 -8.03,27.24 -8.28,34.84 -0.37,10.84 -0.9,15.75 -13.33,16.18l-0.33 -50.87 -47 -0.4 -0.12 121.71z"/>
   <path class="fil0" d="M358.72 21.46c10.4,-4.23 10.3,6.5 10.33,13.2 0.03,8.31 0.03,16.62 0.03,24.93 0,7.04 2.2,43.08 -3.43,45.78 -3.04,1.46 -8.03,1.23 -9.52,-2.12 -2.05,-4.57 -1.15,-52.92 -1.15,-61.25 0,-4.94 -1.59,-18.36 3.75,-20.53zm-9.87 -20.63c-13.72,1.65 -32.2,7 -38.2,21 -4,9.36 -2.84,44.28 -2.75,56.08 0.14,18.44 -0.91,31.81 17.31,41.55 21.86,11.69 76.31,11.85 88,-14.2 4.05,-9.02 3.08,-44.44 2.9,-55.95 -0.29,-18.63 1.23,-31.84 -17.13,-41.75 -14.16,-7.65 -34.51,-8.62 -50.14,-6.74z"/>
   <path class="fil0" d="M614.21 33.67l1.32 -2.52 0.83 3.25c-1.19,9.6 5.02,34.85 5.73,46.4l-15.35 -0.24c0.83,-12.49 7.71,-42.29 7.47,-46.89zm-58.58 90.64l48.74 0.05 2.42 -21.43 16.66 -0.39 2.45 21.51 48.14 0.33 -26.7 -121.79c-8.11,-0.2 -64.39,-0.61 -68.16,0.34l-23.55 121.39z"/>
   <path class="fil0" d="M158.59 295.78l-0.37 82.1 65.83 0.06 -0.13 -108.38 -13.44 0.55c-0.64,10.07 1.22,26.02 -0.08,34.33l-4.36 0.05 -0.11 -34.84 -47.32 -0.18 -0.01 26.31z"/>
   <path class="fil0" d="M224.05 377.94l-65.83 -0.06 0.37 -82.1c-0.9,2.29 -1.93,79.11 -0.51,82.8 7.04,0.48 63.01,1.02 65.96,-0.65z"/>
   <path class="fil0" d="M614.21 33.67c1.73,0.55 0.89,-0.01 2.15,0.73l-0.83 -3.25 -1.32 2.52z"/>
   <path class="fil1" d="M52.29 459.88l-22.16 0 0 -15.8c0,-4.6 -0.24,-7.46 -0.7,-8.61 -0.47,-1.13 -1.5,-1.71 -3.1,-1.71 -1.79,0 -2.94,0.69 -3.43,2.07 -0.48,1.4 -0.73,4.39 -0.73,8.99l0 42.22c0,4.43 0.25,7.3 0.73,8.67 0.48,1.34 1.58,2.01 3.26,2.01 1.63,0 2.71,-0.67 3.21,-2.03 0.5,-1.34 0.75,-4.52 0.75,-9.53l0 -11.45 22.16 0 0 3.55c0,9.43 -0.63,16.12 -1.87,20.06 -1.24,3.95 -4,7.4 -8.25,10.37 -4.27,2.97 -9.5,4.45 -15.74,4.45 -6.47,0 -11.82,-1.25 -16.03,-3.76 -4.19,-2.51 -6.99,-5.98 -8.35,-10.43 -1.36,-4.45 -2.05,-11.12 -2.05,-20.04l0 -26.58c0,-6.56 0.22,-11.46 0.63,-14.75 0.43,-3.28 1.67,-6.44 3.76,-9.47 2.08,-3.03 4.97,-5.43 8.66,-7.17 3.69,-1.74 7.94,-2.61 12.75,-2.61 6.51,0 11.89,1.34 16.14,4.04 4.23,2.69 7.01,6.04 8.35,10.07 1.33,4.03 1.99,10.28 1.99,18.77l0 8.65z"/>
   <polygon id="_1" class="fil1" points="104.75,420.19 104.75,438.37 91.73,438.37 91.73,511.19 69.57,511.19 69.57,438.37 56.45,438.37 56.45,420.19 "/>
   <path id="_2" class="fil1" d="M147.98 420.19l12.66 91 -22.61 0 -1.2 -16.34 -7.98 0 -1.2 16.34 -22.9 0 11.22 -91 32 0zm-11.74 58.56c-1.06,-10.32 -2.17,-23.09 -3.35,-38.33 -2.19,17.49 -3.57,30.26 -4.16,38.33l7.51 0z"/>
   <path id="_3" class="fil1" d="M164.44 420.19l22.29 0c6.02,0 10.65,0.5 13.9,1.51 3.23,1.02 5.67,2.47 7.3,4.37 1.63,1.92 2.73,4.24 3.32,6.94 0.57,2.72 0.86,6.92 0.86,12.62l0 7.92c0,5.79 -0.56,10.03 -1.69,12.67 -1.11,2.67 -3.17,4.72 -6.15,6.14 -2.99,1.42 -6.9,2.13 -11.73,2.13l-5.93 0 0 36.7 -22.16 0 0 -91zm22.16 15.53l0 23.18c0.63,0.04 1.17,0.06 1.61,0.06 2.03,0 3.43,-0.53 4.21,-1.61 0.77,-1.05 1.17,-3.28 1.17,-6.65l0 -7.5c0,-3.11 -0.45,-5.14 -1.36,-6.08 -0.9,-0.94 -2.78,-1.4 -5.63,-1.4z"/>
   <path id="_4" class="fil1" d="M269.97 489.91c0,6.77 -0.82,11.64 -2.47,14.59 -1.63,2.97 -4.14,4.81 -7.48,5.56 -3.35,0.75 -8.68,1.13 -15.99,1.13l-25.59 0 0 -91 22.16 0 0 31.18 3.43 0c6.81,0 11.99,0.42 15.49,1.28 3.5,0.86 6.12,2.76 7.86,5.71 1.74,2.93 2.6,7.56 2.6,13.84l0 17.7zm-22.16 -2.74l0 -13.15c0,-3.83 -0.36,-6.15 -1.08,-6.98 -0.72,-0.82 -2.76,-1.28 -6.13,-1.4l0 29.91c2.82,0 4.72,-0.38 5.7,-1.15 1,-0.77 1.51,-3.18 1.51,-7.23zm51.85 24.03l-22.16 0 0 -91 22.16 0 0 91z"/>
   <path id="_5" class="fil1" d="M357 511.19l-18.5 0 0 -41.4 -11.51 41.4 -19.26 0 0 -91 18.5 0 0 41.07 12.37 -41.07 18.39 0 0 91zm-18.61 -110.9l8.93 0c-0.22,5.12 -1.6,9.22 -4.18,12.35 -2.58,3.13 -6.15,4.68 -10.74,4.68 -4.63,0 -8.21,-1.57 -10.76,-4.72 -2.55,-3.13 -3.91,-7.23 -4.12,-12.31l8.93 0c0.43,5.14 2.4,7.71 5.95,7.71 3.57,0 5.58,-2.57 5.99,-7.71z"/>
   <path id="_6" class="fil1" d="M435.36 473.53c0,9.15 -0.2,15.61 -0.61,19.4 -0.39,3.82 -1.65,7.29 -3.76,10.43 -2.12,3.14 -4.99,5.56 -8.59,7.25 -3.6,1.69 -7.8,2.53 -12.59,2.53 -4.55,0 -8.62,-0.8 -12.25,-2.4 -3.62,-1.59 -6.54,-3.97 -8.73,-7.15 -2.2,-3.18 -3.52,-6.65 -3.94,-10.39 -0.41,-3.76 -0.63,-10.32 -0.63,-19.67l0 -15.57c0,-9.14 0.2,-15.61 0.61,-19.4 0.39,-3.82 1.65,-7.29 3.76,-10.43 2.12,-3.14 4.99,-5.56 8.59,-7.25 3.6,-1.69 7.8,-2.53 12.58,-2.53 4.56,0 8.63,0.81 12.25,2.4 3.62,1.59 6.54,3.97 8.73,7.15 2.21,3.18 3.52,6.65 3.95,10.39 0.41,3.76 0.63,10.32 0.63,19.67l0 15.57zm-22.16 -29.89c0,-4.22 -0.22,-6.92 -0.65,-8.11 -0.43,-1.17 -1.31,-1.76 -2.63,-1.76 -1.13,0 -1.99,0.48 -2.6,1.44 -0.59,0.94 -0.9,3.76 -0.9,8.44l0 42.47c0,5.27 0.2,8.53 0.59,9.76 0.39,1.25 1.31,1.86 2.75,1.86 1.47,0 2.42,-0.71 2.83,-2.13 0.41,-1.42 0.61,-4.81 0.61,-10.16l0 -41.8z"/>
   <path id="_7" class="fil1" d="M495.32 459.88l-22.16 0 0 -15.8c0,-4.6 -0.23,-7.46 -0.7,-8.61 -0.46,-1.13 -1.5,-1.71 -3.1,-1.71 -1.79,0 -2.94,0.69 -3.42,2.07 -0.49,1.4 -0.73,4.39 -0.73,8.99l0 42.22c0,4.43 0.25,7.3 0.73,8.67 0.48,1.34 1.58,2.01 3.26,2.01 1.63,0 2.71,-0.67 3.21,-2.03 0.5,-1.34 0.75,-4.52 0.75,-9.53l0 -11.45 22.16 0 0 3.55c0,9.43 -0.63,16.12 -1.87,20.06 -1.24,3.95 -4,7.4 -8.24,10.37 -4.27,2.97 -9.51,4.45 -15.74,4.45 -6.47,0 -11.82,-1.25 -16.03,-3.76 -4.19,-2.51 -6.99,-5.98 -8.35,-10.43 -1.36,-4.45 -2.05,-11.12 -2.05,-20.04l0 -26.58c0,-6.56 0.22,-11.46 0.63,-14.75 0.43,-3.28 1.67,-6.44 3.76,-9.47 2.08,-3.03 4.97,-5.43 8.66,-7.17 3.69,-1.74 7.94,-2.61 12.75,-2.61 6.51,0 11.89,1.34 16.14,4.04 4.23,2.69 7.01,6.04 8.36,10.07 1.33,4.03 1.99,10.28 1.99,18.77l0 8.65z"/>
   <path id="_8" class="fil1" d="M503.24 420.19l22.16 0 0.11 38.42c4.11,-0.12 6.22,-2.59 6.36,-7.42l0.41 -17.76c0.14,-6.54 1.33,-10.97 3.55,-13.25l20.44 0c-1.97,2.2 -2.94,6.79 -2.91,13.71l0.11 15.61c0.07,9.43 -4.89,14.82 -14.92,16.13 10.02,1.3 14.99,6.77 14.92,16.35l-0.11 14.48c-0.04,6.9 0.93,11.81 2.91,14.73l-20.44 0c-2.37,-2.28 -3.55,-6.71 -3.55,-13.27l0 -17.74c0,-2.26 -0.63,-4.06 -1.88,-5.43 -1.27,-1.36 -2.91,-2.07 -4.9,-2.11l-0.11 38.54 -22.16 0 0 -91z"/>
   <path id="_9" class="fil1" d="M611.38 473.53c0,9.15 -0.2,15.61 -0.61,19.4 -0.39,3.82 -1.65,7.29 -3.76,10.43 -2.12,3.14 -4.99,5.56 -8.59,7.25 -3.6,1.69 -7.8,2.53 -12.59,2.53 -4.55,0 -8.62,-0.8 -12.25,-2.4 -3.62,-1.59 -6.54,-3.97 -8.73,-7.15 -2.2,-3.18 -3.51,-6.65 -3.94,-10.39 -0.41,-3.76 -0.63,-10.32 -0.63,-19.67l0 -15.57c0,-9.14 0.2,-15.61 0.61,-19.4 0.39,-3.82 1.65,-7.29 3.76,-10.43 2.12,-3.14 4.99,-5.56 8.59,-7.25 3.6,-1.69 7.8,-2.53 12.58,-2.53 4.56,0 8.63,0.81 12.25,2.4 3.62,1.59 6.54,3.97 8.73,7.15 2.2,3.18 3.52,6.65 3.94,10.39 0.41,3.76 0.63,10.32 0.63,19.67l0 15.57zm-22.16 -29.89c0,-4.22 -0.22,-6.92 -0.65,-8.11 -0.43,-1.17 -1.31,-1.76 -2.63,-1.76 -1.13,0 -1.99,0.48 -2.6,1.44 -0.59,0.94 -0.9,3.76 -0.9,8.44l0 42.47c0,5.27 0.2,8.53 0.59,9.76 0.39,1.25 1.31,1.86 2.75,1.86 1.47,0 2.42,-0.71 2.83,-2.13 0.41,-1.42 0.61,-4.81 0.61,-10.16l0 -41.8z"/>
   <path id="_10" class="fil1" d="M673.7 511.19l-22.16 0 0 -72.82 -6.46 0 0 51.52c0,6.79 -0.82,11.66 -2.46,14.61 -1.65,2.97 -4.12,4.81 -7.44,5.56 -3.34,0.75 -8.62,1.13 -15.9,1.13l-3.46 0 0 -15.65c2.71,0 4.55,-0.37 5.58,-1.07 1.02,-0.71 1.52,-3.14 1.52,-7.31l0 -66.97 50.78 0 0 91z"/>
  </g>
 </g>
</svg>
