<?xml version="1.0" encoding="UTF-8"?>
<!DOCTYPE svg PUBLIC "-//W3C//DTD SVG 1.1//EN" "http://www.w3.org/Graphics/SVG/1.1/DTD/svg11.dtd">
<!-- Creator: CorelDRAW 2021 (64-Bit) -->
<svg xmlns="http://www.w3.org/2000/svg" xml:space="preserve" width="27.8623mm" height="20.4676mm" version="1.1" style="shape-rendering:geometricPrecision; text-rendering:geometricPrecision; image-rendering:optimizeQuality; fill-rule:evenodd; clip-rule:evenodd"
viewBox="0 0 1399.38 1027.98"
 xmlns:xlink="http://www.w3.org/1999/xlink"
 xmlns:xodm="http://www.corel.com/coreldraw/odm/2003">
 <defs>
  <style type="text/css">
   <![CDATA[
    .fil0 {fill:black}
    .fil1 {fill:black;fill-rule:nonzero}
   ]]>
  </style>
 </defs>
 <g id="Слой_x0020_1">
  <metadata id="CorelCorpID_0Corel-Layer"/>
  <path class="fil0" d="M1063.57 556.51l157.75 -0.07c55.39,0.06 55.44,85.53 10.38,95.35 -11.14,2.43 -144.81,0.86 -168.43,0.8l0.3 -96.08zm2.44 -178.64l284.78 0 0.12 -89.07 -420.31 0.02c-0.06,28.68 -1.66,200.23 0.24,216.15 10.33,2.7 60.05,1.59 74.64,1.82l185.97 2.89c12.26,0.16 25.04,-1.37 27.06,10.45 -6.14,9.83 -20.89,6.88 -32.05,6.97 -37.93,0.34 -251.65,1.09 -254.7,3.95 -2.76,2.59 -1.82,4.36 -1.74,14.29l-0.13 199.86 344.57 0.24c119.17,0 151.91,-137.68 103.23,-222.21 -31.89,-55.37 -76.57,-56.38 -128.14,-56.18 -61.15,0.25 -122.3,0.51 -183.47,0.81l-0.06 -13.42 -0.01 -76.56z"/>
  <path class="fil0" d="M429.94 438.91l10.52 0.36c-1.18,31.94 -2.37,36.81 0.13,68.06l27.49 0.21 -0.02 -219.06 -143.68 0.33 -163.5 246.39c-7.39,11.24 -15.6,24.23 -23.29,33.69l-0.22 -279.34 -137.37 0.63 0.19 451.9 145.25 -0.09c20.69,-34.43 136.69,-197.86 143.18,-211.68 -34.57,-1.76 -19.42,6.45 -32.97,4.64 -9,-1.21 -4.77,-6.12 -13.8,-8.99 -10.59,0.01 -7.71,3.14 -14.37,8.42 -15.99,12.68 -34.79,-0.41 -43.35,-14.26 2.75,-5.58 1.55,-1.91 5.35,-6.88 4.26,-5.55 7.83,-11.62 19.09,-12.87 19.35,-2.15 20.74,9.76 28.23,12.52l8.43 0.03c9.23,-14.71 11.69,-6.95 23.91,-5.43 7.43,0.92 26.05,0.31 34.06,-0.12 7.8,-10.45 20.22,-34.39 27.34,-40.9 0.01,11.82 -1.36,29.9 1.08,41.11l98.4 -0.27 1.46 -22.56 -1.53 -45.84z"/>
  <path class="fil0" d="M349.07 243.91l0.06 -237.93 -95.4 0.02c-0.04,25.83 1.85,178.43 -1.2,190.61 -8.66,1.41 -21.59,2.53 -30.02,-0.85l-0.09 -189.77 -96.48 -0.06 0.06 189.84 -27.81 0.1 -0.82 -190.67 -96.86 -0.09 -0.52 238.51 349.07 0.29z"/>
  <path class="fil0" d="M618.4 504.45c0.02,-19.88 -2.42,-90.49 2.4,-104.01 10.81,-30.32 46.74,-23.22 80.91,-23.22 69.83,0 139.66,0 209.5,0l-0.27 -87.66c-32.53,-0.1 -295.73,-2.75 -320.47,-0.52 -47.09,4.22 -81.37,30.36 -95.5,64.73 -10.89,26.5 -8.59,41.77 -8.59,72.02 0,26.26 -0.23,52.63 0.05,78.87 17.47,1.04 120.99,2.63 131.97,-0.22z"/>
  <path class="fil0" d="M486.38 533.86c0.04,26.87 0.01,53.73 0.01,80.59 0,29.99 -2.11,43.07 10.57,68.27 16.65,33.1 48,58.9 96.91,61.48 50.57,2.67 108.65,0.13 160.05,0.13 52.8,0 105.6,-0.01 158.4,-0.01l-0.03 -89.83c-69.61,0.53 -139.27,0.59 -208.9,0.88 -32.21,0.14 -75.81,8.06 -83.87,-21.06 -3.37,-12.17 -1.15,-83.12 -1.13,-101.46l-132.02 1.01z"/>
  <path class="fil0" d="M886.08 202.54c-2.77,9.19 -1.14,30.5 -1.12,41.2 25.65,0.04 52.27,0.32 77.68,-2.11 24.64,-2.37 42.08,-9.82 47.9,-30.95 6.63,-24.07 2.76,-125.46 2.76,-157.65l28.15 0.16 0 190.59 97.33 -0.11 -0.01 -237.99 -222.44 -0.56c-2.81,25.78 -0.39,130.16 -0.41,169.59 -0.02,26.82 -3.17,27.37 -29.84,27.84z"/>
  <path class="fil0" d="M389.36 242.82c8.16,2.03 89.85,2.04 97.42,-0.11l0.41 -100.06c23.49,1.08 30.24,6.82 30.08,30.34 -0.5,75.49 2.25,70.76 46.33,70.76 14.97,0 45.12,1.65 58.27,-0.7 -29.32,-22.5 9.99,-84.18 -29.96,-106.83 -10.3,-5.84 -25.4,-7.07 -35.97,-12.06 0.46,-0.24 1.17,-1.01 1.44,-0.59l16.58 -4.12c16.79,-4.5 34.5,-13.62 36.16,-34.18 1.93,-24.08 -6.27,-68.51 11.51,-79.76 -16.56,-1.76 -40.64,-0.39 -58.02,-0.39 -44.72,0 -45.2,-2.95 -47.69,70.27 -0.78,23.03 -4.85,29.21 -28.72,30.22l-0.41 -99.8 -97.17 -0.66 -0.24 237.68z"/>
  <path class="fil0" d="M748.2 41.55c19.27,-6.82 19.64,11.72 19.72,27.02l-0.01 99.38c-0.01,13.73 2.59,36.48 -9.6,39.74 -21.36,5.72 -20.28,-12.2 -20.47,-27.88l0.41 -123.84c1.06,-10.59 1.75,-11.51 9.94,-14.41zm-23.61 -39.76c-34.8,4.18 -66.11,16.5 -77.7,40.66 -8.08,16.83 -11.25,142.48 0.22,164.95 5.43,10.64 18.51,21.85 31.15,27.7 46.87,21.71 157.31,20.62 180.45,-28.05 9.55,-20.1 6.69,-85.57 6.44,-111.54 -0.43,-45.72 -2.55,-64.22 -36.96,-81.06 -28.89,-14.15 -68.96,-16.83 -103.61,-12.66z"/>
  <path class="fil0" d="M1260.96 158.41c1.81,-21 11.74,-80.33 18.08,-97.9l14.37 97.94 -32.45 -0.04zm-104.43 85.1l99.56 0.2 5.39 -43.04 34.23 0.15 5.87 42.91 97.8 0.03 -54.98 -238.3 -138.59 -0.32 -49.28 238.38z"/>
  <path class="fil0" d="M438.65 529.99c-1.6,20.5 1.76,61.6 -1.37,68.08l-8.79 0.06 -0.18 -68.1 -98.54 0.07 -0.51 212.01 137.15 0 0.12 -212.13 -27.89 0z"/>
  <path class="fil0" d="M348.55 243.91l1.5 -27.13c0,-31.22 1.39,-198.78 -0.7,-211.91 -11.97,-1.34 -89.94,-1.92 -98.01,0.71l-0.27 189.81 -27.52 0 -0.02 -190.41 -92.88 -0.66c-4.24,0.45 0.92,-0.45 -2.91,0.52 -0.37,0.09 -0.92,0.41 -1.2,0.5 -0.28,0.09 -0.75,0.4 -1.12,0.59l96.48 0.06 0.09 189.77c8.43,3.39 21.36,2.26 30.02,0.85 3.04,-12.17 1.16,-164.78 1.2,-190.61l95.4 -0.02 -0.06 237.93z"/>
  <path class="fil1" d="M83.43 934.55c-4.8,5.15 -11.11,9.24 -18.87,12.35 -7.76,3.07 -15.57,4.63 -23.53,4.63 -14.26,0 -24.65,-3.99 -31.14,-11.97 -6.45,-7.98 -9.7,-20.33 -9.7,-37.07l0 -110.31 59.95 0 0 103.9c0,9 0.78,15.22 2.33,18.58 1.55,3.36 4.12,5.06 7.71,5.06 8.82,0 13.24,-7.68 13.24,-23.1l0 -104.43 59.96 0 0 230.85 -59.96 0 0 -88.48z"/>
  <polygon id="_1" class="fil1" points="167.5,792.17 267.33,792.17 267.33,838.28 227.46,838.28 227.46,882.35 264.72,882.35 264.72,926.13 227.46,926.13 227.46,976.91 271.41,976.91 271.41,1023.02 167.5,1023.02 "/>
  <path id="_2" class="fil1" d="M434.55 1023.02l-59.96 0 0 -184.74 -17.46 0 0 130.7c0,17.22 -2.24,29.58 -6.65,37.07 -4.46,7.54 -11.15,12.21 -20.13,14.11 -9.02,1.89 -23.33,2.87 -43.03,2.87l-9.36 0 0 -39.69c7.32,0 12.32,-0.92 15.08,-2.72 2.77,-1.8 4.13,-7.98 4.13,-18.53l0 -169.9 137.38 0 0 230.85z"/>
  <path id="_3" class="fil1" d="M591.73 1023.02l-59.96 0 0 -103.9c-7.57,0 -12.47,1.26 -14.7,3.79 -2.23,2.48 -3.34,8.03 -3.34,16.58l0 83.52 -55.59 0 0 -68.83c0,-11.67 0.63,-20.57 1.94,-26.65 1.26,-6.08 4.21,-11.14 8.87,-15.13 4.66,-3.99 12.03,-7.3 22.12,-9.97 -13.78,-1.22 -22.7,-5.16 -26.83,-11.72 -4.08,-6.61 -6.11,-18.48 -6.11,-35.56 0,-15.42 1.89,-27.43 5.68,-36.14 3.78,-8.71 9.32,-14.94 16.49,-18.73 7.18,-3.79 15.47,-6.13 24.88,-6.91 9.37,-0.83 24.06,-1.22 44.05,-1.22l42.5 0 0 230.85zm-59.96 -140.09l0 -51.07 -2.86 0c-5,0 -8.78,1.12 -11.35,3.36 -2.57,2.24 -3.83,7 -3.83,14.34l0 12.7c0,8.56 1.06,14.15 3.2,16.73 2.13,2.63 7.08,3.94 14.85,3.94z"/>
  <path id="_4" class="fil1" d="M754.47 969.03c0,17.17 -2.22,29.53 -6.69,37.02 -4.42,7.54 -11.21,12.21 -20.23,14.11 -9.07,1.89 -23.48,2.87 -43.27,2.87l-69.23 0 0 -230.85 117.3 0 0 39.98 -57.34 0 0 39.11 9.26 0c18.44,0 32.46,1.07 41.92,3.26 9.46,2.19 16.54,7 21.25,14.49 4.71,7.44 7.03,19.17 7.03,35.12l0 44.9zm-59.95 -6.96l0 -33.37c0,-9.73 -0.97,-15.61 -2.91,-17.7 -1.94,-2.09 -7.47,-3.26 -16.59,-3.55l0 75.88c7.61,0 12.76,-0.97 15.42,-2.92 2.72,-1.94 4.08,-8.07 4.08,-18.34z"/>
  <polygon id="_5" class="fil1" points="908.98,1023.02 858.92,1023.02 858.92,918.01 827.78,1023.02 775.67,1023.02 775.67,792.17 825.74,792.17 825.74,896.36 859.21,792.17 908.98,792.17 "/>
  <polygon id="_6" class="fil1" points="1070.52,792.17 1070.52,1023.02 1010.56,1023.02 1010.56,926.13 993.1,926.13 993.1,1023.02 933.13,1023.02 933.13,792.17 993.1,792.17 993.1,874.76 1010.56,874.76 1010.56,792.17 "/>
  <path id="_7" class="fil1" d="M1234.43 892.86l-59.95 0 0 -40.08c0,-11.68 -0.63,-18.92 -1.89,-21.84 -1.26,-2.87 -4.07,-4.33 -8.39,-4.33 -4.85,0 -7.96,1.75 -9.27,5.25 -1.31,3.55 -1.99,11.14 -1.99,22.81l0 107.11c0,11.24 0.68,18.53 1.99,21.98 1.31,3.41 4.27,5.11 8.83,5.11 4.41,0 7.32,-1.7 8.68,-5.15 1.36,-3.41 2.04,-11.48 2.04,-24.17l0 -29.04 59.95 0 0 9c0,23.93 -1.7,40.91 -5.04,50.88 -3.34,10.02 -10.82,18.77 -22.31,26.31 -11.55,7.54 -25.71,11.29 -42.59,11.29 -17.51,0 -31.97,-3.16 -43.37,-9.53 -11.35,-6.37 -18.92,-15.18 -22.61,-26.46 -3.69,-11.29 -5.53,-28.21 -5.53,-50.83l0 -67.42c0,-16.63 0.58,-29.09 1.7,-37.41 1.17,-8.32 4.51,-16.34 10.19,-24.03 5.63,-7.68 13.44,-13.77 23.42,-18.19 9.99,-4.42 21.5,-6.61 34.49,-6.61 17.61,0 32.16,3.41 43.66,10.26 11.45,6.81 18.97,15.32 22.61,25.54 3.59,10.22 5.38,26.07 5.38,47.62l0 21.94z"/>
  <path id="_8" class="fil1" d="M1255.88 792.17l59.96 0 0.29 97.48c11.11,-0.29 16.83,-6.57 17.22,-18.82l1.12 -45.04c0.38,-16.59 3.59,-27.82 9.6,-33.61l55.31 0c-5.34,5.59 -7.96,17.22 -7.86,34.78l0.29 39.59c0.2,23.93 -13.24,37.6 -40.37,40.91 27.12,3.31 40.56,17.17 40.37,41.49l-0.29 36.72c-0.1,17.51 2.52,29.96 7.86,37.36l-55.31 0c-6.4,-5.79 -9.6,-17.03 -9.6,-33.66l0 -44.99c0,-5.74 -1.7,-10.31 -5.1,-13.77 -3.45,-3.45 -7.86,-5.25 -13.24,-5.35l-0.29 97.77 -59.96 0 0 -230.85z"/>
 </g>
</svg>
