<?xml version="1.0" encoding="UTF-8"?>
<!DOCTYPE svg PUBLIC "-//W3C//DTD SVG 1.1//EN" "http://www.w3.org/Graphics/SVG/1.1/DTD/svg11.dtd">
<!-- Creator: CorelDRAW 2021.5 -->
<svg xmlns="http://www.w3.org/2000/svg" xml:space="preserve" width="32.7993mm" height="22.8911mm" version="1.1" style="shape-rendering:geometricPrecision; text-rendering:geometricPrecision; image-rendering:optimizeQuality; fill-rule:evenodd; clip-rule:evenodd"
viewBox="0 0 4690.95 3273.88"
 xmlns:xlink="http://www.w3.org/1999/xlink"
 xmlns:xodm="http://www.corel.com/coreldraw/odm/2003">
 <defs>
  <style type="text/css">
   <![CDATA[
    .fil0 {fill:black}
   ]]>
  </style>
 </defs>
 <g id="Слой_x0020_1">
  <metadata id="CorelCorpID_0Corel-Layer"/>
  <g id="_2355808466000">
   <path class="fil0" d="M3556.39 2328.63l-0.03 -336.2c46.22,-12.39 347.5,-2.73 420.28,-3.26 60.93,-0.46 134.12,-12.13 186.76,22.75 97.54,64.66 84.52,234.11 5.71,292.78 -50.06,37.26 -127.42,24.87 -187.37,24.87 -85.73,0 -362.21,4.19 -425.34,-0.94zm9.1 -974.55l960.78 -1.46 0.13 -316.89 -1420.92 0.77c-1.93,80.86 -5.59,744.68 2.26,771.89 165.02,7.07 336.05,5.18 501.81,8.12l369.33 6.18c33.22,0.72 91.39,-5.66 99.03,34.7 -15.22,34.02 -66.08,25.49 -101.27,25.74 -290.97,2.13 -581.92,6.02 -872.88,9.32l-0.04 769.42c306.06,-7.61 621.86,-0.4 929,-0.4 127.86,0 307.35,17.46 420.71,-42.11 328.73,-172.74 305.16,-760.61 -3.88,-913.74 -110.8,-54.89 -300.71,-36.13 -427.03,-35.78 -152.34,0.43 -305.29,3.23 -458.59,2.46l1.56 -318.23z"/>
   <path class="fil0" d="M1435.68 1814.36c7.97,-85.28 -0.54,-159.17 0.11,-243.12l32.62 0.16c-1.49,75.54 -11.68,170.92 0.7,243.89l92.99 0.04 -0.4 -781.13 -480.99 2.32c-50.73,64.56 -107.87,174.56 -154.66,247.92 -54.02,84.68 -441,723.34 -463.64,742.12l-1.59 -988.82 -458.51 2.07 -0.01 1605.83c24,7.67 451.87,7.98 487,1.23 59.28,-102.85 466.5,-719.73 474.95,-753.06 -16.28,-0.34 -36.21,-1.2 -52.22,-0.6 -49.43,1.86 -49.41,50.89 -91.65,-14.14l-36.3 -0.31c-37.69,65.49 -109.64,55.82 -139.16,16.5 -4.19,-5.58 -26.77,-36.1 -27.79,-38.27 9,-17.72 40.45,-59.22 71.61,-65.62 49.64,-10.18 68.51,8.58 95.84,42.51 53,2.32 26,0.6 52.17,-22.11 18.81,-16.32 28.29,-7.47 44.99,-0.8 27.93,11.16 98.83,4.63 131.99,3.9l88.19 -141.68 1.99 142.06 331.75 -0.89z"/>
   <polygon class="fil0" points="3.59,864.61 1177.21,864.75 1177.15,17.39 848.41,17.62 847.81,694.35 753.84,694.6 753.5,18.06 427.51,17.48 425.78,692.22 331.91,694.76 330.88,17.72 5.25,17.46 "/>
   <path class="fil0" d="M2068.4 1805.4c0,-54.79 -3.85,-323.7 2.49,-354.76 25.74,-126.54 157.42,-99.01 258.95,-99.01 234.32,0 479,6.85 712.91,-0.59l-1.3 -313.06c-85.7,-1.22 -1020.73,-9.21 -1091.41,1.19 -142.73,21 -251.51,109.17 -300.68,244.42 -31.36,86.26 -22.43,162.21 -22.43,252.39 0,89.79 -0.24,179.6 0.13,269.79l441.34 -0.37z"/>
   <path class="fil0" d="M1629.7 1906.33c-9.78,40.88 -2.77,217.33 -2.77,272.05 0,96.28 -8.65,150.27 27.02,242.46 51.84,134.07 170.79,214.99 311.18,234.4 68.86,9.53 197.78,1.96 272.94,1.96 102.85,0 766.4,5.68 808.38,-2.39l-0.04 -316c-35.54,-6.99 -650.48,0.29 -706.36,0.23 -87.8,-0.07 -253.47,32.52 -270.54,-84.32 -7.89,-54.05 3.73,-264.72 -1.86,-351.08l-437.94 2.7z"/>
   <path class="fil0" d="M3067.5 20.54c-8.52,33.07 -2.33,492.35 -2.26,592.62 0.07,93.42 -2.29,105.39 -101.23,103.85l-2.87 147.87c89.03,-1.29 181.62,1.87 269.45,-8.6 200.86,-23.94 163.03,-170.68 163.03,-385.87 0,-93.48 -2.05,-189.27 0.54,-282.46l92.2 0.31 0.14 676.87 327.09 -0.37 0.3 -847.54c-91.19,2.29 -720.69,-5.11 -746.39,3.32z"/>
   <path class="fil0" d="M1305.71 863.8c44.56,2.95 301.1,6.42 328.22,-3.39l1.26 -354c166.16,9.95 65.39,154.88 104.62,293.89 22.83,80.91 63.87,64.47 136.27,64.47 68.64,0 138.67,-1.37 207.14,0.34 -24.04,-55.49 -37.26,-58.58 -38.82,-129.3 -3.12,-142.52 50.29,-266.32 -196.42,-294.18 75.24,-5.84 186.45,-43.03 196.84,-129.16 8.88,-73.57 -10.81,-166.06 7.75,-236.87 8.38,-31.98 20.74,-35.47 29.48,-58.29l-296.02 1.77c-64.54,19.48 -55.82,189.44 -57.61,242.3 -2.53,75.4 -6.28,109.55 -92.69,112.51l-2.33 -353.72 -326.83 -2.79 -0.84 846.41z"/>
   <path class="fil0" d="M2498.14 149.2c72.31,-29.42 71.64,45.21 71.82,91.78 0.23,57.78 0.2,115.56 0.2,173.35 0,48.98 15.29,299.58 -23.83,318.36 -21.15,10.15 -55.83,8.52 -66.25,-14.76 -14.23,-31.78 -8.01,-368.02 -8.01,-425.97 -0.01,-34.37 -11.07,-127.66 26.06,-142.76zm-68.66 -143.45c-95.38,11.5 -223.95,48.66 -265.63,146.05 -27.83,65.06 -19.77,307.92 -19.14,389.99 1,128.26 -6.35,221.18 120.39,288.97 152.03,81.32 530.66,82.41 611.98,-98.77 28.16,-62.74 21.41,-309.05 20.18,-389.04 -2,-129.58 8.52,-221.41 -119.11,-290.34 -98.5,-53.19 -239.97,-59.95 -348.68,-46.85z"/>
   <path class="fil0" d="M4274.85 234.12l9.17 -17.52 5.79 22.58c-8.24,66.76 34.9,242.33 39.85,322.68l-106.76 -1.67c5.82,-86.84 53.62,-294.12 51.96,-326.07zm-407.38 630.29l338.93 0.34 16.86 -149.06 115.83 -2.73 17.06 149.57 334.8 2.32 -185.67 -846.96c-56.44,-1.36 -447.79,-4.25 -474.02,2.39l-163.79 844.13z"/>
   <path class="fil0" d="M1106.4 2075.42l-2.59 570.93 457.79 0.4 -0.89 -753.67 -93.51 3.85c-4.48,70.05 8.52,180.96 -0.56,238.74l-30.33 0.34 -0.76 -242.3 -329.07 -1.29 -0.09 182.99z"/>
   <path class="fil0" d="M1895.93 3039.3c34.34,-0.33 97.85,-12.46 94.88,36.34 -2.65,43.28 -61.98,29.88 -94.98,31.58l0.1 -67.92zm1.77 -146.05c35.64,0.49 55.26,-6.31 84.91,13.69 7.45,62.71 -36.71,50.57 -87.16,48.41l2.25 -62.1zm146.45 100.89c29.76,-25.09 53.95,-38.84 52.43,-86.74 -1.14,-36.18 -20.85,-70.18 -53.45,-85.25 -37.27,-17.22 -211.77,-15.86 -257.31,-9.83l0.13 378.73c46.68,6.86 235.42,6.78 272.98,-13.97 34.18,-18.89 50.1,-61.9 47.81,-101.57 -3.23,-55.72 -27.87,-56.65 -62.6,-81.36z"/>
   <path class="fil0" d="M3313.95 3106.4c4.28,-34.18 41,-185.67 56.18,-206.05l45.09 206.12 -101.27 -0.07zm-51.76 86.48l225.97 0.27 10.07 80.61 74.86 -0.46 -0.39 -166.16 -42.22 -2.62 -84.58 -293.71 -140.93 1.06 -84.51 293.62 -43.19 2.5 0.56 165.4 74.46 0.47 9.91 -80.99z"/>
   <polygon class="fil0" points="4108.5,3044.72 4195.5,3045.45 4195.56,3192.69 4313.98,3192.82 4313.91,2810.65 4195.54,2811.03 4195.57,2949.77 4108.27,2949.61 4108.44,2810.77 3988.46,2812.4 3988.61,3192.54 4108.17,3191.92 "/>
   <polygon class="fil0" points="2430.31,3044.73 2517.79,3045.79 2517.92,3192.87 2636.26,3192.75 2636,2810.77 2517.88,2811.17 2517.79,2949.74 2429.95,2949.54 2430.06,2811.03 2310.83,2811.95 2310.81,3192.8 2429.86,3190.84 "/>
   <path class="fil0" d="M479.49 3040.01c-19.35,-172.65 95.64,-191.9 106.38,-76.37 3.45,37.11 5.89,112.54 -25.31,137.33 -46.68,37.07 -76.44,-19.74 -81.06,-60.96zm230.56 10.2c57.21,-282.06 -309.75,-332.44 -355.33,-99.67 -55.36,282.76 307.01,337.87 355.33,99.67z"/>
   <path class="fil0" d="M3809.48 3055.32c-18.41,109.67 -137.84,55.42 -99.47,-109.11 11.03,-47.25 56.26,-78.5 87.59,-33.38 21.18,30.52 17.95,106.36 11.88,142.49zm127.16 -5.11c56.09,-283.04 -308.21,-331.48 -355.08,-100.04 -56.95,281.26 307.65,339.41 355.08,100.04z"/>
   <path class="fil0" d="M1541.82 2897.88c88.73,-38.37 87.87,187.77 34.01,209.31 -54.72,21.88 -71.64,-41.98 -73.71,-82.26 -2.23,-43.44 -3.22,-108.47 39.7,-127.04zm194.05 137.04c44.52,-272.42 -327.27,-314.77 -359.37,-71.28 -36.64,277.93 318,324.47 359.37,71.28z"/>
   <path class="fil0" d="M119.46 2899.38c29.91,-0.7 85.28,-9.24 86.88,33.65 1.69,45.35 -56.32,40.02 -88.62,36.44l1.73 -70.09zm0.97 155.55c58.54,-1.29 115.7,7.62 163.86,-31.34 67.58,-54.69 61.7,-204.36 -90.62,-212.41 -59.34,-3.13 -133.52,-1.9 -193.68,-0.13l0.04 381.95 119.86 -2.32 0.53 -135.75z"/>
   <path class="fil0" d="M973.95 3046.24c-10.88,32.94 -24.3,86.34 -77.66,55.85 -29.52,-16.86 -30.08,-77.37 -29.12,-108.14 1,-31.95 5.94,-90.27 42.46,-99.53 54.95,-13.9 50.37,43.02 64.26,70.18l106.41 -6.05c-11.43,-215.65 -331.45,-215.34 -335.15,40.69 -4.13,285.22 349.65,230.23 333.38,52.76l-104.58 -5.76z"/>
   <path class="fil0" d="M2842.23 2935.55c5.76,27.23 16.78,73.91 22.63,97.74l-53.95 -0.77c9.64,-27.66 23.7,-69.71 31.32,-96.97zm-52.37 182.49l99.34 0.19 21.55 74.47 121.38 -0.27 -121.52 -381.59 -123.74 0.09 -116.38 382.01 95.84 -1.83 23.53 -73.05z"/>
   <path class="fil0" d="M4376.28 3191.06c132.42,19.21 165.13,-25.8 209.72,-133.37 30.25,-72.94 76.02,-174.53 98.25,-246.74l-104.69 0.24 -54.89 142.65 -64.64 -143.05 -129.28 -0.09c11.37,43.15 145.08,247.61 140.15,270.09 -21.22,34.12 -58.31,24.43 -94.99,26.74l0.37 83.51z"/>
   <polygon class="fil0" points="1088.91,2903.12 1167.66,2903.95 1167.76,3192.82 1274.46,3192.86 1280.21,3192.9 1281,2903.63 1359.53,2900.88 1358.77,2810.88 1088.7,2810.87 "/>
   <polygon class="fil0" points="2268.24,3003.43 2131.08,3003.07 2129.76,3089.47 2268.32,3089.37 "/>
   <polygon class="fil0" points="3039.8,3092.26 3182.91,3092.63 3182.82,3003.84 3039.86,3005.53 "/>
   <path class="fil0" d="M1561.6 2646.75l-457.79 -0.4 2.59 -570.93c-6.26,15.95 -13.39,550.15 -3.5,575.84 48.94,3.33 438.2,7.08 458.71,-4.51z"/>
   <path class="fil0" d="M2268.24 3003.43l0.09 85.94 -138.56 0.1 1.32 -86.4c-13.17,14.49 -7.85,75.67 -3,91.86l142.59 -1.95c7.38,-17.85 3.96,-28.03 4.18,-47.88 0.17,-17.51 5.21,-34.41 -6.61,-41.68z"/>
   <path class="fil0" d="M4274.85 234.12c12.04,3.8 6.16,-0.1 14.96,5.06l-5.79 -22.58 -9.17 17.52z"/>
  </g>
 </g>
</svg>
