<?xml version="1.0" encoding="UTF-8"?>
<!DOCTYPE svg PUBLIC "-//W3C//DTD SVG 1.1//EN" "http://www.w3.org/Graphics/SVG/1.1/DTD/svg11.dtd">
<!-- Creator: CorelDRAW 2021 (64-Bit) -->
<svg xmlns="http://www.w3.org/2000/svg" xml:space="preserve" width="27.8623mm" height="23.2139mm" version="1.1" style="shape-rendering:geometricPrecision; text-rendering:geometricPrecision; image-rendering:optimizeQuality; fill-rule:evenodd; clip-rule:evenodd"
viewBox="0 0 3354.28 2794.67"
 xmlns:xlink="http://www.w3.org/1999/xlink"
 xmlns:xodm="http://www.corel.com/coreldraw/odm/2003">
 <defs>
  <style type="text/css">
   <![CDATA[
    .fil0 {fill:black}
    .fil1 {fill:black;fill-rule:nonzero}
   ]]>
  </style>
 </defs>
 <g id="Слой_x0020_1">
  <metadata id="CorelCorpID_0Corel-Layer"/>
  <g id="_2908416354816">
   <path class="fil0" d="M2549.36 1333.94l378.11 -0.17c132.78,0.13 132.88,205.01 24.88,228.54 -26.71,5.81 -347.1,2.07 -403.72,1.93l0.72 -230.3zm5.85 -428.2l682.6 0 0.28 -213.51 -1007.48 0.04c-0.14,68.75 -3.98,479.95 0.58,518.1 24.75,6.48 143.94,3.8 178.91,4.37l445.76 6.92c29.4,0.37 60.01,-3.29 64.86,25.04 -14.71,23.57 -50.08,16.48 -76.82,16.71 -90.92,0.81 -603.2,2.61 -610.51,9.46 -6.61,6.21 -4.37,10.45 -4.17,34.25l-0.31 479.06 825.92 0.58c285.64,0 364.11,-330.02 247.44,-532.62 -76.43,-132.72 -183.53,-135.15 -307.15,-134.67 -146.57,0.59 -293.16,1.22 -439.78,1.95l-0.13 -32.17 -0.01 -183.52z"/>
   <path class="fil0" d="M1030.54 1052.04l25.21 0.85c-2.82,76.57 -5.68,88.23 0.31,163.14l65.9 0.51 -0.04 -525.08 -344.41 0.79 -391.91 590.59c-17.71,26.94 -37.4,58.09 -55.84,80.76l-0.52 -669.56 -329.26 1.52 0.46 1083.19 348.15 -0.22c49.6,-82.54 327.65,-474.26 343.19,-507.39 -82.87,-4.23 -46.55,15.46 -79.02,11.12 -21.57,-2.89 -11.42,-14.68 -33.07,-21.55 -25.38,0.01 -18.49,7.54 -34.45,20.19 -38.32,30.4 -83.38,-0.98 -103.92,-34.19 6.6,-13.38 3.71,-4.59 12.83,-16.48 10.22,-13.31 18.77,-27.86 45.76,-30.86 46.39,-5.15 49.71,23.4 67.67,30l20.2 0.06c22.12,-35.26 28.03,-16.65 57.3,-13.03 17.82,2.2 62.45,0.75 81.65,-0.28 18.71,-25.05 48.47,-82.44 65.53,-98.04 0.01,28.34 -3.26,71.67 2.59,98.55l235.85 -0.65 3.49 -54.07 -3.66 -109.88z"/>
   <path class="fil0" d="M1482.3 1209.16c0.04,-47.65 -5.8,-216.89 5.75,-249.3 25.91,-72.68 112.03,-55.66 193.93,-55.66 167.38,0 334.75,0 502.16,0l-0.64 -210.11c-77.96,-0.24 -708.87,-6.59 -768.15,-1.25 -112.88,10.12 -195.04,72.76 -228.91,155.17 -26.11,63.53 -20.6,100.13 -20.6,172.62 0,62.95 -0.54,126.14 0.11,189.06 41.87,2.49 290,6.31 316.33,-0.53z"/>
   <path class="fil0" d="M1165.85 1279.64c0.1,64.4 0.01,128.78 0.01,193.16 0,71.88 -5.06,103.23 25.34,163.64 39.92,79.35 115.05,141.18 232.29,147.35 121.22,6.39 260.43,0.3 383.64,0.3 126.56,0 253.12,-0.01 379.68,-0.01l-0.06 -215.33c-166.86,1.26 -333.84,1.41 -500.73,2.12 -77.2,0.34 -181.73,19.31 -201.04,-50.48 -8.08,-29.17 -2.76,-199.23 -2.7,-243.2l-316.44 2.43z"/>
   <path class="fil0" d="M1051.44 1270.37c-3.83,49.14 4.23,147.64 -3.29,163.19l-21.07 0.14 -0.42 -163.23 -236.19 0.17 -1.22 508.19 328.74 0 0.29 -508.46 -66.85 0z"/>
  </g>
  <g id="_2908416353568">
   <path class="fil0" d="M836.72 584.65l0.13 -570.31 -228.66 0.05c-0.08,61.9 4.43,427.7 -2.87,456.88 -20.77,3.37 -51.74,6.07 -71.96,-2.05l-0.2 -454.87 -231.26 -0.13 0.14 455.04 -66.66 0.24 -1.96 -457.03 -232.17 -0.22 -1.25 571.71 836.72 0.69z"/>
   <path class="fil0" d="M2123.92 485.48c-6.63,22.03 -2.72,73.1 -2.68,98.75 61.49,0.1 125.3,0.77 186.2,-5.06 59.06,-5.68 100.87,-23.55 114.81,-74.19 15.9,-57.7 6.61,-300.73 6.61,-377.89l67.47 0.37 0 456.84 233.29 -0.26 -0.01 -570.46 -533.17 -1.35c-6.73,61.78 -0.94,312 -0.98,406.5 -0.04,64.29 -7.6,65.61 -71.53,66.74z"/>
   <path class="fil0" d="M933.29 582.04c19.55,4.88 215.36,4.89 233.52,-0.26l0.98 -239.85c56.31,2.59 72.47,16.35 72.1,72.71 -1.19,180.95 5.39,169.6 111.05,169.6 35.88,0 108.16,3.96 139.66,-1.67 -70.28,-53.92 23.95,-201.78 -71.82,-256.06 -24.69,-13.99 -60.88,-16.95 -86.21,-28.92 1.11,-0.57 2.79,-2.42 3.46,-1.41l39.75 -9.88c40.25,-10.77 82.71,-32.65 86.67,-81.92 4.63,-57.73 -15.02,-164.22 27.58,-191.19 -39.7,-4.23 -97.41,-0.94 -139.08,-0.94 -107.18,0 -108.34,-7.07 -114.31,168.43 -1.88,55.2 -11.62,70.01 -68.85,72.44l-0.99 -239.22 -232.91 -1.58 -0.58 569.72z"/>
   <path class="fil0" d="M1793.42 99.6c46.19,-16.35 47.08,28.09 47.28,64.76l-0.02 238.2c-0.01,32.91 6.21,87.45 -23.02,95.26 -51.2,13.7 -48.6,-29.24 -49.06,-66.83l0.99 -296.85c2.55,-25.39 4.2,-27.58 23.84,-34.54zm-56.58 -95.3c-83.4,10.03 -158.45,39.55 -186.25,97.45 -19.37,40.34 -26.97,341.52 0.53,395.38 13.01,25.51 44.36,52.37 74.68,66.41 112.36,52.03 377.07,49.42 432.54,-67.22 22.9,-48.18 16.05,-205.1 15.45,-267.36 -1.02,-109.59 -6.1,-153.93 -88.58,-194.31 -69.25,-33.91 -165.3,-40.34 -248.36,-30.35z"/>
   <path class="fil0" d="M3022.49 379.7c4.33,-50.33 28.15,-192.56 43.34,-234.67l34.44 234.76 -77.78 -0.08zm-250.31 203.97l238.63 0.47 12.92 -103.17 82.06 0.36 14.06 102.85 234.42 0.07 -131.78 -571.2 -332.2 -0.77 -118.11 571.4z"/>
   <path class="fil0" d="M835.47 584.65l3.6 -65.02c0,-74.85 3.33,-476.46 -1.69,-507.95 -28.69,-3.2 -215.58,-4.6 -234.92,1.7l-0.65 454.97 -65.96 0 -0.04 -456.41 -222.62 -1.58c-10.16,1.07 2.22,-1.07 -6.98,1.24 -0.89,0.22 -2.2,0.99 -2.88,1.2 -0.66,0.2 -1.79,0.95 -2.68,1.42l231.26 0.13 0.2 454.87c20.21,8.11 51.19,5.42 71.96,2.05 7.3,-29.18 2.78,-394.98 2.87,-456.88l228.66 -0.05 -0.13 570.31z"/>
  </g>
  <path class="fil1" d="M499.03 2286.27l-211.52 0 0 -150.8c0,-43.93 -2.23,-71.2 -6.68,-82.18 -4.44,-10.8 -14.37,-16.29 -29.6,-16.29 -17.12,0 -28.06,6.6 -32.69,19.77 -4.62,13.36 -7.02,41.91 -7.02,85.84l0 402.97c0,42.28 2.4,69.73 7.02,82.72 4.62,12.81 15.05,19.23 31.14,19.23 15.58,0 25.85,-6.42 30.63,-19.41 4.79,-12.81 7.2,-43.18 7.2,-90.95l0 -109.25 211.52 0 0 33.85c0,90.04 -6,153.9 -17.81,191.43 -11.81,37.69 -38.16,70.64 -78.72,99.01 -40.73,28.36 -90.7,42.46 -150.26,42.46 -61.77,0 -112.77,-11.91 -152.99,-35.88 -40.05,-23.97 -66.74,-57.1 -79.76,-99.56 -13,-42.45 -19.5,-106.13 -19.5,-191.24l0 -253.64c0,-62.59 2.06,-109.44 5.98,-140.73 4.11,-31.3 15.92,-61.49 35.95,-90.41 19.85,-28.92 47.4,-51.79 82.66,-68.44 35.25,-16.66 75.81,-24.9 121.66,-24.9 62.12,0 113.47,12.81 154.04,38.62 40.38,25.62 66.9,57.64 79.74,96.08 12.65,38.43 19,98.09 19,179.16l0 82.54z"/>
  <path id="_1" class="fil1" d="M939.01 1907.45l120.81 868.55 -215.8 0 -11.47 -155.93 -76.15 0 -11.47 155.93 -218.53 0 107.12 -868.55 305.48 0zm-112.09 558.9c-10.1,-98.45 -20.72,-220.35 -32.01,-365.83 -20.88,166.91 -34.05,288.79 -39.7,365.83l71.71 0z"/>
  <path id="_2" class="fil1" d="M1747.1 1907.45l0 868.55 -184.83 0 -0.51 -586.36 -73.42 586.36 -129.38 0 -77.52 -573.18 -0.52 573.18 -184.82 0 0 -868.55 272.96 0c7.7,52.53 16.1,114.38 25.16,185.01l29.95 220.53 48.08 -405.54 274.85 0z"/>
  <path id="_3" class="fil1" d="M2196.5 1907.45l120.82 868.55 -215.8 0 -11.47 -155.93 -76.15 0 -11.47 155.93 -218.54 0 107.13 -868.55 305.47 0zm-112.09 558.9c-10.09,-98.45 -20.71,-220.35 -32,-365.83 -20.89,166.91 -34.06,288.79 -39.7,365.83l71.7 0z"/>
  <path id="_4" class="fil1" d="M2353.6 1907.45l212.71 0c57.51,0 101.66,4.76 132.63,14.46 30.8,9.69 54.08,23.61 69.64,41.73 15.58,18.3 26.02,40.44 31.66,66.24 5.48,25.99 8.21,66.07 8.21,120.42l0 75.58c0,55.27 -5.3,95.72 -16.08,120.97 -10.61,25.44 -30.28,45.03 -58.7,58.57 -28.58,13.54 -65.88,20.31 -111.92,20.31l-56.63 0 0 350.28 -211.52 0 0 -868.55zm211.52 148.23l0 221.26c5.98,0.36 11.12,0.54 15.4,0.54 19.35,0 32.69,-5.13 40.21,-15.37 7.37,-10.06 11.12,-31.29 11.12,-63.5l0 -71.56c0,-29.64 -4.27,-49.05 -13,-58 -8.55,-8.97 -26.52,-13.36 -53.73,-13.36z"/>
  <path id="_5" class="fil1" d="M3233.4 1907.45l120.82 868.55 -215.8 0 -11.47 -155.93 -76.15 0 -11.47 155.93 -218.54 0 107.13 -868.55 305.47 0zm-112.09 558.9c-10.09,-98.45 -20.71,-220.35 -32,-365.83 -20.89,166.91 -34.06,288.79 -39.7,365.83l71.7 0z"/>
 </g>
</svg>
