<?xml version="1.0" encoding="UTF-8"?>
<!DOCTYPE svg PUBLIC "-//W3C//DTD SVG 1.1//EN" "http://www.w3.org/Graphics/SVG/1.1/DTD/svg11.dtd">
<!-- Creator: CorelDRAW 2021 (64-Bit) -->
<svg xmlns="http://www.w3.org/2000/svg" xml:space="preserve" width="27.8622mm" height="19.6721mm" version="1.1" style="shape-rendering:geometricPrecision; text-rendering:geometricPrecision; image-rendering:optimizeQuality; fill-rule:evenodd; clip-rule:evenodd"
viewBox="0 0 1399.37 988.03"
 xmlns:xlink="http://www.w3.org/1999/xlink"
 xmlns:xodm="http://www.corel.com/coreldraw/odm/2003">
 <defs>
  <style type="text/css">
   <![CDATA[
    .fil0 {fill:black}
   ]]>
  </style>
 </defs>
 <g id="Слой_x0020_1">
  <metadata id="CorelCorpID_0Corel-Layer"/>
  <g id="_2908111793296">
   <path class="fil0" d="M1060.66 638.95l0.19 -93.49c16.78,-1.42 100.23,-0.2 124.19,-0.2 18.91,0 41.96,-3.04 56.5,5.71 30.34,18.26 27.04,66.14 0.22,82.58 -13.93,8.54 -38.44,5.4 -56.71,5.4 -41.45,0 -82.95,0.21 -124.38,-0.02zm-134.47 -144.03c6.13,1.51 206.37,3.45 223.74,3.88 12.37,0.3 24.65,0.12 36.92,0.46 10.51,0.29 26.32,-1.82 30.13,8.27 -1.34,10.86 -17.97,8.63 -28.33,8.62l-112.59 1.16c-25.04,0.68 -49.62,0.23 -74.69,0.79 -23.76,0.53 -51.91,-1.03 -74.95,0.91l-0.7 210.86c20.9,1.41 46.23,0.17 67.54,0.17l270.12 0c22.14,0 40.08,-1 59.01,-8.6 71.38,-28.66 91.6,-117.61 66.96,-184.15 -12.37,-33.41 -33.63,-58.11 -64.63,-71.24 -19.63,-8.32 -35.73,-8.96 -58.64,-8.63 -22.27,0.32 -44.49,0.27 -66.63,0.27 -44.86,0 -91.54,1.82 -136.14,0.53l-0.01 -87.76 286.78 -0.09 0.18 -86.74c-5.68,-1.91 -328.35,-0.69 -370.51,-0.69 -17.01,0 -36.45,-0.87 -53.16,0.16l-0.4 211.84z"/>
   <path class="fil0" d="M137.04 557.29l-0.55 -273.53 -136.23 0.02 -0.25 442.85 144.29 0.28 35.73 -51.54c28.43,-42.78 60.3,-86.67 89.2,-129.61 3.54,-5.25 16.36,-22.46 17.89,-26.7l-18.31 -0.03c-7.02,0 -5.78,5.94 -14.39,5.08 -6.72,-0.67 -7.44,-5.25 -10.82,-8.88l-10.47 -0.08c-5.29,7.87 -12.91,14.74 -26.93,12.56 -12.32,-1.92 -14.39,-8.12 -17.58,-12.88 -2.48,-3.69 -5.46,-2.54 -5.71,-5.5 1.5,-5.05 2.27,-2.09 4.97,-5.2 1.99,-2.3 4.22,-10.77 17.21,-13.55 6.08,-1.3 12.29,-0.24 17.37,2.09 7.51,3.46 8.9,9.16 11.23,9.84 15.75,0.05 7.22,0.49 14.41,-5.79 5.15,-4.5 9.29,-2.81 14.7,-0.34 4.77,2.17 31.01,1.02 38.42,0.8 3.03,-2.85 10.57,-15.56 13.18,-19.71 2.69,-4.27 11.2,-18.45 13.77,-20.44l0.06 40.13 98.65 0.01c5.28,-15.53 -1.39,-49.63 0.54,-66.84l9.71 -0.09c-0.79,29.44 -1.87,38.82 0.19,66.86l27.46 0.14c1.08,-8.08 1.08,-197.56 0.24,-214.53l-143.13 -0.06c-6.41,7.77 -59.79,89.18 -69.44,103.16 -8.09,11.72 -15.44,22.47 -23.16,34.46l-92.24 137.02z"/>
   <path class="fil0" d="M-0 237.41l349.8 0.26 0.13 -232.15 -97.88 -0.2 -0.02 186.12 -28.57 0.1 0.03 -185.72c-4.11,-1.03 -92.69,-1.08 -97.31,-0.04l0.01 185.74 -28.76 0.01 0.05 -185.73c-5.03,-1.17 -90.62,-1.21 -97.46,-0.15l-0.02 231.77z"/>
   <path class="fil0" d="M485.66 494.62c12.35,0.77 125.47,1.38 130.83,0.04 -0.05,-19.66 -2.35,-88.09 2.26,-101.46 4.79,-13.9 13.2,-20.7 29.58,-22.81 14.13,-1.82 174.99,-0.68 207.16,-0.68 13.82,0 39.41,1.49 51.81,-0.28l0.11 -85.53c-14.94,-1.1 -60.96,-0.35 -78.93,-0.35l-158.47 -0.62c-24.9,0 -55.07,-1.81 -79.27,0.16 -48.36,3.93 -80.5,28.05 -96.42,62.31 -11.14,23.98 -8.93,41.47 -8.93,70.29 0,12.69 -0.72,71.56 0.29,78.93z"/>
   <path class="fil0" d="M908.4 728.85l0.12 -87.8c-14.71,-1.26 -35.9,0.06 -51.22,0.04 -50.13,-0.06 -104.56,-0.39 -153.97,0.62 -17.1,0.35 -34.25,-0.14 -51.32,0.24 -17.12,0.38 -28.6,-6.03 -33.38,-18.16 -4.91,-12.43 -1.05,-81.4 -2.24,-101.43l-130.45 0.14c-2.01,6.91 -0.55,65.65 -0.55,77.77 0,30.21 -2.2,43.81 10.42,68.83 18.49,36.65 57.12,58.54 97.64,59.93 25.5,0.87 52.68,0.02 78.37,0.02l197.19 0c12.11,0 27.72,0.85 39.4,-0.2z"/>
   <path class="fil0" d="M885.63 197.58l-0.07 39.76c11.53,1.84 62.44,-0.36 76.18,-1.52 25.12,-2.12 42.54,-8.38 49.39,-29.69 6.28,-19.53 0.98,-121.67 2.98,-154.56l27.87 -0.13 0.2 185.95 97.45 0.26 0.08 -231.97 -223.14 -0.39c-0.97,53.27 -0.22,113.33 -0.04,167.62 0.11,31.15 -12.1,20.58 -30.89,24.67z"/>
   <path class="fil0" d="M391.23 237.37l97.44 0.3 0.51 -97.76c8.59,-0.5 16.74,2.25 22.51,5.85 7.47,4.66 7.45,10.24 7.44,21.76 -0.03,15.28 -1.71,42.37 2.91,55.18 7.35,20.38 20.95,14.98 43.53,14.98 19.25,0 39.38,0.57 58.52,-0.08 -4.56,-8.25 -11.77,-10.83 -12.26,-34.06 -1.01,-48.11 13.62,-70.94 -58.26,-81.62l4.66 -1.56c11.98,-2.06 19.58,-2.54 31.97,-8.36 46.89,-22.06 1.93,-78.73 33.73,-106.39l-86.35 -0.34c-21.85,1.08 -19.15,52.64 -19.83,67.66 -0.42,9.08 -0.16,18.21 -5.43,23.34 -4.55,4.42 -14.51,7.44 -23.2,6.65l-0.39 -97.25 -97.48 -0.35 -0.01 232.05z"/>
   <path class="fil0" d="M750.57 40.52c19.9,-4.73 18.89,12.76 18.87,27.96l-0.01 96.35c0.01,12.85 2.87,35.1 -10.39,37.69 -21.48,4.19 -19.79,-11.87 -19.76,-28.69 0.02,-16.34 -0.67,-111.31 0.52,-120.11 1.21,-8.91 2.75,-11.29 10.77,-13.19zm-14.49 -39.72c-17.29,1.59 -33.62,3.65 -48.59,9.53 -13.6,5.34 -26.22,12.27 -34.75,23.77 -9.97,13.44 -9.95,28.46 -10.44,47.85 -0.48,19.5 -0.23,39.04 -0.23,58.56 0,36.18 -3.68,67.21 30.83,85.35 38.8,20.4 106.79,22.27 148.54,6.72 40.84,-15.22 43.99,-36.77 45.11,-72.25 0.6,-19.32 0.18,-39.15 0.19,-58.53 0.04,-44.56 1.24,-66.15 -31.58,-85.04 -23.9,-13.77 -67.11,-18.88 -99.09,-15.95z"/>
   <path class="fil0" d="M1259.16 154.37c2.09,-16.91 5.27,-32.63 8.42,-48.82 2.8,-14.43 6.04,-33.83 10.11,-46.73l7.09 48.26c2.29,15.82 5.49,31.68 7.9,47.34l-33.51 -0.04zm-104.98 83.23l100.52 0.07 5.78 -41.8 34.41 -0.18 5.3 41.71 99.19 0.26 -55.44 -232.15 -140.37 -0.21 -49.39 232.29z"/>
   <path class="fil0" d="M328.87 726.82c40.78,0.81 95.16,0.38 136.48,0.05l0.4 -207.77 -27.83 0.22c-2.27,30.53 0.64,39.84 -0.06,66.39l-10.04 -0.02c0.46,-23.49 1.11,-42.74 0.15,-66.16 -6.89,-1.45 -89.76,-1.52 -98.23,-0.32l-0.86 207.61z"/>
   <path class="fil0" d="M231.88 983.23c13.8,0.77 42.05,0.86 52.62,-5.07 13.51,-7.57 15.67,-23.53 15.72,-43.11 0.04,-15.19 -1.05,-110.12 0.39,-116.46l14.03 0.03c1.4,4.71 0.87,148.27 0.48,164.72l51.85 0.01 -0.08 -205.95 -118.52 0.02c-1.45,41.19 -0.09,96.7 -0.09,140.53 0.01,29.04 0.69,28.18 -16.68,30.04l0.27 35.24z"/>
   <path class="fil0" d="M491.88 983.22l51.46 0.11 0.15 -86.51 15.34 0.03 -0.01 86.22 51.53 0.3 0.39 -205.92 -51.83 -0.05 -0.09 72.74 -15.34 0.68 0.01 -72.93c-4.72,-1.17 -45.01,-0.87 -51.57,-0.28l-0.03 205.62z"/>
   <path class="fil0" d="M1392.92 805.39c0,-13.22 1.75,-17.99 6.38,-28.02l-47.98 0.22c-9.2,13.42 -7.76,27.96 -8.18,46.71 -0.43,19.72 2.92,39.08 -15.33,39.19l-0.31 -85.77 -51.89 -0.2c-0.18,25.75 -0.87,194.36 0.33,205.84l51.46 -0.28 0.44 -86.8c20.26,0.72 15.72,24.94 15.72,42.37 0,9.02 -2.87,44.68 12.26,44.7l43.56 -0.25c-7.11,-13.29 -6.85,-31.36 -6.49,-47.15 0.64,-27.81 3.97,-47.36 -31.67,-55.86 7.5,-3.52 20.1,-3.58 27.45,-16.65 6.71,-11.93 4.26,-39.89 4.26,-58.05z"/>
   <path class="fil0" d="M938.88 919.74c0,6.26 0.06,22.65 -1.46,27.81 -1.21,4.08 -4.43,6.4 -9.29,4.84 -3.59,-1.15 -4.36,-4.48 -4.77,-9.24 -1.44,-16.9 -0.84,-97.32 -0.38,-117.95 0.1,-4.13 0.19,-10.19 1.9,-13.46 1.4,-2.68 5.4,-5.38 9.84,-2.79 4.81,2.8 4.15,17.82 4.15,24.35l-0.01 86.44zm-5.06 67.69c21.21,-0.01 36.25,-8.98 45.1,-19.89 11.01,-13.56 11.55,-32.3 11.55,-53.2l-0.01 -68.43c0,-23.03 -0.74,-39.03 -12.56,-54 -9.59,-12.15 -27.3,-18.64 -47.69,-18.61 -21.95,0.03 -37.19,7.28 -46.97,19.35 -11.58,14.29 -12.16,31.61 -12.16,53.27l0.01 69.33c0,20.74 0.93,39.62 11.96,52.59 12.91,15.17 27.43,19.61 50.77,19.61z"/>
   <path class="fil0" d="M687.67 808.49c12.86,-4.68 10.25,20.4 10.24,29.32l0 81.04c-0.03,8 1.75,31.49 -5.96,33.62 -13.02,3.58 -10.09,-20.33 -10.17,-29.12l0.01 -81.03c0,-8.9 -2.91,-30.61 5.89,-33.82zm-56.9 125.66c4.23,65.7 76.32,59.88 100.46,40.51 18,-14.44 18.29,-38.74 18.26,-65.72 -0.02,-26.98 0.97,-55.74 -0.64,-82.47 -3.96,-65.86 -78.02,-59.6 -99.98,-40.41 -18.55,16.21 -18.74,33.77 -18.71,65.25 0.04,26.89 -1.11,56.26 0.61,82.84z"/>
   <path class="fil0" d="M1205.19 900.38c-1.4,10.01 0.05,25.27 -0.56,36.29 -0.3,5.42 -0.39,12.44 -4.03,14.84 -4.09,2.7 -10.12,1.24 -12.14,-2.77 -3.55,-7 -2.15,-89.56 -2.17,-108.23 -0.01,-8.64 -1.32,-27.98 5.13,-31.5 5.6,-3.06 11.15,-0.22 12.39,4.66 2.54,10.05 -0.3,39.46 1.39,52.7l51.44 -0.23c2.15,-18.94 0.04,-56.6 -9.03,-70.17 -18.61,-27.89 -86.83,-35.55 -107.36,6.94 -8.12,16.81 -5.62,53.64 -5.62,74.52 0,23.47 -1.66,54.95 4.1,76.04 10.79,39.48 77.09,46.72 106.15,13.49 6.81,-7.78 9.14,-16.2 10.62,-28.65 1.06,-8.9 2.16,-29.31 1.13,-38.06l-51.42 0.14z"/>
   <path class="fil0" d="M49.95 840.85c-0.11,-7.27 -0.96,-26.95 1.87,-32.39 1.94,-3.74 14.82,-9.85 15.61,9.52 1.78,43.69 -4.29,37.09 -29.34,38.41l0.1 29.77c15,1.13 25.44,-0.23 28.41,14.89 1.65,8.37 1.29,31.61 0.59,40.84 -0.49,6.45 -0.83,13.26 -7.7,14.05 -8.84,1.01 -9,-5.07 -9.37,-12.78 -0.67,-13.8 0.34,-27.94 -0.27,-42.1l-49.37 0.19c-1.01,11.91 -0.3,29.73 0.82,41.57 1.34,14.23 4.38,22.29 12.76,30.49 14.19,13.89 46.02,18.38 69.73,11.1 23.96,-7.35 31.61,-23.79 33.19,-53.04 0.69,-12.78 0.43,-29.11 -1.81,-41.19 -3.18,-17.17 -11.07,-17.75 -18.98,-23.56 7.01,-6 13.97,-8.5 17.23,-19.98 2.6,-9.17 2.49,-24.16 0.79,-33.79 -3.81,-21.61 -14.78,-33.61 -36.14,-37.69 -20.35,-3.89 -47.42,-3.11 -62.72,6.77 -16.29,10.53 -14.79,36.17 -14.99,58.94l49.58 -0.02z"/>
   <path class="fil0" d="M1061.47 812.12c19.24,0.15 16.28,10.58 16.3,27.48 0.02,19.42 0.68,25.71 -16.26,25.77l-0.04 -53.25zm-51.7 171.03l51.45 0.19 0.28 -83.1c23.58,-0.01 46.47,0.21 55.4,-18.03 5.65,-11.53 4.89,-53.89 3.33,-68.72 -4.18,-39.88 -41.32,-36.1 -73.85,-36.1 -9.98,0 -27.52,-1.02 -36.59,0.32l-0.02 205.44z"/>
   <path class="fil0" d="M440.2 818.57l34.05 -0.01 -0.12 -41.18 -86.08 0.07 0.37 205.9 89.22 -0.36 -0.01 -40.2c-7.74,-2.27 -28.03,0.64 -37.82,-0.88l0.34 -45.06 31.9 -0.14 -0.01 -39.38 -32.21 -0.27 0.36 -38.5z"/>
   <path class="fil0" d="M129.71 983.19l89.3 0.16 0.22 -40.78 -37.82 -0.34 -0.1 -44.99 32.3 -0.42 -0.04 -39.47 -32.13 -0.08 -0.17 -38.06c5.82,-1.76 26.42,-0.3 34.3,-0.73l0.32 -40.91 -86.18 -0.17 -0.02 205.79z"/>
   <polygon class="fil0" points="821.06,818.58 858.53,818.54 858.45,777.39 768.72,777.4 768.68,983.33 820.67,983.33 "/>
  </g>
 </g>
</svg>
