<?xml version="1.0" encoding="UTF-8"?>
<!DOCTYPE svg PUBLIC "-//W3C//DTD SVG 1.1//EN" "http://www.w3.org/Graphics/SVG/1.1/DTD/svg11.dtd">
<!-- Creator: CorelDRAW 2021 (64-Bit) -->
<svg xmlns="http://www.w3.org/2000/svg" xml:space="preserve" width="28.7484mm" height="16.1901mm" version="1.1" style="shape-rendering:geometricPrecision; text-rendering:geometricPrecision; image-rendering:optimizeQuality; fill-rule:evenodd; clip-rule:evenodd"
viewBox="0 0 348.45 196.24"
 xmlns:xlink="http://www.w3.org/1999/xlink"
 xmlns:xodm="http://www.corel.com/coreldraw/odm/2003">
 <defs>
  <style type="text/css">
   <![CDATA[
    .fil0 {fill:black}
    .fil1 {fill:black;fill-rule:nonzero}
   ]]>
  </style>
 </defs>
 <g id="Слой_x0020_1">
  <metadata id="CorelCorpID_0Corel-Layer"/>
  <g id="_2092316556128">
   <polygon class="fil0" points="189.13,28.16 229.02,28.18 229.1,1.23 218.12,1.18 218.02,22.79 214.73,22.79 214.72,1.22 203.72,1.18 203.63,22.79 200.35,22.77 200.35,1.2 189.24,1.18 "/>
   <path class="fil0" d="M293.28 22.95l-3.09 0.52 -0.03 4.46c18.6,1.55 14.31,-4.07 14.69,-21.42l3.07 0.02 0.03 21.48 11.16 -0.02 0.08 -26.94 -25.38 -0.05c-0.57,5.76 0.78,17.5 -0.53,21.95z"/>
   <path class="fil0" d="M233.56 28.15l11.14 0.02 0.12 -11.4c6.85,0.58 0.61,7.44 5.2,11.36l9.94 0.04c-1.94,-4.43 -0.77,-4.1 -1.07,-8.72 -0.24,-3.7 -2.92,-3.4 -5.75,-4.78 2.32,-1.24 5.33,-1.14 5.73,-4.39 0.59,-4.81 -0.92,-4.13 1.06,-9.1 -10.93,-0.01 -11.38,-1.72 -11.81,6.28 -0.19,3.47 0.38,4.76 -3.23,5.11l-0.11 -11.37 -11.09 -0.03 -0.11 26.98z"/>
   <path class="fil0" d="M273.87 4.67l2.57 0.27c0.43,5.26 0.28,8.99 0.28,14.3 0,1.7 0.3,4.09 -1.55,4.27 -2.12,0.2 -1.86,-2.14 -1.86,-3.87l-0.12 -11.63 0.68 -3.34zm-2.6 -4.39c-4.02,0.64 -7.35,1.84 -8.51,4.89 -0.87,2.3 -0.59,9.93 -0.54,12.87 0.08,5.27 0.74,6.97 4.68,8.74 5.31,2.38 18.25,2.09 20.41,-3.83 0.82,-2.25 0.55,-10.11 0.52,-12.92 -0.05,-4.93 -1.05,-7.16 -4.72,-8.7 -3.21,-1.35 -8.25,-1.63 -11.85,-1.05z"/>
   <path class="fil0" d="M334.68 8.67l1.66 9.82 -3.44 -0.08 1.78 -9.74zm-7.98 -7.43l-5.63 26.91 10.03 0.03c2,-0.23 0.46,0.04 1.18,-0.41l0.67 -4.42 3.96 0.08 0.55 4.69 10.99 0.06 -6.14 -26.83c-3.33,-0.41 -11.98,-0.3 -15.61,-0.11z"/>
   <g>
    <path class="fil0" d="M76.63 174.26c-1.14,-1.46 -0.55,-10.42 -0.53,-12.19l-9.65 -0.04c0.04,1.68 0.48,10.62 -0.4,12.1 -6.04,-0.81 -1.22,-7.09 -3.87,-12.21l-8.49 -0.08c1.11,3.95 0.64,5.02 0.8,9.29 0.1,2.78 0.79,3.89 3.09,4.7l2.29 0.86c-9.71,2.09 -2.9,8.51 -6.31,14.67l8.63 0.12c2.7,-5.57 -2.23,-12.17 3.88,-12.66l0.14 12.56 10.31 0.09 0.03 -12.66c6.54,0.56 1.41,7.27 4,12.55l8.65 0.12c-3.13,-6.62 3.32,-12.75 -6.31,-14.78 2.5,-1.59 5.18,-0.42 5.35,-5.57 0.12,-3.57 -0.57,-6.45 0.95,-9.16l-8.52 -0.11c-1.96,2.46 -0.61,7.6 -1.12,10.95 -1.16,1.17 -0.95,0.97 -2.9,1.45z"/>
    <polygon class="fil0" points="-0,191.43 10.33,191.51 10.33,179.32 13.23,179.03 13.24,191.35 23.69,191.51 23.7,161.87 13.28,161.87 13.23,172.44 10.33,172.32 10.31,161.83 0.05,161.86 "/>
    <polygon class="fil0" points="91.9,191.47 102.19,191.51 102.22,179.25 105.12,179.05 105.14,191.39 115.55,191.5 115.56,161.91 105.18,161.86 105.12,172.42 102.24,172.34 102.2,161.84 91.96,161.86 "/>
    <polygon class="fil0" points="119.65,191.53 128.77,191.49 133.67,178.75 133.96,191.37 142.57,191.48 142.57,161.96 134.25,161.85 128.51,174.62 128.27,161.89 119.74,161.84 "/>
    <path class="fil0" d="M27.81 191.53l9.13 -0.03c0.56,-2.1 1.49,-3.97 2.35,-6.13 0.88,-2.22 1.63,-5 2.76,-6.36l0.06 12.33 8.61 0.15 0.01 -29.55 -8.5 -0.11 -5.56 12.82 -0.22 -12.78 -8.55 -0.03 -0.08 29.69z"/>
    <polygon class="fil0" points="146.72,191.29 155.39,191.51 160.08,178.72 160.3,191.44 168.51,191.52 168.51,161.83 160.66,161.86 155.17,174.56 154.93,161.92 146.75,161.88 "/>
    <path class="fil0" d="M334.5 184.87c0.01,-2.29 0.87,-5.82 1.18,-8.33 0.37,-3.07 0.28,-6.2 0.66,-9.19l2.29 0.07 -0.08 17.43 -4.05 0.03zm-4.85 6.26l13.14 -0.01 0.08 5.08 5.57 0.03 -0.53 -11.16c-0.88,-0.56 -0.9,-0.24 -1.07,-0.92l-0.18 -22.71 -17.87 0.08c-1.27,10.97 0.54,9.4 -2.92,22.99 -2.28,1.28 -1.91,-2.48 -1.72,11.73l5.46 -0.1 0.02 -5.01z"/>
    <polygon class="fil0" points="188.2,178.74 190.52,178.76 190.51,191.11 198.73,191.12 198.5,161.47 190.57,161.49 190.54,172 188.16,171.89 187.91,161.47 179.97,161.49 179.94,191.11 188.14,191.13 "/>
    <path class="fil0" d="M231.87 177.76c3.03,0.38 2.59,0.99 2.58,4.27 -0.01,3.24 0.34,3.63 -2.64,4.01l0.05 -8.28zm-0.06 -11.18c2.69,0.21 2.7,0.57 2.64,3.6 -0.06,2.53 -0.12,2.75 -2.6,2.96l-0.03 -6.56zm6.55 8.69c2.58,-1.91 3.68,-0.98 3.68,-5.52 0,-2.78 -0.57,-5.25 -2.18,-6.56 -2.81,-2.3 -11.72,-1.82 -16.24,-1.7l-0.04 29.56c4.34,0.22 15.69,0.86 17.85,-1.75 0.66,-0.8 4.15,-11.83 -3.08,-14.04z"/>
    <path class="fil0" d="M209.91 169.75c0,-1.41 0.13,-2.77 0.56,-3.75 2.45,-0.02 1.96,1.39 1.96,3.75l-0.07 15.55c-0.24,1.58 -0.33,1.35 -2.1,1.38 -0.5,-6.26 -0.33,-10.61 -0.33,-16.94zm-8.06 14.82c0.65,7.1 9.88,9.24 15.71,5.42 2.95,-1.93 2.99,-5.18 3.05,-9.65 0.05,-3.87 0.17,-8.43 -0.15,-12.24 -0.76,-8.88 -12.26,-8.19 -15.77,-5.4 -2.69,2.14 -2.9,5.08 -2.96,9.59 -0.05,3.77 -0.22,8.59 0.12,12.28z"/>
    <path class="fil0" d="M311.97 165.92l1.62 0c0.35,3.92 0.9,18.09 -0.21,20.8l-1.46 -0.29c-0.99,-2.04 -0.5,-13.86 -0.61,-16.69l0.65 -3.82zm-8.63 17.8c0.2,4.04 1.94,6.25 5.15,7.4 3.25,1.17 7.64,0.74 10.15,-0.84 2.78,-1.75 3.39,-4.82 3.46,-9.1 0.15,-8.96 1.56,-17.16 -5.19,-19.66 -3.34,-1.24 -7.36,-0.82 -10.13,0.8 -3.13,1.83 -3.42,4.36 -3.52,9.11 -0.09,3.99 -0.12,8.31 0.08,12.28z"/>
    <path class="fil0" d="M270.4 165.91l1.47 0.05c0.87,2.36 0.84,18.38 -0.06,20.66 -2.95,0.08 -1.97,-3.28 -1.97,-9.67 0,-3.31 -0.69,-8.58 0.55,-11.04zm-8.62 18.24c0.67,9.55 12.37,8.36 15.55,5.92 2.94,-2.25 3.16,-4.54 3.19,-9.3 0.02,-3.85 0.22,-8.52 -0.1,-12.3 -0.76,-8.88 -11.17,-8.78 -15.74,-5.88 -4.25,2.7 -3.34,15.28 -2.9,21.56z"/>
    <path class="fil0" d="M291.75 166.64c3.03,0.14 2.56,1.13 2.54,3.97 -0.02,2.96 0.3,3.4 -2.52,3.44l-0.02 -7.41zm0.14 12.59c7.69,-0.19 10.87,-0.96 9.07,-12.83 -1.01,-6.63 -11.26,-4.88 -17.42,-4.94l-0 29.66 8.22 -0.03 0.13 -11.86z"/>
    <path class="fil0" d="M253.87 167.44c1.94,-0.09 4.12,0.25 5.9,-0.38l-0.08 -5.59 -14.15 -0.03 -0.02 29.06 -0 0.62 8.23 -0 0.12 -23.69z"/>
    <path class="fil0" d="M165.09 155.48c-5.42,-0.14 -3.5,-0.08 -4.8,1.47 -2.67,3.15 -5.22,-1.47 -5.29,-1.55l-3.75 0.03c0.9,7.69 12.83,7.67 13.85,0.05z"/>
   </g>
   <path class="fil0" d="M263.69 127.61l0 -24.61c2.78,-0.54 26.2,-0.15 31.04,-0.16 4.7,-0 10.66,-0.82 14.27,1.54 2.92,1.91 5.4,5.64 5.38,10.79 -0.02,5.12 -2.49,9.09 -5.19,10.98 -3.34,2.35 -9.74,1.51 -14.23,1.51 -5.01,0 -28.45,0.28 -31.28,-0.06zm-33.71 -38c6.24,0.47 12.48,0.15 18.66,0.32l46.56 0.73c2.39,0.02 7.14,-0.32 7.53,2.02 0.49,2.9 -4.72,2.47 -6.84,2.47l-28.12 0.34c-12.53,0.19 -25.07,0.25 -37.6,0.46l-0.26 55.79c22.55,0.18 45.04,0.01 67.59,0.01 10.38,-0 22.77,1.51 31.93,-2.33 17.62,-7.37 22.56,-31.09 16.61,-48.55 -3,-8.82 -8.64,-15.44 -16,-18.88 -7.92,-3.7 -22.36,-2.41 -31.85,-2.32 -4.13,0.04 -32.14,0.52 -33.58,-0.03 -0.47,-0.39 -0.24,-11.03 -0.24,-11.53 0,-2.15 -0.28,-10.17 0.11,-11.54 1.15,-0.54 34.36,-0.19 35.55,-0.19 11.88,0 24.13,0.3 35.97,-0.02l0.02 -22.72 -105.83 0.02 -0.22 55.96z"/>
   <path class="fil0" d="M81.32 90.06c6.3,0.56 14.34,0.19 20.77,0.09 3.89,-0.06 3.58,0.27 3.69,-1.48 0.35,-5.24 -0.26,-10.87 -0.1,-16.28l2.35 0.06c0.36,5.66 -0.78,12.09 0.11,17.68l6.8 -0.09 -0.03 -56.75 -35.31 0.03 -34.17 54.62c-1.55,2.48 -10.36,16.87 -11.5,17.88l-0.12 -72.22 -33.58 0.06c-0.44,1.8 -0.11,12.06 -0.11,14.74l0.07 102.58 35.66 -0.14c1.04,-1.07 3.39,-5.26 4.43,-6.86 2.84,-4.35 29.9,-46.16 30.64,-48.03 -8.38,-0.66 -4.85,1.76 -8.12,1.26 -2.2,-0.33 -1.54,-3.12 -4.71,-2.32 -0.64,0.16 -0.69,0.5 -1.18,1.1 -2.43,3 -6.94,3.12 -9.48,0.11 -0.57,-0.68 -0.44,-0.94 -0.86,-1.5 -0.47,-0.63 -0.71,-0.41 -1.27,-0.97 0.13,-1.59 0.38,-0.64 1.2,-1.67 0.58,-0.72 0.9,-2.78 4.13,-3.54 3.79,-0.89 5.35,0.98 6.92,3.06l2.73 -0.07c0.76,-0.74 1.23,-1.88 2.34,-2.14 1.38,-0.32 2.08,0.67 3.37,0.84 2.43,0.32 6.06,0.05 8.58,0 0.53,-0.73 1.13,-1.84 1.68,-2.74 1.38,-2.27 3.53,-6.46 4.88,-7.66l0.17 10.33z"/>
   <path class="fil0" d="M119.64 89.18l32.74 0.4c-0.01,-5.24 -0.43,-22.81 0.51,-26.64 2.06,-8.45 11.53,-6.55 19.92,-6.53 4.76,0.01 48.86,0.41 52.49,-0.14l0.03 -22.64c-9.77,-0.63 -29.05,-0.29 -39.61,-0.25 -6.61,0.02 -13.22,0.04 -19.82,-0 -12.6,-0.08 -24.78,-1.91 -34.85,5.13 -4.01,2.8 -6.77,6.06 -9.16,11.36 -2.98,6.6 -2.32,10.8 -2.3,18.47 0.02,6.7 -0.43,14.25 0.05,20.84z"/>
   <path class="fil0" d="M152.44 96.68l-32.54 0.28c-0.28,0.4 -0.05,-0.15 -0.2,0.5l-0.05 1.86c0.01,0.88 0,1.76 0,2.65l-0 14.89c-0,9.76 -0.99,12.68 3.75,20.98 6.13,10.73 16.08,13.76 28.44,13.78l73.75 -0.12 -0.1 -23.3 -60.51 0.3c-4.43,-0.01 -8.36,0.43 -11.03,-3.02 -2.11,-2.73 -1.61,-9.73 -1.61,-14.14l0.1 -14.65z"/>
   <path class="fil0" d="M80.88 96.04c-0.57,3.09 -0.4,50.65 -0.38,54.7l33.91 -0.08 0.02 -54.62c-2.16,-0.06 -4.75,-0.41 -6.76,0.26 -0.44,5.94 0.18,11.45 -0.03,17.25l-2.42 -0.07c-0.3,-5.35 0.69,-12.07 -0.04,-17.29l-24.31 -0.15z"/>
   <path class="fil1" d="M-0 1.59l9.91 0c3.13,0 5.5,0.17 7.12,0.51 1.61,0.34 2.91,1.03 3.91,2.06 0.99,1.04 1.48,2.71 1.48,5.01 0,1.56 -0.35,2.64 -1.05,3.25 -0.7,0.62 -2.09,1.08 -4.16,1.42 2.31,0.36 3.87,0.97 4.7,1.8 0.82,0.84 1.24,2.13 1.24,3.87l0 2.47c0,1.8 -0.3,3.13 -0.89,4 -0.59,0.87 -1.53,1.46 -2.82,1.78 -1.29,0.32 -3.94,0.48 -7.94,0.48l-11.5 0 0 -26.66zm9.98 4.55l0 5.93c0.42,-0.01 0.74,-0.02 0.98,-0.02 0.95,0 1.57,-0.17 1.83,-0.5 0.27,-0.34 0.4,-1.3 0.4,-2.88 0,-0.84 -0.11,-1.42 -0.32,-1.76 -0.22,-0.33 -0.5,-0.55 -0.85,-0.64 -0.35,-0.08 -1.03,-0.13 -2.03,-0.15zm0 10.08l0 7.48c1.37,-0.03 2.25,-0.18 2.63,-0.46 0.38,-0.28 0.57,-0.95 0.57,-2.03l0 -2.49c0,-1.15 -0.17,-1.84 -0.51,-2.08 -0.34,-0.24 -1.24,-0.38 -2.69,-0.41z"/>
   <path id="_1" class="fil1" d="M49.94 22.01c0,1.98 -0.37,3.41 -1.11,4.27 -0.74,0.87 -1.87,1.41 -3.37,1.63 -1.51,0.22 -3.91,0.33 -7.2,0.33l-11.52 0 0 -26.66 9.98 0 0 9.13 1.54 0c3.07,0 5.4,0.12 6.97,0.38 1.57,0.25 2.75,0.81 3.54,1.67 0.78,0.86 1.17,2.21 1.17,4.06l0 5.18zm-9.98 -0.8l0 -3.85c0,-1.12 -0.16,-1.8 -0.48,-2.04 -0.32,-0.24 -1.24,-0.38 -2.76,-0.41l0 8.76c1.27,0 2.12,-0.11 2.57,-0.34 0.45,-0.23 0.68,-0.93 0.68,-2.12zm23.34 7.04l-9.98 0 0 -26.66 9.98 0 0 26.66z"/>
   <path id="_2" class="fil1" d="M90.18 13.21l-9.98 0 0 -4.63c0,-1.35 -0.11,-2.19 -0.31,-2.52 -0.21,-0.33 -0.68,-0.5 -1.4,-0.5 -0.81,0 -1.32,0.2 -1.54,0.61 -0.22,0.41 -0.33,1.29 -0.33,2.64l0 12.37c0,1.3 0.11,2.14 0.33,2.54 0.22,0.39 0.71,0.59 1.47,0.59 0.74,0 1.22,-0.2 1.45,-0.6 0.22,-0.39 0.34,-1.33 0.34,-2.79l0 -3.35 9.98 0 0 1.04c0,2.76 -0.28,4.72 -0.84,5.88 -0.56,1.16 -1.8,2.17 -3.71,3.04 -1.92,0.87 -4.28,1.3 -7.08,1.3 -2.91,0 -5.32,-0.37 -7.22,-1.1 -1.89,-0.74 -3.15,-1.75 -3.76,-3.05 -0.61,-1.3 -0.92,-3.26 -0.92,-5.87l0 -7.79c0,-1.92 0.1,-3.36 0.28,-4.32 0.2,-0.96 0.75,-1.89 1.7,-2.77 0.94,-0.89 2.24,-1.59 3.9,-2.1 1.66,-0.51 3.58,-0.76 5.74,-0.76 2.93,0 5.35,0.39 7.27,1.19 1.91,0.79 3.16,1.77 3.76,2.95 0.6,1.18 0.9,3.01 0.9,5.5l0 2.53z"/>
   <polygon id="_3" class="fil1" points="129.63,28.24 93.75,28.24 93.75,1.59 103.72,1.59 103.72,22.92 106.68,22.92 106.68,1.59 116.65,1.59 116.65,22.92 119.61,22.92 119.61,1.59 129.63,1.59 "/>
   <path id="_4" class="fil1" d="M150.79 1.59l5.7 26.66 -10.18 0 -0.54 -4.79 -3.59 0 -0.54 4.79 -10.31 0 5.05 -26.66 14.41 0zm-5.29 17.15c-0.48,-3.02 -0.98,-6.76 -1.51,-11.23 -0.98,5.12 -1.61,8.86 -1.87,11.23l3.38 0z"/>
   <path id="_5" class="fil1" d="M180.38 28.24l-9.98 0 0 -12c-1.26,0 -2.07,0.15 -2.45,0.44 -0.37,0.29 -0.56,0.93 -0.56,1.92l0 9.64 -9.25 0 0 -7.95c0,-1.35 0.1,-2.38 0.32,-3.08 0.21,-0.7 0.7,-1.29 1.48,-1.75 0.77,-0.46 2,-0.84 3.68,-1.15 -2.29,-0.14 -3.78,-0.6 -4.46,-1.35 -0.68,-0.76 -1.02,-2.13 -1.02,-4.11 0,-1.78 0.32,-3.17 0.94,-4.17 0.63,-1 1.55,-1.72 2.75,-2.16 1.2,-0.44 2.57,-0.71 4.14,-0.8 1.56,-0.1 4,-0.14 7.33,-0.14l7.07 0 0 26.66zm-9.98 -16.18l0 -5.9 -0.48 0c-0.83,0 -1.46,0.13 -1.89,0.39 -0.43,0.26 -0.64,0.81 -0.64,1.66l0 1.47c0,0.99 0.18,1.63 0.53,1.93 0.35,0.3 1.18,0.45 2.47,0.45z"/>
  </g>
 </g>
</svg>
