<?xml version="1.0" encoding="UTF-8"?>
<!DOCTYPE svg PUBLIC "-//W3C//DTD SVG 1.1//EN" "http://www.w3.org/Graphics/SVG/1.1/DTD/svg11.dtd">
<!-- Creator: CorelDRAW 2021 (64-Bit) -->
<svg xmlns="http://www.w3.org/2000/svg" xml:space="preserve" width="27.8477mm" height="20.0339mm" version="1.1" style="shape-rendering:geometricPrecision; text-rendering:geometricPrecision; image-rendering:optimizeQuality; fill-rule:evenodd; clip-rule:evenodd"
viewBox="0 0 343.94 247.43"
 xmlns:xlink="http://www.w3.org/1999/xlink"
 xmlns:xodm="http://www.corel.com/coreldraw/odm/2003">
 <defs>
  <style type="text/css">
   <![CDATA[
    .fil0 {fill:black}
   ]]>
  </style>
 </defs>
 <g id="Слой_x0020_1">
  <metadata id="CorelCorpID_0Corel-Layer"/>
  <g id="_2908188255296">
   <path class="fil0" d="M260.26 131.25l36.36 -0.05c5.46,-0.01 6.8,-0.04 10.06,3.07 5.46,5.19 3.35,14.25 -1.17,17.36 -3.56,2.45 -6.18,1.75 -10.91,1.76l-34.44 -0.02 0.09 -22.1zm0.63 -21.3c-0.23,-2.65 -0.39,-18.79 0.12,-20.65l70.32 -0.09 -0.08 -21.05 -104.09 0.05 0.03 51.11c11.93,0.3 23.99,0.3 35.97,0.42 5.01,0.05 32.23,-0.32 34.94,1.37l0.02 2.21c-3.79,1.88 -60.64,0.48 -71.08,1.47l-0.12 50.52 66.07 0.08c16.52,-0.08 27.33,2.45 39.07,-6.49 3.65,-2.78 6.83,-7.68 8.66,-11.89 6.62,-15.22 1.6,-37.75 -15.82,-44.99 -10.48,-4.35 -56.8,-0.33 -64.01,-2.07z"/>
   <path class="fil0" d="M80.84 119.48c2.15,0.24 22.44,0.51 23.22,-0.18 0.78,-2.75 0.72,-4.49 1.04,-15.73l2.41 0.11 -0.12 15.53c1.79,0.61 5.1,0.6 6.92,0.03l0.06 -51.17 -35.43 0.07 -33.84 49.16c-1.83,2.61 -3.58,5.26 -5.57,8.14 -0.97,1.41 -1.79,2.69 -2.74,4.11 -1.81,2.71 -1.69,3.29 -3.12,4.08l-0.14 -65.24 -33.52 -0.01 0.08 106.14 35.38 0.04c2.07,-2.92 34.55,-47.77 35.04,-49.89 -8.4,-0.36 -4.62,1.06 -7.32,1.39 -2.47,0.3 -1.77,-2.35 -5.44,-2.5 -1.81,1.54 -2.94,4.01 -6.93,3.36 -2.63,-0.43 -4.99,-2.71 -5.46,-4.76 0.99,-1.6 3.13,-3.87 5.8,-4.14 1.44,-0.15 2.86,0.23 4.11,0.87 0.97,0.49 1.46,1.26 2.35,1.92 2.74,0.19 2.79,-0.46 4.01,-1.79 2.69,-0.37 2.55,0.67 5.66,0.65 9.41,-0.07 5.38,1.4 12.26,-8.21 1.25,-1.76 0.02,-0.39 1.32,-1.21l-0.02 9.24z"/>
   <path class="fil0" d="M-0 56.97l86.17 0.14c-0.06,-7.34 0.5,-53.09 -0.21,-55.92l-23.76 -0.02 -0.16 44.62 -6.93 0.07c-0.45,-8.27 0.81,-40.74 -0.13,-44.7l-23.8 0.03 -0.15 44.56 -6.94 0.08 -0.06 -44.66 -23.87 0.02 -0.16 55.78z"/>
   <path class="fil0" d="M118.83 118.94l32.07 0.35c0.74,-15.27 -3.6,-28.58 7.86,-30 9.12,-1.14 50.62,0.67 63.61,-0.24l0.29 -20.62c-6.26,-0.15 -70.71,-0.75 -77.22,-0.3 -5.89,0.41 -10.48,1.72 -14.94,4.43 -3.48,2.12 -7.27,6.04 -9.25,10.09 -3.07,6.26 -2.6,9.42 -2.58,16.95 0.01,4.39 -0.57,15.85 0.16,19.35z"/>
   <path class="fil0" d="M118.7 125.67c-0.17,6.44 -0.02,13.01 -0.03,19.47 -0.02,7.52 -0.25,10.6 3.07,16.44 4.97,8.76 14.6,13.54 24.5,13.64l76.54 -0.08 -0.08 -20.96 -50.25 0.04c-9.11,0.02 -18.28,1.77 -20.9,-4.3 -1.21,-2.81 -0.54,-19.95 -0.61,-24.6l-32.25 0.35z"/>
   <path class="fil0" d="M217.21 47.41l-0.15 9.68c5.15,0.29 13.57,0.15 18.69,-0.3 15.66,-1.4 13.03,-10.54 13.04,-25.18 0,-4.22 -0.53,-15.7 0.14,-19.07l6.34 -0.06c0.73,2.46 0.29,18.19 0.28,21.95 -0.02,7.4 -0.31,15.27 -0.05,22.6l24.09 0.05 0.04 -55.88 -54.66 -0.04c-0.7,2.26 -0.22,33.23 -0.26,40.12 -0.03,4.5 0.94,6.1 -7.49,6.12z"/>
   <path class="fil0" d="M16.4 204.81c0.72,0.4 6.31,30.63 6.81,33.72l11.55 -0.08 4.51 -24.6c0.23,-1.35 0.97,-6.8 2.06,-7.82l-0.22 32.5 16.76 -0.25 0 -52.15c-2.17,-0 -21.24,-0.25 -24.41,-0.17 -1.85,3.61 -2.8,21.14 -4.44,23.27 -0.66,-1.38 -1.88,-9.44 -2.27,-11.62 -0.45,-2.54 -1.55,-9.89 -2.57,-11.74l-24.18 0.1 0 52.54 16.57 -0.13 -0.18 -33.57z"/>
   <path class="fil0" d="M183.19 10.01c5.12,-1.6 5.15,2.35 5.16,6.28l-0.01 23.38c-0.01,3.39 0.72,8.08 -2.4,9.02 -4.71,1.42 -4.74,-2.7 -4.82,-6.19l-0.02 -23.39c0,-2.65 -0.79,-8.2 2.09,-9.1zm-5.77 -9.48c-23.53,3.91 -20.54,11.89 -20.25,36.32 0.13,11.29 1.14,14.42 9.7,18.49 9.96,4.74 38.56,4.73 44.1,-6.99 1.59,-3.36 2.9,-33.85 -0.52,-39.01 -1.77,-2.67 -4.23,-4.66 -7.89,-6.23 -6.51,-2.79 -17.58,-3.83 -25.13,-2.58z"/>
   <path class="fil0" d="M119.87 1.44l-24.16 -0.05 0.08 55.21 23.69 0.15c0.18,-4.39 -0.48,-20.73 0.31,-23.36l1.7 0.38c6.61,0.68 5.49,4.13 5.48,10.33 -0.01,4.89 -0.36,10.54 3.09,12.65 1.34,0.48 20.48,0.56 22.49,0.16 -0.71,-1.76 -2.65,-2.58 -2.9,-8.37 -0.29,-6.81 2.6,-14.03 -5.51,-17.26 -2.63,-1.04 -8.16,-1.52 -9.43,-2.1 2.83,-1.09 13.24,-0.69 14.91,-7.94 0.59,-2.55 0.05,-8.37 0.02,-11.41 -0.04,-4.31 1.32,-6.2 2.8,-8.63l-20.72 -0.07c-1.61,0.07 -1.53,0.16 -2.28,1.17 -2.95,3.97 -2.73,8.52 -2.93,14.76 -0.2,6.09 -0.21,7.11 -6.63,7.85l-0.02 -23.47z"/>
   <path class="fil0" d="M309.67 37.13c0,-3.14 3.17,-20.23 4.45,-22.44l3.21 22.55 -7.66 -0.11zm-26.03 19.92l24.59 0.04 1.36 -9.81 8.63 -0.03 1.07 9.66 24.64 0.2c-0.73,-4.41 -2.24,-9.72 -3.38,-14.22 -1.15,-4.55 -2.17,-9.28 -3.42,-13.89 -1.13,-4.15 -6.2,-26.48 -7.16,-27.81l-30.13 0c-5.39,0.01 -3.75,-2.13 -6.57,10.92 -1.09,5.02 -2.23,9.88 -3.27,15.01l-4.72 22.24c-0.53,2.5 -1.46,5.17 -1.66,7.71z"/>
   <path class="fil0" d="M215.87 227.25c0.25,-1.92 1.24,-5.22 1.76,-7.35 2.84,-11.77 1.57,-16.6 2.95,-23.6l5.07 -0.04 0.16 30.92 -9.94 0.07zm-10.54 11.24l29.9 -0.03c0.04,2.5 -0.5,6.82 0.32,8.98l12.39 -0.08c0.47,-2.07 0.47,-18.55 -0.07,-19.81 -0.48,-0.52 -2.03,-0.29 -3.29,-0.36l-0.04 -41.21c-3.31,-0.43 -39.93,-0.4 -41.65,0.13 0.2,14.91 -1.61,27.46 -6.71,40.97l-4.03 0.19 -0.04 20.13 13.09 -0.09 0.13 -8.83z"/>
   <path class="fil0" d="M319.09 216.48l5.22 0.04 0.05 21.98 18.76 -0.03 0.04 -52.61 -18.87 0.04 -0.1 18.78c-1.49,0.12 -3.77,0.34 -4.87,-0.2 -0.94,-0.79 -0.35,-17.47 -0.34,-18.59l-18.84 -0.07 0.07 52.7 18.71 -0.1 0.17 -21.94z"/>
   <path class="fil0" d="M81.48 219.66c-0.25,-2.43 2.3,-19.42 3.22,-21l2.46 21.02 -5.68 -0.02zm-1.11 18.61c0.75,-10.14 0.34,-9.32 3.37,-9.3 1.33,0.01 2.62,-0.08 4.08,-0.1l1.16 9.65 19.23 -0.09 -10.61 -52.21c-2.06,-0.77 -24.07,-0.34 -27.45,-0.12l-9.37 52.42 19.59 -0.26z"/>
   <path class="fil0" d="M270.3 219.57c-0.28,-2.73 2.46,-19.63 3.39,-20.95l2.35 21.1 -5.74 -0.15zm-1.5 18.82c1.31,-2.17 1,-6.56 1.22,-9.41l6.87 0.05 0.81 9.48 19.37 -0.06c-0.43,-3.7 -1.92,-9.5 -2.76,-13.43l-7.36 -36.65c-0.34,-1.62 0,-1.8 -1.22,-2.49l-26.21 0.05c-0.84,1.37 -9.27,48.25 -9.5,52.6l18.77 -0.14z"/>
   <path class="fil0" d="M168.03 198.82c0.77,1.13 0.85,3.24 0.98,4.61 0.17,1.83 0.31,3.72 0.52,5.52 0.32,2.8 1.46,8.35 1.23,10.72l-5.82 0.01c-0.69,-4.11 2.78,-16.36 3.09,-20.87zm-3.28 30.1l6.81 0.27 0.78 9.33 19.07 0c-0.57,-4.43 -1.62,-8.95 -2.43,-13.42l-2.1 -9.92c-1.19,-5.64 -4.66,-25.99 -5.96,-29.3l-27.06 0.01 -9.42 52.67 19.35 -0.32 0.96 -9.32z"/>
   <path class="fil0" d="M107.3 136.74l-0.28 3.65c-0.33,0.47 0.46,0.96 -2.5,0.53 -0.83,-2.11 -0.41,-13.14 -0.13,-15.96l-23.48 0.1 -0.24 49.22 33.25 0.11 -0.31 -49.34 -6.39 0.08 0.08 11.63z"/>
   <polygon class="fil0" points="130.07,196.41 143.77,196.36 143.82,185.85 111.15,185.95 111.23,238.52 129.94,238.33 "/>
  </g>
 </g>
</svg>
