<?xml version="1.0" encoding="UTF-8"?>
<!DOCTYPE svg PUBLIC "-//W3C//DTD SVG 1.1//EN" "http://www.w3.org/Graphics/SVG/1.1/DTD/svg11.dtd">
<!-- Creator: CorelDRAW 2021.5 -->
<svg xmlns="http://www.w3.org/2000/svg" xml:space="preserve" width="27.7902mm" height="21.4027mm" version="1.1" style="shape-rendering:geometricPrecision; text-rendering:geometricPrecision; image-rendering:optimizeQuality; fill-rule:evenodd; clip-rule:evenodd"
viewBox="0 0 241.58 186.05"
 xmlns:xlink="http://www.w3.org/1999/xlink"
 xmlns:xodm="http://www.corel.com/coreldraw/odm/2003">
 <defs>
  <style type="text/css">
   <![CDATA[
    .fil0 {fill:black}
    .fil1 {fill:black;fill-rule:nonzero}
   ]]>
  </style>
 </defs>
 <g id="Слой_x0020_1">
  <metadata id="CorelCorpID_0Corel-Layer"/>
  <g id="_2292968259984">
   <path class="fil0" d="M183.57 95.24c0.15,-0.09 0.02,-0.05 0.31,-0.13l21.42 -0.02c5,-0 8,-0.73 10.97,2.53 4.13,4.54 1.38,14.05 -4.84,14.05l-28.02 -0.03c0,-1.17 -0.1,-15.87 0.17,-16.41zm-23.19 -8.91c1.31,0 46.92,0.54 48.3,0.88 2.43,0.6 2.07,2.56 -0.47,2.78l-35.15 0.38c-3.91,0.03 -8.89,-0.18 -12.67,0.16l-0.11 37.17c15.51,-0.16 31.11,-0 46.63,-0 6.56,0 16.14,0.76 21.67,-1.62 5.25,-2.25 9.17,-6.53 11.24,-12.26 2.29,-6.3 2.38,-13.73 0.06,-20.02 -2.18,-5.9 -5.72,-10.19 -10.96,-12.54 -3.35,-1.5 -6.15,-1.61 -10.08,-1.59l-23.21 0.11c-3.55,0.01 -8.34,0.31 -11.75,0.01l0.01 -15.46 49.29 -0.01 -0.01 -15.35 -72.7 -0.01 -0.1 37.4z"/>
   <path class="fil0" d="M23.72 97.25l-0 -48.14 -23.71 -0.05 -0.01 78.04 25.09 0.02c0.64,-1.32 2.18,-3.11 3.08,-4.55 2.57,-4.12 6.5,-9.54 9.27,-13.71 0.8,-1.21 12.11,-17.61 12.35,-18.32l-3.69 -0c-0.55,0.51 -1.06,1.05 -2.08,0.88 -0.88,-0.14 -1.35,-0.9 -1.68,-1.56l-1.92 -0.01c-0.77,1.48 -2.48,2.67 -4.85,2.17 -1.08,-0.23 -1.72,-0.73 -2.26,-1.31 -0.41,-0.44 -0.48,-0.83 -0.71,-1.1 -0.25,-0.29 -1.64,-0.68 -0.39,-1.45 0.03,-0.02 0.08,-0.03 0.11,-0.05 0.67,-0.42 0.31,-0.6 0.98,-1.32 2.32,-2.52 6.35,-1.34 7.04,0.79l2.09 -0c1,-2.71 3.33,-0.94 3.84,-0.92 1.73,0.09 4.29,0.06 6.03,-0.03 0.73,-0.84 1.72,-2.6 2.34,-3.6 0.53,-0.86 1.75,-2.96 2.34,-3.61l0.04 7.23 17.07 0c0.81,-2.76 -0.03,-8.62 0.08,-11.8l1.76 -0.03c0.19,3.98 -0.37,7.61 0,11.8l4.8 0.03 0 -37.79 -24.69 0c-0.49,0.28 -1.66,2.26 -2.06,2.87l-29.08 43.93c-0.42,0.64 -0.69,1.21 -1.18,1.59z"/>
   <path class="fil0" d="M0 41.04l60.32 0.03c0.3,-1 0.1,-38.86 0.11,-41.02l-16.89 0 0 32.76 -4.97 0.04 -0 -32.81 -16.8 0.01 -0 32.81 -4.98 0.02 0 -32.74c-0.77,-0.19 -16,-0.19 -16.8,-0l0 40.9z"/>
   <path class="fil0" d="M83.87 86.21l22.73 0.09c-0.02,-3.33 -0.38,-15.53 0.29,-17.81 1.66,-5.57 7.81,-4.31 13.83,-4.31 12.09,0 24.23,-0.1 36.32,0l0.06 -15.13c-13.57,0.09 -27.62,-0.07 -41.27,-0.14 -4.32,-0.02 -9.66,-0.32 -13.86,0.04 -8.38,0.7 -13.95,5.07 -16.59,11.06 -1.96,4.45 -1.56,7.22 -1.56,12.36 0,2.76 -0.13,11.84 0.04,13.83z"/>
   <path class="fil0" d="M157.3 127.5l-0 -15.5 -44.88 0.19c-2.89,0 -4.84,-1.26 -5.56,-3.46 -0.56,-1.73 -0.28,-14.86 -0.25,-17.71l-22.73 0.12c-0.17,1.69 -0.04,11.15 -0.04,13.66 0,5.91 -0.36,9.02 3,14.18 3.33,5.12 9.24,8.11 15.48,8.5 4.24,0.26 9.36,0.02 13.69,0.02l41.3 0z"/>
   <path class="fil0" d="M152.55 34.05l-0.03 6.99c3.68,0.3 9.64,0.03 13.34,-0.33 4.34,-0.41 7.38,-1.64 8.38,-5.34 1.02,-3.8 0.22,-21.46 0.48,-27.07l4.85 -0.04 0.02 32.76 16.8 0.06 -0 -41.02c-12.48,0.14 -25.91,0 -38.5,0l0.01 29.37c0,4.88 -0.94,4.34 -5.36,4.62z"/>
   <path class="fil0" d="M67.17 41.05c4.7,0.15 11.22,0.03 16.07,0.03 1.07,0 0.73,-0.36 0.74,-1.54l0.08 -15.82c8.27,0.02 3.92,7.15 5.37,13.71 0.36,1.61 1.44,3.64 2.94,3.64l14.87 -0.01 -0.45 -0.64c-3.49,-3.94 0.39,-12.66 -2.99,-16.56 -0.66,-0.77 -2.39,-1.73 -3.81,-2.22 -1.61,-0.56 -3.49,-0.87 -5.27,-1.03 0.52,-0.28 0.55,-0.2 1.24,-0.29 0.49,-0.06 0.93,-0.14 1.42,-0.23 2.82,-0.53 6.57,-1.78 7.57,-4.81 1.17,-3.56 -1.29,-11.5 1.94,-14.85 0.03,-0.03 0.06,-0.06 0.09,-0.08l0.17 -0.19c0.02,-0.02 0.06,-0.07 0.08,-0.1l-14.86 -0.01c-1.37,0 -2.48,2.08 -2.85,3.53 -0.43,1.66 -0.4,4.17 -0.46,5.96 -0.17,4.78 0.55,7.79 -4.99,7.82l-0.09 -17.21c-0.72,-0.19 -15.78,-0.22 -16.8,-0.03l0 40.92z"/>
   <path class="fil0" d="M129.13 6.9c3.43,-0.72 3.22,2.11 3.22,4.68l0 16.2c0,2.54 0.41,6.06 -1.72,6.49 -1.03,0.21 -2.69,0.22 -3.08,-1.01 -0.33,-1.01 -0.33,-2.68 -0.34,-3.77 -0.02,-3.04 -0.13,-18.17 0.09,-20.23 0.16,-1.55 0.37,-2.05 1.84,-2.36zm-2.72 -6.61c-5.05,0.35 -11.42,1.81 -14.27,5.74 -1.62,2.24 -1.6,4.96 -1.7,8.05 -0.11,3.59 -0.29,15.99 0.6,18.92 3.05,10.11 30.07,10.6 36.32,2.18 1.68,-2.27 1.66,-4.87 1.75,-8.01 0.1,-3.24 0.04,-6.56 0.03,-9.81 -0.01,-7.68 0.26,-11.15 -5.4,-14.37 -4.43,-2.52 -11.56,-3.09 -17.34,-2.69z"/>
   <path class="fil0" d="M217.5 26.46c-0.1,-1.65 2.48,-15.41 3.06,-17.03l2.49 17.02 -5.56 0.01zm-18.24 14.59l17.29 0.02 0.98 -7.36 6 -0 0.95 7.3 17.1 0.06 -9.55 -41 -24.29 -0.02 -8.48 40.99z"/>
   <path class="fil0" d="M56.67 127.11l23.71 0 0.01 -36.53 -4.74 -0.05c-0.7,3.1 0.32,9.93 -0.13,11.76l-1.65 -0.01c-0.22,-1.24 0.02,-4.35 0.05,-5.78 0.03,-1.52 0.15,-4.6 -0.18,-5.96l-16.9 -0.05 -0.17 36.63z"/>
   <path class="fil1" d="M29.74 164.66c0,4.94 -0.11,8.43 -0.35,10.48 -0.23,2.06 -0.95,3.94 -2.18,5.63 -1.22,1.7 -2.88,3 -4.96,3.92 -2.08,0.91 -4.51,1.37 -7.27,1.37 -2.63,0 -4.98,-0.43 -7.07,-1.29 -2.09,-0.86 -3.78,-2.14 -5.04,-3.86 -1.27,-1.72 -2.03,-3.59 -2.28,-5.61 -0.24,-2.03 -0.36,-5.57 -0.36,-10.63l0 -8.41c0,-4.94 0.11,-8.43 0.35,-10.48 0.23,-2.06 0.95,-3.94 2.18,-5.63 1.22,-1.7 2.88,-3 4.96,-3.91 2.08,-0.91 4.5,-1.37 7.27,-1.37 2.63,0 4.98,0.44 7.07,1.29 2.09,0.86 3.78,2.14 5.04,3.86 1.27,1.72 2.03,3.59 2.28,5.61 0.24,2.03 0.36,5.57 0.36,10.63l0 8.41zm-12.8 -16.15c0,-2.28 -0.12,-3.74 -0.37,-4.38 -0.25,-0.63 -0.76,-0.95 -1.52,-0.95 -0.65,0 -1.15,0.26 -1.5,0.78 -0.34,0.51 -0.52,2.03 -0.52,4.56l0 22.94c0,2.85 0.11,4.61 0.34,5.27 0.23,0.67 0.76,1 1.58,1 0.85,0 1.4,-0.38 1.64,-1.15 0.24,-0.77 0.35,-2.6 0.35,-5.49l0 -22.58z"/>
   <path id="_1" class="fil1" d="M34.55 135.85l12.87 0c3.48,0 6.15,0.27 8.03,0.82 1.86,0.55 3.27,1.34 4.22,2.36 0.94,1.04 1.57,2.29 1.92,3.75 0.33,1.47 0.5,3.74 0.5,6.82l0 4.28c0,3.13 -0.32,5.42 -0.97,6.85 -0.64,1.44 -1.83,2.55 -3.55,3.31 -1.73,0.77 -3.99,1.15 -6.77,1.15l-3.43 0 0 19.82 -12.8 0 0 -49.15zm12.8 8.39l0 12.52c0.36,0.02 0.67,0.03 0.93,0.03 1.17,0 1.98,-0.29 2.43,-0.87 0.45,-0.57 0.67,-1.77 0.67,-3.59l0 -4.05c0,-1.68 -0.26,-2.78 -0.79,-3.28 -0.52,-0.51 -1.6,-0.76 -3.25,-0.76z"/>
   <polygon id="_2" class="fil1" points="65.74,135.85 87.06,135.85 87.06,145.66 78.54,145.66 78.54,155.05 86.5,155.05 86.5,164.37 78.54,164.37 78.54,175.18 87.93,175.18 87.93,185 65.74,185 "/>
   <polygon id="_3" class="fil1" points="120.89,135.85 120.89,185 108.09,185 108.09,164.37 104.36,164.37 104.36,185 91.56,185 91.56,135.85 104.36,135.85 104.36,153.43 108.09,153.43 108.09,135.85 "/>
   <path id="_4" class="fil1" d="M155.82 173.5c0,3.66 -0.48,6.29 -1.43,7.88 -0.94,1.61 -2.39,2.6 -4.32,3 -1.94,0.4 -5.01,0.61 -9.24,0.61l-14.78 0 0 -49.15 25.04 0 0 8.51 -12.24 0 0 8.33 1.98 0c3.94,0 6.93,0.23 8.95,0.69 2.02,0.47 3.53,1.49 4.54,3.09 1,1.58 1.5,4.08 1.5,7.48l0 9.56zm-12.8 -1.48l0 -7.1c0,-2.07 -0.21,-3.32 -0.62,-3.77 -0.41,-0.45 -1.6,-0.69 -3.54,-0.76l0 16.16c1.63,0 2.72,-0.21 3.29,-0.62 0.58,-0.41 0.87,-1.72 0.87,-3.9z"/>
   <path id="_5" class="fil1" d="M185.63 135.85l-3.49 32.55c-0.55,5.14 -1.14,8.75 -1.76,10.82 -0.63,2.07 -1.84,3.55 -3.64,4.44 -1.8,0.89 -4.76,1.34 -8.88,1.34l-7.46 0 0 -6.34 0.77 0c1.69,0 2.73,-0.13 3.13,-0.41 0.39,-0.27 0.6,-0.68 0.6,-1.25 0,-0.04 -0.25,-1.43 -0.74,-4.16l-6.74 -36.98 11.11 0 4.02 30.65 1.92 -30.65 11.15 0z"/>
   <path id="_6" class="fil1" d="M188.2 135.85l12.87 0c3.48,0 6.15,0.27 8.03,0.82 1.86,0.55 3.27,1.34 4.22,2.36 0.94,1.04 1.57,2.29 1.92,3.75 0.33,1.47 0.5,3.74 0.5,6.82l0 4.28c0,3.13 -0.32,5.42 -0.97,6.85 -0.64,1.44 -1.83,2.55 -3.55,3.31 -1.73,0.77 -3.99,1.15 -6.77,1.15l-3.43 0 0 19.82 -12.8 0 0 -49.15zm12.8 8.39l0 12.52c0.36,0.02 0.67,0.03 0.93,0.03 1.17,0 1.98,-0.29 2.43,-0.87 0.45,-0.57 0.67,-1.77 0.67,-3.59l0 -4.05c0,-1.68 -0.26,-2.78 -0.79,-3.28 -0.52,-0.51 -1.6,-0.76 -3.25,-0.76z"/>
   <polygon id="_7" class="fil1" points="241.58,145.66 232.19,145.66 232.19,185 219.39,185 219.39,135.85 241.58,135.85 "/>
  </g>
 </g>
</svg>
