<?xml version="1.0" encoding="UTF-8"?>
<!DOCTYPE svg PUBLIC "-//W3C//DTD SVG 1.1//EN" "http://www.w3.org/Graphics/SVG/1.1/DTD/svg11.dtd">
<!-- Creator: CorelDRAW 2021 (64-Bit) -->
<svg xmlns="http://www.w3.org/2000/svg" xml:space="preserve" width="27.8622mm" height="20.3769mm" version="1.1" style="shape-rendering:geometricPrecision; text-rendering:geometricPrecision; image-rendering:optimizeQuality; fill-rule:evenodd; clip-rule:evenodd"
viewBox="0 0 674.05 492.96"
 xmlns:xlink="http://www.w3.org/1999/xlink"
 xmlns:xodm="http://www.corel.com/coreldraw/odm/2003">
 <defs>
  <style type="text/css">
   <![CDATA[
    .fil0 {fill:black}
   ]]>
  </style>
 </defs>
 <g id="Слой_x0020_1">
  <metadata id="CorelCorpID_0Corel-Layer"/>
  <g id="_2908424339472">
   <path class="fil0" d="M510.85 267.16c0.43,-0.26 0.05,-0.15 0.86,-0.35l59.61 -0.05c13.9,-0 22.27,-2.03 30.53,7.05 11.48,12.63 3.85,39.1 -13.48,39.1l-77.98 -0.08c0.01,-3.26 -0.28,-44.16 0.47,-45.67zm-64.55 -24.8c3.65,0.01 130.56,1.5 134.42,2.45 6.77,1.66 5.77,7.13 -1.31,7.73l-97.81 1.05c-10.89,0.1 -24.73,-0.51 -35.26,0.44l-0.3 103.44c43.16,-0.44 86.57,-0.01 129.76,-0.01 18.25,0 44.91,2.1 60.32,-4.51 14.61,-6.27 25.51,-18.17 31.29,-34.12 6.36,-17.54 6.63,-38.2 0.15,-55.73 -6.06,-16.42 -15.93,-28.36 -30.51,-34.9 -9.33,-4.19 -17.13,-4.48 -28.06,-4.43l-64.59 0.3c-9.89,0.04 -23.21,0.86 -32.69,0.02l0.03 -43.04 137.18 -0.04 -0.02 -42.71 -202.33 -0.03 -0.28 104.07z"/>
   <path class="fil0" d="M66.01 272.76l-0 -133.96 -65.98 -0.15 -0.02 217.17 69.81 0.05c1.77,-3.68 6.08,-8.67 8.57,-12.66 7.14,-11.46 18.09,-26.56 25.81,-38.15 2.24,-3.36 33.71,-49 34.38,-50.98l-10.28 -0.01c-1.54,1.41 -2.94,2.92 -5.8,2.45 -2.46,-0.4 -3.77,-2.51 -4.67,-4.34l-5.33 -0.02c-2.16,4.11 -6.9,7.44 -13.49,6.04 -3.01,-0.64 -4.78,-2.02 -6.3,-3.65 -1.13,-1.21 -1.34,-2.3 -1.99,-3.07 -0.69,-0.81 -4.57,-1.88 -1.09,-4.03 0.08,-0.05 0.22,-0.08 0.3,-0.13 1.87,-1.18 0.87,-1.66 2.72,-3.67 6.45,-7.02 17.67,-3.73 19.58,2.2l5.82 -0.01c2.78,-7.54 9.27,-2.62 10.68,-2.55 4.81,0.25 11.94,0.16 16.79,-0.08 2.03,-2.34 4.8,-7.23 6.52,-10.03 1.47,-2.39 4.86,-8.25 6.5,-10.03l0.12 20.12 47.5 0c2.25,-7.68 -0.08,-24 0.22,-32.85l4.91 -0.07c0.52,11.08 -1.03,21.17 0,32.85l13.36 0.08 0 -105.17 -68.7 0.01c-1.36,0.79 -4.63,6.29 -5.74,7.99l-80.93 122.25c-1.17,1.79 -1.93,3.37 -3.28,4.41z"/>
   <path class="fil0" d="M0 116.34l167.88 0.09c0.83,-2.77 0.28,-108.13 0.31,-114.16l-47.01 0.01 0 91.18 -13.82 0.11 -0 -91.3 -46.76 0.01 -0 91.31 -13.85 0.06 0 -91.11c-2.13,-0.52 -44.52,-0.53 -46.75,-0.01l0 113.82z"/>
   <path class="fil0" d="M233.4 242.03l63.26 0.26c-0.05,-9.28 -1.07,-43.23 0.82,-49.56 4.61,-15.51 21.74,-12 38.49,-12 33.66,0 67.43,-0.28 101.07,0.01l0.16 -42.1c-37.78,0.25 -76.86,-0.2 -114.84,-0.38 -12.01,-0.06 -26.88,-0.88 -38.56,0.1 -23.31,1.96 -38.82,14.11 -46.18,30.79 -5.46,12.39 -4.33,20.1 -4.33,34.4 0,7.68 -0.37,32.95 0.1,38.49z"/>
   <path class="fil0" d="M437.74 356.95l-0.01 -43.14 -124.89 0.53c-8.05,0.01 -13.48,-3.5 -15.47,-9.62 -1.57,-4.81 -0.77,-41.34 -0.69,-49.29l-63.26 0.35c-0.46,4.7 -0.12,31.03 -0.12,38.01 0,16.44 -1,25.1 8.35,39.45 9.28,14.24 25.72,22.58 43.07,23.66 11.81,0.73 26.04,0.04 38.11,0.04l114.93 0.01z"/>
   <path class="fil0" d="M424.54 96.87l-0.08 19.46c10.23,0.83 26.83,0.08 37.13,-0.9 12.07,-1.15 20.54,-4.55 23.32,-14.87 2.85,-10.57 0.6,-59.72 1.34,-75.34l13.49 -0.12 0.07 91.18 46.76 0.17 -0.01 -114.16c-34.74,0.4 -72.1,0.01 -107.13,0.01l0.01 81.74c0.01,13.59 -2.63,12.07 -14.9,12.85z"/>
   <path class="fil0" d="M186.93 116.36c13.08,0.43 31.22,0.08 44.72,0.07 2.97,0 2.04,-0.99 2.05,-4.29l0.21 -44.01c23.02,0.06 10.9,19.91 14.94,38.16 1,4.49 4.02,10.14 8.19,10.14l41.38 -0.02 -1.26 -1.78c-9.72,-10.97 1.08,-35.23 -8.32,-46.09 -1.84,-2.13 -6.66,-4.8 -10.61,-6.17 -4.47,-1.55 -9.7,-2.43 -14.66,-2.87 1.45,-0.77 1.54,-0.55 3.46,-0.8 1.38,-0.18 2.59,-0.38 3.96,-0.64 7.85,-1.46 18.28,-4.95 21.06,-13.39 3.26,-9.9 -3.6,-31.99 5.39,-41.33 0.07,-0.07 0.18,-0.15 0.24,-0.22l0.48 -0.52c0.05,-0.06 0.15,-0.19 0.23,-0.28l-41.35 -0.04c-3.82,0 -6.89,5.79 -7.94,9.83 -1.19,4.63 -1.11,11.6 -1.29,16.58 -0.47,13.3 1.52,21.68 -13.87,21.75l-0.26 -47.88c-2,-0.54 -43.9,-0.6 -46.76,-0.07l0 113.87z"/>
   <path class="fil0" d="M359.36 19.59c9.54,-2.11 8.96,6.14 8.97,13.63l0 47.17c0,7.4 1.14,17.64 -4.8,18.91 -2.87,0.61 -7.48,0.63 -8.58,-2.94 -0.91,-2.94 -0.93,-7.81 -0.94,-10.98 -0.05,-8.87 -0.36,-52.91 0.24,-58.92 0.45,-4.5 1.02,-5.97 5.11,-6.87zm-7.58 -19.26c-14.06,1.02 -31.78,5.28 -39.7,16.72 -4.52,6.53 -4.44,14.45 -4.72,23.43 -0.32,10.45 -0.8,46.56 1.66,55.09 8.49,29.45 83.68,30.86 101.08,6.33 4.68,-6.6 4.61,-14.18 4.87,-23.33 0.27,-9.45 0.1,-19.1 0.1,-28.57 -0.02,-22.35 0.72,-32.46 -15.04,-41.84 -12.32,-7.34 -32.17,-8.99 -48.25,-7.84z"/>
   <path class="fil0" d="M605.28 75.76c-0.27,-4.59 6.89,-42.9 8.52,-47.4l6.94 47.37 -15.47 0.03zm-50.76 40.6l48.12 0.07 2.73 -20.48 16.7 -0 2.65 20.33 47.6 0.16 -26.59 -114.1 -67.61 -0.05 -23.59 114.08z"/>
   <path class="fil0" d="M157.71 355.85l65.98 0 0.03 -101.67 -13.18 -0.14c-1.95,8.62 0.9,27.65 -0.36,32.73l-4.6 -0.02c-0.62,-3.44 0.06,-12.12 0.14,-16.1 0.08,-4.23 0.43,-12.8 -0.51,-16.6l-47.03 -0.14 -0.47 101.93z"/>
   <polygon class="fil0" points="294.21,443.34 301.63,443.33 301.64,490.46 327.88,490.47 327.71,378.06 301.64,378.15 301.62,418.33 294.08,418.36 293.99,378.07 267.66,378.17 267.66,490.47 294.07,490.28 "/>
   <path class="fil0" d="M59.59 392.88c-0,-2.84 0.2,-5.84 0.77,-8.54 0.65,-3.04 1.75,-4.23 2.38,-6.28l-24.03 0.08c-4.98,5.38 -4.16,17.41 -4.4,25.62 -0.32,11.27 1.74,20.68 -7.87,21.86l-0.06 -47.47 -26.31 -0.04 -0.06 112.35 26.42 0.02 0.07 -47.44c6.1,-0.51 8.08,5.64 8.08,10.62 0,6.91 -1.73,35.54 4.8,36.82l23.42 -0.16c-3.07,-5.77 -3.2,-11.54 -3.18,-18.52 0.05,-19.39 3,-33.81 -16.92,-37.43 5.06,-2.02 13.31,-2.69 16.13,-13 1.56,-5.69 0.77,-21.54 0.76,-28.48z"/>
   <path class="fil0" d="M670.86 395.61c0,-7.61 0.01,-11.59 3.16,-17.49l-23.77 -0.03c-5.31,4.55 -4.48,17.67 -4.69,25.69 -0.22,7.98 1.84,21.86 -7.88,21.73l-0.17 -47.44 -26.17 0.02 -0.09 112.39 26.42 0.02 0.1 -47.52c10.01,-0.11 8.06,12.67 8.06,21.56 0,12.15 -1.17,16.48 3.9,25.92l24.32 0.03c-2.21,-6.08 -3.25,-8.55 -3.2,-15.97l0.01 -20.41c0,-6.2 -1.4,-10.62 -4.78,-14 -4.77,-4.79 -5.49,-3.46 -12.09,-5.84 6.28,-2.17 7.79,-1.61 12.16,-5.99 3.22,-3.24 4.71,-7.63 4.71,-13.62l0 -19.05z"/>
   <path class="fil0" d="M440.19 422.27c-8.74,-0.1 -7.88,-4.81 -7.89,-12.61 -0,-7.6 -0.64,-12.62 7.95,-12.32l-0.07 24.92zm26.17 -44.13c-8.82,-0.68 -22.07,-0.26 -31.06,0.12 -10.31,0.43 -18.28,1.91 -22.67,8.77 -4.59,7.18 -4.95,17.37 -4.44,27.19 0.22,4.3 0.67,9.84 3.01,12.71 3.37,4.12 7.71,3.8 10.36,4.96 -1.35,0.86 -4.36,1.81 -6.13,2.83 -7.29,4.2 -7.26,11.46 -7.37,19.84 -0.16,11.9 -0.08,23.97 -0.01,35.91l24.24 0.02c0,-9.86 0,-19.72 0,-29.58 0,-12.84 -2.17,-21.32 7.94,-21.05l0.01 50.61 26.21 -0.13 -0.11 -112.21z"/>
   <path class="fil0" d="M370.63 395.44c2.56,6.93 1.38,32.89 1.38,42.34 0,5.59 0.35,27.58 -0.52,32.28 -0.62,3.37 -3.53,5.35 -6.09,2.68 -2.42,-2.52 -1.37,-53.92 -1.35,-63.99 0.02,-8.6 -0.84,-15.54 6.58,-13.32zm-32.54 68.19c0.37,6.81 1.76,12.2 4.79,17.13 1.06,1.73 3.77,4.66 5.32,6 9.86,8.49 31,8.41 41.45,-1.64 9.51,-9.14 8.52,-23.23 8.57,-36 0.06,-14.53 0.31,-29.51 -0.3,-44.01 -0.29,-6.82 -1.68,-12.41 -4.83,-17.19 -12.8,-19.45 -49.87,-15.65 -54.35,10.42 -1.85,10.78 -1.23,54.49 -0.65,65.29z"/>
   <path class="fil0" d="M154.91 450.42c-0.21,-6.34 1.44,-17.04 2.13,-23.6 0.63,-5.99 1.35,-17.45 2.73,-22.55l3.85 46.13 -8.72 0.02zm0.04 19.89l9.58 0.05 1.37 20.11 26.85 -0 -15.21 -112.4 -37.85 0.04 -13.27 112.37 27.2 -0.08 1.35 -20.08z"/>
   <path class="fil0" d="M232.03 445.32c-0.01,6.64 0.15,13.45 -0.09,20.06 -0.1,2.78 -0.02,6.41 -2.08,7.79 -2.63,1.76 -5.88,0.4 -6.59,-2.51 -1.36,-5.59 -0.57,-47.34 -0.57,-58.73 0,-4.53 -1.08,-15.18 3.07,-16.77 10.54,-4.03 4.34,20.33 6.44,32.01l25.92 -0.09c1.08,-8.95 0.18,-31.34 -3.99,-38.1 -5.36,-8.68 -14.76,-13.73 -29.3,-13.09 -13.56,0.6 -21.86,7.3 -25.95,16.9 -3.68,8.65 -2.64,29 -2.64,39.55 0,15.14 -2.57,45.47 9.88,54.08 4.71,3.26 7.92,5.01 14.77,6 6.52,0.95 13.57,0.55 19.27,-1.68 2.94,-1.15 4.34,-2.12 6.65,-3.77 12.68,-9.1 11.4,-23.94 11.44,-41.66l-26.23 -0z"/>
   <path class="fil0" d="M575.64 445.31c0.01,3.89 1.16,25.77 -2.01,27.85 -2.53,1.66 -5.83,0.48 -6.61,-2.01 -1.43,-4.57 -0.73,-48.15 -0.73,-58.77 0,-4.37 -0.87,-15.25 2.55,-17.02 3.24,-1.69 5.87,0.12 6.38,3.08 1.03,5.98 -0.2,20.97 0.5,28.72l26.1 -0.17c0.58,-10.14 0.57,-30.19 -3.98,-37.94 -4.99,-8.49 -15.37,-13.73 -29.22,-13.18 -13.43,0.54 -21.9,7.21 -26.07,16.78 -3.75,8.6 -2.69,29.15 -2.69,39.68 0,12.95 -0.8,28.63 2.03,40.82 1.55,6.68 3.95,10.03 7.94,13.34 10.85,8.98 35.24,9.62 46.07,-4.65 6.74,-8.88 5.97,-23.86 5.97,-36.53l-26.23 0z"/>
   <path class="fil0" d="M94.77 397.4c8.07,-0.56 8.16,3.44 8.16,10.45l0 5.9c0,6.59 0.38,13.56 -8.14,12.05l-0.02 -28.4zm0.08 47.78c7.62,-0.53 23.7,1.4 28.16,-10.39 2.72,-7.19 2.28,-27.54 1.56,-36.02 -1.08,-12.79 -6.37,-18.02 -18.52,-19.98 -10.2,-1.65 -26.63,-0.77 -37.73,-0.74l0.01 112.41 26.44 -0.01 0.07 -45.28z"/>
   <path class="fil0" d="M503.09 397.29c9.27,0.29 8.16,3.98 8.16,14.65 0,9.15 0.85,14.77 -8.14,13.97l-0.02 -28.61zm0.11 47.8c9.37,0.18 24.3,0.53 28.24,-10.48 2.6,-7.26 2.22,-27.82 1.43,-36.28 -1.19,-12.81 -6.71,-17.79 -19.1,-19.63 -5.35,-0.79 -31.47,-1.03 -37.09,-0.56l-0.01 112.19c2.86,0.36 24.25,0.42 26.43,-0.11l0.1 -45.14z"/>
  </g>
 </g>
</svg>
