<?xml version="1.0" encoding="UTF-8"?>
<!DOCTYPE svg PUBLIC "-//W3C//DTD SVG 1.1//EN" "http://www.w3.org/Graphics/SVG/1.1/DTD/svg11.dtd">
<!-- Creator: CorelDRAW 2021 (64-Bit) -->
<svg xmlns="http://www.w3.org/2000/svg" xml:space="preserve" width="27.8623mm" height="22.8932mm" version="1.1" style="shape-rendering:geometricPrecision; text-rendering:geometricPrecision; image-rendering:optimizeQuality; fill-rule:evenodd; clip-rule:evenodd"
viewBox="0 0 344.3 282.89"
 xmlns:xlink="http://www.w3.org/1999/xlink"
 xmlns:xodm="http://www.corel.com/coreldraw/odm/2003">
 <defs>
  <style type="text/css">
   <![CDATA[
    .fil0 {fill:black}
   ]]>
  </style>
 </defs>
 <g id="Слой_x0020_1">
  <metadata id="CorelCorpID_0Corel-Layer"/>
  <g id="_2908185407472">
   <path class="fil0" d="M261.14 163.65l0.08 -23.58c1.71,-0.21 34.1,-0.05 38.19,-0.06 2.88,0 4.08,0.12 6.23,1.51 2.84,1.83 5.29,5.22 5.25,10.25 -0.04,4.94 -2.33,8.46 -5.1,10.39 -3.22,2.24 -9.46,1.49 -13.88,1.49 -10.25,0 -20.51,0 -30.76,0zm-32.97 -36.23c20.93,0.41 42.34,0.6 63.22,1.06 2.4,0.05 5.92,-0.37 7.51,1.07 1.07,0.97 0.7,2.06 -0.32,2.6 -1.1,0.58 -2.38,0.59 -3.78,0.58 -11.13,-0.02 -22.33,0.34 -33.45,0.34l-33.09 0.32c-0.29,1.27 -0.18,41.82 -0.18,46.43 0,1.99 -0.22,4.8 0.01,6.67 24.85,-0.05 49.71,-0 74.56,-0 5.66,0 12.56,0.42 17.87,-0.69 15.23,-3.18 23.77,-17.66 23.77,-32.5l0 -2.07c0,-8.91 -3.7,-18.17 -8.02,-23.24l-1.76 -2.01c-1.79,-1.92 -4.41,-3.77 -6.77,-5.05 -4.91,-2.68 -9.67,-3.03 -15.35,-3.02l-29.35 0.13c-6.28,0.01 -15.18,-0.08 -21.2,0.13l-0 -22.13c23.09,-0.07 46.67,0.19 69.67,-0l0.75 -0.01 0.06 -21.9 -104.01 -0.04 -0.12 53.32z"/>
   <path class="fil0" d="M33.89 143.05l-0.01 -68.67 -33.83 -0.07 -0.05 111.37 35.86 0 8.8 -13.07c0.76,-1.12 1.46,-2.08 2.18,-3.15l15.52 -22.88c1.49,-2.17 2.87,-4.33 4.38,-6.48l4.43 -6.62 -5.54 -0.01c-1.39,2.27 -4.26,1.37 -5.14,-0.98 -3.9,-0.02 -2.22,-0.19 -3.58,1.21 -2.31,2.38 -5.86,2.64 -8.38,0.92 -1.05,-0.72 -1.39,-1.29 -2,-2.67 -0.92,-0.35 -1.22,-0.3 -1.18,-1.45 0.6,-0.4 0.44,-0.31 1.18,-0.61 0.07,-0.06 1.02,-3.53 5.36,-3.74 2.02,-0.1 4.33,0.86 5.39,2.47 0.57,0.88 0.1,0.66 3.28,0.66 0.49,-1.52 2.14,-2.7 3.85,-1.94 0.84,0.38 0.52,0.63 1.58,0.66 2.75,0.08 5.67,-0.01 8.45,-0.01 0.45,-0.09 0.58,-0.46 0.97,-1.1l5.88 -9.21 0.04 10.31 24.49 0c0.79,-5.67 -0.04,-11.19 0,-16.86l2.54 -0.06c-0,5.84 -0.64,11.05 -0.01,16.93l6.85 -0 0 -53.96 -35.43 -0.02c-0.65,0.66 -4.94,7.45 -5.69,8.53 -5.6,8.1 -11.69,17.66 -17.15,25.9l-22.14 33.48c-0.13,0.2 -0.24,0.38 -0.34,0.52l-0.57 0.62z"/>
   <path class="fil0" d="M0 62.86c1.79,0.17 77.52,0.06 86.19,0.06l0 -61.63 -24.06 0.02 0 49.26 -7.06 -0.02 0 -49.26 -24.02 0 0 49.25 -7.06 0.03 -0 -49.25 -23.98 -0.02 0 61.57z"/>
   <path class="fil0" d="M190.54 282.84c3.38,0 21.7,0.12 23.51,-0.06 -0.03,-3.21 -0.15,-53.52 0.17,-55.7l9.64 55.69c1.19,0.17 15.26,0.16 16.72,0.01 1.65,-9.45 3.06,-18.91 4.56,-28.36 0.5,-3.12 4.23,-27.46 4.65,-28.28l0.1 56.7 23.49 0 -0 -85.58 -35 -0 -6.08 39.56c-0.71,-2.16 -4.42,-25.35 -5.17,-29.62 -0.58,-3.29 -1.35,-6.7 -1.81,-9.91l-34.76 -0.02 0 85.58z"/>
   <polygon class="fil0" points="0,282.84 26.95,282.83 26.95,214.3 34.87,214.3 34.87,282.75 61.78,282.84 61.78,197.12 -0,197.08 "/>
   <path class="fil0" d="M217.27 52.32l0 10.58 7.53 0.03c6.12,0 14.81,-0.15 18.76,-2.43 4.87,-2.8 5.35,-7.5 5.35,-11.89l0 -34.97 6.93 0 0 49.25 24.02 0.01 -0 -61.58 -54.95 -0.03 0.02 42.12c0,2.11 0.21,4.76 -0.47,6.7 -0.86,2.46 -3.96,1.9 -7.2,2.2z"/>
   <path class="fil0" d="M95.57 62.86l23.98 0.06 0.13 -26.01c2.68,-0.3 6.18,1.15 7.13,3.52 0.79,1.99 -0.15,12.59 0.5,16.51 0.2,1.23 0.56,2.39 1.18,3.49 0.48,0.86 1.67,2.26 2.64,2.5l21.88 0c-0.94,-1.45 -1.51,-1.39 -2.3,-3.78 -2.78,-8.41 2.64,-18.88 -4.83,-23.76 -4.22,-2.76 -10.19,-2.94 -11.27,-3.27 0.69,-0.22 2.34,-0.32 3.22,-0.47 1.93,-0.32 3.94,-0.85 5.6,-1.55 1.66,-0.7 3.06,-1.55 4.14,-2.65 2.02,-2.06 2.41,-4.1 2.41,-6.63 0,-3.92 -0.53,-12.24 0.56,-15.73 0.8,-2.56 1.42,-2.47 2.45,-3.77l-21.86 -0.01c-2.07,0.71 -3.33,3.87 -3.73,5.92 -0.82,4.21 -0.19,12.97 -0.93,16.23 -0.6,2.67 -3.84,4.2 -6.78,3.86l-0.13 -25.98 -24 -0.03 -0 61.57z"/>
   <path class="fil0" d="M184.33 10.47c3.29,-0.41 3.9,1.32 4.13,3.17 0.44,3.61 0.19,14.03 0.19,18.01 0,4.97 0.25,13.23 -0.17,18.01 -0.15,1.78 -0.23,3.79 -2.85,4.09 -3.51,0.4 -4.03,-1.16 -4.26,-3.18 -0.22,-1.91 -0.21,-3.93 -0.21,-5.88l0 -24.24c0,-1.99 -0.06,-4.02 0.11,-6.01 0.17,-1.9 0.34,-3.64 3.05,-3.98zm-2.27 -10.4c-5.71,0.28 -10.42,1.21 -14.41,2.95 -9.81,4.29 -10.31,10.78 -10.33,18.35 -0.02,8.03 -0.34,17.25 0.16,25.16 0.29,4.47 0.65,6.88 3.7,10.22 4.61,5.04 14.14,8 26.77,7.39 11.66,-0.56 19.16,-4.12 22.69,-10.03 2.7,-4.52 1.92,-18.18 1.92,-23.96 0,-4.18 0.04,-8.3 -0.21,-12.46 -0.27,-4.45 -0.66,-6.82 -3.66,-10.19 -2.16,-2.43 -5.82,-4.52 -10.28,-5.8 -4.74,-1.36 -10.65,-1.89 -16.34,-1.62z"/>
   <path class="fil0" d="M309.73 40.86c0.33,-4.21 1.28,-8.72 2.05,-12.91 0.32,-1.76 2.07,-11.67 2.52,-12.58 0.4,2.11 0.56,4.34 0.85,6.47 0.29,2.15 0.55,4.24 0.86,6.4 0.59,4.21 1.44,8.43 1.94,12.63l-8.21 -0.01zm-25.86 22.06l24.76 0 1.41 -11.08 8.53 0.01 1.26 11.07 24.46 0 -13.69 -61.55c-0.94,-0.21 -30.89,-0.08 -34.55,-0.08l-12.19 61.63z"/>
   <path class="fil0" d="M309.16 240.06c1.14,-0.2 4.02,0.17 5.17,0.4 1.83,0.37 2.55,0.89 2.96,2.68 0.67,2.92 0.39,7.72 0.39,10.94 0,3.03 0.29,8.21 -0.49,10.83 -0.5,1.69 -1.27,2.23 -2.98,2.65 -1.19,0.29 -3.85,0.57 -5.07,0.36l0.02 -27.86zm-26.63 42.77l36.89 -0.04c6.1,-0.06 13.93,-0.32 18.56,-3.04 2.01,-1.18 3.86,-3.34 4.86,-6.1 0.94,-2.61 1.45,-6.51 1.45,-9.59l0 -19.11c0,-7.79 -2.36,-14.11 -10.14,-16.63 -6.37,-2.07 -17.78,-1.79 -25.01,-1.79 0.13,-9.42 0,-19.83 0,-29.36 -1.57,-0.27 -23.15,-0.09 -26.61,-0.09l0 85.76z"/>
   <path class="fil0" d="M152.01 211.93c9.17,0.03 8.44,2.59 8.44,10.98 0,7.43 0.45,11.59 -8.48,10.76l0.04 -21.74zm-26.91 70.91l26.86 0 0 -34.44c8.15,0 17.26,0.63 24.5,-3.39 1.45,-0.81 2.5,-1.8 3.47,-2.9 3.55,-4.04 3.24,-15.68 3,-22.12 -0.26,-6.96 -0.27,-14.46 -6.66,-18.45 -5.37,-3.35 -13.66,-4.28 -21.04,-4.28l-30.13 0 0 85.58z"/>
   <path class="fil0" d="M70.86 197.42l-0 85.41c5.66,0 44.36,0.16 46.58,-0.06l-0 -17.07 -19.72 -0.09 0 -18.6 16.75 0 -0 -16.36 -16.75 0 -0 -16.19 17.91 -0 0 -17.22 -44.77 0.17z"/>
   <path class="fil0" d="M118.99 127.25c0.82,0.23 30.87,0.24 32.5,0.24 -0,-4.31 0,-8.61 0,-12.91 0,-7.53 -1.83,-17.09 7.35,-18.44 3.51,-0.52 9.16,-0.2 12.93,-0.2l38.74 0c3.98,0 9.18,0.29 13.01,-0.03l0.03 -21.54c-2.88,-0.23 -15.73,-0.12 -19.59,-0.12l-49.25 -0.17c-9.72,0 -15.83,-0.58 -24.61,5.05 -1.07,0.68 -1.83,1.36 -2.66,2.16 -3.03,2.93 -4.35,4.53 -6.28,8.7 -2.99,6.46 -2.17,10.7 -2.17,17.54 0,6.58 -0.01,13.16 0,19.74z"/>
   <path class="fil0" d="M118.99 134.44c-0.01,2.6 -0.18,27.65 0.04,29.11 0.33,2.24 1.54,5.57 2.41,7.39 4.42,9.25 13.94,14.79 23.98,15.31 4.27,0.22 14.52,0.01 19.46,0.01 19.64,0 39.29,0 58.93,0l0 -22.17c-17.08,0.18 -34.13,-0.01 -51.19,0.22 -4.23,0.06 -8.51,0.09 -12.74,0.09 -3.62,0 -6.77,-1.3 -8.04,-4.92 -0.78,-2.24 -0.36,-21.32 -0.36,-25.3 -1.56,-0.01 -31.55,0.02 -32.5,0.28z"/>
   <path class="fil0" d="M79.82 185.69l33.88 -0 -0 -52.16 -6.87 -0.06c-0.4,5.75 0.02,11.01 0.02,16.75l-2.54 -0.01c0,-5.64 0.43,-11.11 0,-16.73l-24.25 -0.09 -0.24 52.3z"/>
  </g>
 </g>
</svg>
