<svg width="117" height="28" viewBox="0 0 117 28" fill="none" xmlns="http://www.w3.org/2000/svg">
<mask id="path-1-inside-1_479_584" fill="white">
<path d="M115.522 0.498047C115.973 0.498047 116.339 0.863539 116.339 1.31445V17.6191L98.7773 27.4043H1.14844C0.697544 27.4043 0.332031 27.0388 0.332031 26.5879V1.31445C0.332031 0.863554 0.697545 0.498072 1.14844 0.498047H115.522Z"/>
</mask>
<path d="M116.339 17.6191L117.277 19.3029L118.266 18.7517V17.6191H116.339ZM98.7773 27.4043V29.3318H99.2781L99.7155 29.0881L98.7773 27.4043ZM1.14844 27.4043L1.14834 29.3318H1.14844V27.4043ZM1.14844 0.498047V-1.42948H1.14833L1.14844 0.498047ZM115.522 0.498047V2.42558C114.909 2.42558 114.411 1.92808 114.411 1.31445H116.339H118.266C118.266 -0.201006 117.038 -1.42948 115.522 -1.42948V0.498047ZM116.339 1.31445H114.411V17.6191H116.339H118.266V1.31445H116.339ZM116.339 17.6191L115.401 15.9353L97.8391 25.7205L98.7773 27.4043L99.7155 29.0881L117.277 19.3029L116.339 17.6191ZM98.7773 27.4043V25.4768H1.14844V27.4043V29.3318H98.7773V27.4043ZM1.14844 27.4043L1.14854 25.4768C1.76201 25.4768 2.25956 25.9741 2.25956 26.5879H0.332031H-1.5955C-1.5955 28.1034 -0.366922 29.3317 1.14834 29.3318L1.14844 27.4043ZM0.332031 26.5879H2.25956V1.31445H0.332031H-1.5955V26.5879H0.332031ZM0.332031 1.31445H2.25956C2.25956 1.92821 1.76201 2.42554 1.14854 2.42558L1.14844 0.498047L1.14833 -1.42948C-0.366918 -1.4294 -1.5955 -0.201097 -1.5955 1.31445H0.332031ZM1.14844 0.498047V2.42558H115.522V0.498047V-1.42948H1.14844V0.498047Z" fill="#FDA215" mask="url(#path-1-inside-1_479_584)"/>
</svg>
