<?xml version="1.0" encoding="UTF-8"?>
<!DOCTYPE svg PUBLIC "-//W3C//DTD SVG 1.1//EN" "http://www.w3.org/Graphics/SVG/1.1/DTD/svg11.dtd">
<!-- Creator: CorelDRAW 2021 (64-Bit) -->
<svg xmlns="http://www.w3.org/2000/svg" xml:space="preserve" width="28.8131mm" height="14.7796mm" version="1.1" style="shape-rendering:geometricPrecision; text-rendering:geometricPrecision; image-rendering:optimizeQuality; fill-rule:evenodd; clip-rule:evenodd"
viewBox="0 0 350.02 179.54"
 xmlns:xlink="http://www.w3.org/1999/xlink"
 xmlns:xodm="http://www.corel.com/coreldraw/odm/2003">
 <defs>
  <style type="text/css">
   <![CDATA[
    .fil0 {fill:black}
    .fil1 {fill:black;fill-rule:nonzero}
   ]]>
  </style>
 </defs>
 <g id="Слой_x0020_1">
  <metadata id="CorelCorpID_0Corel-Layer"/>
  <g id="_2091905873520">
   <polygon class="fil0" points="188.82,27.76 229.17,27.79 229.15,0.58 217.96,0.56 217.93,22.27 214.76,22.35 214.68,0.56 203.47,0.56 203.44,22.28 200.28,22.35 200.19,0.59 188.83,0.56 "/>
   <path class="fil0" d="M290.58 23.04l0 4.74c18.12,0.35 14.64,-1.11 14.83,-21.63l3.1 -0.08 -0 21.6 11.41 0.13 -0.02 -27.24 -25.73 0 -0 19.55c-0.05,3.01 -0.77,2.93 -3.6,2.93l0 -0z"/>
   <path class="fil0" d="M233.55 27.72l11.38 0.08 -0.01 -11.57c3.39,0.41 3.44,1.35 3.44,4.64 -0,3.08 -0.41,5.33 1.64,6.85l10.07 -0.35c-2.24,-3.79 -0.22,-6.25 -1.1,-9.41 -0.64,-2.29 -4.01,-3.69 -6.81,-3.8 8.01,-1.63 6.93,-2.75 6.86,-9.04 -0.03,-2.47 0.22,-2.97 1.24,-4.56l-10.34 0c-1.86,2.57 -1.47,2 -1.71,6.32 -0.18,3.28 0.38,4.8 -3.28,5.18l-0.01 -11.48 -11.36 -0.01 -0.01 27.15 0 -0z"/>
   <path class="fil0" d="M273.64 8.17c0,-2.41 -0.07,-4.16 2.94,-3.19 0.9,0.71 0.53,13.08 0.53,14.87 0,2.81 0.1,4.39 -3.05,3.61 -0.75,-2.07 -0.42,-12.64 -0.42,-15.29l-0 0zm-1.29 -8c-11.77,1.16 -9.97,7.67 -9.89,17.4 0.04,5.12 0.44,7.35 4.25,9.19 5.13,2.47 17.71,2.62 20.75,-2.97 1.31,-2.41 0.83,-9.6 0.83,-12.82 0,-4.4 0.19,-7.08 -4.11,-9.29 -3.23,-1.66 -7.81,-1.9 -11.83,-1.51l0 0z"/>
   <path class="fil0" d="M336.04 7.36l1.48 10.72 -3.62 -0.03c-0.08,-1.71 1.3,-9.56 2.14,-10.7zm-14.31 20.44c2.23,-0 10.2,0.29 11.7,-0.17l0.92 -4.68c0.9,-0.16 -0.43,0 0.46,-0.07l3.16 0.24 0.53 4.52c1.34,0.38 9.79,0.28 11.51,0.09l-6.5 -27.18 -16.14 0.02 -5.65 27.23 0 0z"/>
   <path class="fil0" d="M104.69 21.81c-0.55,-0.36 -0.33,0.46 -0.47,-0.99l0.03 -20.14 -9.87 -0.06 -0 26.39 35.7 0.08c-0.19,-4.25 0.31,-24.52 -0.22,-26.49l-9.68 -0.01 -0.06 21.22 -2.77 0.02 -0.12 -21.2 -9.97 -0.04 -0.04 21.19 -2.51 0.02 0 -0z"/>
   <path class="fil0" d="M9.87 15.26c3.09,0.11 3.26,-0.02 3.27,3.25 0,3.73 0.1,4.03 -3.27,4.1l0 -5.52 0.01 -1.82 -0 0zm-0.01 -10.05c2.82,0.08 3.31,0.04 3.26,3.03 -0.05,2.77 -0.58,2.77 -3.24,2.8l-0.01 -5.84zm5.97 21.75c10.43,1.47 7.03,-11.04 6.43,-11.88 -1.13,-1.57 -2.51,-1.56 -4.56,-2.21 4.53,-0.97 5.66,-3.01 4.36,-7.57 -0.94,-3.28 -4.71,-4.76 -8.61,-4.48l-13.44 -0.14 0 26.34 15.83 -0.06z"/>
   <path class="fil0" d="M168.22 9.99c-0.8,-2.86 -0.52,-4.89 2.84,-4.69l-0.01 5.67c-1.46,0.12 -2.2,0.04 -2.83,-0.99l0 0zm-9.28 7.37l-0.12 9.68 9.19 -0.16c0.11,-8.96 -1.28,-12.04 3.07,-11.48l-0 11.84 9.95 -0.04 -0.02 -26.6c-4.97,0.03 -15.04,-0.54 -18.74,1.01 -4.94,2.07 -3.68,8.82 -2.64,10.18 0.9,1.17 2.22,0.96 3.54,1.59 -2.09,1.18 -4.27,0.85 -4.24,3.98l0 0z"/>
   <path class="fil0" d="M144.44 7.39c0.67,1.14 1.47,8.46 1.61,10.3l-3.36 -0.12 1.75 -10.18 0 0zm-12.58 19.83c2.36,-0.04 8.6,0.3 10.38,-0.2l0.53 -4.42 3.65 -0.2 0.49 4.83 10.13 -0.03 -5.63 -26.58 -14.44 -0.01 -5.11 26.61 0 0z"/>
   <path class="fil0" d="M90.72 16.51l-9.91 -0.02c-0.12,3.93 0.99,7.63 -3.33,6.42 -0.49,-2.07 -0.6,-15.52 -0.05,-17.69 0.71,-0.59 1.63,-0.8 2.72,-0.37 1.1,1.46 0.63,5.32 0.65,7.33l9.9 0.04c0.15,-3.76 0.27,-7.7 -2.24,-9.72 -3.87,-3.12 -15.04,-3.71 -19.46,0.55 -2.41,2.32 -1.89,6.27 -1.89,10.31 0,3.67 -0.43,8.04 1.33,10.86 2.64,4.22 14.13,4.65 19.22,1.49 3.11,-1.93 3.08,-4.75 3.07,-9.21z"/>
   <path class="fil0" d="M37.18 13.98c1.19,-0.1 2.09,-0.02 2.98,0.54 0.69,1.71 0.8,6.2 -0.14,7.49 -0.65,0.69 -2.04,0.6 -2.86,0.49l0.02 -8.52zm-9.98 13.19c2.92,0.17 16.58,0.26 19.54,-0.42 4.63,-1.06 3.69,-5.15 3.71,-9.95 0.02,-9.44 -6.44,-6.06 -13.28,-7.17l-0.01 -9.04 -9.93 0.04 -0.03 26.55 -0 0z"/>
   <polygon class="fil0" points="53.84,27.24 63.89,27.19 63.89,0.6 53.9,0.6 "/>
   <path class="fil0" d="M129.85 0.61c0.53,1.96 0.03,22.23 0.22,26.49l-35.69 -0.08 0 -26.39 9.87 0.06 -0.03 20.14c0.14,1.45 -0.08,0.63 0.47,0.99 -0.73,-2.51 0.27,-16.77 -0.29,-21.27 -1.69,-0.26 -8.66,-0.31 -10.21,0.05l-0.07 26.61 36.1 0.1 0.1 -25.37c-0.03,-1.57 0.16,-0.89 -0.47,-1.33l-0 0z"/>
   <path class="fil0" d="M266.21 99.79l39.33 -0.02c13.81,0.01 13.82,21.37 2.59,23.82 -2.78,0.6 -36.1,0.22 -41.99,0.2l0.07 -24.01 0 0zm0.61 -44.63l71 0 0.03 -22.25 -104.79 0c-0.01,7.16 -0.41,50.03 0.06,54 2.57,0.67 14.97,0.4 18.61,0.45l46.36 0.72c3.06,0.04 6.24,-0.34 6.75,2.61 -1.53,2.46 -5.21,1.72 -7.99,1.74 -9.46,0.08 -62.74,0.27 -63.5,0.99 -0.69,0.65 -0.45,1.09 -0.43,3.57l-0.03 49.93 85.9 0.06c29.71,0 37.87,-34.4 25.74,-55.52 -7.95,-13.83 -19.09,-14.09 -31.95,-14.04 -15.24,0.06 -30.49,0.13 -45.74,0.2l-0.01 -3.35 -0 -19.13 0 -0z"/>
   <path class="fil0" d="M107.54 70.4l2.63 0.09c-0.3,7.98 -0.59,9.2 0.03,17l6.87 0.05 -0 -54.73 -35.9 0.08 -40.85 61.56c-1.85,2.81 -3.9,6.05 -5.82,8.42l-0.06 -69.79 -34.32 0.16 0.05 112.9 36.29 -0.02c5.17,-8.6 34.15,-49.43 35.77,-52.89 -8.64,-0.44 -4.85,1.61 -8.24,1.16 -2.25,-0.3 -1.19,-1.53 -3.45,-2.24 -2.65,0 -1.93,0.78 -3.59,2.1 -3.99,3.17 -8.69,-0.1 -10.83,-3.56 0.69,-1.39 0.39,-0.48 1.34,-1.72 1.07,-1.39 1.96,-2.9 4.77,-3.22 4.83,-0.54 5.18,2.44 7.05,3.13l2.11 0.01c2.3,-3.67 2.92,-1.74 5.97,-1.36 1.86,0.23 6.51,0.08 8.51,-0.03 1.95,-2.61 5.05,-8.59 6.83,-10.22 0,2.95 -0.34,7.47 0.27,10.27l24.58 -0.07 0.36 -5.64 -0.38 -11.45 0 0z"/>
   <path class="fil0" d="M155.06 86.78c0,-4.96 -0.6,-22.6 0.6,-25.98 2.7,-7.57 11.68,-5.8 20.21,-5.8 17.45,0 34.89,0 52.34,0l-0.07 -21.9c-8.13,-0.03 -73.89,-0.69 -80.06,-0.13 -11.77,1.05 -20.33,7.58 -23.86,16.17 -2.72,6.62 -2.15,10.44 -2.15,17.99 0,6.56 -0.06,13.15 0.01,19.7 4.36,0.26 30.23,0.66 32.97,-0.06l0 0z"/>
   <path class="fil0" d="M122.08 94.13c0.01,6.71 0,13.42 0,20.13 0,7.49 -0.53,10.76 2.64,17.06 4.16,8.27 11.99,14.71 24.21,15.36 12.64,0.67 27.15,0.03 39.99,0.03 13.19,0 26.38,0 39.57,0l-0 -22.44c-17.39,0.13 -34.8,0.15 -52.19,0.22 -8.05,0.03 -18.94,2.01 -20.96,-5.26 -0.84,-3.04 -0.29,-20.77 -0.28,-25.35l-32.98 0.25 -0 -0z"/>
   <path class="fil0" d="M110.16 93.16c-0.4,5.12 0.44,15.39 -0.34,17.01l-2.2 0.02 -0.05 -17.01 -24.62 0.02 -0.13 52.97 34.27 0 0.03 -53 -6.97 0 0 0z"/>
   <path class="fil1" d="M23.02 163.94l-9.71 0 0 -4.63c0,-1.35 -0.1,-2.19 -0.31,-2.52 -0.2,-0.33 -0.66,-0.5 -1.36,-0.5 -0.79,0 -1.29,0.2 -1.5,0.61 -0.21,0.41 -0.32,1.29 -0.32,2.63l0 12.37c0,1.3 0.11,2.14 0.32,2.54 0.21,0.39 0.69,0.59 1.43,0.59 0.72,0 1.19,-0.2 1.41,-0.6 0.22,-0.39 0.33,-1.33 0.33,-2.79l0 -3.35 9.71 0 0 1.04c0,2.76 -0.27,4.72 -0.82,5.88 -0.54,1.16 -1.75,2.17 -3.61,3.04 -1.87,0.87 -4.16,1.3 -6.9,1.3 -2.84,0 -5.18,-0.37 -7.03,-1.1 -1.84,-0.74 -3.07,-1.75 -3.66,-3.06 -0.6,-1.3 -0.9,-3.26 -0.9,-5.87l0 -7.79c0,-1.92 0.09,-3.36 0.28,-4.32 0.19,-0.96 0.73,-1.89 1.65,-2.78 0.91,-0.89 2.18,-1.59 3.8,-2.1 1.62,-0.51 3.48,-0.76 5.59,-0.76 2.85,0 5.21,0.39 7.07,1.19 1.85,0.79 3.07,1.77 3.66,2.95 0.58,1.18 0.87,3.01 0.87,5.5l0 2.53z"/>
   <path class="fil1" d="M43.22 152.31l5.55 26.66 -9.91 0 -0.53 -4.79 -3.5 0 -0.53 4.79 -10.03 0 4.92 -26.66 14.02 0zm-5.15 17.16c-0.46,-3.02 -0.95,-6.76 -1.47,-11.23 -0.96,5.12 -1.56,8.87 -1.82,11.23l3.29 0z"/>
   <polygon class="fil1" points="72.68,152.31 72.68,178.97 62.97,178.97 62.97,167.78 60.14,167.78 60.14,178.97 50.43,178.97 50.43,152.31 60.14,152.31 60.14,161.85 62.97,161.85 62.97,152.31 "/>
   <path class="fil1" d="M76.6 152.31l9.71 0 0.05 11.26c1.8,-0.03 2.72,-0.76 2.79,-2.17l0.18 -5.2c0.06,-1.92 0.58,-3.21 1.55,-3.88l8.96 0c-0.86,0.65 -1.29,1.99 -1.27,4.02l0.04 4.57c0.03,2.76 -2.14,4.34 -6.54,4.72 4.39,0.38 6.57,1.98 6.54,4.79l-0.04 4.24c-0.02,2.02 0.41,3.46 1.27,4.31l-8.96 0c-1.04,-0.67 -1.55,-1.97 -1.55,-3.89l0 -5.2c0,-0.66 -0.28,-1.19 -0.83,-1.59 -0.56,-0.4 -1.27,-0.61 -2.14,-0.62l-0.05 11.29 -9.71 0 0 -26.66z"/>
   <polygon class="fil1" points="121.4,152.31 121.4,157.63 115.69,157.63 115.69,178.97 105.98,178.97 105.98,157.63 100.23,157.63 100.23,152.31 "/>
   <polygon class="fil1" points="139.57,165.5 139.57,170.17 127.17,170.17 127.17,165.5 "/>
   <polygon class="fil1" points="170.22,178.97 160.32,178.97 160.32,157.22 157.44,157.22 157.44,178.97 147.54,178.97 147.54,151.79 170.22,151.79 "/>
   <polygon class="fil1" points="174.22,151.79 190.7,151.79 190.7,157.22 184.11,157.22 184.11,162.41 190.27,162.41 190.27,167.56 184.11,167.56 184.11,173.54 191.37,173.54 191.37,178.97 174.22,178.97 "/>
   <polygon class="fil1" points="214.07,151.79 214.07,157.22 208.26,157.22 208.26,178.97 198.36,178.97 198.36,157.22 192.5,157.22 192.5,151.79 "/>
   <polygon class="fil1" points="216.33,151.79 232.81,151.79 232.81,157.22 226.23,157.22 226.23,162.41 232.38,162.41 232.38,167.56 226.23,167.56 226.23,173.54 233.49,173.54 233.49,178.97 216.33,178.97 "/>
   <path class="fil1" d="M236.3 151.79l9.96 0c2.69,0 4.76,0.15 6.21,0.45 1.44,0.3 2.53,0.74 3.26,1.31 0.73,0.57 1.22,1.27 1.48,2.07 0.26,0.81 0.39,2.07 0.39,3.77l0 2.37c0,1.73 -0.25,2.99 -0.75,3.78 -0.5,0.8 -1.42,1.41 -2.75,1.83 -1.34,0.42 -3.08,0.64 -5.24,0.64l-2.65 0 0 10.96 -9.9 0 0 -27.18zm9.9 4.64l0 6.92c0.28,0.01 0.52,0.02 0.72,0.02 0.91,0 1.53,-0.16 1.88,-0.48 0.35,-0.31 0.52,-0.98 0.52,-1.99l0 -2.24c0,-0.93 -0.2,-1.53 -0.61,-1.81 -0.4,-0.28 -1.24,-0.42 -2.51,-0.42z"/>
   <path class="fil1" d="M283.43 172.61c0,2.02 -0.37,3.48 -1.1,4.36 -0.73,0.89 -1.85,1.44 -3.34,1.66 -1.5,0.22 -3.88,0.34 -7.14,0.34l-11.43 0 0 -27.18 19.37 0 0 4.71 -9.47 0 0 4.6 1.53 0c3.04,0 5.36,0.13 6.92,0.38 1.56,0.26 2.73,0.82 3.51,1.71 0.78,0.88 1.16,2.26 1.16,4.14l0 5.28zm-9.9 -0.82l0 -3.93c0,-1.14 -0.16,-1.84 -0.48,-2.08 -0.32,-0.25 -1.23,-0.38 -2.74,-0.42l0 8.93c1.26,0 2.11,-0.11 2.55,-0.35 0.45,-0.23 0.67,-0.95 0.67,-2.16z"/>
   <path class="fil1" d="M306.48 151.79l-2.7 18c-0.43,2.84 -0.88,4.84 -1.36,5.98 -0.49,1.14 -1.43,1.96 -2.81,2.46 -1.39,0.49 -3.69,0.74 -6.87,0.74l-5.77 0 0 -3.5 0.59 0c1.31,0 2.11,-0.08 2.42,-0.23 0.3,-0.15 0.46,-0.38 0.46,-0.69 0,-0.02 -0.19,-0.79 -0.57,-2.3l-5.22 -20.45 8.59 0 3.11 16.94 1.48 -16.94 8.63 0z"/>
   <path class="fil1" d="M308.47 151.79l9.96 0c2.69,0 4.76,0.15 6.21,0.45 1.44,0.3 2.53,0.74 3.26,1.31 0.73,0.57 1.22,1.27 1.48,2.07 0.26,0.81 0.39,2.07 0.39,3.77l0 2.37c0,1.73 -0.25,2.99 -0.75,3.78 -0.5,0.8 -1.42,1.41 -2.75,1.83 -1.34,0.42 -3.08,0.64 -5.24,0.64l-2.65 0 0 10.96 -9.9 0 0 -27.18zm9.9 4.64l0 6.92c0.28,0.01 0.52,0.02 0.72,0.02 0.9,0 1.53,-0.16 1.88,-0.48 0.35,-0.31 0.52,-0.98 0.52,-1.99l0 -2.24c0,-0.93 -0.2,-1.53 -0.61,-1.81 -0.4,-0.28 -1.24,-0.42 -2.51,-0.42z"/>
   <polygon class="fil1" points="349.74,157.22 342.49,157.22 342.49,178.97 332.59,178.97 332.59,151.79 349.74,151.79 "/>
  </g>
 </g>
</svg>
