<?xml version="1.0" encoding="UTF-8"?>
<!DOCTYPE svg PUBLIC "-//W3C//DTD SVG 1.1//EN" "http://www.w3.org/Graphics/SVG/1.1/DTD/svg11.dtd">
<!-- Creator: CorelDRAW 2021 (64-Bit) -->
<svg xmlns="http://www.w3.org/2000/svg" xml:space="preserve" width="27.1323mm" height="16.4967mm" version="1.1" style="shape-rendering:geometricPrecision; text-rendering:geometricPrecision; image-rendering:optimizeQuality; fill-rule:evenodd; clip-rule:evenodd"
viewBox="0 0 310.4 188.72"
 xmlns:xlink="http://www.w3.org/1999/xlink"
 xmlns:xodm="http://www.corel.com/coreldraw/odm/2003">
 <defs>
  <style type="text/css">
   <![CDATA[
    .fil0 {fill:black}
    .fil1 {fill:black;fill-rule:nonzero}
   ]]>
  </style>
 </defs>
 <g id="Слой_x0020_1">
  <metadata id="CorelCorpID_0Corel-Layer"/>
  <g id="_1707085477776">
   <polygon class="fil0" points="0.15,53.42 77.81,53.49 77.78,1.12 56.24,1.08 56.18,42.85 50.07,43.01 49.92,1.09 28.36,1.09 28.29,42.88 22.21,43.01 22.03,1.13 0.18,1.09 "/>
   <path class="fil0" d="M195.99 44.34l0.01 9.13c34.87,0.68 28.18,-2.14 28.54,-41.63l5.97 -0.15 -0 41.57 21.96 0.24 -0.05 -52.43 -49.51 0.01 -0 37.62c-0.1,5.8 -1.49,5.64 -6.92,5.64l0 -0z"/>
   <path class="fil0" d="M86.24 53.35l21.91 0.15 -0.01 -22.26c6.53,0.8 6.62,2.59 6.61,8.93 -0,5.92 -0.79,10.25 3.16,13.18l19.37 -0.67c-4.3,-7.29 -0.42,-12.03 -2.11,-18.12 -1.23,-4.41 -7.71,-7.1 -13.11,-7.3 15.42,-3.13 13.34,-5.3 13.19,-17.4 -0.06,-4.75 0.41,-5.71 2.38,-8.77l-19.89 0c-3.59,4.94 -2.84,3.85 -3.29,12.16 -0.35,6.3 0.74,9.24 -6.3,9.96l-0.02 -22.1 -21.86 -0.02 -0.02 52.26 0 -0z"/>
   <path class="fil0" d="M163.39 15.72c0,-4.63 -0.14,-8.01 5.65,-6.14 1.73,1.37 1.02,25.17 1.02,28.63 0,5.41 0.19,8.44 -5.86,6.95 -1.44,-3.98 -0.81,-24.33 -0.81,-29.43l-0 0zm-2.49 -15.4c-22.66,2.24 -19.19,14.76 -19.04,33.49 0.08,9.85 0.85,14.15 8.19,17.69 9.87,4.76 34.07,5.04 39.94,-5.73 2.52,-4.63 1.59,-18.47 1.59,-24.68 0.01,-8.46 0.36,-13.62 -7.92,-17.88 -6.21,-3.19 -15.04,-3.67 -22.77,-2.9l0 0z"/>
   <path class="fil0" d="M283.5 14.16l2.85 20.64 -6.96 -0.05c-0.15,-3.29 2.51,-18.4 4.12,-20.59zm-27.55 39.33c4.3,-0 19.62,0.55 22.52,-0.33l1.77 -9c1.74,-0.3 -0.82,0.01 0.88,-0.14l6.08 0.46 1.03 8.69c2.57,0.74 18.85,0.54 22.16,0.18l-12.51 -52.32 -31.06 0.04 -10.88 52.4 0 0z"/>
   <path class="fil0" d="M236.06 117.98l34.89 -0.02c12.25,0.01 12.26,18.96 2.3,21.13 -2.47,0.54 -32.03,0.19 -37.25,0.18l0.07 -21.29 0 0zm0.54 -39.59l62.98 0 0.03 -19.74 -92.95 0c-0.01,6.36 -0.37,44.38 0.05,47.9 2.28,0.6 13.28,0.35 16.51,0.4l41.13 0.64c2.71,0.04 5.54,-0.3 5.98,2.32 -1.36,2.18 -4.62,1.52 -7.09,1.55 -8.39,0.07 -55.65,0.24 -56.33,0.88 -0.61,0.57 -0.4,0.97 -0.38,3.17l-0.03 44.29 76.2 0.05c26.35,0 33.59,-30.52 22.83,-49.25 -7.05,-12.27 -16.93,-12.5 -28.34,-12.45 -13.52,0.05 -27.05,0.11 -40.57,0.18l-0.01 -2.97 -0 -16.97 0 -0z"/>
   <path class="fil0" d="M95.3 91.91l2.33 0.08c-0.26,7.08 -0.53,8.16 0.03,15.08l6.09 0.05 -0 -48.55 -31.84 0.07 -36.24 54.6c-1.64,2.49 -3.46,5.37 -5.16,7.47l-0.05 -61.9 -30.44 0.14 0.04 100.15 32.19 -0.02c4.58,-7.63 30.29,-43.85 31.73,-46.91 -7.66,-0.39 -4.3,1.43 -7.31,1.03 -1.99,-0.27 -1.06,-1.36 -3.06,-1.99 -2.35,0 -1.71,0.69 -3.19,1.86 -3.54,2.81 -7.71,-0.09 -9.61,-3.16 0.61,-1.24 0.34,-0.42 1.19,-1.52 0.94,-1.23 1.73,-2.58 4.23,-2.85 4.29,-0.48 4.59,2.16 6.25,2.77l1.87 0.01c2.04,-3.26 2.59,-1.54 5.3,-1.21 1.65,0.21 5.77,0.07 7.55,-0.03 1.73,-2.31 4.48,-7.62 6.06,-9.06 0,2.62 -0.3,6.63 0.24,9.11l21.81 -0.06 0.32 -5 -0.34 -10.16 0 0z"/>
   <path class="fil0" d="M137.46 106.44c0,-4.4 -0.53,-20.05 0.53,-23.05 2.4,-6.72 10.36,-5.15 17.93,-5.15 15.48,0 30.95,0 46.43,0l-0.06 -19.43c-7.21,-0.02 -65.54,-0.61 -71.02,-0.12 -10.44,0.93 -18.03,6.73 -21.17,14.35 -2.41,5.87 -1.9,9.26 -1.9,15.96 0,5.82 -0.05,11.66 0.01,17.48 3.87,0.23 26.82,0.59 29.25,-0.05l0 0z"/>
   <path class="fil0" d="M108.2 112.95c0.01,5.95 0,11.91 0,17.86 0,6.65 -0.47,9.54 2.34,15.13 3.69,7.34 10.64,13.05 21.48,13.62 11.21,0.59 24.08,0.03 35.47,0.03 11.7,0 23.4,0 35.1,0l-0 -19.91c-15.43,0.12 -30.87,0.13 -46.3,0.2 -7.14,0.03 -16.8,1.78 -18.59,-4.67 -0.75,-2.7 -0.26,-18.42 -0.25,-22.48l-29.26 0.22 -0 -0z"/>
   <path class="fil0" d="M97.62 112.1c-0.35,4.54 0.39,13.65 -0.3,15.09l-1.95 0.01 -0.04 -15.09 -21.84 0.02 -0.11 46.99 30.4 0 0.03 -47.01 -6.18 0 0 0z"/>
   <path class="fil1" d="M20.32 174.88l-8.61 0 0 -4.11c0,-1.2 -0.09,-1.94 -0.27,-2.24 -0.18,-0.3 -0.58,-0.45 -1.2,-0.45 -0.7,0 -1.14,0.18 -1.33,0.54 -0.19,0.36 -0.29,1.14 -0.29,2.34l0 10.97c0,1.15 0.1,1.9 0.29,2.25 0.19,0.35 0.61,0.52 1.27,0.52 0.63,0 1.05,-0.17 1.25,-0.53 0.2,-0.35 0.29,-1.18 0.29,-2.48l0 -2.97 8.61 0 0 0.92c0,2.45 -0.24,4.19 -0.73,5.21 -0.48,1.03 -1.55,1.92 -3.21,2.7 -1.66,0.77 -3.69,1.16 -6.12,1.16 -2.52,0 -4.6,-0.32 -6.23,-0.98 -1.63,-0.65 -2.72,-1.56 -3.25,-2.71 -0.53,-1.16 -0.8,-2.89 -0.8,-5.21l0 -6.91c0,-1.7 0.08,-2.98 0.24,-3.83 0.17,-0.85 0.65,-1.67 1.46,-2.46 0.81,-0.79 1.93,-1.41 3.37,-1.86 1.44,-0.45 3.09,-0.68 4.96,-0.68 2.53,0 4.62,0.35 6.27,1.05 1.64,0.7 2.73,1.57 3.25,2.62 0.52,1.05 0.77,2.67 0.77,4.88l0 2.25z"/>
   <path class="fil1" d="M38.24 164.56l4.92 23.65 -8.79 0 -0.47 -4.25 -3.1 0 -0.47 4.25 -8.9 0 4.36 -23.65 12.44 0zm-4.57 15.22c-0.41,-2.68 -0.84,-6 -1.3,-9.96 -0.85,4.55 -1.39,7.86 -1.62,9.96l2.92 0z"/>
   <polygon class="fil1" points="64.38,164.56 64.38,188.21 55.77,188.21 55.77,178.29 53.26,178.29 53.26,188.21 44.64,188.21 44.64,164.56 53.26,164.56 53.26,173.03 55.77,173.03 55.77,164.56 "/>
   <path class="fil1" d="M67.86 164.56l8.62 0 0.04 9.99c1.6,-0.03 2.42,-0.67 2.47,-1.93l0.16 -4.61c0.05,-1.7 0.52,-2.85 1.38,-3.44l7.95 0c-0.77,0.57 -1.14,1.76 -1.13,3.56l0.04 4.06c0.03,2.45 -1.9,3.85 -5.8,4.19 3.9,0.34 5.83,1.76 5.8,4.25l-0.04 3.76c-0.01,1.79 0.36,3.07 1.13,3.83l-7.95 0c-0.92,-0.59 -1.38,-1.74 -1.38,-3.45l0 -4.61c0,-0.59 -0.24,-1.06 -0.73,-1.41 -0.49,-0.35 -1.13,-0.54 -1.9,-0.55l-0.04 10.02 -8.62 0 0 -23.65z"/>
   <polygon class="fil1" points="107.59,164.56 107.59,169.29 102.53,169.29 102.53,188.21 93.92,188.21 93.92,169.29 88.82,169.29 88.82,164.56 "/>
   <polygon class="fil1" points="123.72,176.27 123.72,180.41 112.72,180.41 112.72,176.27 "/>
   <polygon class="fil1" points="150.9,188.21 142.12,188.21 142.12,168.92 139.57,168.92 139.57,188.21 130.78,188.21 130.78,164.11 150.9,164.11 "/>
   <polygon class="fil1" points="154.45,164.11 169.07,164.11 169.07,168.92 163.23,168.92 163.23,173.52 168.68,173.52 168.68,178.1 163.23,178.1 163.23,183.4 169.66,183.4 169.66,188.21 154.45,188.21 "/>
   <polygon class="fil1" points="189.8,164.11 189.8,168.92 184.65,168.92 184.65,188.21 175.87,188.21 175.87,168.92 170.67,168.92 170.67,164.11 "/>
   <polygon class="fil1" points="191.81,164.11 206.43,164.11 206.43,168.92 200.59,168.92 200.59,173.52 206.04,173.52 206.04,178.1 200.59,178.1 200.59,183.4 207.02,183.4 207.02,188.21 191.81,188.21 "/>
   <path class="fil1" d="M209.52 164.11l8.83 0c2.39,0 4.22,0.13 5.51,0.4 1.28,0.27 2.24,0.66 2.89,1.16 0.65,0.51 1.08,1.12 1.31,1.84 0.23,0.72 0.34,1.83 0.34,3.34l0 2.1c0,1.53 -0.22,2.66 -0.67,3.36 -0.44,0.71 -1.26,1.25 -2.44,1.63 -1.19,0.38 -2.74,0.56 -4.65,0.56l-2.35 0 0 9.72 -8.78 0 0 -24.11zm8.78 4.12l0 6.14c0.25,0.01 0.46,0.01 0.64,0.01 0.8,0 1.36,-0.14 1.67,-0.43 0.31,-0.28 0.46,-0.87 0.46,-1.76l0 -1.99c0,-0.82 -0.18,-1.36 -0.54,-1.61 -0.36,-0.25 -1.1,-0.37 -2.23,-0.37z"/>
   <path class="fil1" d="M251.33 182.58c0,1.79 -0.33,3.08 -0.98,3.87 -0.65,0.79 -1.64,1.28 -2.96,1.47 -1.33,0.2 -3.44,0.3 -6.34,0.3l-10.14 0 0 -24.11 17.18 0 0 4.18 -8.4 0 0 4.08 1.36 0c2.7,0 4.75,0.11 6.14,0.34 1.39,0.23 2.42,0.73 3.11,1.51 0.69,0.78 1.03,2 1.03,3.67l0 4.69zm-8.78 -0.73l0 -3.48c0,-1.01 -0.14,-1.63 -0.43,-1.85 -0.28,-0.22 -1.09,-0.34 -2.43,-0.37l0 7.92c1.12,0 1.87,-0.1 2.26,-0.31 0.4,-0.2 0.6,-0.84 0.6,-1.92z"/>
   <path class="fil1" d="M271.77 164.11l-2.39 15.96c-0.38,2.52 -0.78,4.29 -1.21,5.31 -0.43,1.02 -1.26,1.74 -2.49,2.18 -1.24,0.44 -3.27,0.66 -6.09,0.66l-5.11 0 0 -3.11 0.53 0c1.16,0 1.87,-0.07 2.15,-0.2 0.27,-0.13 0.41,-0.33 0.41,-0.61 0,-0.02 -0.17,-0.7 -0.5,-2.04l-4.63 -18.14 7.62 0 2.76 15.03 1.31 -15.03 7.65 0z"/>
   <path class="fil1" d="M273.54 164.11l8.83 0c2.39,0 4.22,0.13 5.5,0.4 1.28,0.27 2.24,0.66 2.89,1.16 0.65,0.51 1.08,1.12 1.31,1.84 0.23,0.72 0.34,1.83 0.34,3.34l0 2.1c0,1.53 -0.22,2.66 -0.67,3.36 -0.44,0.71 -1.26,1.25 -2.44,1.63 -1.19,0.38 -2.74,0.56 -4.65,0.56l-2.35 0 0 9.72 -8.78 0 0 -24.11zm8.78 4.12l0 6.14c0.25,0.01 0.46,0.01 0.64,0.01 0.8,0 1.36,-0.14 1.67,-0.43 0.31,-0.28 0.46,-0.87 0.46,-1.76l0 -1.99c0,-0.82 -0.18,-1.36 -0.54,-1.61 -0.35,-0.25 -1.1,-0.37 -2.23,-0.37z"/>
   <polygon class="fil1" points="310.15,168.92 303.71,168.92 303.71,188.21 294.93,188.21 294.93,164.11 310.15,164.11 "/>
  </g>
 </g>
</svg>
