<svg width="20" height="10" viewBox="0 0 20 10" fill="none" xmlns="http://www.w3.org/2000/svg">
<path d="M9.89333 2.6198L17.3455 9.47055C17.599 9.70357 17.8947 9.8162 18.2327 9.80843C18.5706 9.80066 18.8663 9.68027 19.1198 9.44725C19.3733 9.21423 19.5 8.94238 19.5 8.63169C19.5 8.321 19.3733 8.04914 19.1198 7.81612L11.3381 0.639141C11.1354 0.452726 10.9072 0.312914 10.6538 0.219707C10.4003 0.126499 10.1468 0.0798956 9.89333 0.0798955C9.63986 0.0798955 9.38638 0.126499 9.13291 0.219707C8.87944 0.312914 8.65131 0.452726 8.44853 0.639141L0.641506 7.81612C0.388032 8.04914 0.265519 8.32488 0.273968 8.64334C0.282417 8.9618 0.413379 9.23753 0.666854 9.47055C0.920328 9.70357 1.21605 9.82008 1.55402 9.82008C1.89198 9.82008 2.1877 9.70357 2.44118 9.47055L9.89333 2.6198Z" fill="#FDA215"/>
</svg>
