<svg width="20" height="21" viewBox="0 0 20 21" fill="none" xmlns="http://www.w3.org/2000/svg">
<path d="M10 20.2543C8.66785 20.2613 7.34861 19.993 6.125 19.4663C4.93513 18.9597 3.8533 18.2299 2.938 17.3163C2.02438 16.401 1.29456 15.3192 0.788004 14.1293C0.261224 12.9057 -0.00705081 11.5864 3.80274e-06 10.2543C-0.00957995 8.91799 0.258765 7.59431 0.788004 6.36727C1.29674 5.18211 2.02639 4.10461 2.938 3.19227C3.85343 2.27858 4.93521 1.54845 6.125 1.04127C7.34877 0.515137 8.66795 0.247216 10 0.25427C11.3362 0.244662 12.6598 0.512654 13.887 1.04127C15.0721 1.5506 16.1495 2.28056 17.062 3.19227C17.9736 4.10461 18.7033 5.18211 19.212 6.36727C19.7412 7.59431 20.0096 8.91799 20 10.2543C20.007 11.5864 19.7388 12.9057 19.212 14.1293C18.7054 15.3192 17.9756 16.401 17.062 17.3163C16.1497 18.2279 15.0722 18.9575 13.887 19.4663C12.66 19.9955 11.3363 20.2639 10 20.2543ZM10 18.2043C10.433 17.6043 10.808 16.9793 11.125 16.3293C11.442 15.6793 11.7 14.9873 11.9 14.2543H8.1C8.3 14.9873 8.558 15.6793 8.875 16.3293C9.192 16.9793 9.567 17.6043 10 18.2043ZM7.4 17.8043C7.09904 17.2518 6.8361 16.6795 6.613 16.0913C6.38522 15.492 6.19715 14.8783 6.05 14.2543H3.1C3.57506 15.0776 4.18797 15.8133 4.912 16.4293C5.64172 17.0484 6.48753 17.5158 7.4 17.8043ZM12.6 17.8043C13.5122 17.516 14.3577 17.0485 15.087 16.4293C15.8115 15.8135 16.4248 15.0778 16.9 14.2543H13.95C13.8 14.8873 13.613 15.5003 13.388 16.0913C13.1644 16.6795 12.9012 17.2518 12.6 17.8043ZM2.25 12.2543H5.65C5.54998 11.5923 5.49984 10.9238 5.5 10.2543C5.49984 9.58479 5.54998 8.91624 5.65 8.25427H2.25C2.08281 8.90776 1.99881 9.57974 2 10.2543C1.99881 10.9288 2.08281 11.6008 2.25 12.2543ZM7.65 12.2543H12.35C12.4501 11.5923 12.5002 10.9238 12.5 10.2543C12.5002 9.58479 12.4501 8.91623 12.35 8.25427H7.65C7.55079 8.91633 7.50065 9.58482 7.5 10.2543C7.4985 10.9238 7.54865 11.5925 7.65 12.2543ZM14.35 12.2543H17.75C17.9171 11.6008 18.0011 10.9288 18 10.2543C18.0011 9.57974 17.9171 8.90777 17.75 8.25427H14.35C14.4492 8.91634 14.4993 9.58482 14.5 10.2543C14.5014 10.9238 14.4513 11.5924 14.35 12.2543ZM13.95 6.25427H16.9C16.4248 5.43071 15.8115 4.69499 15.087 4.07927C14.3577 3.46004 13.5122 2.99258 12.6 2.70427C12.9 3.25427 13.163 3.82427 13.388 4.41627C13.613 5.00827 13.8 5.62127 13.95 6.25427ZM8.1 6.25427H11.9C11.7072 5.53987 11.4477 4.84515 11.125 4.17927C10.8046 3.52309 10.4282 2.89577 10 2.30427C9.567 2.90427 9.192 3.52927 8.875 4.17927C8.55229 4.84515 8.29282 5.53987 8.1 6.25427ZM3.1 6.25427H6.05C6.2 5.62127 6.388 5.00827 6.613 4.41627C6.838 3.82527 7.1 3.25427 7.4 2.70427C6.48753 2.99271 5.64172 3.46015 4.912 4.07927C4.18795 4.6952 3.57505 5.43089 3.1 6.25427Z" fill="#FDA215"/>
</svg>
