<svg width="84" height="77" viewBox="0 0 84 77" fill="none" xmlns="http://www.w3.org/2000/svg">
<path d="M2.97227 0.799973C1.97083 1.54548 1.97083 1.54548 2.09601 9.94224C2.13774 14.533 2.30464 18.6137 2.42982 18.9668C2.555 19.3592 2.42982 20.0262 2.17946 20.4578C1.84565 21.0464 1.84565 21.6349 2.17946 22.5766C2.68018 23.9891 2.72191 29.09 2.34637 34.7794C1.97083 40.1156 1.9291 45.7265 2.26292 46.1581C2.42982 46.3936 2.26292 47.3745 1.9291 48.3162C1.55356 49.2971 1.3032 51.2197 1.34493 52.7892C1.42838 57.1446 1.01112 62.7555 0.510398 64.8743C0.0931322 66.3653 0.134859 66.9146 0.510398 67.3462C0.885938 67.7778 0.969391 68.8765 0.760758 71.2699L0.468672 74.5659L1.7622 75.1937C2.51328 75.5468 3.1809 75.7822 3.26435 75.7037C3.34781 75.6253 3.51471 67.2677 3.63989 57.1053C3.76507 46.9821 4.09889 37.1336 4.30752 35.211C4.64133 32.6606 4.64133 29.5608 4.26579 23.8322C4.01543 19.4769 3.84853 12.8458 3.93198 9.07902L4.05716 2.21252L6.60248 2.01633C7.97946 1.89861 14.2802 1.93785 20.5809 2.0948C50.4572 2.76183 64.3521 2.91879 64.3521 2.52641C64.3521 1.66319 62.4744 1.50624 49.7478 1.38853C42.5291 1.31006 34.4341 1.15311 31.8054 1.0354C29.1766 0.878448 22.0413 0.760735 15.9492 0.682266C9.85716 0.643028 4.68306 0.486076 4.4327 0.329132C4.14061 0.17218 3.51471 0.4076 2.97227 0.799973Z" fill="#FDA215"/>
<path d="M67.273 2.36946C67.273 2.56564 70.3608 2.84031 74.0744 2.99725L80.9176 3.27192L81.1262 10.8055C81.2514 14.9254 81.3349 19.6731 81.2931 21.321C81.2514 23.5968 81.3349 24.2246 81.7104 23.9499C82.0442 23.6752 82.2946 23.6752 82.4615 23.9499C82.8787 24.5777 82.2528 28.3837 81.6269 29.3646C81.1262 30.0709 81.0428 34.1516 81.0428 52.1614V74.095L79.8327 74.3304C79.1651 74.4482 77.9133 74.3697 77.0787 74.1735C76.2025 73.9381 74.7003 73.8596 73.7823 73.9773C72.8226 74.095 71.5291 74.1735 70.8197 74.1343C67.732 73.9773 60.5967 74.5659 60.5967 74.9975C60.5967 75.9392 62.1406 76.1353 69.2759 76.0961C74.5334 76.0569 77.0787 76.2138 77.3708 76.4885C77.9967 77.077 80.8759 77.1163 81.2514 76.567C81.3766 76.3315 81.8773 76.1746 82.2946 76.1746C82.9205 76.1746 83.1291 75.7822 83.3377 73.8988C83.4629 72.6825 83.6716 71.1915 83.755 70.6029C83.8385 70.0143 83.755 69.4258 83.5464 69.3081C83.3377 69.1904 83.1291 66.9931 83.1291 64.4819C83.1291 58.9887 82.837 50.5135 82.5449 46.0797C82.4198 44.314 82.4615 42.4306 82.7118 41.8813C83.1708 40.7434 83.296 21.7919 82.9205 13.9837C82.7953 11.1586 82.6701 7.35258 82.6701 5.42996V2.01633H74.9924C70.7363 2.01633 67.273 2.17328 67.273 2.36946Z" fill="#FDA215"/>
<path d="M5.80968 4.37056C5.55932 4.91988 5.30896 5.86157 5.26724 6.5286C4.80825 12.6888 4.80825 17.8681 5.14206 25.9902C5.80968 41.4889 5.64278 70.3675 4.84997 71.5054C4.72479 71.7408 4.72479 72.0155 4.8917 72.1724C5.22551 72.4863 29.26 72.3293 31.2629 71.9762C32.4313 71.8193 32.5982 71.6231 32.3895 70.9168C31.9305 69.1511 34.768 67.9348 38.6068 68.2487C40.9435 68.4449 41.1104 68.8765 39.0658 69.7005C38.273 70.0144 37.1464 70.6029 36.5622 71.0345L35.519 71.8193L44.1982 71.9762C48.955 72.0939 58.427 72.3293 65.1867 72.5648C71.9464 72.8002 77.8298 72.9179 78.2888 72.8002C78.9982 72.5648 79.0399 72.2901 78.8313 69.9359C78.4557 66.2868 78.4557 22.2235 78.7896 12.885L79.0816 5.1553L75.9939 5.07683C74.2831 5.03759 71.9881 4.91988 70.8198 4.8414C67.8154 4.64522 67.1478 4.64522 57.5507 4.72369C52.7939 4.76293 48.6629 4.68446 48.4126 4.5275C48.037 4.29208 24.2111 3.86047 16.9924 3.97819C16.0744 3.97819 14.6557 3.97819 13.8629 4.01743C13.0701 4.01743 11.0255 3.86047 9.31472 3.70352C6.3104 3.38963 6.26868 3.38963 5.80968 4.37056ZM11.4011 5.1553C12.2773 5.62614 12.4442 7.11716 11.6931 7.82343C11.3176 8.17657 11.3176 8.41199 11.6514 8.72588C12.1939 9.23597 22.709 10.0992 34.5593 10.6093C38.732 10.8055 42.3622 11.0801 42.6126 11.1978C42.9047 11.3548 43.4054 11.2763 43.7392 11.0016C44.1982 10.6485 47.7449 10.4916 58.2183 10.4916L72.0716 10.4523L72.1967 9.47139C72.5306 7.39182 74.7838 6.41089 76.2025 7.74496C77.7881 9.19673 76.0356 11.8256 73.1147 12.4142C71.5708 12.7281 70.6529 14.0621 68.3579 19.0453C65.6457 25.0485 58.7608 45.8443 57.2169 52.8285C55.8399 59.1064 55.1306 61.5784 54.3377 63.0301C53.4615 64.5996 53.7118 64.9135 55.4226 64.4034C56.0903 64.2465 56.2989 64.0503 55.9234 64.0503C55.0054 64.0111 54.9636 63.1479 55.8399 61.5784C56.6744 60.0873 57.4672 60.5974 56.8831 62.2846C56.4658 63.4225 56.4658 63.4225 57.0917 62.5593C58.0097 61.3429 58.5104 61.4214 58.5104 62.7162V63.8149L59.3449 62.834C59.9291 62.0884 60.2629 61.9707 60.5967 62.2846C61.6399 63.2656 60.8888 64.2073 58.9277 64.4427C57.1752 64.6781 57.2169 64.6781 59.7622 64.7566C64.4356 64.835 73.4068 65.9337 75.2011 66.6007C76.9118 67.2678 77.7047 68.131 77.7047 69.3473C77.7047 71.4269 74.1162 72.2901 72.8644 70.4852C72.4888 69.9359 72.2802 69.1511 72.4054 68.7588C72.5723 68.0525 72.3219 67.974 69.6097 67.7778C67.9824 67.6601 60.096 67.4639 52.0428 67.3462C44.0313 67.2678 36.1867 66.9931 34.6845 66.7577C31.6802 66.3653 19.7464 66.8361 16.3665 67.5424C15.3234 67.7386 14.3636 67.8955 14.2385 67.9348C14.0716 67.9348 13.8629 68.4449 13.7377 69.0727C13.5708 69.8574 13.1118 70.3283 12.2356 70.6029C9.77371 71.4269 7.77084 68.6018 9.60681 66.9931C11.109 65.7375 19.4543 64.168 26.7564 63.7756C29.5521 63.6187 31.8054 63.3833 31.8054 63.1871C31.8054 62.0492 27.7579 45.7265 26.5895 42.2344C25.7967 39.841 25.0457 37.369 24.9205 36.7412C24.0025 32.8567 18.9118 18.0643 17.2011 14.2976C16.0327 11.7079 15.9493 11.6294 14.1967 11.3155C10.4413 10.6877 8.814 10.1384 8.0212 9.15749C5.93486 6.72478 8.48019 3.70352 11.4011 5.1553ZM33.8917 6.92097C34.8931 7.9019 35.978 8.68665 36.2701 8.68665C36.5622 8.68665 36.8126 8.96131 36.8126 9.31444C36.8126 9.70681 36.5622 9.86376 36.1032 9.74605C35.6859 9.62834 34.6845 9.43215 33.85 9.31444C32.1392 9.03978 30.1363 7.74496 30.1363 6.92097C30.1363 6.37165 31.2212 5.1553 31.7636 5.1553C31.9305 5.1553 32.8903 5.94004 33.8917 6.92097ZM16.4082 6.48936C16.909 7.47029 18.3694 8.29427 19.7046 8.29427C20.1636 8.29427 20.5392 8.45123 20.5392 8.68665C20.5392 9.19673 17.827 9.19673 15.8658 8.64741C14.2802 8.25504 13.4039 6.92097 14.0716 5.97928C14.5305 5.19453 15.9493 5.50844 16.4082 6.48936ZM24.4198 6.48936C24.7953 6.96021 26.1305 7.78419 27.4241 8.29427C30.0946 9.31444 30.0529 10.2169 27.3823 9.51063C26.4644 9.2752 25.1708 9.07902 24.5032 9.07902C22.8341 9.07902 21.3737 8.09809 21.3737 6.92097C21.3737 5.35149 23.4183 5.03759 24.4198 6.48936ZM41.6946 6.60708C42.0701 7.15639 43.3636 8.05885 44.532 8.56893L46.6183 9.47139L44.1147 9.35368C40.1924 9.15749 38.3147 7.94114 39.0658 6.09699C39.4413 5.19453 40.9018 5.4692 41.6946 6.60708ZM50.9162 6.80326C51.2082 7.86266 51.5421 8.17657 53.2111 8.64741C54.296 8.96131 55.1723 9.35368 55.1723 9.54987C55.1723 10.4131 49.7061 9.51063 48.4126 8.37275C47.0356 7.23487 47.7449 5.54768 49.6226 5.54768C50.332 5.54768 50.6241 5.86157 50.9162 6.80326ZM59.5536 7.07792C59.6788 7.50953 60.1377 7.98038 60.5967 8.09809C61.014 8.2158 61.5982 8.60817 61.932 8.96131C62.4327 9.51063 62.2658 9.5891 60.2629 9.39292C58.5939 9.23597 57.7593 8.92207 56.9665 8.2158L55.9234 7.19563L56.7996 6.37165C57.509 5.70462 57.8845 5.62614 58.5104 5.94004C58.9277 6.13623 59.3867 6.68555 59.5536 7.07792ZM28.05 6.33241C28.05 6.5286 27.8831 6.72478 27.6327 6.72478C27.4241 6.72478 27.2154 6.5286 27.2154 6.33241C27.2154 6.09699 27.4241 5.94004 27.6327 5.94004C27.8831 5.94004 28.05 6.09699 28.05 6.33241ZM67.4399 7.31335C68.2744 8.05885 69.2759 8.68665 69.7349 8.68665C70.9867 8.68665 71.1536 9.35368 69.9852 9.62834C68.8586 9.903 65.7708 9.54987 64.6859 9.03978C63.7262 8.56893 63.3507 7.19563 63.9349 6.5286C64.7694 5.58691 65.896 5.86157 67.4399 7.31335ZM8.64709 11.8649C8.64709 12.1395 8.31328 12.4534 7.93774 12.5319C7.18666 12.6496 6.89458 11.8256 7.47875 11.2763C7.89602 10.8839 8.64709 11.2371 8.64709 11.8649ZM10.0241 13.0812C9.77371 13.7875 8.85573 13.9052 8.85573 13.2382C8.85573 12.885 9.14781 12.6104 9.52335 12.6104C9.89889 12.6104 10.1075 12.8065 10.0241 13.0812ZM15.532 13.9837C16.1579 14.6899 15.7823 15.2 14.5305 15.4354C14.1133 15.4747 13.4039 16.1809 12.9449 16.9265C11.6514 19.163 12.0687 23.3614 13.9881 27.2851C14.8644 29.0115 15.6572 30.3063 15.7823 30.1494C15.9075 30.0317 15.6154 28.6584 15.1147 27.0496C14.614 25.4802 14.0716 23.2044 13.9881 22.0273C13.7795 20.0262 13.8629 19.7515 15.1564 18.2213C15.9493 17.3188 16.8255 16.5733 17.1176 16.5733C17.8687 16.5341 17.7435 19.9085 16.9507 21.0856C16.45 21.7919 16.2413 23.0082 16.1996 25.4802C16.1579 28.4622 16.2831 29.1685 17.3262 31.0911C18.6615 33.6807 21.3737 36.702 23.0845 37.5652C24.378 38.1538 25.5464 39.9194 25.5464 41.2535C25.5464 42.3521 25.0874 42.2737 21.8744 40.5472C18.7032 38.86 15.6989 37.7222 14.4888 37.7222C14.0298 37.7222 13.2788 37.9968 12.8615 38.3107C11.568 39.2132 10.9421 39.017 10.9421 37.7614C10.9421 34.8186 15.4485 34.7009 19.4543 37.5652C20.5392 38.3107 21.6241 38.86 21.9162 38.7816C22.2082 38.6638 21.8744 38.3892 21.2485 38.1538C19.037 37.3298 15.7823 33.72 13.9046 30.0317C12.9032 28.1091 11.86 26.108 11.568 25.5586C9.89889 22.4981 9.10609 17.6327 9.85717 15.4354C10.4831 13.709 14.4054 12.6888 15.532 13.9837ZM7.81256 14.6115C7.47875 15.0823 6.35213 15.0823 6.35213 14.6115C6.35213 14.1799 7.27012 13.8267 7.72911 14.0621C7.89602 14.1406 7.93774 14.4153 7.81256 14.6115ZM75.7852 14.4153C76.578 14.7684 77.4126 15.5139 77.6629 16.024C78.2888 17.3581 78.2054 20.3793 77.4543 22.2235C77.1205 23.0867 76.7032 24.1461 76.578 24.5777C76.4529 25.0093 75.2428 27.5205 73.9075 30.1494C71.8212 34.1516 71.1118 35.211 69.0672 36.8982C67.7737 37.9968 66.4385 38.8993 66.1464 38.8993C65.8543 38.8993 65.6039 39.0955 65.6039 39.3309C65.6039 39.8802 65.7291 39.8017 68.65 37.9576C70.3608 36.8589 71.6126 36.3881 73.073 36.2311C74.909 36.0742 75.2428 36.1919 76.2025 37.1336C78.1219 39.0562 77.1205 40.6257 74.9507 39.0955C73.3651 37.9576 70.6529 38.5854 65.437 41.3712C62.1406 43.0977 61.4313 42.9407 62.3075 40.6257C62.7248 39.6448 63.4342 38.86 64.6442 38.1538C66.814 36.8589 68.6917 34.6617 70.2356 31.6404C71.6126 28.933 71.8629 25.2447 70.8615 22.3412C69.2342 17.672 69.8183 16.1417 72.155 18.6921C73.3234 19.987 73.532 20.497 73.532 22.1842C73.532 23.2829 73.0313 25.7548 72.4888 27.7167C71.5708 30.9341 71.5708 31.1696 72.2802 30.2671C73.6572 28.5799 75.6183 23.3614 75.5766 21.5564C75.5349 19.0845 74.7003 17.2404 73.1982 16.3379C71.7377 15.4354 71.5291 14.8076 72.614 14.2191C73.6154 13.6698 74.1162 13.709 75.7852 14.4153ZM20.1219 25.0093C20.1219 25.7156 19.8298 27.0104 19.4543 27.8736C18.8284 29.3646 18.8284 29.4824 19.9133 31.3265C20.5392 32.3467 21.4989 33.6807 22.0831 34.2693C22.6672 34.8186 23.0428 35.5249 22.9593 35.8388C22.6255 36.7805 18.578 32.4251 17.66 30.0709C16.6586 27.6382 16.5752 26.5003 17.2011 24.9308C18.2025 22.4981 20.1219 22.5374 20.1219 25.0093ZM69.7766 24.6562C70.5694 25.5979 70.6529 26.108 70.4859 28.1091C70.2356 31.1303 69.4845 32.5429 66.3967 35.4856C64.6025 37.2121 63.8097 37.7614 63.4759 37.4475C63.1421 37.1336 63.5176 36.5843 64.8946 35.4072C65.9377 34.5047 66.9809 33.2099 67.273 32.5036C67.5651 31.8366 67.9824 30.8557 68.2327 30.3848C68.5248 29.757 68.5248 29.3646 68.1493 28.933C67.8572 28.5799 67.5234 27.2851 67.3982 25.951C67.1895 23.7537 67.2313 23.5968 68.0241 23.5968C68.4831 23.5968 69.2759 24.0676 69.7766 24.6562ZM10.3162 26.2649C10.7752 26.9712 12.1104 28.933 13.3205 30.6595C15.6572 34.0339 15.532 34.6224 12.9867 32.4251C12.0687 31.6796 11.1507 31.0518 10.9421 31.0518C10.6917 31.0518 10.5248 30.8164 10.5248 30.5418C10.5248 29.7178 8.98091 28.5799 8.27155 28.8153C6.9363 29.3254 5.55932 25.5586 6.89458 25.0093C8.14638 24.5385 9.48163 25.0093 10.3162 26.2649ZM77.2874 27.7167C77.2874 28.0306 77.1205 28.3052 76.8701 28.3052C76.6615 28.3052 76.4529 28.0306 76.4529 27.7167C76.4529 27.4028 76.6615 27.1281 76.8701 27.1281C77.1205 27.1281 77.2874 27.4028 77.2874 27.7167ZM77.7047 29.8747C77.7047 30.0709 77.5378 30.2671 77.2874 30.2671C77.0788 30.2671 76.8701 30.0709 76.8701 29.8747C76.8701 29.6393 77.0788 29.4824 77.2874 29.4824C77.5378 29.4824 77.7047 29.6393 77.7047 29.8747ZM9.14781 31.6796C9.23127 31.9543 8.89745 32.072 8.27155 31.9543C7.68738 31.8366 7.31184 31.5619 7.43702 31.3657C7.77084 30.8949 8.93918 31.1303 9.14781 31.6796ZM10.7334 32.6213C10.8586 32.8175 10.6917 33.0137 10.3162 33.0137C9.94062 33.0137 9.77371 32.8175 9.89889 32.6213C10.0241 32.3859 10.2327 32.229 10.3162 32.229C10.3996 32.229 10.6082 32.3859 10.7334 32.6213ZM77.8298 33.0137C77.9967 33.1706 77.8298 33.6807 77.4126 34.1516C76.7867 34.8578 76.1608 35.054 74.2413 35.0933L71.8212 35.1717L73.4903 33.6807C74.909 32.4644 75.4097 32.2682 76.3277 32.4644C76.9953 32.6213 77.6629 32.8567 77.8298 33.0137ZM8.85573 33.4061C8.85573 33.6023 8.68882 33.7984 8.43846 33.7984C8.22983 33.7984 8.0212 33.6023 8.0212 33.4061C8.0212 33.1706 8.22983 33.0137 8.43846 33.0137C8.68882 33.0137 8.85573 33.1706 8.85573 33.4061ZM10.5248 41.0573C10.7752 42.1167 11.109 43.5293 11.2341 44.1963C11.3593 44.8241 11.8183 45.805 12.2773 46.3543C12.6946 46.9037 13.1536 48.0808 13.2788 48.9048C13.4874 50.435 13.4874 50.4742 12.778 49.5718C12.4025 49.1009 11.9435 48.7086 11.7349 48.7086C10.9838 48.7086 11.4011 49.8072 12.6111 50.9058C13.2788 51.5336 13.8629 52.1614 13.8629 52.3184C13.8629 53.0247 12.6111 52.5538 11.7766 51.5729C11.2341 50.9058 10.7752 50.6704 10.5248 50.9058C10.2327 51.1805 10.7334 51.7298 11.9852 52.593C14.1133 54.0056 14.4471 54.9865 12.778 54.9865C11.2759 54.9865 8.43846 52.8285 8.43846 51.6514C8.43846 51.1805 8.14638 50.5527 7.81256 50.2781C7.31184 49.8857 7.27012 49.6503 7.68738 49.2187C8.0212 48.8263 8.0212 48.5516 7.72911 48.3947C7.06148 47.9631 7.27012 42.8622 7.97947 42.6268C8.27155 42.5091 8.43846 42.1952 8.31328 41.9205C8.10465 41.3712 8.64709 37.9576 9.14781 36.9374C9.31472 36.545 9.52335 36.8197 9.69026 37.7222C9.89889 38.4677 10.2327 39.9587 10.5248 41.0573ZM73.6154 41.5282C73.532 42.5876 73.2816 43.6077 73.1147 43.8039C72.9061 44.0393 73.0313 44.5102 73.3234 44.9418C73.6989 45.4126 73.7823 45.8835 73.532 46.3151C73.3234 46.6682 72.4471 48.3554 71.6126 50.0819C69.6931 53.9271 67.6068 55.7713 65.1449 55.7713C64.2687 55.7713 63.5176 55.6535 63.5176 55.4574C63.5176 55.3004 64.1852 54.398 64.978 53.4563C67.0226 51.0628 66.814 50.9451 64.3521 53.2208C63.2255 54.2802 62.1824 55.0258 62.0572 54.908C61.932 54.7903 62.6831 53.1424 63.7262 51.259C65.6039 47.8453 65.896 46.4328 64.3104 48.3162C63.8931 48.8655 62.9334 50.435 62.1824 51.8475C60.6385 54.8296 60.6802 54.7903 60.3881 54.5157C60.2629 54.398 60.5133 53.3778 61.014 52.2792C61.9737 49.9642 61.9737 49.8857 61.473 49.8857C61.3061 49.8857 60.7219 50.7489 60.2629 51.8475C59.7622 52.9069 59.2198 53.8094 59.0111 53.8094C58.427 53.8094 58.0514 52.7108 58.5521 52.3969C58.8025 52.2792 58.8442 51.6514 58.719 50.9843C58.4687 50.0426 58.5939 49.8072 59.2198 49.6503C59.6788 49.5325 60.4716 48.4731 61.1392 47.0998C61.8903 45.5696 62.5162 44.7848 62.9752 44.7848C63.3924 44.7848 64.0601 44.2355 64.4773 43.5685C65.1032 42.5091 65.3953 42.3521 66.3967 42.5483C67.2313 42.7053 67.8154 42.5876 68.2744 42.0775C68.65 41.6851 69.6931 41.175 70.6111 40.9004C71.4874 40.6649 72.3636 40.2726 72.4888 40.0764C72.614 39.841 72.9895 39.684 73.2816 39.684C73.6989 39.684 73.7823 40.1549 73.6154 41.5282ZM20.1219 42.8622C20.1219 43.2154 20.414 43.7254 20.7478 44.0001C21.1234 44.314 21.2485 44.8633 21.0816 45.6088C20.8313 46.7859 21.2903 47.0606 22.0831 46.3151C22.4586 45.962 22.6255 46.0797 22.8341 46.8252C23.168 48.0415 22.2082 49.9642 20.873 50.8274C19.2874 51.8868 18.7449 51.6514 18.9536 49.8857C19.037 48.7478 18.9536 48.3554 18.6198 48.4731C18.2859 48.5909 17.9939 48.0415 17.7435 47.0214L17.4097 45.3734L17.2011 47.5315C16.9924 49.6503 16.2831 50.3565 16.0327 48.7086C15.7823 47.2176 15.1982 48.3162 15.4068 49.8857C15.5737 51.1413 15.4903 51.4552 14.9895 51.4552C14.5723 51.4552 14.2802 50.9451 14.155 49.9642C14.0298 49.1794 13.8212 48.12 13.6543 47.6492C13.4457 47.0214 13.5708 46.7467 14.2802 46.5505C14.9895 46.3543 15.073 46.1974 14.6557 45.7265C14.2385 45.2557 14.3636 44.9418 15.2816 44.0393C15.9075 43.4508 16.5752 42.3129 16.8255 41.5282L17.2428 40.0764L18.6615 41.1358C19.4543 41.7636 20.1219 42.5091 20.1219 42.8622ZM75.6183 43.3723C74.909 44.2355 74.2831 43.7254 74.8255 42.7445C75.1593 42.1952 75.4097 42.0775 75.7435 42.3914C76.0356 42.666 75.9939 42.9799 75.6183 43.3723ZM75.2011 44.7848C75.2011 44.981 75.0341 45.1772 74.7838 45.1772C74.5752 45.1772 74.3665 44.981 74.3665 44.7848C74.3665 44.5494 74.5752 44.3925 74.7838 44.3925C75.0341 44.3925 75.2011 44.5494 75.2011 44.7848ZM26.7982 45.9227C26.7982 46.1189 26.3392 46.5505 25.755 46.9037C25.1708 47.2568 24.7118 47.3745 24.7118 47.1391C24.7118 46.9429 24.9205 46.7467 25.1291 46.7467C25.3795 46.7467 25.5464 46.472 25.5464 46.1581C25.5464 45.8443 25.8385 45.5696 26.1723 45.5696C26.5061 45.5696 26.7982 45.7265 26.7982 45.9227ZM26.4644 48.0023C26.1723 48.277 25.9636 48.3162 25.9636 48.0808C25.9636 47.5315 26.4644 47.0606 26.7564 47.3353C26.8399 47.453 26.7147 47.7669 26.4644 48.0023ZM76.6615 48.3162C78.0385 50.8666 76.9118 53.4563 74.0327 54.1625C70.4859 55.0258 70.1939 55.065 70.1939 54.5941C70.1939 54.3587 71.1536 53.2993 72.2802 52.2399C73.5737 51.0628 74.3665 50.0034 74.3665 49.4541C74.3665 48.7086 75.4097 47.1391 75.8687 47.1391C75.9521 47.1391 76.2859 47.6492 76.6615 48.3162ZM25.755 51.6121C26.4226 52.083 26.4644 52.2399 26.0054 52.7892C25.5464 53.2993 25.5881 53.4563 26.5478 53.8094C27.132 54.0056 27.6327 54.4764 27.6327 54.7903C27.6327 55.1435 27.9248 55.4966 28.2586 55.6143C28.5924 55.732 29.0514 56.4775 29.3018 57.2623C29.9694 59.538 29.8859 59.695 28.4672 59.2634C27.591 58.9495 26.8399 58.9495 25.9219 59.2634C24.0442 59.8912 23.5435 59.8127 23.2514 58.9102C23.0845 58.4786 22.5003 57.5762 21.9162 56.9484C21.332 56.2813 20.9564 55.6535 21.0816 55.5358C21.2068 55.4181 22.1248 55.6928 23.1262 56.1636L24.9205 56.9876L23.5435 55.8105C22.5838 55.065 22.3334 54.6334 22.709 54.4764C23.0011 54.3587 22.5838 54.0056 21.6658 53.6525C19.9133 52.9462 19.8298 52.3184 21.4154 51.5729C22.7507 50.9058 24.7953 50.9451 25.755 51.6121ZM17.827 51.8083C18.0773 52.2399 16.45 53.2208 16.0744 52.8677C15.9493 52.75 15.9493 52.3969 16.0744 52.0437C16.3665 51.3767 17.4514 51.259 17.827 51.8083ZM19.0787 53.417C19.5377 54.0841 18.8701 54.6334 18.2859 54.0841C17.7018 53.6132 17.7852 53.0247 18.4529 53.0247C18.6615 53.0247 18.9536 53.1816 19.0787 53.417ZM15.3651 55.2612C14.9478 55.6535 14.5723 55.065 14.9478 54.5549C15.1982 54.1233 15.2816 54.1233 15.4485 54.5549C15.532 54.8296 15.4903 55.1435 15.3651 55.2612ZM17.9521 55.1435C18.0773 55.6535 17.9104 55.8105 17.368 55.6928C16.909 55.6143 16.5334 55.2612 16.45 54.8296C16.3248 54.3195 16.4917 54.1625 17.0341 54.2802C17.4931 54.3587 17.8687 54.7119 17.9521 55.1435ZM12.1939 55.7713C12.7363 56.1244 12.7363 56.2029 12.1939 56.5168C9.48163 58.0863 9.39817 59.1457 12.1104 57.6546C14.0716 56.6345 14.8226 56.9484 13.5291 58.2432C12.5694 59.2241 12.3608 59.695 12.9867 59.695C13.1953 59.695 13.7795 59.0672 14.2802 58.2824C14.8644 57.2623 15.2816 56.9484 15.5737 57.223C15.9075 57.5369 15.8658 57.9293 15.4903 58.5571C15.1982 59.0672 14.9895 60.0481 15.073 60.7544C15.1982 62.1669 13.9464 63.6187 12.6529 63.6187C12.2356 63.6187 11.1924 64.168 10.3162 64.7958C9.4399 65.4628 8.56364 65.8552 8.39673 65.6983C8.27155 65.5021 7.93774 63.8149 7.72911 61.9315C7.43702 59.2634 7.47875 58.4002 7.89602 58.0863C8.1881 57.8508 8.35501 57.4585 8.31328 57.223C8.27155 56.9876 8.64709 56.713 9.14781 56.6345C9.64853 56.556 10.2744 56.2421 10.5248 55.9282C11.1507 55.2612 11.3593 55.2612 12.1939 55.7713ZM76.4529 56.0852C76.4529 56.4383 76.8284 56.9876 77.2874 57.2623C77.7464 57.5369 78.1219 58.1647 78.1219 58.714C78.1219 59.8127 76.6198 62.834 76.0773 62.834C75.5766 62.834 74.7838 60.9898 74.7838 59.7342C74.7838 58.3609 73.8241 57.4977 71.3205 56.713C70.2356 56.3598 69.3593 55.9282 69.3593 55.732C69.3593 55.5358 70.9449 55.3789 72.9061 55.3789C75.9939 55.3789 76.4529 55.4574 76.4529 56.0852ZM58.8442 56.5952C58.7608 56.8307 58.5104 56.9876 58.3018 56.9876C58.0931 56.9876 57.8428 56.8307 57.7593 56.5952C57.6759 56.3598 57.9262 56.1636 58.3018 56.1636C58.6773 56.1636 58.9277 56.3598 58.8442 56.5952ZM62.4744 56.8699C62.4744 57.5762 61.6399 57.4585 61.5147 56.713C61.3895 56.3206 61.5565 56.1244 61.932 56.2421C62.2241 56.3598 62.4744 56.6345 62.4744 56.8699ZM70.1939 57.223C70.6529 57.6939 70.6946 57.8901 70.319 58.0078C69.4428 58.3217 69.6931 58.9102 70.8198 59.3026C71.4039 59.4988 71.8629 59.9304 71.8629 60.2443C71.8629 60.5582 72.155 60.9898 72.5306 61.186C72.9478 61.3822 73.2816 62.2454 73.4068 63.344L73.6572 65.1489L72.3636 64.7173C71.4039 64.3642 70.6946 64.3642 69.6097 64.6781C68.3579 65.0312 67.9824 64.992 67.4816 64.5212C66.9392 64.0503 66.7306 64.0111 66.1881 64.4427C65.6039 64.8743 65.3953 64.7958 64.6859 63.8541C64.1852 63.2656 63.3924 62.5985 62.85 62.4023C62.3075 62.2454 61.8485 61.8923 61.8485 61.6568C61.8485 61.0683 63.3507 61.186 63.9349 61.853C64.227 62.1669 64.7277 62.4416 65.1032 62.4416C65.6457 62.4416 65.6457 62.3239 65.0198 61.6961C63.9349 60.5582 64.8946 60.362 66.6471 61.3037C68.3996 62.2846 69.0672 62.0884 67.4816 61.1075C66.8557 60.7151 66.4802 60.2051 66.6054 59.8912C66.7306 59.538 66.3133 59.1849 65.3536 58.8318C63.6428 58.2432 63.6845 57.7724 65.6457 56.8307C67.2313 56.0852 69.1507 56.2421 70.1939 57.223ZM19.7881 56.9876C20.2471 57.223 20.873 58.0078 21.2068 58.7533C21.5406 59.4988 22.5421 60.5974 23.46 61.186C24.378 61.7745 25.0874 62.3631 25.1291 62.5201C25.1291 62.7162 23.7104 62.834 21.9996 62.834C18.1608 62.834 17.2011 62.2062 17.2011 59.5773L17.2428 57.9293L18.2442 58.9887C19.5795 60.4405 19.7881 60.362 19.037 58.714C18.0773 56.556 18.2442 56.2029 19.7881 56.9876ZM60.8471 58.7533C60.5967 59.3811 60.5133 59.3811 59.8874 58.8318C59.5118 58.4394 59.3449 57.9293 59.5118 57.4977C59.7622 56.8699 59.8457 56.8699 60.4716 57.4192C60.8471 57.8116 61.014 58.3217 60.8471 58.7533ZM63.0169 59.1849C62.9334 59.538 62.6831 59.8912 62.391 59.9696C62.0989 60.0873 62.0154 59.8519 62.1406 59.3418C62.391 58.3609 63.2255 58.2432 63.0169 59.1849ZM59.3449 59.9304C59.3449 60.2443 59.0529 60.4797 58.719 60.4797C58.0931 60.4797 57.8428 59.6557 58.3435 59.1849C58.7608 58.8318 59.3449 59.2634 59.3449 59.9304ZM32.2226 67.5032C32.2226 67.6994 31.555 68.0917 30.7622 68.3272C29.9277 68.5626 28.7593 69.1904 28.1334 69.6612C26.214 71.1915 25.296 71.5054 24.1277 71.0738C22.7924 70.6029 22.7924 70.2498 24.0442 68.8372C24.8787 67.9348 25.5047 67.6994 27.7162 67.5032C31.9305 67.1108 32.2226 67.1108 32.2226 67.5032ZM21.3737 68.4056C19.496 69.1119 19.1205 69.3473 18.7032 70.1321C17.7435 71.7016 16.1579 71.9762 15.6989 70.6029C15.4903 69.9751 15.6989 69.5435 16.5334 68.8372C17.4514 68.131 18.119 67.9348 20.0385 67.974C22.0831 67.974 22.2917 68.0525 21.3737 68.4056ZM52.5018 69.1511C53.378 69.8182 52.9608 70.0144 50.332 70.1321C48.8716 70.1713 47.7449 70.446 47.2442 70.8776C46.3262 71.6623 44.7823 71.5446 44.1564 70.6029C43.8226 70.0928 43.9061 69.7397 44.532 69.0727C45.2831 68.3272 45.6586 68.2487 48.6212 68.4449C50.4154 68.5626 52.1262 68.8765 52.5018 69.1511ZM62.6831 68.9157C63.4342 69.3473 62.1824 69.8182 60.096 69.8574C59.0946 69.8966 58.26 70.1713 57.7176 70.7206C56.6744 71.78 55.0054 71.5838 54.8385 70.3675C54.5881 68.6411 55.4644 68.2094 58.9277 68.4056C60.6802 68.4841 62.3493 68.7195 62.6831 68.9157ZM70.2356 69.1511C71.4039 69.7397 71.237 70.4067 69.9852 70.1321C69.2759 69.9751 68.3996 70.1713 67.3147 70.7599C65.9377 71.5054 65.6039 71.5446 65.0198 71.113C64.1018 70.3675 64.1852 69.6612 65.3118 68.9157C66.2716 68.2487 68.6917 68.3664 70.2356 69.1511ZM42.696 69.2296C42.6543 69.7005 42.0701 69.5827 41.9032 69.0727C41.778 68.8372 41.9449 68.6803 42.237 68.7588C42.4874 68.8765 42.696 69.0727 42.696 69.2296ZM30.7622 70.289C30.637 70.4852 30.3032 70.6814 30.0946 70.6814C29.8442 70.6814 29.8025 70.4852 29.9277 70.289C30.0529 70.0536 30.3867 69.8966 30.5953 69.8966C30.8457 69.8966 30.8874 70.0536 30.7622 70.289Z" fill="#FDA215"/>
<path d="M38.3564 12.4534C38.2313 12.6104 34.8514 12.7281 30.8874 12.7673L23.6687 12.8066L23.7939 15.1608C23.8773 16.4556 24.1694 18.2998 24.5032 19.2807C24.837 20.2616 25.4629 22.5374 25.9636 24.3815C26.4644 26.2257 28.05 31.248 29.5104 35.5641C30.9708 39.8802 32.932 45.962 33.8917 49.1009C34.8514 52.2399 36.3118 56.713 37.1046 59.0279L38.6068 63.2656L42.3205 63.1479L46.0341 63.0301L48.7464 57.5369C52.2097 50.5135 55.3809 42.1167 57.6759 33.7592C58.1349 32.1112 58.7608 30.1494 59.1363 29.4039C60.2629 26.8142 63.0586 13.5913 62.5579 13.1205C62.4327 13.0027 57.4672 12.8458 51.5421 12.7673C45.6169 12.6888 40.3176 12.5319 39.7334 12.4142C39.1492 12.2965 38.5233 12.2965 38.3564 12.4534ZM30.0528 14.2583C30.3867 14.5722 30.6787 14.5722 31.096 14.2191C31.5967 13.866 31.9305 14.0621 32.8068 15.1608C33.4327 15.9063 34.1421 16.4556 34.3507 16.2987C34.8931 15.9848 38.0644 19.1237 38.0644 19.987C38.0644 20.3793 38.273 20.8894 38.5651 21.1641C38.9406 21.5172 38.8572 21.7919 38.273 22.4197C37.5219 23.2044 37.5219 23.2436 39.2744 23.6753C39.9838 23.8714 40.3593 25.5586 39.6917 25.5586C39.4831 25.5586 39.3579 25.4017 39.4831 25.2055C39.7751 24.7739 38.7737 24.3815 37.4802 24.3815C36.9795 24.3815 36.3953 24.2246 36.1867 24.0676C35.4773 23.4791 32.3895 22.812 30.3032 22.7728C28.509 22.7728 28.3838 22.6943 29.2183 22.3412C30.2615 21.8311 30.4284 21.2425 29.4687 21.2425C29.1349 21.2425 28.6341 20.6932 28.4255 20.0654C28.1334 19.3592 27.6744 18.8883 27.2154 18.8883C26.3392 18.8883 25.7133 17.7112 26.4226 17.3188C26.7564 17.0834 26.7564 16.8088 26.4226 16.181C25.6715 14.9254 26.5061 13.7875 28.1751 13.7875C28.9262 13.7875 29.7608 13.9837 30.0528 14.2583ZM42.4039 14.6899C42.5708 14.4938 42.9881 14.7292 43.3219 15.1216C43.6557 15.5532 43.9061 15.6709 43.9061 15.4354C43.9061 14.5722 44.6572 14.9646 44.9075 15.9455C45.1579 16.8872 45.9924 17.3581 45.9924 16.5341C45.9924 16.2987 46.201 16.1417 46.4097 16.1417C46.66 16.1417 46.8269 16.4949 46.8269 16.8872C46.8269 17.3188 47.0356 17.7897 47.2859 17.9466C47.578 18.1036 47.6615 18.7706 47.5363 19.5161C47.4111 20.2616 47.4528 20.8502 47.7032 20.8502C47.9118 20.8502 48.2039 20.1439 48.3291 19.2415C48.5377 18.1428 48.7464 17.7897 49.0385 18.0643C49.6226 18.6137 50.1651 18.6137 50.1651 18.0251C50.1651 17.3188 51.4586 16.181 52.0428 16.3771C52.3349 16.4949 52.8773 16.181 53.2528 15.7101C53.7536 15.0038 54.0039 14.9254 54.4629 15.2785C54.9219 15.6709 55.2975 15.5924 56.132 14.9646C57.3003 14.1014 58.0931 13.9444 58.0931 14.6115C58.0931 14.8469 58.4687 14.9254 58.9277 14.7684C60.0126 14.4545 60.5133 15.5532 59.8039 16.6126C59.3867 17.2796 59.4284 17.3973 60.1377 17.5935C61.1392 17.8289 60.8471 18.8883 59.7205 18.8883C58.8025 18.8883 58.7608 19.0453 59.4284 20.0654C59.8874 20.7325 59.8039 20.9287 59.0111 21.4387C58.5104 21.7919 58.0931 22.3412 58.0931 22.6551C58.0931 22.969 57.7176 23.2044 57.2586 23.2044C56.7996 23.2044 56.4241 23.3614 56.4241 23.5575C56.4241 23.7537 56.0903 23.9892 55.7147 24.1461C55.2975 24.2638 54.6716 24.5385 54.3377 24.7347C52.7521 25.6371 49.3723 26.8142 48.8716 26.618C48.496 26.5003 48.6629 26.3041 49.414 26.0295C49.9982 25.7941 50.6241 25.4017 50.791 25.1663C51.0413 24.8131 50.8744 24.8131 50.2068 25.127C49.7061 25.4017 49.3305 25.4409 49.3305 25.2055C49.3305 25.0093 48.9967 24.7739 48.6212 24.6954C47.9536 24.5777 47.9536 24.5385 48.6629 23.9892C50.7075 22.4589 53.1694 20.0262 52.9608 19.7908C52.7939 19.6731 51.8341 20.3009 50.7493 21.2033C48.7464 22.969 47.9118 23.0867 49.0802 21.4387C49.8313 20.3793 49.3723 20.0654 48.496 21.0464C48.2039 21.3995 47.7032 21.5957 47.4111 21.478C47.119 21.3603 46.7435 21.4387 46.6183 21.6349C46.4514 21.8703 46.66 22.0273 46.9939 22.0273C47.3694 22.0273 47.6615 22.2235 47.6615 22.4589C47.6615 22.6943 47.4111 22.812 47.0773 22.6943C46.7435 22.5766 46.3262 22.8905 46.0341 23.4398C45.2413 25.0486 44.7406 24.4992 44.6989 21.9096L44.6572 19.4769L44.2816 21.2033C43.8644 23.2436 43.4888 23.7537 43.4888 22.302C43.4888 21.7134 43.2802 21.2425 43.0298 21.2425C42.7795 21.2425 42.6543 21.5172 42.8212 21.8311C42.9464 22.145 42.8629 22.4197 42.6543 22.4197C42.4039 22.4197 42.237 22.2235 42.237 22.0273C42.237 21.7919 42.0701 21.6349 41.8615 21.6349C41.6946 21.6349 41.6111 22.0665 41.6946 22.5766C41.9867 23.9107 41.1939 24.1461 40.6097 22.8905C40.3176 22.302 39.7751 21.2033 39.3579 20.4578C38.3982 18.5744 38.5651 16.4556 39.7751 15.0431C40.6514 14.0229 40.86 13.9444 41.4442 14.4153C41.8198 14.7292 42.237 14.8469 42.4039 14.6899ZM36.8126 15.357C36.8126 15.5532 36.6457 15.7493 36.3953 15.7493C36.1867 15.7493 35.978 15.5532 35.978 15.357C35.978 15.1216 36.1867 14.9646 36.3953 14.9646C36.6457 14.9646 36.8126 15.1216 36.8126 15.357ZM38.0644 15.357C38.0644 15.5532 37.9809 15.7493 37.8975 15.7493C37.7723 15.7493 37.5636 15.5532 37.4385 15.357C37.3133 15.1216 37.3967 14.9646 37.6054 14.9646C37.8557 14.9646 38.0644 15.1216 38.0644 15.357ZM60.1795 22.812C60.1795 23.0082 60.0126 23.2044 59.7622 23.2044C59.5536 23.2044 59.3449 23.0082 59.3449 22.812C59.3449 22.5766 59.5536 22.4197 59.7622 22.4197C60.0126 22.4197 60.1795 22.5766 60.1795 22.812ZM33.9751 24.2246C36.9377 24.9308 39.7334 26.1472 39.7334 26.7358C39.7334 26.9712 38.8572 27.1281 37.814 27.1281C36.7708 27.1281 36.0198 27.2851 36.1867 27.4813C36.3118 27.6774 37.0212 27.7559 37.814 27.6382C39.5665 27.3635 40.2341 28.1875 38.6068 28.5407C37.9809 28.6976 36.2284 29.3254 34.7262 29.9532C31.7636 31.2088 29.4269 31.3265 29.6356 30.2279C29.6773 29.8747 29.4687 29.4824 29.0931 29.3254C28.7593 29.2077 28.4672 28.7761 28.4672 28.3837C28.4672 27.9913 28.2586 27.4813 28.05 27.2851C27.7162 26.9712 27.7996 26.6965 28.2586 26.3434C28.5924 26.0687 28.8845 25.5194 28.8845 25.0878C28.8845 24.4208 29.0514 24.3423 30.0111 24.5777C30.9708 24.7739 31.0543 24.7347 30.5953 24.2246C29.8442 23.4006 30.5118 23.4006 33.9751 24.2246ZM59.178 24.5777C59.3449 24.8916 59.0946 25.6371 58.6773 26.2649C58.2183 26.8535 57.8011 27.9521 57.6759 28.6976C57.4672 30.1101 56.6327 30.581 55.2557 30.0709C54.6716 29.8355 54.7133 29.757 55.5478 29.4431C56.9248 28.933 56.6327 28.8153 53.5449 28.5407C49.6226 28.2268 49.6226 27.6774 53.5032 27.442C54.5464 27.3635 55.3392 27.1281 55.3392 26.9319C55.2975 26.6965 54.6716 26.5788 53.9622 26.6573C53.2528 26.7358 52.6687 26.618 52.6687 26.4219C52.6687 26.0295 53.9622 25.5586 55.3809 25.4017C55.8399 25.3625 56.6744 25.0486 57.2586 24.6562C58.5104 23.8322 58.8859 23.8322 59.178 24.5777ZM44.7406 25.3625C45.1579 25.8333 45.1579 25.951 44.5737 25.951C44.1982 25.951 43.9061 25.6763 43.9061 25.3625C43.9061 25.0486 43.9895 24.7739 44.073 24.7739C44.1564 24.7739 44.4485 25.0486 44.7406 25.3625ZM43.0716 26.3434C43.0716 26.5396 42.9046 26.7358 42.6543 26.7358C42.4457 26.7358 42.237 26.5396 42.237 26.3434C42.237 26.108 42.4457 25.951 42.6543 25.951C42.9046 25.951 43.0716 26.108 43.0716 26.3434ZM46.8269 26.5396C46.8269 26.8535 46.5349 27.1281 46.201 27.1281C45.5334 27.1281 45.3665 26.6573 45.8672 26.2257C46.3262 25.7548 46.8269 25.9118 46.8269 26.5396ZM44.7406 27.5205C44.7406 27.9521 44.4485 28.3052 44.1147 28.3052C43.7809 28.3052 43.4888 27.9521 43.4888 27.5205C43.4888 27.0889 43.7809 26.7358 44.1147 26.7358C44.4485 26.7358 44.7406 27.0889 44.7406 27.5205ZM42.2787 28.0306C42.237 28.5014 41.6528 28.3837 41.4859 27.8736C41.3608 27.6382 41.5277 27.4813 41.8198 27.5597C42.0701 27.6774 42.2787 27.8736 42.2787 28.0306ZM48.0787 28.3052C48.0787 28.5014 47.9118 28.6976 47.6615 28.6976C47.4528 28.6976 47.2442 28.5014 47.2442 28.3052C47.2442 28.0698 47.4528 27.9129 47.6615 27.9129C47.9118 27.9129 48.0787 28.0698 48.0787 28.3052ZM46.66 28.8546C47.0356 29.2077 47.0773 29.5216 46.8269 29.6785C46.2428 29.9924 45.5751 29.5608 45.5751 28.8546C45.5751 28.1483 45.909 28.1483 46.66 28.8546ZM38.6485 29.5216C38.4816 29.8355 38.6903 29.8747 39.3162 29.6785C40.6514 29.2862 40.0255 30.1101 38.3982 30.8949C37.7305 31.2088 37.2716 31.6012 37.3967 31.7189C37.5219 31.8366 38.1061 31.6404 38.6485 31.2873C40.1507 30.3848 40.4428 30.5025 39.3162 31.6404C38.0644 32.896 39.0241 32.9352 40.3593 31.6404C41.0687 31.0126 41.4025 30.8557 41.4025 31.248C41.4025 32.0328 41.8198 31.9935 42.4874 31.1696C43.2802 30.1101 43.5305 30.6987 43.0298 32.3859C42.6126 33.72 42.9464 35.054 43.3636 33.8769C43.7392 32.9352 44.3234 33.4061 44.3651 34.6617C44.4485 35.7603 44.4485 35.7995 44.6154 34.9756C44.7406 34.4262 45.0744 33.8377 45.4082 33.6807C45.7421 33.5238 45.9924 32.9352 45.9924 32.4251C45.9924 31.0518 46.5349 31.2088 47.2442 32.6998C47.9536 34.2693 47.8284 35.4072 46.8687 37.0551C46.2845 38.0361 45.8255 38.35 44.6154 38.4284C43.4054 38.5461 42.9881 38.35 42.4039 37.5652C42.0284 37.0159 41.3608 36.545 40.9018 36.545C40.4845 36.545 40.2341 36.3881 40.3593 36.1527C40.4845 35.9565 40.6931 35.2895 40.7766 34.7009C40.86 34.0731 41.0269 33.2884 41.1939 32.896C41.3608 32.5036 41.319 32.229 41.0269 32.229C40.7766 32.229 40.568 32.3859 40.568 32.6213C40.568 33.1707 38.7737 34.8186 38.3564 34.6617C38.1478 34.6224 37.8975 34.8971 37.7723 35.3287C37.6471 35.7995 37.3133 35.9957 36.9795 35.878C36.6457 35.7603 36.3953 35.9173 36.3953 36.3096C36.3953 37.0159 34.2672 37.0944 31.7219 36.5058C29.9277 36.0742 29.8442 35.9173 30.8039 34.6617C31.1377 34.1908 31.3046 33.6023 31.1795 33.4061C31.0543 33.1707 31.2212 33.0137 31.5967 33.0137C31.9305 33.0137 32.3895 32.6213 32.5982 32.1112C32.8485 31.4835 33.6831 30.9734 35.0183 30.5025C36.1032 30.1101 37.3967 29.6785 37.8557 29.4824C38.9823 29.0115 38.9823 29.0115 38.6485 29.5216ZM53.9205 29.4824C53.9205 29.6785 53.7536 29.8747 53.5449 29.8747C53.2946 29.8747 53.0025 29.6785 52.8773 29.4824C52.7521 29.2469 52.919 29.09 53.2528 29.09C53.6284 29.09 53.9205 29.2469 53.9205 29.4824ZM53.0859 30.2671C54.3377 30.6595 55.7147 31.3657 56.132 31.8758C56.7996 32.6606 56.7996 32.8175 56.2154 33.4061C55.8816 33.7592 55.5895 34.5832 55.5895 35.211C55.5895 37.1336 55.0888 37.4867 53.4615 36.8197C52.6687 36.5058 51.6672 35.878 51.25 35.4072C50.791 34.9756 50.2485 34.5832 49.9982 34.5832C49.5809 34.544 47.2442 31.4442 47.2442 30.8949C47.2442 30.3456 48.2874 30.7379 49.6226 31.8758C51.0413 33.0137 52.0011 33.1707 51.0413 32.072C50.6658 31.6404 50.7493 31.4835 51.5003 31.3265L52.3766 31.0911L51.3752 30.3063C50.1234 29.3254 50.2485 29.3254 53.0859 30.2671ZM45.5751 30.8557C45.5751 31.1696 45.4917 31.4442 45.4082 31.4442C45.3248 31.4442 45.1579 31.1696 44.991 30.8557C44.8658 30.5418 44.9492 30.2671 45.1579 30.2671C45.4082 30.2671 45.5751 30.5418 45.5751 30.8557ZM41.4025 38.5069C41.4025 38.7031 41.1939 38.8993 40.9435 38.8993C40.7349 38.8993 40.6514 38.7031 40.7766 38.5069C40.9018 38.2715 41.1104 38.1145 41.2356 38.1145C41.319 38.1145 41.4025 38.2715 41.4025 38.5069ZM50.1651 38.2715C50.1651 38.3892 49.9982 38.5854 49.7478 38.7031C49.5392 38.8208 49.3305 38.7423 49.3305 38.5461C49.3305 38.3107 49.5392 38.1145 49.7478 38.1145C49.9982 38.1145 50.1651 38.193 50.1651 38.2715ZM36.9795 39.3309C36.8543 39.5271 36.5622 39.6055 36.3536 39.4486C36.1449 39.3309 36.0615 39.0562 36.2284 38.86C36.3536 38.6639 36.6457 38.5854 36.8543 38.7423C37.0629 38.86 37.1464 39.1347 36.9795 39.3309ZM45.5751 40.3511C46.7435 41.5674 46.8687 41.999 46.7018 43.2938C46.4514 45.0988 45.0744 48.3162 44.5737 48.3162C44.3651 48.3162 44.3234 47.4137 44.4903 46.3151C44.6989 44.981 44.6572 44.3925 44.3234 44.5887C44.1147 44.7064 43.9061 45.2165 43.9061 45.6873C43.9061 47.1391 43.4054 48.3554 42.9046 48.1985C42.6543 48.12 42.4874 47.4137 42.5708 46.629C42.6543 45.7658 42.5291 45.1772 42.2787 45.1772C42.0284 45.1772 41.8198 45.962 41.8198 46.9821C41.8198 49.1402 41.1939 48.944 40.86 46.6682C40.7349 45.7265 40.4845 44.3532 40.3593 43.6077C40.109 42.3521 40.2341 42.0383 41.778 40.5472C42.7377 39.6448 43.6557 38.8993 43.8644 38.8993C44.073 38.8993 44.8241 39.5271 45.5751 40.3511ZM34.7262 40.8611C35.06 41.2535 35.7277 41.6459 36.1867 41.7244C36.6874 41.8028 37.0629 42.2344 37.1464 42.7445C37.2298 43.2546 37.6888 43.8432 38.1895 44.0393C39.1075 44.4317 40.7766 47.453 40.3176 47.8846C40.0672 48.12 38.6903 46.7075 38.3564 45.8443C38.273 45.6088 38.0226 45.4911 37.8557 45.6481C37.6888 45.805 37.9392 46.3936 38.4399 46.9821C39.4831 48.2377 39.5665 49.6895 38.6485 50.0426C36.9377 50.6704 34.0586 47.4137 33.3492 44.0393C33.0572 42.7053 32.5982 41.4497 32.3061 41.175C32.014 40.9004 31.8054 40.4688 31.8054 40.1941C31.8054 39.4486 33.8917 39.9587 34.7262 40.8611ZM53.6701 41.5282C53.5449 42.5876 53.1694 43.9216 52.8773 44.5887C52.5852 45.2165 52.2514 46.5505 52.1262 47.453C51.9176 49.2187 50.5406 51.0628 49.4557 51.0628C48.5795 51.0628 48.8298 50.5135 50.1651 49.2971C50.8327 48.6693 51.3334 48.0808 51.2082 48.0023C51.0831 47.8846 50.5406 48.1985 49.9564 48.7086C48.7046 49.8072 48.5795 49.2187 49.7895 47.7669C50.2485 47.2176 50.4572 46.7467 50.2068 46.7467C49.9564 46.7467 49.4975 47.2568 49.1219 47.8846C48.2039 49.5718 47.4528 49.8857 47.8284 48.4731L48.0787 47.3353L47.2442 48.277L46.4097 49.1794V47.9631C46.4097 47.296 46.8687 46.0404 47.4528 45.2165C47.9953 44.3532 48.5795 43.2154 48.7464 42.6268C48.955 41.8421 49.5809 41.332 51.1665 40.6257C52.3349 40.1549 53.4615 39.7233 53.6284 39.7233C53.837 39.684 53.837 40.508 53.6701 41.5282ZM44.7406 50.0426C44.7406 50.3565 44.5737 50.7489 44.3234 50.8666C44.1147 50.9843 43.9061 51.0236 43.9061 50.9059C43.9061 50.8274 43.7809 50.4742 43.6557 50.1211C43.4888 49.6895 43.614 49.4933 44.073 49.4933C44.4485 49.4933 44.7406 49.7287 44.7406 50.0426ZM36.3953 51.2982C36.3953 51.6121 36.2284 51.7691 35.978 51.6514C35.7694 51.5336 35.5608 51.259 35.5608 51.0236C35.5608 50.8274 35.7694 50.6704 35.978 50.6704C36.2284 50.6704 36.3953 50.9451 36.3953 51.2982ZM39.3579 51.7298C38.3147 52.9069 38.5233 53.4563 39.65 52.5146C40.86 51.4944 40.9852 51.7298 40.3176 53.4955C39.65 55.2612 38.2313 56.9484 37.3967 56.9484C36.6874 56.9484 35.8528 54.7903 36.1867 53.7309C36.6039 52.4753 38.4816 50.6704 39.4413 50.6704C40.1924 50.6704 40.1507 50.7097 39.3579 51.7298ZM42.6543 50.9843C42.6543 51.4944 42.1536 51.8475 41.7363 51.6121C41.319 51.3767 41.6946 50.6704 42.2787 50.6704C42.4874 50.6704 42.6543 50.8274 42.6543 50.9843ZM47.8284 52.2792C48.6212 52.8677 48.9133 53.4563 48.9133 54.398C48.9133 55.1435 48.7046 55.8497 48.4543 55.9674C47.8701 56.3206 45.9924 54.6726 45.9924 53.8094C45.9924 53.4563 45.7838 52.9854 45.5334 52.75C44.991 52.2399 45.3665 51.4552 46.1593 51.4552C46.4514 51.4552 47.2025 51.8083 47.8284 52.2792ZM44.532 52.2399C44.6572 52.4361 44.5737 52.6323 44.3651 52.6323C44.1147 52.6323 43.9061 52.4361 43.9061 52.2399C43.9061 52.0045 43.9895 51.8475 44.073 51.8475C44.1982 51.8475 44.4068 52.0045 44.532 52.2399ZM41.8615 53.6917C42.1953 57.1053 42.6543 58.4394 42.6543 56.0459C42.6543 55.2612 42.8629 54.5157 43.0716 54.398C43.3219 54.241 43.4888 54.8296 43.4888 55.8497C43.4888 57.0661 43.614 57.38 43.9061 56.9484C44.1147 56.6345 44.3234 55.889 44.3234 55.2612C44.3234 53.9271 44.7406 53.9271 45.6586 55.3004C46.0759 55.889 46.6183 56.6737 46.9104 57.0661C47.3694 57.6546 47.3277 57.8508 46.7435 58.2824C46.3262 58.5571 45.9924 58.9887 45.9924 59.2634C45.9924 59.4988 45.7421 59.695 45.45 59.695C45.1162 59.695 44.5737 60.4013 44.1982 61.2645C43.8644 62.1277 43.3219 62.834 42.9881 62.834C42.4039 62.834 41.4025 61.1075 41.4025 60.1658C41.4025 59.695 41.2773 59.695 40.7766 60.0874C40.2341 60.4797 40.1507 60.4405 40.1507 59.7342C40.1507 59.3026 39.9003 58.9102 39.6082 58.9102C39.1492 58.9102 39.1075 58.5963 39.5248 57.223C40.109 55.1435 41.0269 53.417 41.4859 53.417C41.6528 53.417 41.8198 53.5347 41.8615 53.6917Z" fill="#FDA215"/>
<path d="M41.4859 20.4578C41.4859 21.0071 41.5694 21.2033 41.6946 20.9286C41.778 20.6932 41.778 20.2224 41.6946 19.9477C41.5694 19.7123 41.4859 19.9085 41.4859 20.4578Z" fill="#FDA215"/>
<path d="M49.9564 23.9891C48.9967 25.0093 49.6226 25.0093 50.9996 23.9891C51.7507 23.4398 51.8759 23.2044 51.3751 23.2044C50.9996 23.2044 50.3737 23.5575 49.9564 23.9891Z" fill="#FDA215"/>
<path d="M14.2802 74.095C7.93773 74.4482 6.85284 75.3898 12.8197 75.3898C14.9895 75.3898 16.7838 75.2721 16.7838 75.0759C16.742 74.3304 15.991 74.0165 14.2802 74.095Z" fill="#FDA215"/>
<path d="M18.0356 74.3304C18.0356 74.919 18.7449 74.9975 23.5852 75.0759C26.5895 75.1152 31.2629 75.1152 33.8917 75.0759C36.5205 75.0367 42.696 75.1937 47.578 75.4683C56.4658 75.9784 57.968 75.8999 56.9665 74.9582C56.2572 74.2912 56.5493 74.3304 36.1032 73.9773C19.4543 73.7419 18.0356 73.7419 18.0356 74.3304Z" fill="#FDA215"/>
<path d="M5.93486 74.919C5.93486 75.4683 6.39385 75.743 7.01975 75.5075C7.89601 75.1937 7.7291 74.6051 6.76939 74.6051C6.3104 74.6051 5.93486 74.762 5.93486 74.919Z" fill="#FDA215"/>
</svg>
