<svg width="20" height="11" viewBox="0 0 20 11" fill="none" xmlns="http://www.w3.org/2000/svg">
<path d="M9.67556 3.48804L17.1277 10.3388C17.3812 10.5718 17.6769 10.6844 18.0149 10.6767C18.3528 10.6689 18.6486 10.5485 18.902 10.3155C19.1555 10.0825 19.2822 9.81062 19.2822 9.49993C19.2822 9.18924 19.1555 8.91738 18.902 8.68436L11.1204 1.50738C10.9176 1.32097 10.6895 1.18115 10.436 1.08795C10.1825 0.99474 9.92904 0.948136 9.67556 0.948136C9.42209 0.948136 9.16861 0.99474 8.91514 1.08795C8.66166 1.18115 8.43353 1.32097 8.23075 1.50738L0.423733 8.68436C0.170258 8.91738 0.0477454 9.19312 0.0561946 9.51158C0.0646437 9.83004 0.195606 10.1058 0.44908 10.3388C0.702555 10.5718 0.998275 10.6883 1.33624 10.6883C1.67421 10.6883 1.96993 10.5718 2.2234 10.3388L9.67556 3.48804Z" fill="#FDA215"/>
</svg>
