<svg width="302" height="71" viewBox="0 0 302 71" fill="none" xmlns="http://www.w3.org/2000/svg">
<mask id="path-1-inside-1_379_43" fill="white">
<path d="M299.02 0.577637C300.19 0.577637 301.138 1.52538 301.138 2.69482V44.9907L255.585 70.3726H2.33466C1.16507 70.3726 0.216622 69.4249 0.216492 68.2554V2.69482C0.216752 1.52538 1.16515 0.577637 2.33466 0.577637H299.02Z"/>
</mask>
<path d="M301.138 2.69482H306.138V2.69371L301.138 2.69482ZM301.138 44.9907L303.572 49.3585L306.138 47.9286V44.9907H301.138ZM255.585 70.3726V75.3726H256.884L258.018 74.7403L255.585 70.3726ZM0.216492 68.2554H-4.78351V68.2559L0.216492 68.2554ZM0.216492 2.69482L-4.78351 2.69371V2.69482H0.216492ZM299.02 0.577637V5.57764C297.43 5.57764 296.139 4.28894 296.138 2.69594L301.138 2.69482L306.138 2.69371C306.137 -1.23819 302.949 -4.42236 299.02 -4.42236V0.577637ZM301.138 2.69482H296.138V44.9907H301.138H306.138V2.69482H301.138ZM301.138 44.9907L298.705 40.623L253.151 66.0048L255.585 70.3726L258.018 74.7403L303.572 49.3585L301.138 44.9907ZM255.585 70.3726V65.3726H2.33466V70.3726V75.3726H255.585V70.3726ZM2.33466 70.3726V65.3726C3.92404 65.3726 5.21631 66.6609 5.21649 68.2548L0.216492 68.2554L-4.78351 68.2559C-4.78307 72.1889 -1.59391 75.3726 2.33466 75.3726V70.3726ZM0.216492 68.2554H5.21649V2.69482H0.216492H-4.78351V68.2554H0.216492ZM0.216492 2.69482L5.21649 2.69594C5.21614 4.28894 3.92468 5.57764 2.33466 5.57764V0.577637V-4.42236C-1.59438 -4.42236 -4.78263 -1.23818 -4.78351 2.69371L0.216492 2.69482ZM2.33466 0.577637V5.57764H299.02V0.577637V-4.42236H2.33466V0.577637Z" fill="#FDA215" mask="url(#path-1-inside-1_379_43)"/>
</svg>
