<?xml version="1.0" encoding="UTF-8"?>
<svg id="_Слой_1" data-name="Слой 1" xmlns="http://www.w3.org/2000/svg" viewBox="0 0 796.44 414.79">
  <polygon points="0 135.73 183.58 135.73 183.58 .51 132.07 .51 132.07 108.24 118.18 108.24 118.18 .51 66.56 .51 66.56 108.62 52.22 108.62 52.22 .51 .83 .51 0 135.73"/>
  <path d="m253.93,1.25c-.15,21.03-.07,30.17.04,34.57.11,4.43.29,5.84.09,9.19-.18,2.88-.11,5.77-.2,8.65-.07,2.27-.11,2.94.39,3.48,1.64,1.78,7.43.34,10.65-2.47,4.93-4.3,2.73-10.83,3.7-25.71.86-13.14,1.6-24.3,8.11-27.73.75-.39.6-.17,15.96-.17,6.57,0,9.25-.04,13.31,0,1.83.02,4.25.06,7.42.04.31,0,1.08,0,2.12,0,3.32.01,2.54.09,5.12.12,1.93.02,2.09-.02,2.23.17.7.94-2.33,3.2-4.18,7.91-.82,2.09-1.08,3.81-1.37,5.74-.59,3.94-.37,7.01-.3,8.06,1.15,17.06,1.72,25.63-2.62,32.56-2.13,3.4-4.76,5.31-6.27,6.39-10.01,7.15-22.48,5-22.51,5.97-.02.79,8.3.38,17.73,4.7,7.42,3.4,10.2,7.28,10.83,8.19,2.34,3.4,2.92,6.59,3.59,10.5,1,5.81.64,11.71-.12,23.26-.02.38-.47,7.2,1.02,12.33.58,2,1.08,3.72,2.53,5.47,1.14,1.38,2.06,1.8,1.91,2.37-.15.58-1.33,1.06-8.05,1.02-3.16-.02-4.73-.12-7-.22-7.8-.32-26.95-.11-27.85-.1-.84,0-2.75.03-4.57-1.1-1.48-.92-2.27-2.23-2.87-3.19-1.07-1.71-1.49-3.31-2.02-5.1-.37-1.24-.47-1.96-.47-1.96-1.12-7.42-.83-16.05-.95-23.04-.24-13.77-2.01-16.79-3.84-18.38-1.69-1.47-4.88-2.95-7.26-3.83-2.36-.87-3.01-.77-3.46-.54-1.73.89-1.54,4.31-1.33,9.15.17,4.07.18,8.14.43,12.2.32,5.12.47,15-.31,35.97h-50.43V.51l50.8.74Z"/>
  <path d="m448.17,32.88c-.04-1.8-.13-6.22-2.34-11.24-3.28-7.48-9.2-11.58-12.17-13.58-7.99-5.4-15.74-6.56-23.26-7.59-4.99-.7-11.38-.44-24.13-.32-12.14.11-14.97.5-16.74.8-6.06,1.01-15.03,2.6-23.29,9.24-4.83,3.88-7.54,7.98-8.34,9.23-8.01,12.62-3.23,23.12-5.14,51.45-.03.45-.47,6.98-.51,15.67-.03,6.19.17,9.24.47,12.02.42,3.78.75,6.81,1.85,10.41.71,2.33,2.98,9.47,9.19,15.63,1.57,1.56,5.25,4.9,13.58,8.32,14.17,5.79,26.89,5.68,35.57,5.52,7.65-.14,16.55-.38,27.53-4.08,4.8-1.61,11.99-4.04,17.63-8.56,16.09-12.9,11.35-36.36,10.12-92.92Zm-49.26,23.37c-.12,6.65-.29,7.97-.39,13.32-.03,1.06-.11,6.03,0,11.57.12,6.07.62,19.75-1.09,28.68-.27,1.38-.89,4.27-2.92,5.12-.23.1-.47.17-3.71.27-2.88.09-3.18.06-3.53-.08-1.88-.7-2.63-3.05-2.91-3.95-2.35-7.37-.9-34.9-.69-40.11.19-4.54.05-12.28-.25-27.74-.07-3.79-.39-19.78,4.16-21.17.62-.19,2.39-.43,4.27-.37,1.85.05,3.1.08,4.02.57,1.86.96,2.27,3.61,2.76,14.63.18,4.09.27,6.19.32,9.28,0,.81.06,4.18-.05,9.99Z"/>
  <path d="m459.14,134.98c-.27-.42-.07-.75.05-2.32.07-.94.02-1.08.02-3.02,0-2.58.1-5.47.15-7.51.05-2.28.1-5.56.06-9.73,4.27.54,11.38.84,14.52-3.34,1.01-1.34,1.26-2.68,1.37-3.24,1.68-8.76.28-89.25,0-104.87h116.25v133.96h-51.44c0,.47.16-106.66.16-106.66-3.84.04-6.32-.02-8.03-.12-1.36-.08-2.74.24-4.1.11-.55-.05-1.41-.17-1.8.31-.29.36-.18.88-.14,1.1.26,1.44-.17,2.92-.07,4.38.22,3.06.09,6.13.26,9.19.29,4.95.38,16.36.08,42.97-.29,26.14-.58,33.34-6.42,39.55-3.29,3.5-7.27,5.55-8.12,5.97-6.15,3.08-12.4,3.27-24.89,3.66-2.42.08-5.8.13-8.92.17-9.71.15-8.13-.02-10.14.1-1.45.09-2.91,0-4.37.01-2.74.03-3.98.08-4.46-.67Z"/>
  <path d="m728.96,88.09c-.32-18.52-2.25-23.23-3.19-25.27-1-2.16-1.91-4.13-3.75-6.27-8.85-10.33-26.35-9.74-44.61-9.14-6.35.21-9.53.06-10.37.12-1.04.08-2.09,0-3.13.06-1.13.07-1.59.15-1.95-.18-.45-.41-.3-1.08-.22-2.58.05-.98-.05-1.97,0-2.95.14-2.94-.15-10.23-.2-12.02-.12-3.79-.11-11.52.42-28.52-33.2.13-44.17.05-45.6-.1-1.18-.12-2.38.11-3.54-.09-.45-.07-1.27-.25-1.57.14-.1.14-.11.3-.1.82,0,.45-.06.9-.04,1.34.1,2.29.02,4.59.13,6.88.02.44.06,3.25.13,8.86.26,20.25.28,34.4.28,34.4,0,0,.02,22.11-.75,60.69-.09,4.69.06,9.38-.03,14.07-.03,1.58.11,3.15.11,4.73,0,1.42-.03,1.63.16,1.95.74,1.23,2.87.81,7.91.68,2.69-.06,5.38.02,8.07,0,2.27,0,3.41,0,4.02-.02,6.76-.04,31,.08,38.66.16,17.3.16,47.54.44,54.11-11.52,2.46-4.47,3.74-10.07,3.74-10.07.57-2.46.85-4.77,1.09-11.81.19-5.61.31-8.82.2-14.36Zm-50.47,9.99c-.02,1.39-.07,3.61-.68,6.43-.3,1.4-.67,3.16-1.24,4.21-2.59,4.75-13.82,3.22-14.87,3.07v-43.33c11.52-.71,14.69,3.32,15.5,4.59.68,1.04.52,1.39,1.11,13.36.02.45.28,5.58.18,11.66Z"/>
  <rect x="745.56" y="1.05" width="50.88" height="134.85"/>
  <path d="m0,279.07v133.86h82.41l81.05-119.55c-.36-.02-.9-.04-1.56-.07-3.41-.15-3.24-.1-4.32-.17-.81-.05-2.13-.13-4.21-.27-.62-.04-1.45-.1-2.31.32-.68.33-.9.71-1.4,1.16-1.36,1.23-3.12,1.42-3.57,1.46-2.36.25-4.13-.94-4.74-1.34-.98-.65-1.58-1.39-1.84-1.86-.29-.52-.43-.78-.48-1.16-.03-.19-.02-.29-.1-.4-.2-.24-.62-.09-1.27-.03-.53.05-.35-.04-1.82-.07-1.05-.02-.82.03-1.3,0-.85-.06-1.3-.21-1.65.08-.13.1-.16.19-.26.37-.35.6-.77.9-1.16,1.25-.87.77-1.82,1.95-2.19,2.34-1.1,1.16-4.96,3.54-9.88,3.4-6.26-.18-10.67-4.41-11.17-5.82-.03-.1-.24-.71-.67-1.43-.35-.58-.65-1.07-1.2-1.44-.71-.48-1.07-.22-1.49-.7-.58-.65-.46-1.56-.45-1.64.13-.92.84-1.5,1.14-1.74.52-.42.73-.33,1.38-.89.12-.1.46-.4.83-.87.4-.51.62-.95.71-1.13,0,0,.6-1.17,1.76-2.52,0,0,.99-1.16,2.54-2.06,2.13-1.23,4.27-1.21,6.61-1.18,2.14.02,5.14.05,8.13,1.82,1.4.82,2.43,1.58,3.38,2.9.42.59.64,1.05,1.27,1.47.33.22.87.49,3.05.57,1.86.08,2.78.1,3.45-.23.93-.47.94-1.07,1.9-2.12.52-.56,1.83-1.92,3.72-2.3,1.37-.27,3.51-.12,4.75.9.27.22.88.8,1.78.93.27.04.59.04.92.03.61,0,.83-.05,1.39-.08.37-.01.49,0,1.33.02.62.02,1.24.03,1.85.04,2.99.08,10.22.03,10.22.03,1.33,0,3.16-.02,5.33-.05,4.94-7.77,9.89-15.55,14.83-23.32v23.47h56.27v-38.77h5.65l-.52,38.18h16.23v-123.89h-82.15l-104.4,158.29v-157.22H1.03l-1.03,121.41Z"/>
  <polygon points="187.38 293.02 187.38 412.93 264.34 412.93 264.34 293.02 248.49 293.02 248.49 332.01 243.26 332.01 243.26 293.02 187.38 293.02"/>
  <path d="m795.65,329.69c-.15-2.08-2.85-34.05-22.76-53.05-7.4-7.07-16.4-11.78-16.4-11.78-2.24-1.18-6.11-3.19-11.39-4.75-8.3-2.44-15.11-2.31-18.05-2.26-16.34.28-32.68-.19-49.03.06-16.57.27-14.75-.24-34.8-.02-16.28.18-29.6.65-38.49,1.03v-51.86h162.35v-50.48h-241.79l.88,122.91c89.81,1.47,155.11,2.54,157.52,2.51.25,0,1.8-.04,3.64.57.83.28,1.54.52,2.21,1.09,1.26,1.08,2.22,3.22,1.54,4.86-.64,1.58-2.5,2.04-4.77,2.61-2.22.55-3.84.52-6.69.5-2.65-.02-5.3.02-7.95,0-2.72-.03-4.96,0-9.46.05-6.37.07-11.06.27-13.26.35-6.48.24-12.27.29-27.56.33-10.74.04-46.09.14-94.92.2-.39,40.74-.79,81.47-1.18,122.21h207.18c3.41-.24,8.17-.86,13.59-2.51,18.35-5.59,28.86-18.22,32.22-22.36,9.36-11.56,12.54-22.99,14.47-30.29,3.71-13.96,3.23-25.42,2.9-29.93Zm-96.66,32.03h-95.25v-53.25h95.25c10.74,4.04,18.09,13.99,18.65,25.19.61,12.18-6.93,23.61-18.65,28.06Z"/>
  <path d="m276.74,295.3h74.95v55.5c0,1.13.16,4.55,2.65,7.64,3.63,4.52,9.16,4.56,9.9,4.55h151.61v51.79h-185.97c-5.84-1.05-24.68-5.19-39.43-22.23-11-12.71-14.26-26.26-15.36-32.56v-64.7h1.66Z"/>
  <path d="m275.72,279.09h74.6c.24-19.16.49-38.31.73-57.47,1.14-3.84,2.99-6.37,4.15-7.72,0,0,2.58-3.02,7.77-5.87.75-.41,1.49-.73,1.49-.73.4-.17.74-.31,1.01-.4,50.12.13,100.25.27,150.37.4v-49.04c-30.36-.3-73.24-.73-89.36-.9-36.25-.38-41.56-.48-46.74-.59-1.67-.04-6.57-.11-16.36-.25-14.62-.22-18.65-.25-24.13.07-6.19.35-11.62,1-16.11,1.68-5.59,1.4-18.01,5.3-29.33,16.41-11.82,11.6-15.86,24.59-17.26,30.17-.28,24.75-.55,49.5-.83,74.25Z"/>
</svg>