<?xml version="1.0" encoding="UTF-8"?>
<!DOCTYPE svg PUBLIC "-//W3C//DTD SVG 1.1//EN" "http://www.w3.org/Graphics/SVG/1.1/DTD/svg11.dtd">
<!-- Creator: CorelDRAW 2021 (64-Bit) -->
<svg xmlns="http://www.w3.org/2000/svg" xml:space="preserve" width="27.8622mm" height="20.7624mm" version="1.1" style="shape-rendering:geometricPrecision; text-rendering:geometricPrecision; image-rendering:optimizeQuality; fill-rule:evenodd; clip-rule:evenodd"
viewBox="0 0 674.05 502.29"
 xmlns:xlink="http://www.w3.org/1999/xlink"
 xmlns:xodm="http://www.corel.com/coreldraw/odm/2003">
 <defs>
  <style type="text/css">
   <![CDATA[
    .fil0 {fill:black}
    .fil1 {fill:black;fill-rule:nonzero}
   ]]>
  </style>
 </defs>
 <g id="Слой_x0020_1">
  <metadata id="CorelCorpID_0Corel-Layer"/>
  <path class="fil0" d="M510.38 312.95l0.18 -45.28c15.81,-1.05 47.27,-0.38 63.78,-0.39 11.88,-0 24.74,-2.79 31.85,12.53 5.9,12.73 -0.82,26.86 -9.43,31.51 -7.14,3.86 -32.5,2.02 -42.35,2.02 -10.47,0 -35.25,1.27 -44.03,-0.39zm-64.68 -70.09c39.1,1.38 85.54,1.5 125.93,1.99 5.95,0.07 12.04,-0.84 14.36,4.21 -1.83,5.18 -7.33,4.09 -13.45,4.14l-126.84 1.31 -0.22 103.19c20.86,1.1 44.35,0.13 65.45,0.13 21.74,0 43.48,0 65.22,0 19.07,0 44.34,2.28 60.88,-4.4 15.53,-6.27 25.96,-18.39 31.89,-34.24 14.28,-38.19 -3.11,-78.21 -30.13,-90.21 -15.85,-7.04 -41.65,-4.54 -60.82,-4.47 -21.47,0.07 -44.97,-0.67 -66.19,0.4l-0.01 -43.14 138.31 -0.07 0.16 -42.72 -204.05 0.01 -0.5 103.89z"/>
  <path class="fil0" d="M206.02 242.86c2.02,-8.68 0.15,-22.34 0.04,-31.89l5.03 0.05c-0.51,14.72 -0.97,18.31 -0.05,32.81l13.3 -0.36 -0.16 -104.58 -68.98 -0.03c-7.83,11.32 -13.97,21.87 -22.37,33.84 -3.96,5.64 -7.34,11.14 -11.2,16.86l-49.73 75.27c-1.22,1.85 -1.61,2.47 -2.84,4.4 -1.27,1.98 -1.47,2.25 -3.11,3.59l-0.02 -133.43 -65.92 -0.1 0 216.87 69.72 -0.25 17.29 -25.26c5.69,-8.32 11.47,-16.79 17.16,-25.36 5.7,-8.57 11.46,-16.56 17.24,-25.36 3.57,-5.43 15.28,-21.41 16.8,-25.45 -2.27,0.06 -7.6,-0.16 -9.47,0.3 -2.28,0.57 -3.28,2.61 -6.32,2.15 -3.97,-0.6 -5.45,-8.78 -11.61,-2.11 -3.09,3.34 -7.41,5.46 -13.38,3.47 -4.39,-1.46 -5.27,-4.21 -7.02,-6.24l-2.03 -2.09c1.43,-3.24 5.93,-8.63 10.79,-9.44 6.53,-1.09 11.2,2.03 12.85,5.82l5.97 -0.06c1.42,-2.85 2.71,-4.53 6.84,-3.76 9.49,1.79 11.4,1.39 21.11,1.09l9.21 -15.16c0.54,-0.89 0.79,-1.44 1.35,-2.2 1.07,-1.44 0.96,-1.15 1.93,-2l0.1 19.47 47.5 -0.88z"/>
  <path class="fil0" d="M168.14 117.04l0.24 -114.22 -46.22 0.03 -0.19 91.19c-3.19,1.3 -4.27,0.86 -7.82,0.89 -7.87,0.06 -5.66,0.03 -6.6,-1.27l0.16 -90.04c-6.13,-1.59 -37.72,-0.77 -46.04,-0.55 -1,14.1 1.55,85.49 -0.97,91.53 -4.16,1.11 -10.3,1.34 -14.37,-0.36l-0.1 -91.24 -46.21 0.24 -0.01 113.79 168.14 0.02z"/>
  <path class="fil0" d="M233.23 242.41l63.06 0.42c-0,-9.07 -1.03,-43.33 0.78,-49.22 4.82,-15.67 20.01,-12.24 38.12,-12.24 33.81,0 67.63,-0.01 101.44,-0.01l0.01 -42c-25.38,-0.05 -50.74,-0.21 -76.09,-0.29 -14.95,-0.05 -66.31,-0.95 -76.84,-0.03 -23.12,2.01 -38.6,13.43 -46.25,30.43 -5.46,12.13 -4.44,19.91 -4.44,34.3 0,11.64 -0.9,27.53 0.2,38.65z"/>
  <path class="fil0" d="M233.08 256.52c-0.45,12.33 -0.05,25.42 -0.05,37.84 0,14.32 -1.07,21.15 4.79,33.05 7.77,15.79 23.46,28.45 46.63,29.83 23.67,1.41 51.93,0.06 76.1,0.06 25.53,0 51.06,0 76.61,0l-0.1 -43.01c-33.35,0 -66.71,0.24 -100.06,0.37 -15.82,0.06 -36.28,3.69 -40.14,-9.89 -1.69,-5.96 -0.5,-39.87 -0.6,-48.81l-63.18 0.55z"/>
  <path class="fil0" d="M426.74 97.25l-0.22 19.81c66.2,-0.32 61.9,-1.22 61.9,-53.45 0,-7.21 -0.87,-33.38 0.54,-38.37l13.11 0.07 0.32 91.72 46.72 0.04 0.04 -114.74 -107.39 0.04c-1.35,14.23 -0.11,61.1 -0.16,81.18 -0.03,13.5 -1.3,13.67 -14.87,13.71z"/>
  <path class="fil0" d="M187.78 116.8l46.75 0.28 0.32 -48.58c17.4,0.27 14.39,10.51 14.39,20.47 0,13.94 -1.39,20.79 7.13,27.9l43.29 0.16c-18.98,-21.64 16.78,-50.78 -34.93,-57.47 13.33,-2.31 27.12,-4.94 29.2,-16.95 2.55,-14.71 -4.31,-30.05 5.6,-40.16l-43.16 -0.1c-7.95,6.03 -7.09,16.19 -7.54,26.88 -0.55,12.96 1.08,21.54 -13.8,21.3l-0.44 -48.31 -46.55 0.14 -0.26 114.43z"/>
  <path class="fil0" d="M368.76 20.92c2.47,6.75 2.27,57.14 1.49,69.74 -0.95,15.35 -12.71,7.79 -12.77,7.72 -3.42,-3.59 -1.9,-39.24 -1.9,-46.55 0,-19.14 -3.74,-37.88 13.18,-30.92zm-18.96 -20.13c-47.98,5.82 -41.39,28.87 -41.02,72.78 0.19,21.69 1.61,31.27 17.91,39.34 20.78,10.29 73.95,10.7 86.89,-12.55 5.44,-9.77 3.67,-40.66 3.58,-53.97 -0.16,-23.36 -1.49,-31.47 -17.88,-39.56 -12.97,-6.4 -33.28,-8.01 -49.49,-6.05z"/>
  <g>
   <path class="fil0" d="M615.67 29.57l0.5 2.58 6.15 43.92 -15.35 0.12 8.7 -46.61zm-60.01 87.51l48.69 -0.04 2.53 -20.67c3.48,0.09 12.68,-0.01 16.62,0.46l2.76 20.11 47.79 0.11c-2.31,-11.86 -25.04,-110.83 -27.23,-113.93 -1.99,-1.89 -65.38,-0.77 -67.19,-0.66l-23.96 114.61z"/>
  </g>
  <path class="fil0" d="M157.93 254.82c0,13.5 -1.69,95.64 0.28,101.45l65.24 -0.12 -0.03 -101.51 -13.68 -0.09 0.47 32.67 -4.92 -0.04 -0.08 -32.6 -47.27 0.23z"/>
  <polygon class="fil1" points="78.67,404.68 45.4,404.68 45.4,499.73 -0,499.73 -0,380.95 78.67,380.95 "/>
  <path id="_1" class="fil1" d="M201.45 499.73l-45.4 0 0 -95.06 -13.22 0 0 67.25c0,8.86 -1.69,15.22 -5.03,19.07 -3.38,3.88 -8.45,6.28 -15.24,7.26 -6.83,0.97 -17.67,1.48 -32.58,1.48l-7.09 0 0 -20.42c5.55,0 9.33,-0.48 11.42,-1.4 2.1,-0.92 3.12,-4.1 3.12,-9.53l0 -87.43 104.02 0 0 118.79z"/>
  <path id="_2" class="fil1" d="M297.72 380.95l25.93 118.79 -46.32 0 -2.46 -21.33 -16.34 0 -2.46 21.33 -46.9 0 22.99 -118.79 65.56 0zm-24.05 76.44c-2.17,-13.47 -4.45,-30.14 -6.87,-50.03 -4.48,22.83 -7.31,39.49 -8.52,50.03l15.39 0z"/>
  <path id="_3" class="fil1" d="M411.76 432.53c6.58,1.53 11.46,4.01 14.69,7.43 3.19,3.45 4.81,11.54 4.81,24.25 0,9.44 -1.58,16.77 -4.74,21.98 -3.15,5.21 -8.59,9.16 -16.34,11.86 -7.75,2.73 -17.67,4.08 -29.79,4.08 -13.73,0 -24.57,-1.58 -32.39,-4.73 -7.86,-3.15 -13.04,-7.03 -15.5,-11.61 -2.46,-4.56 -3.71,-12.51 -3.71,-23.83l0 -9.39 43.42 0 0 19.32c0,5.16 0.44,8.44 1.36,9.81 0.88,1.4 2.9,2.1 5.99,2.1 3.38,0 5.62,-0.88 6.68,-2.65 1.06,-1.75 1.62,-6.36 1.62,-13.79l0 -8.23c0,-4.56 -0.74,-7.88 -2.24,-9.99 -1.5,-2.1 -3.74,-3.48 -6.68,-4.13 -2.94,-0.67 -8.63,-1.05 -17.08,-1.15l0 -17.27c10.32,0 16.67,-0.27 19.14,-0.8 2.42,-0.55 4.19,-1.7 5.25,-3.53 1.06,-1.8 1.62,-4.63 1.62,-8.49l0 -6.58c0,-4.15 -0.62,-6.88 -1.87,-8.21 -1.28,-1.33 -3.23,-1.98 -5.88,-1.98 -3.05,0 -5.1,0.7 -6.21,2.08 -1.14,1.4 -1.69,4.36 -1.69,8.91l0 9.73 -43.42 0 0 -10.11c0,-11.34 3.82,-18.97 11.43,-22.95 7.6,-3.98 19.69,-5.98 36.25,-5.98 20.71,0 34.78,2.75 42.16,8.28 7.39,5.53 11.09,13.22 11.09,23.03 0,6.66 -1.32,11.46 -3.97,14.42 -2.68,2.95 -7.34,5.66 -14,8.11z"/>
  <path id="_4" class="fil1" d="M551.66 450.58c0,11.94 -0.4,20.37 -1.25,25.33 -0.81,4.98 -3.38,9.51 -7.71,13.62 -4.34,4.11 -10.21,7.26 -17.59,9.46 -7.38,2.2 -15.98,3.3 -25.78,3.3 -9.33,0 -17.67,-1.05 -25.08,-3.13 -7.42,-2.08 -13.4,-5.18 -17.89,-9.34 -4.52,-4.15 -7.2,-8.68 -8.08,-13.56 -0.84,-4.91 -1.28,-13.47 -1.28,-25.68l0 -20.32c0,-11.94 0.4,-20.37 1.25,-25.33 0.81,-4.98 3.38,-9.51 7.71,-13.62 4.33,-4.11 10.21,-7.26 17.59,-9.46 7.38,-2.2 15.98,-3.3 25.78,-3.3 9.33,0 17.67,1.05 25.09,3.13 7.42,2.08 13.4,5.18 17.89,9.34 4.52,4.15 7.2,8.68 8.08,13.56 0.84,4.91 1.28,13.47 1.28,25.68l0 20.32zm-45.39 -39.02c0,-5.51 -0.44,-9.04 -1.32,-10.59 -0.88,-1.53 -2.68,-2.3 -5.4,-2.3 -2.31,0 -4.08,0.62 -5.33,1.87 -1.21,1.23 -1.84,4.91 -1.84,11.01l0 55.44c0,6.88 0.4,11.14 1.21,12.74 0.81,1.63 2.69,2.43 5.62,2.43 3.01,0 4.96,-0.93 5.81,-2.78 0.84,-1.85 1.25,-6.28 1.25,-13.26l0 -54.56z"/>
  <path id="_5" class="fil1" d="M568.7 380.95l45.1 0c14.25,0 25.05,0.75 32.4,2.28 7.34,1.5 13.26,4.58 17.77,9.19 4.52,4.63 6.76,12.06 6.76,22.33 0,6.93 -1.58,11.76 -4.78,14.49 -3.19,2.75 -9.51,4.83 -18.91,6.31 10.5,1.63 17.63,4.3 21.37,8.03 3.75,3.75 5.62,9.49 5.62,17.24l0 11.01c0,8.03 -1.36,13.97 -4.04,17.85 -2.68,3.85 -6.94,6.51 -12.82,7.94 -5.88,1.42 -17.93,2.13 -36.14,2.13l-52.34 0 0 -118.79zm45.4 20.27l0 26.43c1.91,-0.05 3.38,-0.07 4.44,-0.07 4.34,0 7.12,-0.75 8.3,-2.23 1.21,-1.5 1.8,-5.78 1.8,-12.81 0,-3.73 -0.48,-6.33 -1.47,-7.83 -0.99,-1.48 -2.28,-2.43 -3.86,-2.83 -1.58,-0.37 -4.67,-0.6 -9.22,-0.65zm0 44.9l0 33.34c6.24,-0.15 10.25,-0.83 11.97,-2.05 1.73,-1.23 2.57,-4.26 2.57,-9.06l0 -11.11c0,-5.11 -0.77,-8.18 -2.31,-9.29 -1.54,-1.07 -5.62,-1.68 -12.23,-1.83z"/>
 </g>
</svg>
