<?xml version="1.0" encoding="UTF-8"?>
<!DOCTYPE svg PUBLIC "-//W3C//DTD SVG 1.1//EN" "http://www.w3.org/Graphics/SVG/1.1/DTD/svg11.dtd">
<!-- Creator: CorelDRAW 2021 (64-Bit) -->
<svg xmlns="http://www.w3.org/2000/svg" xml:space="preserve" width="27.8848mm" height="21.2564mm" version="1.1" style="shape-rendering:geometricPrecision; text-rendering:geometricPrecision; image-rendering:optimizeQuality; fill-rule:evenodd; clip-rule:evenodd"
viewBox="0 0 344.84 262.87"
 xmlns:xlink="http://www.w3.org/1999/xlink"
 xmlns:xodm="http://www.corel.com/coreldraw/odm/2003">
 <defs>
  <style type="text/css">
   <![CDATA[
    .fil0 {fill:black}
    .fil2 {fill:black;fill-rule:nonzero}
    .fil1 {fill:black;fill-rule:nonzero}
   ]]>
  </style>
 </defs>
 <g id="Слой_x0020_1">
  <metadata id="CorelCorpID_0Corel-Layer"/>
  <path class="fil0" d="M261.72 142.21l38.84 -0.02c13.64,0.01 13.65,21.11 2.56,23.53 -2.75,0.6 -35.66,0.21 -41.47,0.2l0.07 -23.71zm0.6 -44.08l70.12 0 0.03 -21.98 -103.49 0c-0.01,7.08 -0.41,49.41 0.06,53.34 2.54,0.67 14.79,0.39 18.38,0.45l45.79 0.71c3.02,0.04 6.16,-0.34 6.66,2.58 -1.51,2.43 -5.14,1.7 -7.89,1.72 -9.34,0.08 -61.96,0.27 -62.71,0.97 -0.68,0.64 -0.45,1.07 -0.43,3.53l-0.03 49.31 84.84 0.06c29.34,0 37.4,-33.97 25.42,-54.83 -7.85,-13.66 -18.85,-13.91 -31.55,-13.86 -15.06,0.06 -30.11,0.12 -45.18,0.2l-0.01 -3.31 -0 -18.89z"/>
  <path class="fil0" d="M105.13 113.19l2.57 0.09c-0.29,7.88 -0.58,9.08 0.03,16.79l6.72 0.05 -0 -54.05 -35.13 0.08 -39.98 60.8c-1.81,2.77 -3.82,5.98 -5.7,8.31l-0.05 -68.93 -33.59 0.16 0.05 111.5 35.52 -0.02c5.06,-8.5 33.42,-48.82 35.01,-52.23 -8.45,-0.43 -4.75,1.59 -8.06,1.15 -2.2,-0.3 -1.17,-1.51 -3.37,-2.22 -2.59,0 -1.89,0.78 -3.51,2.08 -3.91,3.13 -8.51,-0.1 -10.6,-3.52 0.67,-1.38 0.38,-0.47 1.31,-1.7 1.04,-1.37 1.91,-2.87 4.67,-3.18 4.73,-0.53 5.07,2.41 6.9,3.09l2.06 0.01c2.26,-3.63 2.86,-1.71 5.85,-1.34 1.82,0.23 6.37,0.08 8.33,-0.03 1.91,-2.58 4.94,-8.49 6.68,-10.09 0,2.92 -0.33,7.38 0.26,10.14l24.06 -0.07 0.36 -5.57 -0.37 -11.31z"/>
  <path class="fil0" d="M151.95 129.37c0,-4.9 -0.6,-22.33 0.59,-25.66 2.67,-7.48 11.53,-5.73 19.96,-5.73 17.23,0 34.46,0 51.69,0l-0.07 -21.63c-8.02,-0.02 -72.97,-0.68 -79.08,-0.13 -11.62,1.04 -20.08,7.49 -23.56,15.97 -2.69,6.54 -2.12,10.31 -2.12,17.77 0,6.48 -0.06,12.99 0.01,19.46 4.31,0.26 29.85,0.65 32.56,-0.05z"/>
  <path class="fil0" d="M119.37 136.62c0.01,6.63 0,13.26 0,19.88 0,7.4 -0.52,10.63 2.61,16.85 4.11,8.17 11.84,14.53 23.91,15.17 12.48,0.66 26.81,0.03 39.49,0.03 13.03,0 26.06,-0 39.08,-0l-0.01 -22.17c-17.18,0.13 -34.37,0.14 -51.55,0.22 -7.95,0.03 -18.71,1.99 -20.69,-5.2 -0.83,-3 -0.28,-20.51 -0.28,-25.04l-32.57 0.25z"/>
  <path class="fil0" d="M107.6 135.67c-0.39,5.06 0.44,15.2 -0.34,16.8l-2.17 0.01 -0.04 -16.8 -24.31 0.02 -0.12 52.31 33.84 0 0.03 -52.34 -6.88 0z"/>
  <polygon class="fil1" points="85.83,65.05 -0,65.05 -0,1.29 23.86,1.29 23.86,52.31 30.93,52.31 30.93,1.29 54.79,1.29 54.79,52.31 61.86,52.31 61.86,1.29 85.83,1.29 "/>
  <path id="_1" class="fil1" d="M95.35 1.29l23.86 0 0.12 26.92c4.42,-0.08 6.7,-1.81 6.85,-5.2l0.45 -12.44c0.15,-4.58 1.43,-7.68 3.82,-9.28l22.01 0c-2.12,1.54 -3.16,4.76 -3.13,9.61l0.12 10.94c0.08,6.61 -5.27,10.38 -16.06,11.3 10.79,0.91 16.14,4.74 16.06,11.46l-0.12 10.14c-0.04,4.84 1,8.28 3.13,10.32l-22.01 0c-2.55,-1.6 -3.82,-4.7 -3.82,-9.3l0 -12.43c0,-1.58 -0.68,-2.85 -2.03,-3.8 -1.37,-0.95 -3.13,-1.45 -5.27,-1.48l-0.12 27 -23.86 0 0 -63.76z"/>
  <path id="_2" class="fil1" d="M211.78 38.67c0,6.41 -0.21,10.94 -0.66,13.6 -0.42,2.67 -1.77,5.1 -4.05,7.31 -2.28,2.2 -5.37,3.9 -9.25,5.08 -3.88,1.18 -8.4,1.77 -13.55,1.77 -4.9,0 -9.28,-0.56 -13.19,-1.68 -3.9,-1.12 -7.05,-2.78 -9.4,-5.01 -2.38,-2.23 -3.79,-4.66 -4.25,-7.28 -0.44,-2.63 -0.68,-7.23 -0.68,-13.78l0 -10.91c0,-6.41 0.21,-10.94 0.66,-13.6 0.42,-2.67 1.77,-5.1 4.05,-7.31 2.28,-2.2 5.37,-3.9 9.25,-5.08 3.88,-1.18 8.4,-1.77 13.55,-1.77 4.9,0 9.29,0.56 13.19,1.68 3.9,1.12 7.05,2.78 9.4,5.01 2.37,2.23 3.78,4.66 4.25,7.28 0.44,2.63 0.68,7.23 0.68,13.78l0 10.91zm-23.86 -20.95c0,-2.96 -0.23,-4.85 -0.7,-5.68 -0.46,-0.82 -1.41,-1.24 -2.84,-1.24 -1.21,0 -2.14,0.34 -2.8,1.01 -0.64,0.66 -0.96,2.63 -0.96,5.91l0 29.76c0,3.7 0.21,5.98 0.64,6.84 0.43,0.87 1.41,1.3 2.96,1.3 1.58,0 2.61,-0.5 3.05,-1.49 0.44,-0.99 0.66,-3.37 0.66,-7.12l0 -29.29z"/>
  <path id="_3" class="fil1" d="M278.89 65.05l-23.86 0 0 -51.02 -6.95 0 0 36.1c0,4.76 -0.89,8.17 -2.64,10.24 -1.78,2.08 -4.44,3.37 -8.01,3.9 -3.59,0.52 -9.29,0.79 -17.12,0.79l-3.73 0 0 -10.96c2.91,0 4.9,-0.25 6.01,-0.75 1.1,-0.5 1.64,-2.2 1.64,-5.12l0 -46.93 54.67 0 0 63.76z"/>
  <path id="_4" class="fil1" d="M329.49 1.29l13.63 63.76 -24.34 0 -1.29 -11.45 -8.59 0 -1.29 11.45 -24.65 0 12.09 -63.76 34.46 0zm-12.64 41.03c-1.14,-7.23 -2.34,-16.18 -3.61,-26.86 -2.35,12.25 -3.84,21.2 -4.48,26.86l8.09 0z"/>
  <path class="fil2" d="M64.73 200.17l0 61.38 -18.38 0 -0.05 -41.44 -7.3 41.44 -12.87 0 -7.71 -40.5 -0.05 40.5 -18.38 0 0 -61.38 27.14 0c0.77,3.71 1.6,8.08 2.5,13.08l2.98 15.58 4.78 -28.66 27.33 0z"/>
  <path id="_1_0" class="fil2" d="M121.07 236.15c0,6.17 -0.19,10.53 -0.58,13.09 -0.37,2.57 -1.57,4.91 -3.57,7.04 -2.01,2.12 -4.73,3.75 -8.15,4.89 -3.42,1.14 -7.4,1.71 -11.95,1.71 -4.32,0 -8.18,-0.54 -11.62,-1.62 -3.44,-1.07 -6.21,-2.68 -8.29,-4.82 -2.09,-2.15 -3.34,-4.49 -3.74,-7.01 -0.39,-2.54 -0.59,-6.96 -0.59,-13.27l0 -10.5c0,-6.17 0.19,-10.53 0.58,-13.09 0.37,-2.57 1.57,-4.91 3.57,-7.04 2.01,-2.12 4.73,-3.75 8.15,-4.89 3.42,-1.14 7.4,-1.71 11.94,-1.71 4.32,0 8.18,0.54 11.62,1.62 3.44,1.07 6.21,2.68 8.29,4.82 2.09,2.15 3.33,4.49 3.74,7.01 0.39,2.54 0.6,6.96 0.6,13.27l0 10.5zm-21.03 -20.16c0,-2.85 -0.21,-4.67 -0.61,-5.47 -0.41,-0.79 -1.24,-1.19 -2.5,-1.19 -1.07,0 -1.89,0.32 -2.47,0.97 -0.56,0.63 -0.85,2.54 -0.85,5.69l0 28.64c0,3.56 0.19,5.76 0.56,6.58 0.37,0.84 1.24,1.26 2.6,1.26 1.39,0 2.3,-0.48 2.69,-1.44 0.39,-0.96 0.58,-3.25 0.58,-6.85l0 -28.19z"/>
  <path id="_2_1" class="fil2" d="M177.97 226.94l-21.03 0 0 -10.66c0,-3.1 -0.22,-5.03 -0.66,-5.81 -0.44,-0.76 -1.43,-1.15 -2.94,-1.15 -1.7,0 -2.79,0.46 -3.25,1.4 -0.46,0.94 -0.7,2.96 -0.7,6.07l0 28.48c0,2.99 0.24,4.93 0.7,5.85 0.46,0.91 1.5,1.36 3.1,1.36 1.55,0 2.57,-0.45 3.05,-1.37 0.48,-0.91 0.71,-3.05 0.71,-6.43l0 -7.72 21.03 0 0 2.39c0,6.36 -0.59,10.88 -1.77,13.53 -1.17,2.66 -3.79,4.99 -7.83,7 -4.05,2 -9.02,3 -14.94,3 -6.14,0 -11.21,-0.84 -15.21,-2.54 -3.98,-1.69 -6.64,-4.04 -7.93,-7.04 -1.29,-3 -1.94,-7.5 -1.94,-13.51l0 -17.93c0,-4.42 0.21,-7.73 0.6,-9.95 0.41,-2.21 1.58,-4.34 3.57,-6.39 1.97,-2.04 4.71,-3.66 8.22,-4.84 3.51,-1.18 7.54,-1.76 12.1,-1.76 6.18,0 11.28,0.91 15.31,2.73 4.02,1.81 6.65,4.07 7.93,6.79 1.26,2.72 1.89,6.93 1.89,12.66l0 5.83z"/>
  <path id="_3_2" class="fil2" d="M185.49 200.17l21.03 0 0.1 25.92c3.9,-0.08 5.91,-1.75 6.04,-5l0.39 -11.98c0.14,-4.41 1.26,-7.4 3.37,-8.94l19.4 0c-1.87,1.49 -2.79,4.58 -2.76,9.25l0.1 10.53c0.07,6.36 -4.64,10 -14.16,10.88 9.51,0.88 14.23,4.56 14.16,11.03l-0.1 9.76c-0.03,4.65 0.89,7.97 2.76,9.93l-19.4 0c-2.25,-1.54 -3.37,-4.53 -3.37,-8.95l0 -11.96c0,-1.53 -0.59,-2.74 -1.79,-3.66 -1.21,-0.92 -2.76,-1.4 -4.65,-1.42l-0.1 25.99 -21.03 0 0 -61.38z"/>
  <path id="_4_3" class="fil2" d="M240.23 200.17l20.9 0c6.6,0 11.6,0.39 15.01,1.18 3.4,0.78 6.14,2.37 8.24,4.75 2.09,2.39 3.13,6.23 3.13,11.54 0,3.58 -0.73,6.08 -2.21,7.49 -1.48,1.42 -4.41,2.5 -8.76,3.26 4.87,0.84 8.17,2.22 9.9,4.15 1.74,1.94 2.6,4.9 2.6,8.91l0 5.69c0,4.15 -0.63,7.22 -1.87,9.22 -1.24,1.99 -3.22,3.36 -5.94,4.1 -2.72,0.74 -8.3,1.1 -16.74,1.1l-24.25 0 0 -61.38zm21.03 10.48l0 13.66c0.89,-0.03 1.57,-0.04 2.06,-0.04 2.01,0 3.3,-0.39 3.84,-1.15 0.56,-0.78 0.83,-2.99 0.83,-6.62 0,-1.93 -0.22,-3.27 -0.68,-4.05 -0.46,-0.76 -1.05,-1.25 -1.79,-1.46 -0.73,-0.19 -2.16,-0.31 -4.27,-0.34zm0 23.2l0 17.23c2.89,-0.08 4.75,-0.43 5.55,-1.06 0.8,-0.63 1.19,-2.2 1.19,-4.68l0 -5.74c0,-2.64 -0.36,-4.23 -1.07,-4.8 -0.72,-0.56 -2.6,-0.87 -5.67,-0.94z"/>
  <path id="_5" class="fil2" d="M332.83 200.17l12.01 61.38 -21.46 0 -1.14 -11.02 -7.57 0 -1.14 11.02 -21.73 0 10.65 -61.38 30.37 0zm-11.15 39.5c-1,-6.96 -2.06,-15.57 -3.18,-25.85 -2.08,11.79 -3.39,20.41 -3.95,25.85l7.13 0z"/>
 </g>
</svg>
