<?xml version="1.0" encoding="UTF-8"?>
<!DOCTYPE svg PUBLIC "-//W3C//DTD SVG 1.1//EN" "http://www.w3.org/Graphics/SVG/1.1/DTD/svg11.dtd">
<!-- Creator: CorelDRAW 2021 (64-Bit) -->
<svg xmlns="http://www.w3.org/2000/svg" xml:space="preserve" width="27.8972mm" height="20.8092mm" version="1.1" style="shape-rendering:geometricPrecision; text-rendering:geometricPrecision; image-rendering:optimizeQuality; fill-rule:evenodd; clip-rule:evenodd"
viewBox="0 0 676.15 504.36"
 xmlns:xlink="http://www.w3.org/1999/xlink"
 xmlns:xodm="http://www.corel.com/coreldraw/odm/2003">
 <defs>
  <style type="text/css">
   <![CDATA[
    .fil0 {fill:black}
    .fil1 {fill:black;fill-rule:nonzero}
   ]]>
  </style>
 </defs>
 <g id="Слой_x0020_1">
  <metadata id="CorelCorpID_0Corel-Layer"/>
  <path class="fil0" d="M512.83 312.33l0.03 -45.71c3.46,-0.48 66.67,-0.17 74.87,-0.19 5.74,-0.01 8.18,0.27 12.38,2.9 14.47,9.07 13.01,31.66 0.52,40.04 -3.9,2.62 -6.36,2.96 -12.1,2.95l-75.7 0zm-64.91 -70.33c7.63,0.71 26.71,0.37 35.75,0.61 24.18,0.63 48.2,0.37 72.04,1.06 5.97,0.17 12.03,0.3 18.07,0.31 4.76,0.01 13.69,-0.41 14.33,3.93 0.39,2.64 -2.6,3.72 -4.52,4.05 -2.34,0.4 -6.47,0.2 -9.02,0.23l-90.11 1.01c-5.3,0 -33.68,-0.34 -36.3,0.58 -0.17,0.45 -1.12,99.05 -0.34,103.19 54.02,0.7 109.49,0.01 163.82,0.01 10.95,0 18.97,-0.82 28.07,-4.55 48.6,-19.88 48.27,-103.82 0.73,-124.64 -9.22,-4.04 -16.92,-4.49 -28.01,-4.45l-81.73 0.37c-3.66,0.01 -13.72,0.49 -16.64,-0.17l0.02 -42.57 138.33 -0.13 0.08 -42.76c-19.79,0.21 -202.09,-0.59 -204.45,0.36l-0.14 103.55z"/>
  <path class="fil0" d="M160.02 242.98c13.55,-0.05 27.1,0 40.66,0 8.13,0 6.99,0.77 7.34,-2.97 0.77,-8.37 -0.17,-21.01 -0.34,-29.82l4.78 -0.01c0.03,11.09 -1.14,21.62 0.06,32.78l13.36 0.04 -0.12 -105.12 -68.95 -0c-5.55,7.58 -16.3,24.7 -22.36,33.77 -22.33,33.43 -44.32,67.91 -66.86,100.75l0.01 -133.9 -66.11 0.17 0.08 216.71 69.54 -0.05 51.98 -76.22c2.89,-4.3 5.88,-8.45 8.69,-12.85 1.52,-2.38 2.91,-4.21 4.34,-6.42 0.93,-1.43 3.74,-4.88 3.82,-6.21 -2.35,-0.03 -4.69,0.01 -7.04,-0.02 -4.87,-0.05 -2.34,-0.03 -5.23,1.77 -4.02,2.52 -6.74,-0.85 -8.72,-3.66l-4.79 0c-1.85,1.89 -2.59,3.81 -5.36,5.11 -2.47,1.15 -5.8,1.57 -8.84,0.83 -3.49,-0.85 -5.79,-2.88 -7.19,-5.55 -1.21,-2.3 -3.83,-2.15 -2.79,-4.24 1.61,-1.57 1.39,0.06 2.63,-2.05 0.73,-1.25 0.9,-2.03 1.81,-2.97 5.2,-5.43 16.96,-4.04 19.21,2.7l5.72 -0.16c4.77,-7.64 7.35,-2.51 11.14,-2.37 4.35,0.15 12.45,0.32 16.59,-0.12 2.14,-3.07 11.4,-18.73 12.8,-19.75l0.15 19.84z"/>
  <polygon class="fil0" points="169.68,2.46 123.03,2.5 123.05,93.83 109.33,93.82 109.23,2.7 62.37,2.5 62.39,93.85 48.57,93.81 48.52,2.49 1.52,2.55 1.48,116.21 169.69,116.23 "/>
  <path class="fil0" d="M234.36 241.67l63.18 0.4c-0.02,-8.49 -0,-16.91 -0,-25.33 0,-15.7 -3.53,-32.83 14.49,-35.8 5.71,-0.94 85.53,-0.33 100.35,-0.33 6.81,0 19.34,0.73 25.47,-0.15l0.04 -41.9c-12.02,-0.68 -25.68,-0.17 -37.84,-0.28l-77.31 -0.19c-12.25,-0.11 -25.89,-0.67 -37.94,0.03 -22.32,1.31 -39.44,14.54 -46.32,30.71 -1.49,3.5 -3.97,10.38 -4.23,14.82l0.12 58.02z"/>
  <path class="fil0" d="M234.46 255.29c-1.01,3.69 -0.23,31.84 -0.23,37.99 0,14.98 -1.77,19.51 4.85,33.35 4.3,8.99 10.47,15.82 17.82,20.47 7.07,4.48 18.38,8.86 28.68,9.29 12.32,0.52 25.84,0.01 38.29,0.01l114.48 -0 0 -43.08 -124.86 0.52c-7.93,0.02 -13.15,-3.54 -15.28,-9.67 -1.97,-5.68 -0.18,-39.78 -0.73,-49.13l-63.02 0.25z"/>
  <path class="fil0" d="M427.39 96.92l-0.13 19.48c6.28,0.63 30.52,-0.06 37.19,-0.89 12.05,-1.49 20.44,-4.21 23.47,-14.7 2.42,-8.36 1.39,-27.04 1.39,-36.82 0,-12.79 -0.06,-25.59 0.01,-38.38l13.16 -0.06 0 90.92 47.34 0.01 0.16 -113.95 -107.57 -0.04c0.66,25.69 0,55.39 0.03,81.83 0.01,13.27 -3.07,11.86 -15.05,12.6z"/>
  <path class="fil0" d="M188.61 116.49l47.37 0.01 0.12 -48.37c4.25,0.25 8.08,1.08 10.68,3.18 3.55,2.86 3.68,4.61 3.68,10.63 -0.01,7.24 -0.75,21.08 1.36,26.99 3.64,10.19 8.99,7.57 20.62,7.57 9.41,0 18.83,0.05 28.23,-0.01 -0.62,-1.53 -2.53,-2.26 -4.21,-7.12 -3.64,-10.54 0.36,-24.13 -1.27,-32.61 -2.61,-13.53 -18.67,-15.26 -29.79,-17.36 9.15,-2.06 27.12,-2.7 29.83,-16.91 2.32,-12.22 -5.1,-29.89 5.5,-39.88l-41.86 -0.11c-3.09,0.23 -5.82,4.48 -6.94,7.48 -1.76,4.73 -2.16,20.02 -2.32,26.11 -0.25,9.66 -0.81,13.75 -13.49,14.75l-0.02 -48.25 -47.5 -0.08 0.01 113.99z"/>
  <path class="fil0" d="M362.53 19.96c3.22,-0.47 6.88,0.04 7.61,3.74 1.19,6 1.12,62.15 0.18,69.63 -0.49,3.88 -1.37,5.66 -5.4,6.14 -3.88,0.47 -7.17,-0.47 -7.86,-4.07 -0.63,-3.26 -0.75,-7.66 -0.76,-11.08l-0 -47.05c0,-9.36 -1.11,-16.25 6.24,-17.32zm-7.09 -19.5c-16.66,1.83 -32.93,5.42 -40.54,16.28 -5.38,7.65 -4.52,12.56 -5.18,23.21 -0.58,9.36 -0.7,47.06 1.25,54.86 1.8,7.21 7.61,12.16 12.88,15.47 12.28,7.7 30.73,9.43 48.29,8.39 10.73,-0.63 24.56,-3.24 33.11,-9.19 10.91,-7.59 12.24,-16.28 12.38,-30.33 0.11,-11.66 0.77,-45.67 -1.44,-55.2 -1.45,-6.26 -7.83,-12 -13.06,-15.29 -10.9,-6.84 -32.17,-9.9 -47.68,-8.19z"/>
  <path class="fil0" d="M608.43 75.68c-0.18,-4.63 7.25,-42.54 8.9,-46.78 0.25,0.6 6.5,44.15 6.53,46.87l-15.42 -0.1zm-50.58 40.76l48.51 0.06 2.55 -20.11 14.81 -0.26c0.51,0.03 0.64,0.02 1.13,0.15 0.83,0.21 0.45,0.06 1,0.42l2.36 19.69 47.93 0.12 -27.16 -113.94 -67.5 -0.06 -23.64 113.94z"/>
  <path class="fil0" d="M158.69 355.36l65.83 0c0.64,-4.21 0.15,-66.48 0.15,-76.44 0,-4.88 0.63,-21.83 -0.22,-25.34l-12.88 0.01c-1.65,4.7 -0.26,25.96 -0.28,32.66l-4.81 -0.02c0.11,-8.11 1.35,-25.47 -0.1,-32.53l-47.26 -0.15 -0.42 101.81z"/>
  <path class="fil0" d="M169.68 2.46l0.01 113.78 -168.21 -0.02 0.05 -113.67c-0.63,0.45 -0.56,-0.24 -0.52,2.83 0.22,17.22 -0.54,105.8 0.12,111.05 3.06,0.75 133.85,0.22 147.73,0.22 6.17,0 15.26,0.53 21.07,-0.12 0.71,-3.48 0.02,-95.16 0.2,-110.75 0,-0.42 0.05,-1.24 0.03,-1.62 -0.01,-0.14 -0.06,-0.68 -0.08,-0.76 -0.16,-0.77 -0.21,-0.64 -0.4,-0.94z"/>
  <path class="fil1" d="M62.04 434.69l-26.3 0 0 -20.66c0,-6.02 -0.28,-9.76 -0.83,-11.26 -0.55,-1.48 -1.79,-2.23 -3.68,-2.23 -2.13,0 -3.49,0.9 -4.07,2.71 -0.57,1.83 -0.87,5.74 -0.87,11.76l0 55.22c0,5.79 0.3,9.55 0.87,11.34 0.58,1.75 1.87,2.63 3.87,2.63 1.94,0 3.21,-0.88 3.81,-2.66 0.59,-1.75 0.89,-5.92 0.89,-12.46l0 -14.97 26.3 0 0 4.64c0,12.34 -0.74,21.09 -2.21,26.23 -1.47,5.17 -4.74,9.68 -9.79,13.57 -5.06,3.89 -11.28,5.82 -18.68,5.82 -7.68,0 -14.02,-1.63 -19.02,-4.92 -4.98,-3.28 -8.3,-7.82 -9.92,-13.64 -1.62,-5.82 -2.42,-14.55 -2.42,-26.21l0 -34.76c0,-8.58 0.25,-15 0.74,-19.29 0.51,-4.29 1.98,-8.43 4.47,-12.39 2.47,-3.96 5.89,-7.1 10.28,-9.38 4.38,-2.28 9.42,-3.41 15.13,-3.41 7.72,0 14.11,1.75 19.15,5.29 5.02,3.51 8.32,7.9 9.92,13.17 1.57,5.26 2.36,13.44 2.36,24.55l0 11.31z"/>
  <polygon id="_1" class="fil1" points="124.3,382.78 124.3,406.55 108.86,406.55 108.86,501.8 82.56,501.8 82.56,406.55 66.98,406.55 66.98,382.78 "/>
  <path id="_2" class="fil1" d="M175.6 382.78l15.02 119.02 -26.83 0 -1.43 -21.37 -9.47 0 -1.43 21.37 -27.17 0 13.32 -119.02 37.98 0zm-13.94 76.59c-1.25,-13.49 -2.57,-30.19 -3.98,-50.13 -2.59,22.87 -4.23,39.57 -4.93,50.13l8.91 0z"/>
  <path id="_3" class="fil1" d="M195.13 382.78l26.13 0c8.26,0 14.51,0.75 18.77,2.28 4.26,1.51 7.68,4.59 10.3,9.2 2.62,4.64 3.92,12.09 3.92,22.37 0,6.95 -0.92,11.79 -2.77,14.52 -1.85,2.76 -5.51,4.84 -10.96,6.32 6.09,1.63 10.21,4.31 12.38,8.05 2.17,3.76 3.26,9.51 3.26,17.28l0 11.04c0,8.05 -0.79,13.99 -2.34,17.88 -1.55,3.86 -4.02,6.52 -7.43,7.95 -3.41,1.43 -10.38,2.13 -20.94,2.13l-30.32 0 0 -119.02zm26.3 20.32l0 26.48c1.11,-0.05 1.96,-0.08 2.57,-0.08 2.51,0 4.13,-0.75 4.81,-2.23 0.7,-1.51 1.04,-5.79 1.04,-12.84 0,-3.73 -0.28,-6.34 -0.85,-7.85 -0.57,-1.48 -1.32,-2.43 -2.23,-2.83 -0.91,-0.38 -2.7,-0.6 -5.34,-0.65zm0 44.99l0 33.41c3.62,-0.15 5.93,-0.83 6.94,-2.06 1,-1.23 1.49,-4.26 1.49,-9.08l0 -11.13c0,-5.12 -0.45,-8.2 -1.34,-9.3 -0.89,-1.08 -3.26,-1.68 -7.08,-1.83z"/>
  <path id="_4" class="fil1" d="M265.63 382.78l26.45 0c7.15,0 12.64,0.65 16.49,1.98 3.83,1.33 6.72,3.24 8.66,5.72 1.94,2.51 3.23,5.54 3.94,9.08 0.68,3.56 1.02,9.05 1.02,16.5l0 10.36c0,7.57 -0.66,13.12 -2,16.58 -1.32,3.49 -3.77,6.17 -7.3,8.02 -3.56,1.86 -8.19,2.78 -13.92,2.78l-7.04 0 0 48 -26.3 0 0 -119.02zm26.3 20.32l0 30.32c0.74,0.05 1.38,0.08 1.91,0.08 2.4,0 4.06,-0.7 5,-2.11 0.91,-1.38 1.38,-4.29 1.38,-8.7l0 -9.81c0,-4.06 -0.53,-6.72 -1.62,-7.95 -1.07,-1.23 -3.3,-1.83 -6.68,-1.83z"/>
  <path id="_5" class="fil1" d="M389.59 452.54c0,11.96 -0.23,20.41 -0.72,25.38 -0.47,4.99 -1.96,9.53 -4.47,13.64 -2.51,4.11 -5.92,7.27 -10.19,9.48 -4.28,2.21 -9.26,3.31 -14.93,3.31 -5.41,0 -10.24,-1.05 -14.53,-3.13 -4.3,-2.08 -7.77,-5.19 -10.36,-9.35 -2.62,-4.16 -4.17,-8.7 -4.68,-13.59 -0.49,-4.92 -0.74,-13.49 -0.74,-25.73l0 -20.36c0,-11.96 0.24,-20.41 0.72,-25.38 0.47,-4.99 1.96,-9.53 4.47,-13.64 2.51,-4.11 5.91,-7.27 10.19,-9.48 4.28,-2.21 9.26,-3.31 14.94,-3.31 5.4,0 10.23,1.05 14.53,3.13 4.3,2.08 7.77,5.19 10.36,9.36 2.62,4.16 4.17,8.7 4.68,13.59 0.49,4.92 0.74,13.49 0.74,25.73l0 20.36zm-26.3 -39.1c0,-5.52 -0.25,-9.05 -0.76,-10.61 -0.51,-1.53 -1.56,-2.31 -3.13,-2.31 -1.34,0 -2.36,0.63 -3.09,1.88 -0.7,1.23 -1.06,4.92 -1.06,11.04l0 55.55c0,6.9 0.24,11.16 0.7,12.77 0.47,1.63 1.56,2.43 3.26,2.43 1.75,0 2.87,-0.93 3.36,-2.78 0.49,-1.86 0.72,-6.29 0.72,-13.29l0 -54.67z"/>
  <polygon id="_6" class="fil1" points="459.72,501.8 433.42,501.8 433.42,406.55 425.77,406.55 425.77,501.8 399.46,501.8 399.46,382.78 459.72,382.78 "/>
  <path id="_7" class="fil1" d="M530.21 452.54c0,11.96 -0.23,20.41 -0.72,25.38 -0.47,4.99 -1.96,9.53 -4.47,13.64 -2.51,4.11 -5.92,7.27 -10.19,9.48 -4.28,2.21 -9.26,3.31 -14.93,3.31 -5.41,0 -10.24,-1.05 -14.53,-3.13 -4.3,-2.08 -7.77,-5.19 -10.36,-9.35 -2.62,-4.16 -4.17,-8.7 -4.68,-13.59 -0.49,-4.92 -0.74,-13.49 -0.74,-25.73l0 -20.36c0,-11.96 0.23,-20.41 0.72,-25.38 0.47,-4.99 1.96,-9.53 4.47,-13.64 2.51,-4.11 5.91,-7.27 10.19,-9.48 4.28,-2.21 9.26,-3.31 14.94,-3.31 5.4,0 10.24,1.05 14.53,3.13 4.3,2.08 7.76,5.19 10.36,9.36 2.62,4.16 4.17,8.7 4.68,13.59 0.49,4.92 0.74,13.49 0.74,25.73l0 20.36zm-26.3 -39.1c0,-5.52 -0.26,-9.05 -0.77,-10.61 -0.51,-1.53 -1.55,-2.31 -3.13,-2.31 -1.34,0 -2.36,0.63 -3.09,1.88 -0.7,1.23 -1.06,4.92 -1.06,11.04l0 55.55c0,6.9 0.24,11.16 0.7,12.77 0.47,1.63 1.55,2.43 3.26,2.43 1.74,0 2.87,-0.93 3.36,-2.78 0.49,-1.86 0.72,-6.29 0.72,-13.29l0 -54.67z"/>
  <path id="_8" class="fil1" d="M604.17 501.8l-26.3 0 0 -95.25 -7.66 0 0 67.39c0,8.88 -0.98,15.25 -2.92,19.11 -1.96,3.89 -4.89,6.29 -8.83,7.27 -3.96,0.98 -10.24,1.48 -18.87,1.48l-4.11 0 0 -20.46c3.21,0 5.41,-0.48 6.62,-1.41 1.21,-0.93 1.81,-4.11 1.81,-9.55l0 -87.6 60.26 0 0 119.02z"/>
  <path id="_9" class="fil1" d="M675.79 473.96c0,8.85 -0.98,15.22 -2.94,19.08 -1.94,3.89 -4.92,6.29 -8.87,7.27 -3.98,0.98 -10.3,1.48 -18.98,1.48l-30.36 0 0 -119.02 26.3 0 0 40.78 4.06 0c8.09,0 14.23,0.55 18.38,1.68 4.15,1.13 7.26,3.61 9.32,7.47 2.06,3.84 3.09,9.88 3.09,18.11l0 23.15zm-26.3 -3.59l0 -17.2c0,-5.02 -0.42,-8.05 -1.27,-9.13 -0.85,-1.08 -3.28,-1.68 -7.28,-1.83l0 39.12c3.34,0 5.59,-0.5 6.76,-1.51 1.19,-1 1.79,-4.16 1.79,-9.45z"/>
 </g>
</svg>
