<?xml version="1.0" encoding="UTF-8"?>
<!DOCTYPE svg PUBLIC "-//W3C//DTD SVG 1.1//EN" "http://www.w3.org/Graphics/SVG/1.1/DTD/svg11.dtd">
<!-- Creator: CorelDRAW 2021 (64-Bit) -->
<svg xmlns="http://www.w3.org/2000/svg" xml:space="preserve" width="27.8761mm" height="20.8563mm" version="1.1" style="shape-rendering:geometricPrecision; text-rendering:geometricPrecision; image-rendering:optimizeQuality; fill-rule:evenodd; clip-rule:evenodd"
viewBox="0 0 344.64 257.85"
 xmlns:xlink="http://www.w3.org/1999/xlink"
 xmlns:xodm="http://www.corel.com/coreldraw/odm/2003">
 <defs>
  <style type="text/css">
   <![CDATA[
    .fil0 {fill:black}
    .fil1 {fill:black;fill-rule:nonzero}
   ]]>
  </style>
 </defs>
 <g id="Слой_x0020_1">
  <metadata id="CorelCorpID_0Corel-Layer"/>
  <path class="fil0" d="M260.85 159.85l0.18 -23.32c2.54,-0.48 26.1,-0.19 30.73,-0.19 4.56,-0 9.91,-0.94 13.9,1.52 7.49,4.62 6.29,16.73 0.01,20.48 -4.04,2.41 -9.31,1.53 -13.91,1.53 -10.28,0 -20.64,0.12 -30.91,-0.02zm-33.06 -35.91c12.32,0.12 24.49,0.4 36.67,0.51 5.98,0.06 11.95,0.15 17.93,0.24 3.58,0.05 15.1,-0.76 16.98,1.96 -0.18,3.12 -4.3,2.31 -6.79,2.34l-27.71 0.34c-12.36,0.12 -24.74,0.36 -37.09,0.36l-0.01 52.93c22.31,-0.22 44.63,-0.01 66.85,-0.01 20.16,0 38.58,2.79 47.16,-19.53 6.08,-15.81 1.45,-39.25 -15.34,-46.41 -8.46,-3.6 -21.62,-2.35 -31,-2.27 -11.01,0.1 -22.9,0.51 -33.83,0.07l-0 -21.86 70.8 -0.01 0.03 -21.88 -104.64 -0.06 0 53.26z"/>
  <path class="fil0" d="M34.01 139.19l-0.17 -68.18 -33.84 -0.03 0.02 110.82 35.43 -0 35.42 -51.85c-8.89,-1.42 -6.04,4.19 -10.9,-1.09l-2.47 0.08c-3.72,4.46 -8.15,3.5 -10.13,1.18l-2.11 -2.79c0.14,-0.34 1.6,-2.24 2.06,-2.82 1.62,-2.04 6.24,-3.67 10.14,1.11l2.51 0.1c3.9,-3.75 1.39,-2.03 5.71,-1.36 1.5,0.23 7.14,0.09 8.78,-0.07l6.28 -9.87 0.24 9.92 24.38 0.04c0.93,-5.85 -0.45,-11.46 0.17,-16.63l2.21 -0.07c0.4,4.66 -0.87,12.2 0.14,16.57l6.84 0.13 0.08 -53.52 -35.29 -0.17 -45.48 68.52z"/>
  <path class="fil0" d="M-0 59.57l86.02 0.01 0.01 -58.28 -23.76 0.01c-0,14.04 0.36,33.27 -0.06,46.69l-7 0.04c-0.5,-6.92 -0.1,-37.49 -0.09,-46.74l-23.84 0 -0.03 46.69 -6.98 0.07 -0.05 -46.76 -24.22 -0.01 0 58.27z"/>
  <path class="fil0" d="M119.02 123.62l32.48 0.28c0.01,-4.7 -0.53,-22.54 0.48,-25.55 2.66,-7.97 12.76,-5.85 19.98,-5.85 17.02,0 34.12,-0.17 51.13,0.01 0.39,-2.22 0.44,-19.76 -0.07,-21.54 -6.91,-0.08 -72.74,-0.76 -78.35,-0.24 -10.11,0.94 -19.14,6.3 -23.36,15.72 -2.84,6.36 -2.29,10.38 -2.29,17.24 0,6.64 0,13.29 0,19.94z"/>
  <path class="fil0" d="M223.47 182.33l-0 -22.05c-16.82,-0.17 -33.9,-0.05 -50.69,0.16 -8.15,0.1 -18.46,1.92 -20.83,-4.54 -0.89,-2.42 -0.44,-21.24 -0.45,-25.31l-32.44 0.04c-0.27,6.19 -0.04,12.85 -0.04,19.1 0,6.71 -0.61,10.99 2.43,17.08 9.26,18.5 26.86,15.51 43.18,15.52l58.84 -0z"/>
  <path class="fil0" d="M225.17 43.27c0,6.53 -1.59,5.93 -7.35,6.34l-0.24 9.99c8.83,-0.29 27.53,2.46 30.83,-7.94 1.82,-5.76 0.14,-30.21 0.66,-38.45l6.74 -0.08 0.04 46.46 24.11 0 -0.01 -58.29 -54.77 0 -0 41.97z"/>
  <path class="fil0" d="M95.73 59.57l24.12 0 0 -24.47c13.59,-1.46 2.65,17.01 10.64,24.31l22.29 0.15c-8.91,-13.79 8.04,-24.99 -17.42,-29.09 3.64,-1.44 13.06,-0.98 14.74,-8.68 1.55,-7.13 -3.01,-13.01 2.68,-20.34l-21.61 -0.17c-9.17,4.92 1.95,25.68 -11.27,24.54l-0.05 -24.52 -24.12 -0 0 58.27z"/>
  <path class="fil0" d="M181.94 49.94c-0.85,-3.37 -1.02,-29.77 -0.62,-35.61 0.28,-4.13 3.65,-5.43 6.74,-3.14 1.25,6.08 0.6,16.92 0.6,23.52 0,6.79 1.73,20.6 -6.73,15.23zm-0.76 -49.73c-26.09,3.52 -23.84,10.27 -23.84,34.09 -0,8.67 -1.19,16.77 6.98,21.9 7.28,4.57 16.32,4.92 24.78,4.54 7.72,-0.34 15.67,-2.13 20.72,-8.15 4.18,-4.99 2.83,-19.38 2.83,-26.03 0,-10.32 0.99,-16.34 -7.07,-21.8 -5.34,-3.61 -18.04,-5.41 -24.4,-4.55z"/>
  <path class="fil0" d="M309.83 38.62c0.8,-2.57 1.47,-8.82 2.07,-11.89 0.59,-3.04 1.52,-9.08 2.58,-11.66l3.31 23.71 -7.96 -0.15zm-25.72 20.83l24.75 0.12 1.31 -10.17 8.51 -0.11 1.29 10.18 24.49 0.11 -13.85 -58.18 -34.42 -0.1 -12.08 58.16z"/>
  <path class="fil0" d="M80.7 136.28l-0.17 45.52 33.71 -0.03c0.54,-9.92 0.21,-40.56 0.09,-51.83l-7.01 -0.16c-0.3,6.35 -0.03,9.98 0.18,16.54l-2.42 0.14 -0.11 -16.52c-4.39,-0.43 -19.51,-0.24 -24.27,-0.25l-0 6.58z"/>
  <path class="fil1" d="M-0 195.19l18.53 0c5.86,0 10.29,0.39 13.31,1.18 3.02,0.78 5.45,2.37 7.3,4.74 1.86,2.39 2.78,6.23 2.78,11.53 0,3.58 -0.65,6.08 -1.96,7.48 -1.31,1.42 -3.91,2.49 -7.77,3.26 4.31,0.84 7.24,2.22 8.78,4.15 1.54,1.94 2.31,4.9 2.31,8.91l0 5.69c0,4.15 -0.56,7.21 -1.66,9.22 -1.1,1.99 -2.85,3.36 -5.27,4.1 -2.41,0.74 -7.36,1.1 -14.84,1.1l-21.5 0 0 -61.34zm18.65 10.47l0 13.65c0.78,-0.03 1.39,-0.04 1.83,-0.04 1.78,0 2.93,-0.39 3.41,-1.15 0.5,-0.78 0.74,-2.99 0.74,-6.62 0,-1.93 -0.2,-3.27 -0.6,-4.05 -0.41,-0.76 -0.94,-1.25 -1.58,-1.46 -0.65,-0.19 -1.92,-0.31 -3.79,-0.34zm0 23.19l0 17.22c2.56,-0.08 4.21,-0.43 4.92,-1.06 0.71,-0.63 1.06,-2.2 1.06,-4.68l0 -5.74c0,-2.64 -0.32,-4.23 -0.95,-4.8 -0.63,-0.56 -2.31,-0.87 -5.02,-0.94z"/>
  <path id="_1" class="fil1" d="M92.43 231.15c0,6.17 -0.17,10.52 -0.51,13.08 -0.33,2.57 -1.39,4.91 -3.17,7.03 -1.78,2.12 -4.19,3.75 -7.23,4.89 -3.03,1.14 -6.56,1.71 -10.59,1.71 -3.83,0 -7.26,-0.54 -10.3,-1.61 -3.05,-1.07 -5.51,-2.68 -7.35,-4.82 -1.86,-2.15 -2.96,-4.49 -3.32,-7 -0.35,-2.53 -0.53,-6.95 -0.53,-13.26l0 -10.5c0,-6.17 0.17,-10.52 0.51,-13.08 0.33,-2.57 1.39,-4.91 3.17,-7.03 1.78,-2.12 4.19,-3.75 7.23,-4.88 3.03,-1.14 6.56,-1.71 10.59,-1.71 3.83,0 7.26,0.54 10.3,1.61 3.05,1.07 5.51,2.68 7.35,4.82 1.86,2.15 2.96,4.49 3.32,7 0.35,2.53 0.53,6.95 0.53,13.26l0 10.5zm-18.65 -20.15c0,-2.84 -0.18,-4.67 -0.54,-5.47 -0.36,-0.79 -1.1,-1.19 -2.22,-1.19 -0.95,0 -1.67,0.32 -2.19,0.97 -0.5,0.63 -0.75,2.53 -0.75,5.69l0 28.63c0,3.55 0.17,5.75 0.5,6.58 0.33,0.84 1.1,1.25 2.31,1.25 1.24,0 2.04,-0.48 2.38,-1.44 0.35,-0.96 0.51,-3.24 0.51,-6.85l0 -28.18z"/>
  <path id="_2" class="fil1" d="M99.43 195.19l18.75 0c5.07,0 8.96,0.34 11.69,1.02 2.72,0.68 4.77,1.67 6.14,2.95 1.37,1.29 2.29,2.86 2.79,4.68 0.48,1.84 0.72,4.67 0.72,8.5l0 5.34c0,3.9 -0.47,6.76 -1.42,8.54 -0.94,1.8 -2.67,3.18 -5.18,4.14 -2.52,0.96 -5.81,1.44 -9.87,1.44l-4.99 0 0 24.74 -18.65 0 0 -61.34zm18.65 10.47l0 15.63c0.53,0.03 0.98,0.04 1.36,0.04 1.7,0 2.88,-0.36 3.55,-1.09 0.65,-0.71 0.98,-2.21 0.98,-4.48l0 -5.05c0,-2.09 -0.38,-3.46 -1.15,-4.1 -0.75,-0.63 -2.34,-0.94 -4.74,-0.94z"/>
  <path id="_3" class="fil1" d="M187.32 231.15c0,6.17 -0.17,10.52 -0.51,13.08 -0.33,2.57 -1.39,4.91 -3.17,7.03 -1.78,2.12 -4.19,3.75 -7.23,4.89 -3.03,1.14 -6.56,1.71 -10.59,1.71 -3.83,0 -7.26,-0.54 -10.3,-1.61 -3.05,-1.07 -5.51,-2.68 -7.35,-4.82 -1.86,-2.15 -2.96,-4.49 -3.32,-7 -0.35,-2.53 -0.53,-6.95 -0.53,-13.26l0 -10.5c0,-6.17 0.17,-10.52 0.51,-13.08 0.33,-2.57 1.39,-4.91 3.17,-7.03 1.78,-2.12 4.19,-3.75 7.23,-4.88 3.03,-1.14 6.56,-1.71 10.59,-1.71 3.83,0 7.26,0.54 10.3,1.61 3.05,1.07 5.51,2.68 7.35,4.82 1.86,2.15 2.96,4.49 3.32,7 0.35,2.53 0.53,6.95 0.53,13.26l0 10.5zm-18.65 -20.15c0,-2.84 -0.18,-4.67 -0.54,-5.47 -0.36,-0.79 -1.1,-1.19 -2.22,-1.19 -0.95,0 -1.67,0.32 -2.19,0.97 -0.5,0.63 -0.75,2.53 -0.75,5.69l0 28.63c0,3.55 0.17,5.75 0.5,6.58 0.33,0.84 1.1,1.25 2.31,1.25 1.24,0 2.04,-0.48 2.38,-1.44 0.35,-0.96 0.51,-3.24 0.51,-6.85l0 -28.18z"/>
  <polygon id="_4" class="fil1" points="237.04,195.19 237.04,256.53 218.4,256.53 218.4,230.79 212.97,230.79 212.97,256.53 194.32,256.53 194.32,195.19 212.97,195.19 212.97,217.14 218.4,217.14 218.4,195.19 "/>
  <polygon id="_5" class="fil1" points="244.57,195.19 275.62,195.19 275.62,207.44 263.22,207.44 263.22,219.15 274.81,219.15 274.81,230.79 263.22,230.79 263.22,244.28 276.89,244.28 276.89,256.53 244.57,256.53 "/>
  <path id="_6" class="fil1" d="M302.73 230.16c-3.92,0.08 -5.88,1.51 -5.88,4.32l0 16.14c0,2.15 -0.27,3.67 -0.83,4.56 -0.54,0.89 -0.95,1.34 -1.18,1.34l-15.37 0c1.33,-1.64 1.99,-4.08 1.99,-7.32l0 -13.78c0,-2.93 0.95,-5.17 2.85,-6.71 1.9,-1.54 5.17,-2.64 9.79,-3.3l0 -0.08c-8.37,-0.37 -12.55,-3.71 -12.55,-9.99l0 -12.99c0,-3.21 -0.66,-5.6 -1.99,-7.19l15.37 0c0.44,0.16 0.89,0.7 1.34,1.64 0.44,0.96 0.66,2.34 0.66,4.19l0 15.25c0,2.8 1.93,4.25 5.79,4.36l0 -25.44 18.65 0 0 25.44c3.86,-0.1 5.79,-1.55 5.79,-4.36l0 -15.25c0,-2.12 0.27,-3.62 0.8,-4.5 0.54,-0.89 0.95,-1.33 1.22,-1.33l15.36 0c-1.33,1.59 -1.99,3.98 -1.99,7.19l0 12.99c0,6.28 -4.19,9.62 -12.6,9.99l0 0.08c4.63,0.66 7.91,1.76 9.82,3.3 1.92,1.54 2.87,3.77 2.87,6.71l0 13.78c0,3.23 0.66,5.67 1.99,7.32l-15.36 0c-0.48,-0.18 -0.93,-0.75 -1.37,-1.71 -0.44,-0.96 -0.65,-2.37 -0.65,-4.2l0 -16.14c0,-2.8 -1.96,-4.24 -5.88,-4.32l0 26.37 -18.65 0 0 -26.37z"/>
 </g>
</svg>
