<?xml version="1.0" encoding="UTF-8"?>
<!DOCTYPE svg PUBLIC "-//W3C//DTD SVG 1.1//EN" "http://www.w3.org/Graphics/SVG/1.1/DTD/svg11.dtd">
<!-- Creator: CorelDRAW 2021 (64-Bit) -->
<svg xmlns="http://www.w3.org/2000/svg" xml:space="preserve" width="27.8623mm" height="21.3651mm" version="1.1" style="shape-rendering:geometricPrecision; text-rendering:geometricPrecision; image-rendering:optimizeQuality; fill-rule:evenodd; clip-rule:evenodd"
viewBox="0 0 674.05 516.87"
 xmlns:xlink="http://www.w3.org/1999/xlink"
 xmlns:xodm="http://www.corel.com/coreldraw/odm/2003">
 <defs>
  <style type="text/css">
   <![CDATA[
    .fil0 {fill:black}
    .fil1 {fill:black;fill-rule:nonzero}
   ]]>
  </style>
 </defs>
 <g id="Слой_x0020_1">
  <metadata id="CorelCorpID_0Corel-Layer"/>
  <path class="fil0" d="M510.01 311.74c0.13,-9.43 -1.13,-38.85 0.66,-45.81 19.34,0.74 40.2,0.07 59.7,0.02 8.68,-0.02 20.86,-1.46 27.3,2.74 13.66,8.91 13.43,30.41 0.67,39.86 -6.51,4.82 -18.13,3.15 -27.17,3.15 -20.29,0 -40.9,-0.35 -61.16,0.04zm1.3 -131.27l138.99 -0.07 -0.18 -42.82 -205.04 0.22 -0.3 103.96c24.38,-0.04 48.45,0.81 72.82,0.79 11.98,-0.01 23.9,0.72 35.98,0.77 7.22,0.02 32.59,-1.98 31.96,4.75 -2.06,4.66 -9.78,3.36 -15.19,3.52 -5.88,0.18 -11.67,0.41 -17.57,0.41l-107.99 0.77 0.02 103.61c43.95,-0.3 88,-0.02 131.95,-0.02 20.86,0 44.31,2.02 60.88,-4.68 14.27,-5.77 25.78,-19.02 31.37,-34.03 14.12,-37.92 -2.99,-79.27 -31.83,-90.75 -16.45,-6.55 -41.04,-4.04 -60.41,-3.7 -21.5,0.37 -43.96,0.56 -65.41,0.09l-0.06 -42.81z"/>
  <path class="fil0" d="M206.16 242.47c0.65,-11.04 0.43,-21.63 -0.11,-32.64l4.89 -0c-0.21,12.05 -0.83,20.68 -0.06,32.79l13.43 -0.26 -0 -104.9 -69.38 -0c-1.22,2.6 -3.66,5.98 -5.4,8.61 -2.03,3.06 -3.46,5.35 -5.34,8.21 -10.88,16.6 -22.79,33.17 -33.34,50.2l-44.69 67.04 0.1 -133.35 -66.17 0.04 -0.08 216.6 70.14 0.01c1.99,-4.24 5.92,-8.97 8.47,-13.04 7.52,-12.01 57.94,-84.07 60.01,-89.01 -2.11,0.05 -7.92,-0.2 -9.53,0.21 -3.43,0.86 -1.57,2.9 -6.44,2.44 -4.61,-0.44 -5.28,-9.31 -12.08,-1.82 -9.4,10.35 -20.66,-1.8 -22.15,-5.5 1.23,-2.11 0.57,-0.27 2.64,-2.89 9.34,-11.8 19.11,-4.63 20.87,-0.23l6.04 0c3.68,-6.96 5.53,-3.17 11.03,-2.45 3.99,0.52 12.32,0.09 16.72,0.06 1.11,-2.56 10.98,-18.32 12.65,-19.95l-0.06 19.95 47.84 -0.09z"/>
  <polygon class="fil0" points="-0,115.85 168.7,116.08 168.68,2.14 121.81,2.24 121.67,93.59 108.19,93.55 108.18,2.15 61.29,2.24 61.13,93.58 47.59,93.54 47.62,2.17 0.13,2.24 "/>
  <path class="fil0" d="M296.04 197.12c0,-16.09 13.66,-16.8 23.82,-16.8l116.17 0.01 0.11 -42.22 -144.14 -0.67c-25.83,-0.04 -45.22,9.96 -54.34,29.19 -5.53,11.67 -4.79,21.13 -4.79,35.26 0,12.99 0.21,26.17 -0.05,39.12l63.17 0.69 0.05 -44.59z"/>
  <path class="fil0" d="M233.26 254.72c-1.45,7.25 -0.37,29.14 -0.37,37.93 0,13.85 -1.19,22.07 4.81,33.56 9.48,18.14 27.19,29.21 47.12,29.4 9.7,0.1 143.99,0.56 151.9,-0.22l-0 -42.64c-10.44,-1.24 -83.44,-0.01 -99.33,0.27 -15.08,0.27 -36.11,3.82 -40.62,-9.21 -1.56,-4.51 -0.82,-41.77 -0.68,-49.51l-62.82 0.42z"/>
  <path class="fil0" d="M547.95 116.08l-0.33 -113.36 -107.1 -0.36 0.04 81.73c-0.11,12.25 -2.49,12.62 -15.03,12.59l0.05 19.47c22.85,-0.67 54.88,4.27 60.67,-16.19 3.66,-12.93 0.52,-57.27 1.37,-74.7l12.88 0.02 0.01 90.83 47.43 -0.02z"/>
  <path class="fil0" d="M187.06 115.87l47.68 0.22 -0.03 -48.06c24.32,1.39 9.62,22.23 15.48,40.26 3.27,10.08 8.88,7.79 20.32,7.79 6.78,0 22.65,0.8 28.33,-0.36 -14.3,-13.52 7,-40.63 -15.66,-51.56 -6.35,-3.06 -12.67,-3.08 -18.36,-5.35 12.82,-1.1 27.18,-5.01 28.98,-16.94 1.28,-8.49 -1.89,-23.9 0.84,-32.41 1.35,-4.2 2.85,-4.75 4.49,-7.26 -9.24,0.16 -18.57,0.05 -27.82,0.05 -11.5,0 -17.39,-2.39 -20.93,7.61 -1.97,5.57 -1.9,18.77 -2.24,25.67 -0.56,11.62 -1.93,13.86 -13.44,15.08l-0 -48.37 -47.49 0.03 -0.14 113.62z"/>
  <path class="fil0" d="M356.16 97.9c-2.6,-9.42 -1.4,-34.02 -1.4,-45.69 0,-10.07 -2.33,-29.68 3.97,-31.98 2.59,-0.95 7.12,-0.62 8.67,1.16 2.64,3.04 2.24,59.84 1.49,68.48 -0.82,9.43 -3.74,11.36 -12.73,8.04zm-9.08 -96.92c-16.56,2.57 -31.11,7.52 -36.6,20.36 -3.3,7.72 -5.17,67.86 0.96,78.26 15.6,26.47 90.69,25.93 102.21,-2.18 2.84,-6.93 4.89,-67.74 -1.05,-78.24 -2.95,-5.22 -9.39,-10.05 -15.62,-13.07 -11.32,-5.5 -34.62,-7.51 -49.91,-5.13z"/>
  <path class="fil0" d="M606.46 75.32c0.14,-6.46 6.43,-40.75 8.83,-45.48l6.36 45.48 -5.65 -0.03 -3.18 -0.01 -6.35 0.04zm-50.67 40.75c8.86,-0.07 43.19,1.07 48.68,-0.53l2.29 -19.35 17 -0.13 2.13 19.47c4.65,1.34 40.84,0.71 48.16,0.48 -7.45,-34.51 -21.23,-81.86 -27.16,-113.81l-67.39 0.03 -23.71 113.85z"/>
  <path class="fil0" d="M209.95 252.75c-0.2,5.75 -1.14,10.27 -0.65,16.82 0.42,5.69 0.66,10 0.66,15.91l-4.71 0 -0.14 -32.68 -47.58 0.07 -0.19 101.92 66.01 -0.25 -0 -101.67 -13.4 -0.12z"/>
  <polygon class="fil0" points="547.95,116.08 548.31,2.22 440.52,2.36 547.62,2.72 "/>
  <path class="fil1" d="M-0 378.14l28.9 0 0.14 49.98c5.36,-0.15 8.12,-3.37 8.3,-9.65l0.54 -23.1c0.19,-8.51 1.73,-14.27 4.63,-17.23l26.66 0c-2.57,2.87 -3.83,8.83 -3.79,17.83l0.14 20.3c0.1,12.27 -6.38,19.28 -19.45,20.98 13.07,1.7 19.55,8.8 19.45,21.27l-0.14 18.83c-0.05,8.98 1.22,15.36 3.79,19.16l-26.66 0c-3.08,-2.97 -4.63,-8.73 -4.63,-17.26l0 -23.07c0,-2.94 -0.82,-5.29 -2.46,-7.06 -1.66,-1.77 -3.79,-2.69 -6.38,-2.74l-0.14 50.13 -28.9 0 0 -118.37z"/>
  <path id="_1" class="fil1" d="M75.23 378.14l29.07 0c7.86,0 13.89,0.65 18.12,1.97 4.21,1.32 7.39,3.22 9.52,5.69 2.13,2.49 3.55,5.51 4.33,9.03 0.75,3.54 1.12,9 1.12,16.41l0 10.3c0,7.53 -0.73,13.04 -2.2,16.48 -1.45,3.47 -4.14,6.14 -8.02,7.98 -3.9,1.85 -9,2.77 -15.29,2.77l-7.74 0 0 47.74 -28.9 0 0 -118.37zm28.9 20.2l0 30.16c0.82,0.05 1.52,0.07 2.1,0.07 2.64,0 4.47,-0.7 5.5,-2.1 1.01,-1.37 1.52,-4.27 1.52,-8.66l0 -9.75c0,-4.04 -0.59,-6.68 -1.78,-7.91 -1.17,-1.22 -3.62,-1.82 -7.34,-1.82z"/>
  <path id="_2" class="fil1" d="M195.46 378.14l16.51 118.37 -29.49 0 -1.57 -21.25 -10.41 0 -1.57 21.25 -29.87 0 14.64 -118.37 41.74 0zm-15.32 76.17c-1.38,-13.42 -2.83,-30.03 -4.37,-49.86 -2.85,22.75 -4.65,39.36 -5.43,49.86l9.8 0z"/>
  <path id="_3" class="fil1" d="M284.28 429.77l-28.9 0 0 -20.55c0,-5.99 -0.3,-9.7 -0.91,-11.2 -0.61,-1.47 -1.97,-2.22 -4.05,-2.22 -2.34,0 -3.84,0.9 -4.47,2.69 -0.63,1.82 -0.96,5.71 -0.96,11.7l0 54.92c0,5.76 0.33,9.5 0.96,11.27 0.63,1.75 2.06,2.62 4.26,2.62 2.13,0 3.53,-0.87 4.19,-2.64 0.65,-1.75 0.98,-5.89 0.98,-12.4l0 -14.89 28.9 0 0 4.61c0,12.27 -0.82,20.98 -2.44,26.09 -1.61,5.14 -5.21,9.63 -10.76,13.49 -5.57,3.87 -12.39,5.79 -20.53,5.79 -8.44,0 -15.41,-1.62 -20.91,-4.89 -5.47,-3.27 -9.12,-7.78 -10.9,-13.57 -1.78,-5.79 -2.67,-14.46 -2.67,-26.06l0 -34.57c0,-8.53 0.28,-14.91 0.82,-19.18 0.56,-4.27 2.17,-8.38 4.91,-12.32 2.71,-3.94 6.48,-7.06 11.3,-9.33 4.81,-2.27 10.36,-3.39 16.63,-3.39 8.49,0 15.5,1.74 21.05,5.26 5.52,3.49 9.14,7.86 10.9,13.1 1.73,5.24 2.6,13.37 2.6,24.42l0 11.25z"/>
  <polygon id="_4" class="fil1" points="360.84,378.14 360.84,496.52 331.94,496.52 331.94,446.83 323.52,446.83 323.52,496.52 294.61,496.52 294.61,378.14 323.52,378.14 323.52,420.49 331.94,420.49 331.94,378.14 "/>
  <path id="_5" class="fil1" d="M438.32 447.53c0,11.9 -0.26,20.3 -0.8,25.24 -0.51,4.96 -2.15,9.48 -4.91,13.57 -2.76,4.09 -6.5,7.23 -11.2,9.43 -4.7,2.19 -10.18,3.29 -16.42,3.29 -5.94,0 -11.25,-1.05 -15.97,-3.12 -4.73,-2.07 -8.54,-5.16 -11.39,-9.3 -2.88,-4.14 -4.58,-8.65 -5.15,-13.52 -0.54,-4.89 -0.82,-13.42 -0.82,-25.59l0 -20.25c0,-11.9 0.26,-20.3 0.8,-25.24 0.51,-4.96 2.15,-9.48 4.91,-13.57 2.76,-4.09 6.5,-7.23 11.2,-9.43 4.7,-2.2 10.17,-3.29 16.42,-3.29 5.94,0 11.25,1.05 15.97,3.12 4.72,2.07 8.54,5.16 11.39,9.3 2.88,4.14 4.58,8.66 5.14,13.52 0.54,4.89 0.82,13.42 0.82,25.59l0 20.25zm-28.9 -38.88c0,-5.49 -0.28,-9 -0.84,-10.55 -0.56,-1.52 -1.71,-2.29 -3.44,-2.29 -1.47,0 -2.59,0.62 -3.39,1.87 -0.77,1.22 -1.17,4.89 -1.17,10.97l0 55.25c0,6.86 0.26,11.1 0.77,12.69 0.51,1.62 1.71,2.42 3.58,2.42 1.92,0 3.15,-0.92 3.69,-2.77 0.54,-1.85 0.8,-6.26 0.8,-13.22l0 -54.37z"/>
  <path id="_6" class="fil1" d="M531.67 516.87l-19.92 0 0 -20.35 -46.58 0 0 20.35 -19.92 0 0 -45.05 5.89 0c3.11,-9.7 5.69,-22.45 7.67,-38.26 1.99,-15.81 2.99,-33.1 2.99,-51.83l0 -3.59 63.98 0 0 93.53 5.89 0 0 45.2zm-34.8 -45.2l0 -70.18 -8.56 0 0 0.87c0,22.67 -2.29,45.77 -6.88,69.31l15.43 0z"/>
  <path id="_7" class="fil1" d="M590.42 378.14l16.51 118.37 -29.49 0 -1.57 -21.25 -10.41 0 -1.57 21.25 -29.86 0 14.64 -118.37 41.74 0zm-15.32 76.17c-1.38,-13.42 -2.83,-30.03 -4.37,-49.86 -2.85,22.75 -4.65,39.36 -5.43,49.86l9.8 0z"/>
  <path id="_8" class="fil1" d="M611.88 378.14l29.07 0c7.86,0 13.89,0.65 18.12,1.97 4.21,1.32 7.39,3.22 9.52,5.69 2.13,2.49 3.55,5.51 4.33,9.03 0.75,3.54 1.12,9 1.12,16.41l0 10.3c0,7.53 -0.73,13.04 -2.2,16.48 -1.45,3.47 -4.14,6.14 -8.02,7.98 -3.9,1.85 -9,2.77 -15.29,2.77l-7.74 0 0 47.74 -28.9 0 0 -118.37zm28.9 20.2l0 30.16c0.82,0.05 1.52,0.07 2.11,0.07 2.64,0 4.47,-0.7 5.49,-2.1 1.01,-1.37 1.52,-4.27 1.52,-8.66l0 -9.75c0,-4.04 -0.59,-6.68 -1.78,-7.91 -1.17,-1.22 -3.62,-1.82 -7.34,-1.82z"/>
 </g>
</svg>
