<?xml version="1.0" encoding="UTF-8"?>
<!DOCTYPE svg PUBLIC "-//W3C//DTD SVG 1.1//EN" "http://www.w3.org/Graphics/SVG/1.1/DTD/svg11.dtd">
<!-- Creator: CorelDRAW 2021 (64-Bit) -->
<svg xmlns="http://www.w3.org/2000/svg" xml:space="preserve" width="27.8622mm" height="20.8443mm" version="1.1" style="shape-rendering:geometricPrecision; text-rendering:geometricPrecision; image-rendering:optimizeQuality; fill-rule:evenodd; clip-rule:evenodd"
viewBox="0 0 1399.37 1046.9"
 xmlns:xlink="http://www.w3.org/1999/xlink"
 xmlns:xodm="http://www.corel.com/coreldraw/odm/2003">
 <defs>
  <style type="text/css">
   <![CDATA[
    .fil0 {fill:black}
    .fil1 {fill:black;fill-rule:nonzero}
   ]]>
  </style>
 </defs>
 <g id="Слой_x0020_1">
  <metadata id="CorelCorpID_0Corel-Layer"/>
  <path class="fil0" d="M1063.2 651.39l0.34 -95.05c41.01,0.04 82.07,0.08 123.1,-0.05 18.88,-0.06 41.98,-2.98 56.24,5.9 28.12,17.49 27.62,65.73 -0.09,83.56 -13.86,8.92 -37.69,5.65 -56.16,5.65 -41.13,0 -82.3,0.15 -123.43,-0.03zm-133.47 -358.26l-0.35 212 267.26 4.52c12.25,0.14 12.99,-0.15 21.53,6.21 -2.39,14.47 -21.33,10.79 -46.49,10.84l-241.75 2.33c-1.83,15.53 -0.64,211.15 -0.47,215.81 100.72,0.05 201.36,-0.01 302.01,-0.01 61.33,0 106.6,0.63 140.94,-48.64 53.54,-76.84 31.04,-230.14 -101.08,-229.88l-205.65 0.83 0.03 -88.6 284.29 -0.5 0.84 -89.28c-32.73,-2.53 -168.53,-0.31 -212.38,-0.31l-199.5 -0.18c-7.3,0.02 -9.23,-1.62 -9.24,4.85z"/>
  <path class="fil0" d="M137.76 567.19l-0.12 -277.47 -137.65 -0.17 0.01 451.89 142.81 0.07c6.02,-2.42 31.7,-43.49 37.24,-51.57 12.95,-18.86 24.2,-35.82 36.74,-53.98 8.24,-11.93 69.66,-101.1 71.22,-106.61 -4.45,-0.32 -11.43,-0.61 -15.83,-0.33 -10.95,0.7 -13.34,10.26 -22.77,2.11 -3.46,-2.99 -7.12,-12.57 -18.27,-1.79 -18.6,17.99 -34.96,6.93 -47.21,-9.77 3.51,-8.27 22.05,-28.92 42.04,-15.56 6.52,4.35 10.32,15.42 20.9,5.78 13.26,-12.1 10.47,-2.4 25.33,-2.35 35.7,0.07 26.99,6.96 49.19,-28.97l8.11 -11.35 0.18 40.1c13.95,0.79 92.47,2.18 98.34,-1.01 2.86,-3.91 2.26,-8.46 2.43,-14.78l-1.08 -52.38c10.79,-0.03 10.76,-7.11 8.84,32.18 -0.51,10.52 -1.4,25.96 1.54,35.78l26.59 0.47c2.2,-14.04 1.16,-191.14 0.67,-219.27l-144.19 0.05 -92.1 139.85c-15.52,23.59 -30.8,46.23 -46.21,69.69 -8.6,13.1 -39.29,61.23 -46.75,69.38z"/>
  <path class="fil0" d="M1.68 243.29l349.05 0 -0.02 -237.84 -97.92 -0.54 -0.34 190.24 -27.69 -0.01 -0.02 -189.71 -97.24 -0.57 -0.41 190.11 -26.86 0.21c-3.6,-11.13 0.42,-159.42 -1.41,-190.15l-96.92 -0.15 -0.21 238.41z"/>
  <path class="fil0" d="M486.95 504.76l131.94 0.25c0,-20.04 -2.42,-88.01 1.53,-102.26 8.95,-32.39 45.33,-25.6 80.29,-25.6 70.03,0 140.09,-0.18 210.13,0.01l-0.03 -87.63c-32.34,-0.12 -294.69,-3.11 -318.81,-0.9 -50.13,4.59 -79.22,28.58 -95.98,63.67 -11.1,23.27 -9.27,43.39 -9.27,71.9 0,26.46 -0.82,54.26 0.2,80.57z"/>
  <path class="fil0" d="M486.77 532.78c-0.04,26.58 -0.02,53.1 -0.02,79.61 0,29.79 -2.25,44.49 10.34,69.11 16.36,32 49.12,60.1 97.67,61.92 51.18,1.91 106.4,0.01 158.03,0.01 51.91,0 108,2.03 159.39,-0.2l0.01 -89.65c-31.23,-2.31 -163.3,0.79 -206.45,0.83 -35.58,0.04 -76.17,7.16 -85.16,-19.08 -5.05,-14.73 -0.13,-81.11 -2.09,-103.39l-131.71 0.82z"/>
  <path class="fil0" d="M884.57 202.01l-0.72 41.25c26.08,0.23 51.68,0.31 77.27,-1.79 25.25,-2.07 42.27,-10 48.33,-30.54 6.53,-22.14 2.92,-125.93 2.92,-156.79l27.72 -0.93 0.02 190.09 97.32 -0.02 -0.02 -238.1 -222.51 -0.28c-2.63,34.27 -0.31,125.42 -0.28,169.51 0.02,29.17 -3.34,25.9 -30.04,27.59z"/>
  <path class="fil0" d="M389.97 243.19l97.41 0.13 0.69 -100.09c8.03,-1.08 16.65,1.82 21.68,5.36 8.03,5.65 7.92,11.3 7.86,22.43 -0.09,16.13 -2.11,42.48 2.64,56.14 7.2,20.68 19.3,16.16 42.67,16.16 19.8,0 39.61,0.03 59.42,-0.02 -20.25,-31.48 -9.13,-42.22 -11.75,-79.06 -2.46,-34.57 -39.71,-33.45 -53.46,-40.23 0.44,-0.23 1.12,-0.95 1.38,-0.54 0.29,0.46 1.86,-0.71 2.79,-0.97 1.16,-0.32 3.06,-0.74 4.27,-1 72.85,-15.67 33.22,-58 47.54,-101.86 2.99,-9.19 6.06,-8.77 8.89,-14.71 -19.67,-0.19 -39.39,-0.05 -59.06,-0.05 -23.63,0 -34.34,-4.65 -42.2,16.45 -11.3,30.33 11.44,88.8 -32.67,83.44l-0.67 -99.87 -97.1 0.02 -0.3 238.28z"/>
  <path class="fil0" d="M737.66 65.19c0,-20.36 4.52,-29.15 25.76,-22.17 6.94,14.99 3.79,107.27 3.79,128.04 0,23.07 2.03,46.11 -26.3,33.83 -5.88,-20 -3.25,-112.47 -3.24,-139.69zm-2.81 -64.3c-107.28,10.91 -94.65,52.26 -94.56,143.28 0.05,46.84 -1.71,66.43 30.75,86.8 36.21,22.73 124.98,25.66 168.44,-3.48 34.15,-22.9 25.52,-73.37 25.38,-123.65 -0.13,-47.3 1.04,-66.08 -30.88,-86.24 -22.46,-14.17 -67.23,-19.96 -99.13,-16.71z"/>
  <path class="fil0" d="M1260.12 157.82c0.71,-14.58 13.58,-86.68 17.77,-96.07l14.34 96.11 -32.11 -0.03zm-105.6 85.32l100.62 0.18 5.19 -42.43 35.23 -0.01 4.71 42.44 99.1 -0.05 -55.51 -238.09 -139.97 -0.27 -49.37 238.22z"/>
  <path class="fil0" d="M329.43 741.22l137.41 0.3 0.27 -212.39 -27.36 0.1c-3.57,12.74 -0.6,52.39 -0.74,68.09l-9.68 -0.01c0.19,-14.02 0.72,-28.02 0.76,-42.04 0.1,-30.21 1.37,-26.44 -14.97,-26.25 -27.87,0.32 -56.02,-0.14 -83.92,-0.22l-1.77 212.43z"/>
  <path class="fil1" d="M0.01 783.55l110.72 0 0.54 108.86c20.51,-0.32 31.08,-7.33 31.8,-21.02l2.06 -50.31c0.72,-18.52 6.62,-31.07 17.74,-37.53l102.12 0c-9.85,6.25 -14.69,19.23 -14.51,38.84l0.54 44.22c0.36,26.72 -24.46,41.99 -74.53,45.68 50.07,3.69 74.89,19.18 74.53,46.34l-0.54 41.01c-0.17,19.55 4.67,33.46 14.51,41.72l-102.12 0c-11.83,-6.46 -17.74,-19.01 -17.74,-37.59l0 -50.25c0,-6.41 -3.14,-11.52 -9.41,-15.37 -6.36,-3.86 -14.51,-5.87 -24.45,-5.97l-0.54 109.18 -110.72 0 0 -257.81z"/>
  <polygon id="_1" class="fil1" points="534.35,1041.36 441.9,1041.36 441.9,924.08 384.4,1041.36 288.18,1041.36 288.18,783.55 380.63,783.55 380.63,899.91 442.44,783.55 534.35,783.55 "/>
  <path id="_2" class="fil1" d="M578.97 783.55l111.35 0c30.1,0 53.21,1.41 69.43,4.29 16.12,2.88 28.3,7.01 36.46,12.39 8.15,5.43 13.62,12.01 16.57,19.67 2.87,7.71 4.3,19.61 4.3,35.74l0 22.44c0,16.4 -2.78,28.41 -8.42,35.91 -5.56,7.55 -15.86,13.36 -30.73,17.38 -14.96,4.02 -34.49,6.03 -58.58,6.03l-29.65 0 0 103.97 -110.72 0 0 -257.81zm110.72 44l0 65.67c3.13,0.11 5.82,0.16 8.06,0.16 10.13,0 17.12,-1.52 21.05,-4.56 3.85,-2.99 5.83,-9.29 5.83,-18.85l0 -21.24c0,-8.8 -2.24,-14.56 -6.81,-17.22 -4.48,-2.66 -13.88,-3.96 -28.13,-3.96z"/>
  <path id="_3" class="fil1" d="M1100.87 934.67c0,25.91 -0.99,44.22 -3.05,54.97 -1.97,10.81 -8.24,20.64 -18.81,29.55 -10.57,8.91 -24.91,15.76 -42.91,20.54 -18.01,4.78 -38.97,7.17 -62.88,7.17 -22.76,0 -43.1,-2.28 -61.18,-6.79 -18.1,-4.51 -32.7,-11.25 -43.64,-20.26 -11.01,-9.02 -17.56,-18.85 -19.7,-29.44 -2.06,-10.65 -3.14,-29.23 -3.14,-55.73l0 -44.11c0,-25.91 0.98,-44.22 3.05,-54.98 1.97,-10.81 8.24,-20.64 18.81,-29.55 10.58,-8.91 24.91,-15.76 42.91,-20.54 18.01,-4.78 38.97,-7.17 62.89,-7.17 22.75,0 43.08,2.28 61.18,6.79 18.09,4.51 32.69,11.24 43.62,20.26 11.02,9.02 17.56,18.85 19.71,29.44 2.06,10.65 3.14,29.23 3.14,55.73l0 44.11zm-110.73 -84.69c0,-11.95 -1.07,-19.61 -3.23,-22.98 -2.14,-3.31 -6.53,-5 -13.16,-5 -5.65,0 -9.95,1.36 -13,4.08 -2.95,2.66 -4.48,10.64 -4.48,23.9l0 120.32c0,14.94 0.99,24.17 2.96,27.65 1.97,3.53 6.54,5.27 13.71,5.27 7.35,0 12.09,-2.01 14.16,-6.03 2.06,-4.02 3.04,-13.64 3.04,-28.79l0 -118.43z"/>
  <path id="_4" class="fil1" d="M1142.44 783.55l110 0c34.76,0 61.1,1.63 79.01,4.94 17.92,3.26 32.33,9.94 43.35,19.93 11.02,10.05 16.49,26.19 16.49,48.46 0,15.05 -3.85,25.53 -11.65,31.45 -7.79,5.98 -23.2,10.49 -46.14,13.69 25.63,3.53 43,9.34 52.14,17.44 9.14,8.15 13.71,20.59 13.71,37.43l0 23.9c0,17.43 -3.31,30.31 -9.86,38.73 -6.53,8.37 -16.93,14.12 -31.26,17.22 -14.33,3.09 -43.71,4.62 -88.15,4.62l-127.65 0 0 -257.81zm110.72 44l0 57.36c4.66,-0.11 8.24,-0.17 10.84,-0.17 10.57,0 17.38,-1.63 20.24,-4.83 2.96,-3.26 4.39,-12.55 4.39,-27.81 0,-8.09 -1.17,-13.74 -3.59,-17 -2.42,-3.2 -5.54,-5.27 -9.4,-6.14 -3.86,-0.81 -11.38,-1.31 -22.49,-1.41zm0 97.45l0 72.35c15.22,-0.33 24.99,-1.79 29.21,-4.45 4.21,-2.66 6.27,-9.23 6.27,-19.66l0 -24.12c0,-11.08 -1.88,-17.76 -5.65,-20.16 -3.76,-2.34 -13.7,-3.64 -29.83,-3.96z"/>
 </g>
</svg>
