<?xml version="1.0" encoding="UTF-8"?>
<!DOCTYPE svg PUBLIC "-//W3C//DTD SVG 1.1//EN" "http://www.w3.org/Graphics/SVG/1.1/DTD/svg11.dtd">
<!-- Creator: CorelDRAW 2021 (64-Bit) -->
<svg xmlns="http://www.w3.org/2000/svg" xml:space="preserve" width="27.8623mm" height="21.8199mm" version="1.1" style="shape-rendering:geometricPrecision; text-rendering:geometricPrecision; image-rendering:optimizeQuality; fill-rule:evenodd; clip-rule:evenodd"
viewBox="0 0 1399.38 1095.9"
 xmlns:xlink="http://www.w3.org/1999/xlink"
 xmlns:xodm="http://www.corel.com/coreldraw/odm/2003">
 <defs>
  <style type="text/css">
   <![CDATA[
    .fil0 {fill:black}
    .fil1 {fill:black;fill-rule:nonzero}
   ]]>
  </style>
 </defs>
 <g id="Слой_x0020_1">
  <metadata id="CorelCorpID_0Corel-Layer"/>
  <g id="_2908252228608">
   <path class="fil0" d="M1060.4 552.72l160.65 -0.07c54.39,0.03 57.07,94.67 -1.68,94.93l-159.11 0.03 0.13 -59.4 0.01 -35.49zm2.81 -177.46l286.36 0.01c0.94,-14.99 1.56,-77.35 -0.45,-89.12l-422.53 -0.03c-0.62,41.67 -2.67,182.7 0.32,216.05l264.04 3.94c13.15,0.07 24.88,-1.31 25.19,12.4 -13.27,7.92 -52.31,4.6 -72.06,4.77l-190.75 1.98c-29.7,0.33 -27.75,-2.51 -27.78,9.42 -0.12,41.55 -2.19,174.33 -0.16,205.32 33.07,2.93 78.83,0.35 113.28,0.35l227.57 0.01c38.63,0.06 63.19,-8.01 86.2,-27.39 39.51,-33.31 61.83,-104.21 35.62,-171.24 -11.06,-28.31 -28.26,-49.75 -50.63,-63.14 -29.41,-17.59 -58.38,-15.48 -97.95,-15.41l-176.25 1.14 -0.01 -89.05z"/>
   <polygon class="fil0" points="0.01,240.87 350.78,241.42 350.76,5.25 252.33,5.21 252.32,194.16 223.74,194.16 223.76,5.08 126.36,5.07 126.36,193.84 97.95,194.17 97.93,5.41 0.04,5.35 "/>
   <path class="fil0" d="M484.9 501.09l131.64 0.81c0.02,-20.3 -2.24,-90.11 1.7,-103.22 9.37,-31.19 47.15,-24.24 80.74,-24.24 26.98,0 197.17,1.83 208.45,-0.97l-0.02 -85.61c-8.12,-1.69 -297.36,-3.32 -316.73,-1.56 -50.53,4.58 -79.98,27.92 -96.62,63.57 -11.21,23.99 -9.18,42.33 -9.18,71.02 0,26.73 -0.1,53.48 0.03,80.21z"/>
   <path class="fil0" d="M484.89 529.74c-0.08,26.74 -0.02,53.49 -0.02,80.23 0,30.99 -1.83,42.71 10.47,68.09 15.71,32.42 49.37,58.64 96.47,60.93 50.65,2.47 107.69,0.11 159.04,0.11 52.46,0 104.92,0 157.39,0l-0.03 -89.54c-69.19,0.4 -138.36,0.58 -207.55,0.78 -29.44,0.08 -76.23,8.46 -83.23,-20.74 -5.6,-23.37 2.95,-74.3 -1.49,-101.03l-131.05 1.17z"/>
   <path class="fil0" d="M883.07 200.9l0.01 40.63 50.16 -0.27c90.2,-0.94 78.59,-27.89 78.59,-122.39 0,-17.44 -1.88,-50.74 0.66,-66.29l26.8 0.11 0.41 188.99 97.64 -0.12 -0.01 -236.42 -223.47 -0.04 0.05 168.99c0.01,28.14 -6.26,24.68 -30.84,26.81z"/>
   <path class="fil0" d="M389.09 234.33l0.01 7.29 97.38 0.05 0.65 -99.05c13.81,-1.96 29.62,2.92 29.61,23.11 -0.01,24.5 -4.97,75.94 21.59,75.94l83.35 -0.27c-11.18,-20.21 -11.74,-16.6 -11.7,-47.23 0.06,-24.69 3.76,-41.42 -12,-54.67 -15.87,-13.34 -29.07,-10.74 -49.18,-16.63 93.42,-10.5 49.92,-60.26 63.63,-102.21 2.81,-8.57 6.01,-10.26 9.59,-15.46l-83.69 -0.12c-10.57,0 -15.77,8.11 -18.7,18.11 -10.23,34.92 10.79,86.03 -32.52,80.62l-0.67 -98.74 -97.37 0.02 0.02 229.25z"/>
   <path class="fil0" d="M763.25 42.97c6.14,0.17 3.41,71.38 3.41,94.31 0,16.4 3.93,62.01 -6.95,67.42 -5.62,2.79 -15.52,2.14 -19.13,-1.99 -6.07,-6.96 -3.63,-79.11 -3.63,-93.88 0,-48.48 -7.28,-76 26.3,-65.86zm-29.27 -41.85c-36.75,4.18 -67.56,11.05 -83.83,33.8 -16.63,23.26 -10.91,75.7 -10.93,107.39 -0.03,43.98 -1.02,67.91 30.16,86.5 41.07,24.49 148.09,28.5 184.46,-16.96 15.36,-19.21 10.47,-78.72 10.48,-108.04 0.03,-43.83 -0.04,-69.34 -30.65,-86.14 -25.32,-13.9 -65.31,-20.47 -99.7,-16.55z"/>
   <path class="fil0" d="M1259.36 157.38c1.17,-16.12 13.17,-84.18 18.14,-95.6l14.48 95.59 -32.63 0.02zm-105.54 84.19l100.84 0.09 5.58 -41.68 34.54 -0.87c0.29,4.53 2.23,41.04 8.25,42.56 18.04,-0.05 83.86,2.27 96.34,-1.06 -8.57,-29.06 -33.28,-140.63 -41.87,-177.9 -2.34,-10.19 -4.61,-19.54 -7,-29.81 -1.7,-7.33 -2.65,-24.23 -8.98,-27.65l-138.28 0.03 -49.43 236.29z"/>
   <g>
    <path class="fil0" d="M426.38 505.26c1.34,-23.08 0.89,-45.22 -0.23,-68.25l10.11 -0.01c-0.43,25.19 -1.71,43.24 -0.13,68.54l27.77 -0.55 -0.01 -219.32 -143.49 -0.01c-2.52,5.43 -7.57,12.51 -11.18,18.01 -4.2,6.4 -7.16,11.19 -11.04,17.17 -22.51,34.7 -47.14,69.35 -68.95,104.95l-92.42 140.16 0.21 -278.8 -136.85 0.09 -0.16 452.83 145.05 0.03c4.1,-8.86 12.25,-18.75 17.52,-27.27 15.56,-25.11 119.83,-175.76 124.12,-186.1 -4.36,0.1 -16.37,-0.42 -19.71,0.43 -7.09,1.79 -3.25,6.07 -13.33,5.1 -9.53,-0.92 -10.91,-19.48 -24.99,-3.81 -19.44,21.63 -42.74,-3.78 -45.8,-11.5 2.56,-4.42 1.18,-0.56 5.47,-6.04 19.31,-24.67 39.53,-9.68 43.15,-0.48l12.5 0.01c7.61,-14.56 11.43,-6.62 22.81,-5.12 8.26,1.08 25.47,0.2 34.57,0.12 2.3,-5.36 22.71,-38.29 26.17,-41.71l-0.12 41.72 98.95 -0.2z"/>
    <path class="fil0" d="M436.18 526.76c-0.41,12.02 -2.36,21.48 -1.35,35.17 0.87,11.91 1.36,20.9 1.36,33.26l-9.74 0 -0.29 -68.32 -98.41 0.15 -0.39 213.08 136.53 -0.53 -0.01 -212.57 -27.71 -0.26z"/>
   </g>
   <path class="fil1" d="M-0 788.3l92.85 0c25.1,0 44.37,1.65 57.89,5.02 13.45,3.37 23.61,8.2 30.4,14.48 6.8,6.35 11.36,14.04 13.82,23 2.39,9.02 3.59,22.93 3.59,41.8l0 26.24c0,19.19 -2.32,33.22 -7.02,41.99 -4.63,8.83 -13.22,15.63 -25.62,20.33 -12.48,4.7 -28.76,7.05 -48.86,7.05l-24.72 0 0 121.59 -92.33 0 0 -301.5zm92.33 51.46l0 76.81c2.61,0.13 4.85,0.19 6.72,0.19 8.44,0 14.27,-1.78 17.55,-5.34 3.21,-3.5 4.86,-10.86 4.86,-22.04l0 -24.84c0,-10.29 -1.87,-17.03 -5.68,-20.14 -3.73,-3.11 -11.58,-4.64 -23.45,-4.64z"/>
   <path id="_1" class="fil1" d="M430.28 1089.8l-92.33 0 0 -135.7c-11.66,0 -19.2,1.65 -22.64,4.96 -3.44,3.24 -5.16,10.48 -5.16,21.66l0 109.08 -85.6 0 0 -89.89c0,-15.25 0.97,-26.88 2.99,-34.82 1.94,-7.94 6.49,-14.55 13.67,-19.75 7.17,-5.21 18.52,-9.53 34.06,-13.02 -21.21,-1.59 -34.96,-6.74 -41.31,-15.31 -6.27,-8.64 -9.41,-24.14 -9.41,-46.44 0,-20.14 2.91,-35.83 8.74,-47.2 5.83,-11.37 14.34,-19.5 25.39,-24.46 11.06,-4.96 23.83,-8.01 38.33,-9.02 14.41,-1.08 37.05,-1.59 67.82,-1.59l65.44 0 0 301.5zm-92.33 -182.96l0 -66.7 -4.41 0c-7.69,0 -13.52,1.46 -17.47,4.38 -3.96,2.92 -5.91,9.15 -5.91,18.74l0 16.58c0,11.18 1.65,18.48 4.93,21.85 3.29,3.43 10.91,5.14 22.86,5.14z"/>
   <path id="_2" class="fil1" d="M629.58 919.23c13.37,3.87 23.3,10.17 29.88,18.87 6.5,8.76 9.78,29.29 9.78,61.56 0,23.95 -3.21,42.57 -9.64,55.78 -6.42,13.21 -17.47,23.25 -33.24,30.11 -15.76,6.92 -35.93,10.35 -60.58,10.35 -27.94,0 -49.98,-4 -65.89,-12 -15.99,-8.01 -26.51,-17.85 -31.53,-29.48 -5,-11.56 -7.54,-31.77 -7.54,-60.48l0 -23.82 88.3 0 0 49.04c0,13.09 0.9,21.41 2.76,24.91 1.79,3.56 5.9,5.33 12.18,5.33 6.87,0 11.43,-2.22 13.6,-6.73 2.16,-4.45 3.28,-16.14 3.28,-35.01l0 -20.9c0,-11.56 -1.5,-20.01 -4.56,-25.35 -3.06,-5.34 -7.62,-8.83 -13.6,-10.48 -5.98,-1.72 -17.56,-2.67 -34.74,-2.92l0 -43.84c20.99,0 33.91,-0.7 38.92,-2.03 4.93,-1.4 8.51,-4.32 10.68,-8.96 2.16,-4.58 3.28,-11.75 3.28,-21.54l0 -16.71c0,-10.54 -1.27,-17.47 -3.81,-20.84 -2.62,-3.37 -6.57,-5.02 -11.95,-5.02 -6.2,0 -10.38,1.78 -12.62,5.27 -2.32,3.56 -3.44,11.05 -3.44,22.62l0 24.71 -88.3 0 0 -25.66c0,-28.78 7.76,-48.16 23.23,-58.26 15.46,-10.1 40.03,-15.18 73.72,-15.18 42.13,0 70.75,6.99 85.76,21.03 15.01,14.04 22.56,33.55 22.56,58.45 0,16.9 -2.69,29.1 -8.07,36.59 -5.45,7.49 -14.94,14.35 -28.46,20.58z"/>
   <path id="_3" class="fil1" d="M862.94 788.3l52.74 301.5 -94.2 0 -5.01 -54.13 -33.24 0 -5.01 54.13 -95.39 0 46.76 -301.5 133.34 0zm-48.93 194.01c-4.4,-34.18 -9.04,-76.49 -13.97,-126.99 -9.11,57.94 -14.86,100.25 -17.33,126.99l31.3 0z"/>
   <polygon id="_4" class="fil1" points="1143.07,788.3 1143.07,1089.8 1050.74,1089.8 1050.74,963.26 1023.85,963.26 1023.85,1089.8 931.52,1089.8 931.52,788.3 1023.85,788.3 1023.85,896.17 1050.74,896.17 1050.74,788.3 "/>
   <path id="_5" class="fil1" d="M1395.03 1019.29c0,22.43 -3.43,38.56 -10.31,48.35 -6.8,9.84 -17.26,15.94 -31.15,18.42 -13.97,2.48 -36.16,3.75 -66.64,3.75l-106.59 0 0 -301.5 92.33 0 0 103.3 14.26 0c28.39,0 49.98,1.4 64.54,4.25 14.57,2.86 25.47,9.15 32.72,18.93 7.24,9.72 10.83,25.03 10.83,45.87l0 58.64zm-92.33 -9.09l0 -43.58c0,-12.71 -1.5,-20.39 -4.49,-23.12 -2.98,-2.73 -11.5,-4.26 -25.54,-4.64l0 99.11c11.72,0 19.64,-1.27 23.75,-3.81 4.18,-2.54 6.27,-10.55 6.27,-23.95z"/>
  </g>
 </g>
</svg>
