<?xml version="1.0" encoding="UTF-8"?>
<!DOCTYPE svg PUBLIC "-//W3C//DTD SVG 1.1//EN" "http://www.w3.org/Graphics/SVG/1.1/DTD/svg11.dtd">
<!-- Creator: CorelDRAW 2021 (64-Bit) -->
<svg xmlns="http://www.w3.org/2000/svg" xml:space="preserve" width="27.8623mm" height="18.7728mm" version="1.1" style="shape-rendering:geometricPrecision; text-rendering:geometricPrecision; image-rendering:optimizeQuality; fill-rule:evenodd; clip-rule:evenodd"
viewBox="0 0 1399.38 942.86"
 xmlns:xlink="http://www.w3.org/1999/xlink"
 xmlns:xodm="http://www.corel.com/coreldraw/odm/2003">
 <defs>
  <style type="text/css">
   <![CDATA[
    .fil0 {fill:black}
    .fil1 {fill:black;fill-rule:nonzero}
   ]]>
  </style>
 </defs>
 <g id="Слой_x0020_1">
  <metadata id="CorelCorpID_0Corel-Layer"/>
  <g id="_2908014780240">
   <path class="fil0" d="M1058.97 648.15c0.02,-17.65 -1.9,-82.88 1.33,-95.23 41.63,0.37 83.45,0.03 125.1,-0.03 17.64,-0.03 39.96,-3.37 55.43,5.9 28.36,16.98 29.45,62.52 1.84,83.08 -13.13,9.78 -40.93,6.29 -57.27,6.29 -42.14,0 -84.28,-0.02 -126.43,-0.01zm-134.43 -145.81c49.96,-0.01 101.16,0.89 150.76,2.11l113.22 1.7c10.16,0.27 26.08,-1.51 27.7,10.45 -6.73,11.74 -52.77,7.33 -66.52,7.41l-225.14 1.99 -0.83 215.06c90.84,0.09 181.68,0.01 272.52,0.01 80.99,0 157.88,11.15 192.74,-80.13 25.18,-65.95 4.72,-156.98 -63.76,-187.93 -30.95,-13.98 -92.09,-9.18 -127.43,-9.1 -22.76,0.05 -45.51,0.16 -68.27,0.32 -19.1,0.14 -49.95,2.16 -67.67,-0.44l-0.03 -87.72 287.59 -0.8 0.45 -88.73 -424.47 -0.04 -0.86 215.84z"/>
   <path class="fil0" d="M137.32 565.41l-0.64 -278.05 -136.67 0 -0.01 450.2 144.17 0.03 143.12 -210.56c-17.79,-2.8 -19.46,-0.28 -26.1,3.12 -10.37,5.3 -12.78,-5.1 -19.7,-7.7l-7.81 0.03c-8.51,9.37 -12.13,14.75 -27.69,12.67 -9.53,-1.27 -18.35,-10.87 -23.22,-18.54 0.48,-1.07 7.08,-9.29 8.69,-11.32 3.12,-3.91 8.58,-6.76 13.73,-7.97 14.07,-3.31 20.1,3.56 28.39,12.22 18.96,-0.45 8.34,-4.37 17.94,-7.89 7.94,-2.91 8.36,1.19 14.95,2.25 7.61,1.23 26.77,0.2 35.57,0.2 4.19,-7.63 21.11,-35.47 26.38,-40.4l0.22 40 98.59 0.4c3.45,-24.8 0.04,-43.59 0.2,-67.75l10.61 -0.21c0.2,24.24 -3.22,43.04 0.13,67.96l27.42 -0.08 0.07 -217.55 -143.7 -0.22 -184.63 279.15z"/>
   <polygon class="fil0" points="0.01,240.96 349.55,241.52 349.82,6 251.66,5.32 251.52,194.38 222.33,194.33 222.36,5.33 126.06,5.34 125.81,194.05 96.66,194.45 96.6,5.45 0.06,5.4 "/>
   <path class="fil0" d="M482.99 501.65l131.27 0.51c0.05,-18.49 -2.23,-89.82 1.67,-102.34 10.46,-33.6 50.5,-25.51 79.74,-25.51 29.41,0 195.74,1.99 209.85,-0.71l-0.05 -85.5c-11.14,-1.99 -293.15,-3.12 -316.48,-1.51 -42.65,2.95 -77.96,23.57 -96.52,62.5 -12.17,25.54 -9.51,44.23 -9.51,71.55 0,27.01 0.02,54.01 0.02,81.01z"/>
   <path class="fil0" d="M482.97 530.14c0.09,26.43 0.01,52.89 0.01,79.32 0,28.7 -2.65,42.48 10.39,69.18 17.74,36.36 56.66,59.91 96.99,60.82 104.17,2.35 211.79,0.23 316.27,-0.01l0.03 -89.17c-69.24,-0.11 -138.62,0.9 -207.89,1.08 -25.22,0.07 -74.66,8.66 -83.26,-20.61 -3.51,-11.94 -1.11,-83.28 -1.25,-101.48l-131.27 0.85z"/>
   <path class="fil0" d="M884.01 201.23l-0.11 39.69c14.03,2.68 59.48,0.1 75.61,-1.15 63.8,-4.94 53.07,-46.63 53.07,-107.66 0,-22.37 -2.19,-59.46 0.5,-80.07l26.91 0.12 0.29 189.35 97.56 0.01 0.51 -236.23 -223.93 0.07c-1.53,51.48 -0.17,115 -0.12,168.54 0.03,34.09 -6.76,21.27 -30.29,27.33z"/>
   <path class="fil0" d="M389.24 241.51c15.69,0.03 87.55,1.89 96.27,-0.88l1.76 -99.13c6.92,-0.23 16.94,2.01 22.67,6.13 14.51,10.44 -0.54,51.85 9.62,78.56 7.97,20.94 23.55,15.33 43,15.33 19.53,0 39.09,0.12 58.61,-0.01 -3.06,-7.16 -11.36,-9.8 -11.98,-35.04 -0.34,-13.83 1.46,-35.19 -0.34,-47.86 -3.82,-26.94 -39.68,-32.43 -61.81,-34.77 14.99,-5 55.38,-4.28 61.5,-33.98 4.51,-21.82 -7.55,-69.48 12.37,-84.07 -15.71,-1.86 -40.15,-0.44 -56.8,-0.44 -19.08,0 -36.6,-5.6 -44.36,14.29 -11.49,29.43 13,88.57 -32.63,84.59l-0.94 -98.16 -96.8 -0.74 -0.14 236.19z"/>
   <path class="fil0" d="M744.72 41.68c20.65,-7.71 22.31,10.56 22.49,25.42 0.18,15.95 -0.01,32.02 -0.01,47.99 0,14.96 4.93,83.9 -7.88,89.96 -20.66,9.78 -22.12,-11.21 -22.29,-24.95l-0.05 -97.51c0,-10.32 -3.54,-36.7 7.73,-40.91zm-17.53 -39.94c-102.61,12.37 -89.2,60.91 -88.53,147.47 0.28,36.75 -0.16,63.17 35.31,81.98 46.39,24.6 157.12,22 182.52,-23.37 10.58,-18.89 7.76,-85.9 7.49,-109.79 -0.43,-37.96 2.86,-63.05 -34.56,-82.65 -29.58,-15.5 -69.67,-17.56 -102.23,-13.63z"/>
   <path class="fil0" d="M1259.35 156.65c1.65,-13.85 13.93,-85.67 19,-94.52l13.94 94.9 -32.94 -0.38zm-103.7 84.85l99.67 0.02 5.42 -42.6c9.3,-0.15 27.16,-2.08 34.45,1.3 10.32,49.69 -13.02,41.3 53.61,41.3 16.79,0 33.82,0.28 50.58,-0.07l-55.24 -236.1 -140.59 -0.01c-3.29,19.37 -48.43,227.04 -47.9,236.15z"/>
   <path class="fil0" d="M436.17 526.44c-4.42,20.07 -0.55,46.64 -0.42,67.89l-10.82 -0.26c0.24,-19.87 3.08,-48.99 -0.55,-67.66l-97.29 -0.55 -0.69 211.7 136.85 -0.18 -0.42 -210.92 -26.66 -0.03z"/>
   <polygon class="fil1" points="111.2,784.11 111.2,939.52 62.67,939.52 62.67,874.29 48.53,874.29 48.53,939.52 -0,939.52 -0,784.11 48.53,784.11 48.53,839.72 62.67,839.72 62.67,784.11 "/>
   <path id="_1" class="fil1" d="M241.27 875.21c0,15.62 -0.43,26.65 -1.34,33.13 -0.86,6.52 -3.62,12.45 -8.25,17.81 -4.63,5.37 -10.92,9.5 -18.81,12.38 -7.89,2.88 -17.08,4.32 -27.56,4.32 -9.97,0 -18.88,-1.38 -26.81,-4.09 -7.94,-2.72 -14.33,-6.78 -19.12,-12.21 -4.83,-5.43 -7.7,-11.36 -8.64,-17.74 -0.9,-6.42 -1.38,-17.62 -1.38,-33.6l0 -26.59c0,-15.62 0.44,-26.65 1.34,-33.14 0.86,-6.51 3.61,-12.44 8.24,-17.81 4.63,-5.37 10.91,-9.5 18.81,-12.38 7.89,-2.88 17.08,-4.32 27.56,-4.32 9.97,0 18.89,1.37 26.82,4.09 7.93,2.72 14.33,6.78 19.12,12.21 4.83,5.44 7.69,11.37 8.63,17.75 0.9,6.42 1.38,17.61 1.38,33.6l0 26.59zm-48.53 -51.05c0,-7.2 -0.48,-11.82 -1.42,-13.85 -0.94,-2 -2.87,-3.01 -5.78,-3.01 -2.47,0 -4.35,0.82 -5.69,2.46 -1.3,1.61 -1.96,6.42 -1.96,14.41l0 72.52c0,9.01 0.43,14.58 1.3,16.67 0.86,2.13 2.86,3.17 6.01,3.17 3.22,0 5.3,-1.21 6.2,-3.63 0.9,-2.43 1.34,-8.22 1.34,-17.36l0 -71.38z"/>
   <path id="_2" class="fil1" d="M259.49 784.11l48.22 0c15.23,0 26.78,0.98 34.63,2.98 7.86,1.96 14.17,5.99 19,12.01 4.83,6.06 7.23,15.79 7.23,29.21 0,9.07 -1.68,15.39 -5.11,18.96 -3.41,3.6 -10.17,6.32 -20.22,8.25 11.23,2.13 18.84,5.64 22.85,10.51 4.01,4.91 6.01,12.41 6.01,22.56l0 14.41c0,10.51 -1.45,18.27 -4.32,23.34 -2.86,5.04 -7.42,8.51 -13.71,10.38 -6.28,1.86 -19.16,2.78 -38.63,2.78l-55.95 0 0 -155.41zm48.53 26.52l0 34.58c2.04,-0.07 3.61,-0.1 4.75,-0.1 4.63,0 7.62,-0.98 8.87,-2.91 1.3,-1.96 1.93,-7.56 1.93,-16.77 0,-4.88 -0.51,-8.28 -1.57,-10.25 -1.06,-1.93 -2.44,-3.17 -4.13,-3.7 -1.68,-0.49 -4.98,-0.79 -9.85,-0.85zm0 58.74l0 43.62c6.67,-0.2 10.95,-1.08 12.8,-2.68 1.85,-1.61 2.75,-5.57 2.75,-11.85l0 -14.54c0,-6.68 -0.82,-10.71 -2.48,-12.15 -1.65,-1.41 -6.01,-2.19 -13.07,-2.39z"/>
   <path id="_3" class="fil1" d="M500.06 875.21c0,15.62 -0.44,26.65 -1.34,33.13 -0.86,6.52 -3.61,12.45 -8.24,17.81 -4.63,5.37 -10.92,9.5 -18.81,12.38 -7.89,2.88 -17.08,4.32 -27.56,4.32 -9.97,0 -18.88,-1.38 -26.82,-4.09 -7.93,-2.72 -14.33,-6.78 -19.12,-12.21 -4.83,-5.43 -7.69,-11.36 -8.64,-17.74 -0.9,-6.42 -1.37,-17.62 -1.37,-33.6l0 -26.59c0,-15.62 0.43,-26.65 1.34,-33.14 0.86,-6.51 3.62,-12.44 8.25,-17.81 4.63,-5.37 10.91,-9.5 18.81,-12.38 7.89,-2.88 17.08,-4.32 27.56,-4.32 9.97,0 18.88,1.37 26.82,4.09 7.94,2.72 14.33,6.78 19.13,12.21 4.83,5.44 7.69,11.37 8.63,17.75 0.9,6.42 1.38,17.61 1.38,33.6l0 26.59zm-48.53 -51.05c0,-7.2 -0.48,-11.82 -1.42,-13.85 -0.94,-2 -2.86,-3.01 -5.78,-3.01 -2.47,0 -4.35,0.82 -5.69,2.46 -1.29,1.61 -1.96,6.42 -1.96,14.41l0 72.52c0,9.01 0.44,14.58 1.3,16.67 0.87,2.13 2.87,3.17 6.01,3.17 3.21,0 5.3,-1.21 6.2,-3.63 0.9,-2.43 1.34,-8.22 1.34,-17.36l0 -71.38z"/>
   <path id="_4" class="fil1" d="M631.36 851.9l-48.53 0 0 -26.98c0,-7.86 -0.51,-12.74 -1.53,-14.71 -1.02,-1.93 -3.3,-2.91 -6.79,-2.91 -3.93,0 -6.44,1.18 -7.5,3.54 -1.06,2.39 -1.61,7.5 -1.61,15.36l0 72.1c0,7.56 0.55,12.48 1.61,14.8 1.06,2.29 3.46,3.44 7.15,3.44 3.57,0 5.93,-1.15 7.03,-3.47 1.1,-2.29 1.65,-7.72 1.65,-16.27l0 -19.55 48.53 0 0 6.06c0,16.11 -1.37,27.54 -4.08,34.25 -2.71,6.75 -8.75,12.64 -18.06,17.71 -9.35,5.08 -20.81,7.6 -34.47,7.6 -14.18,0 -25.88,-2.13 -35.11,-6.42 -9.19,-4.29 -15.31,-10.22 -18.3,-17.81 -2.98,-7.6 -4.48,-19 -4.48,-34.22l0 -45.38c0,-11.2 0.47,-19.58 1.38,-25.18 0.94,-5.6 3.65,-11 8.24,-16.17 4.56,-5.18 10.88,-9.27 18.96,-12.25 8.09,-2.98 17.39,-4.45 27.92,-4.45 14.25,0 26.03,2.29 35.33,6.91 9.27,4.59 15.35,10.32 18.3,17.19 2.91,6.88 4.36,17.55 4.36,32.06l0 14.77z"/>
   <polygon id="_5" class="fil1" points="756.61,939.52 716.09,939.52 716.09,868.82 690.88,939.52 648.71,939.52 648.71,784.11 689.23,784.11 689.23,854.25 716.32,784.11 756.61,784.11 "/>
   <path id="_6" class="fil1" d="M889 903.17c0,11.56 -1.8,19.88 -5.42,24.92 -3.57,5.07 -9.07,8.22 -16.37,9.49 -7.35,1.28 -19.01,1.93 -35.03,1.93l-56.03 0 0 -155.41 94.93 0 0 26.92 -46.41 0 0 26.33 7.5 0c14.92,0 26.27,0.72 33.93,2.19 7.65,1.47 13.38,4.72 17.2,9.76 3.81,5.01 5.69,12.9 5.69,23.64l0 30.22zm-48.53 -4.68l0 -22.46c0,-6.55 -0.79,-10.51 -2.36,-11.92 -1.57,-1.41 -6.05,-2.19 -13.43,-2.39l0 51.08c6.16,0 10.33,-0.65 12.49,-1.96 2.19,-1.31 3.3,-5.43 3.3,-12.35z"/>
   <polygon id="_7" class="fil1" points="1014.06,939.52 973.54,939.52 973.54,868.82 948.33,939.52 906.17,939.52 906.17,784.11 946.68,784.11 946.68,854.25 973.77,784.11 1014.06,784.11 "/>
   <path id="_8" class="fil1" d="M1033.61 784.11l48.81 0c13.19,0 23.32,0.85 30.43,2.59 7.07,1.74 12.41,4.23 15.98,7.47 3.57,3.27 5.97,7.24 7.26,11.85 1.25,4.65 1.88,11.82 1.88,21.55l0 13.52c0,9.89 -1.22,17.13 -3.69,21.65 -2.43,4.55 -6.95,8.06 -13.47,10.48 -6.56,2.42 -15.12,3.64 -25.68,3.64l-13 0 0 62.67 -48.53 0 0 -155.41zm48.53 26.52l0 39.59c1.38,0.07 2.56,0.1 3.54,0.1 4.43,0 7.5,-0.92 9.23,-2.75 1.69,-1.8 2.56,-5.6 2.56,-11.36l0 -12.8c0,-5.3 -0.98,-8.77 -2.99,-10.38 -1.96,-1.6 -6.09,-2.39 -12.33,-2.39z"/>
   <path id="_9" class="fil1" d="M1264.95 851.9l-48.53 0 0 -26.98c0,-7.86 -0.51,-12.74 -1.53,-14.71 -1.02,-1.93 -3.3,-2.91 -6.79,-2.91 -3.93,0 -6.44,1.18 -7.5,3.54 -1.06,2.39 -1.61,7.5 -1.61,15.36l0 72.1c0,7.56 0.55,12.48 1.61,14.8 1.06,2.29 3.46,3.44 7.15,3.44 3.57,0 5.93,-1.15 7.03,-3.47 1.1,-2.29 1.65,-7.72 1.65,-16.27l0 -19.55 48.53 0 0 6.06c0,16.11 -1.37,27.54 -4.08,34.25 -2.71,6.75 -8.75,12.64 -18.06,17.71 -9.35,5.08 -20.81,7.6 -34.47,7.6 -14.18,0 -25.88,-2.13 -35.11,-6.42 -9.19,-4.29 -15.31,-10.22 -18.3,-17.81 -2.98,-7.6 -4.48,-19 -4.48,-34.22l0 -45.38c0,-11.2 0.47,-19.58 1.38,-25.18 0.94,-5.6 3.65,-11 8.24,-16.17 4.56,-5.18 10.88,-9.27 18.96,-12.25 8.09,-2.98 17.39,-4.45 27.92,-4.45 14.25,0 26.03,2.29 35.33,6.91 9.27,4.59 15.35,10.32 18.3,17.19 2.91,6.88 4.36,17.55 4.36,32.06l0 14.77z"/>
   <path id="_10" class="fil1" d="M1282.31 784.11l48.53 0 0.23 65.62c9,-0.2 13.63,-4.42 13.94,-12.68l0.9 -30.32c0.32,-11.16 2.91,-18.73 7.77,-22.63l44.76 0c-4.32,3.77 -6.44,11.59 -6.36,23.41l0.23 26.65c0.17,16.11 -10.71,25.31 -32.67,27.54 21.95,2.22 32.83,11.56 32.67,27.93l-0.23 24.72c-0.08,11.79 2.04,20.17 6.36,25.15l-44.76 0c-5.18,-3.9 -7.77,-11.46 -7.77,-22.66l0 -30.29c0,-3.86 -1.37,-6.94 -4.12,-9.27 -2.79,-2.33 -6.36,-3.54 -10.72,-3.6l-0.23 65.81 -48.53 0 0 -155.41z"/>
  </g>
 </g>
</svg>
