<svg width="82" height="20" viewBox="0 0 82 20" fill="none" xmlns="http://www.w3.org/2000/svg">
<mask id="path-1-inside-1_1787_1525" fill="white">
<path d="M80.7935 0.728638C81.1071 0.728638 81.3617 0.982518 81.3619 1.29602V12.6388L69.1461 19.4454H1.23297C0.919305 19.4454 0.664612 19.1907 0.664612 18.8771V1.29602C0.664804 0.982518 0.919424 0.728638 1.23297 0.728638H80.7935Z"/>
</mask>
<path d="M81.3619 1.29602L82.7027 1.29602L82.7027 1.2952L81.3619 1.29602ZM81.3619 12.6388L82.0145 13.8101L82.7027 13.4266V12.6388H81.3619ZM69.1461 19.4454V20.7863H69.4944L69.7987 20.6167L69.1461 19.4454ZM0.664612 1.29602L-0.676222 1.2952V1.29602H0.664612ZM80.7935 0.728638V2.06947C80.3687 2.06947 80.0213 1.7254 80.021 1.29684L81.3619 1.29602L82.7027 1.2952C82.7021 0.239634 81.8454 -0.612196 80.7935 -0.612196V0.728638ZM81.3619 1.29602H80.021V12.6388H81.3619H82.7027V1.29602H81.3619ZM81.3619 12.6388L80.7092 11.4675L68.4934 18.2742L69.1461 19.4454L69.7987 20.6167L82.0145 13.8101L81.3619 12.6388ZM69.1461 19.4454V18.1046H1.23297V19.4454V20.7863H69.1461V19.4454ZM1.23297 19.4454V18.1046C1.65983 18.1046 2.00545 18.4502 2.00545 18.8771H0.664612H-0.676222C-0.676222 19.9313 0.178783 20.7863 1.23297 20.7863V19.4454ZM0.664612 18.8771H2.00545V1.29602H0.664612H-0.676222V18.8771H0.664612ZM0.664612 1.29602L2.00544 1.29684C2.00518 1.7254 1.65776 2.06947 1.23297 2.06947V0.728638V-0.612196C0.181085 -0.612196 -0.675573 0.239634 -0.676221 1.2952L0.664612 1.29602ZM1.23297 0.728638V2.06947H80.7935V0.728638V-0.612196H1.23297V0.728638Z" fill="#FDA215" mask="url(#path-1-inside-1_1787_1525)"/>
<path d="M26.0767 11.4847L26.17 11.5706C26.1053 11.6951 26.0481 11.822 25.9983 11.9514C25.7095 12.1033 25.4308 12.2103 25.1619 12.2725C24.8956 12.3372 24.5882 12.3696 24.2397 12.3696C23.5876 12.3696 23.0362 12.2551 22.5857 12.0261C22.1352 11.7971 21.7879 11.4748 21.544 11.0591C21.3026 10.6434 21.1818 10.1667 21.1818 9.62908C21.1818 8.85497 21.4556 8.22148 22.0032 7.72864C22.5533 7.2333 23.3113 6.98563 24.2771 6.98563C24.5982 6.98563 24.9155 7.01426 25.2291 7.07151C25.5453 7.12876 25.8589 7.21588 26.17 7.33287L26.1962 7.38887C26.1514 7.52328 26.1203 7.65272 26.1028 7.77717C26.0705 7.99373 26.0456 8.26255 26.0282 8.58365H25.7145C25.6996 8.19037 25.6847 7.97506 25.6697 7.93772C25.6548 7.8979 25.5863 7.83194 25.4644 7.73984C25.3424 7.64525 25.1769 7.56933 24.9678 7.51208C24.7612 7.45234 24.5322 7.42247 24.2808 7.42247C23.6834 7.42247 23.208 7.60667 22.8545 7.97506C22.5036 8.34345 22.3281 8.85621 22.3281 9.51334C22.3281 10.2252 22.5396 10.8015 22.9628 11.242C23.3536 11.6503 23.89 11.8544 24.572 11.8544C24.8359 11.8544 25.0823 11.827 25.3113 11.7722C25.5428 11.7175 25.7979 11.6216 26.0767 11.4847ZM26.6013 12.2949V11.9813C26.905 11.9589 27.0755 11.939 27.1129 11.9216C27.1402 11.9091 27.1602 11.8929 27.1726 11.873C27.1975 11.8382 27.2174 11.7635 27.2323 11.649C27.2597 11.4524 27.2747 11.089 27.2771 10.5588L27.2809 9.15117C27.2809 8.70313 27.2734 8.32852 27.2585 8.02733C27.246 7.72615 27.2274 7.55066 27.2025 7.50088C27.1875 7.46852 27.1626 7.44363 27.1278 7.42621C27.0755 7.40132 26.9 7.38265 26.6013 7.3702V7.05657C27.0494 7.074 27.4489 7.08271 27.7999 7.08271C28.2205 7.08271 28.6188 7.074 28.9946 7.05657V7.3702C28.681 7.3926 28.4993 7.41999 28.4495 7.45234C28.4022 7.4847 28.3736 7.56311 28.3636 7.68757C28.3512 7.84438 28.3437 8.47164 28.3412 9.56934H28.3935C28.6449 9.36772 29.0071 9.03045 29.48 8.55751C29.953 8.08209 30.3189 7.68632 30.5777 7.3702L30.5815 7.23206L30.5777 7.09391L30.6113 7.05657C30.8826 7.074 31.1141 7.08271 31.3058 7.08271C31.5074 7.08271 31.7339 7.074 31.9853 7.05657V7.3702L31.7725 7.3926C31.6032 7.41003 31.4937 7.4287 31.4439 7.44861C31.3444 7.49341 31.2112 7.58551 31.0444 7.7249C30.7955 7.9315 30.4806 8.21526 30.0998 8.57618L29.4352 9.20344L29.7787 9.62535C30.1844 10.1232 30.6686 10.6882 31.2311 11.3204C31.5547 11.6839 31.7489 11.8842 31.8136 11.9216C31.8584 11.9465 31.9766 11.9664 32.1683 11.9813V12.2949L31.9704 12.2875L31.3058 12.2688C31.1266 12.2688 30.8951 12.2775 30.6113 12.2949C30.4097 12.0361 30.0687 11.6216 29.5883 11.0516C29.2299 10.6235 28.8876 10.2352 28.5615 9.88671C28.5192 9.8419 28.4894 9.81577 28.4719 9.8083C28.457 9.80332 28.4421 9.80083 28.4271 9.80083C28.3898 9.80083 28.3636 9.81577 28.3487 9.84564C28.3412 9.86555 28.3375 9.96511 28.3375 10.1443L28.3524 11.2756C28.3574 11.6067 28.3711 11.7971 28.3935 11.8469C28.4085 11.8817 28.4333 11.9066 28.4682 11.9216C28.518 11.944 28.6935 11.9639 28.9946 11.9813V12.2949C28.6263 12.2775 28.218 12.2688 27.77 12.2688C27.5435 12.2688 27.1539 12.2775 26.6013 12.2949ZM32.4428 11.9552C32.6768 11.9427 32.8211 11.9191 32.8759 11.8842C32.9132 11.8593 32.9717 11.7648 33.0514 11.6005C33.2032 11.2769 33.3974 10.8276 33.6338 10.2526L34.9555 7.0155H35.5044L37.192 11.0255C37.4111 11.5457 37.5455 11.8307 37.5953 11.8805C37.6475 11.9303 37.8056 11.9639 38.0694 11.9813V12.2949C37.6637 12.2775 37.2804 12.2688 36.9195 12.2688C36.4888 12.2688 36.0794 12.2775 35.6911 12.2949V11.9813C35.9873 11.9689 36.1578 11.9527 36.2026 11.9328C36.2499 11.9104 36.2735 11.8718 36.2735 11.817C36.2735 11.7697 36.2213 11.6079 36.1167 11.3316L35.8703 10.6932C35.5616 10.6882 35.2169 10.6857 34.8361 10.6857C34.505 10.6857 34.2038 10.6882 33.9325 10.6932L33.7682 11.1226C33.7234 11.2395 33.6687 11.4138 33.604 11.6453C33.589 11.6975 33.5816 11.7448 33.5816 11.7872C33.5816 11.8444 33.6052 11.8855 33.6525 11.9104C33.7023 11.9328 33.8778 11.9564 34.1789 11.9813V12.2949C33.935 12.2775 33.6313 12.2688 33.2679 12.2688C32.9219 12.2688 32.6469 12.2775 32.4428 12.2949V11.9552ZM34.8921 8.33723L34.1043 10.2526C34.3333 10.2651 34.5859 10.2713 34.8622 10.2713C35.1509 10.2713 35.4272 10.2651 35.6911 10.2526L34.8921 8.33723ZM42.1299 9.55068C42.1299 8.28869 42.1125 7.61289 42.0776 7.52328C42.0428 7.43119 41.8312 7.38016 41.4429 7.3702V7.05657C41.4479 7.05657 41.5201 7.05906 41.6595 7.06404C42.1224 7.07649 42.4647 7.08271 42.6862 7.08271C43.0969 7.08271 43.4989 7.074 43.8922 7.05657V7.3702C43.5562 7.38265 43.3558 7.41376 43.2911 7.46354C43.2264 7.51333 43.194 8.10325 43.194 9.23331C43.194 9.27314 43.1977 9.56685 43.2052 10.1145L43.2164 11.3204C43.2189 11.5743 43.2276 11.7287 43.2425 11.7834C43.26 11.8357 43.2799 11.8718 43.3023 11.8917C43.3247 11.9091 43.3595 11.9241 43.4068 11.9365C43.4566 11.9489 43.6184 11.9639 43.8922 11.9813V12.2949C43.83 12.2949 43.6918 12.2912 43.4778 12.2837C43.1666 12.2738 42.9289 12.2688 42.7646 12.2688C42.3838 12.2688 41.9432 12.2775 41.4429 12.2949V11.9813C41.7764 11.9664 41.9669 11.939 42.0142 11.8992C42.0614 11.8593 42.0926 11.6702 42.1075 11.3316C42.1224 10.9931 42.1299 10.5488 42.1299 9.99872C41.5026 10.4268 40.9351 10.6409 40.4273 10.6409C39.9669 10.6409 39.5748 10.514 39.2512 10.2601C38.9301 10.0062 38.7696 9.6017 38.7696 9.04663L38.7771 8.10947C38.7771 7.7361 38.7571 7.52453 38.7173 7.47475C38.6775 7.42247 38.4821 7.38763 38.1311 7.3702V7.05657C38.6016 7.07649 38.9861 7.08644 39.2848 7.08644C39.7453 7.08644 40.1685 7.07649 40.5543 7.05657V7.3702C40.2008 7.3702 39.9967 7.41252 39.942 7.49715C39.8897 7.57929 39.8636 7.9763 39.8636 8.68819C39.8636 9.57432 40.2195 10.0174 40.9314 10.0174C41.3869 10.0174 41.7864 9.86182 42.1299 9.55068ZM44.3048 11.9552C44.5388 11.9427 44.6832 11.9191 44.738 11.8842C44.7753 11.8593 44.8338 11.7648 44.9134 11.6005C45.0653 11.2769 45.2594 10.8276 45.4959 10.2526L46.8176 7.0155H47.3665L49.0541 11.0255C49.2731 11.5457 49.4076 11.8307 49.4573 11.8805C49.5096 11.9303 49.6677 11.9639 49.9315 11.9813V12.2949C49.5258 12.2775 49.1425 12.2688 48.7815 12.2688C48.3509 12.2688 47.9415 12.2775 47.5532 12.2949V11.9813C47.8494 11.9689 48.0199 11.9527 48.0647 11.9328C48.112 11.9104 48.1356 11.8718 48.1356 11.817C48.1356 11.7697 48.0833 11.6079 47.9788 11.3316L47.7324 10.6932C47.4237 10.6882 47.079 10.6857 46.6981 10.6857C46.3671 10.6857 46.0659 10.6882 45.7946 10.6932L45.6303 11.1226C45.5855 11.2395 45.5307 11.4138 45.466 11.6453C45.4511 11.6975 45.4436 11.7448 45.4436 11.7872C45.4436 11.8444 45.4673 11.8855 45.5146 11.9104C45.5643 11.9328 45.7398 11.9564 46.041 11.9813V12.2949C45.7971 12.2775 45.4934 12.2688 45.13 12.2688C44.784 12.2688 44.509 12.2775 44.3048 12.2949V11.9552ZM46.7541 8.33723L45.9663 10.2526C46.1953 10.2651 46.448 10.2713 46.7243 10.2713C47.013 10.2713 47.2893 10.2651 47.5532 10.2526L46.7541 8.33723ZM51.2253 12.2949V11.9813C51.3672 11.9813 51.5153 11.9689 51.6696 11.944C51.7418 11.9315 51.7928 11.9116 51.8227 11.8842C51.8526 11.8544 51.875 11.8008 51.8899 11.7237C51.9073 11.6166 51.9223 11.2234 51.9347 10.5438C51.9422 10.0609 51.9459 9.5681 51.9459 9.0653C51.9459 8.07711 51.9422 7.57431 51.9347 7.55689C51.9297 7.53697 51.8426 7.52702 51.6734 7.52702C51.3274 7.52702 51.0299 7.53697 50.781 7.55689C50.6366 7.56933 50.5545 7.58178 50.5346 7.59422C50.5172 7.60667 50.5035 7.62907 50.4935 7.66143C50.4835 7.6913 50.4624 7.9091 50.43 8.31483H50.1089C50.1139 7.8394 50.1002 7.42994 50.0679 7.08644L50.1089 7.05657C50.893 7.09142 51.6559 7.10884 52.3977 7.10884C53.137 7.10884 53.9646 7.09142 54.8806 7.05657L54.9217 7.11631C54.8744 7.45732 54.8408 7.85683 54.8208 8.31483H54.511C54.4886 7.89914 54.4661 7.67388 54.4437 7.63903C54.4263 7.61165 54.3865 7.59298 54.3243 7.58302C54.1251 7.55066 53.7294 7.53448 53.137 7.53448C53.0872 7.53448 53.0573 7.54195 53.0473 7.55689C53.0374 7.57431 53.0324 7.64027 53.0324 7.75477L53.01 10.2638C53.01 10.9906 53.0162 11.4374 53.0287 11.6042C53.0411 11.7685 53.071 11.868 53.1183 11.9029C53.1506 11.9253 53.346 11.9514 53.7045 11.9813V12.2949C53.3386 12.2775 52.9503 12.2688 52.5396 12.2688C51.9994 12.2688 51.5613 12.2775 51.2253 12.2949ZM55.5397 12.2949V12.1195C55.689 12.0298 55.7973 11.9527 55.8645 11.888C55.8944 11.6266 55.9093 10.8189 55.9093 9.4648C55.9093 8.2053 55.8769 7.54444 55.8122 7.48221C55.75 7.4175 55.5546 7.38016 55.226 7.3702V7.05657C55.7089 7.07649 56.1047 7.08644 56.4133 7.08644C56.8689 7.08644 57.2883 7.07649 57.6716 7.05657V7.3702C57.3306 7.3926 57.1377 7.42123 57.0929 7.45608C57.0481 7.49093 57.017 7.59796 56.9995 7.77717C56.9846 7.9539 56.9771 8.43306 56.9771 9.21464C57.0618 9.21464 57.1688 9.21215 57.2982 9.20718C57.4252 9.2022 57.5222 9.19971 57.5895 9.19971C58.3088 9.19971 58.829 9.33537 59.1501 9.60668C59.4712 9.87551 59.6318 10.214 59.6318 10.6222C59.6318 10.9508 59.5409 11.2395 59.3592 11.4885C59.1775 11.7374 58.946 11.934 58.6648 12.0784C58.3835 12.2203 57.9616 12.2912 57.399 12.2912C57.2895 12.2912 57.1252 12.2875 56.9062 12.28C56.7095 12.2725 56.5677 12.2688 56.4805 12.2688C56.2615 12.2688 55.9479 12.2775 55.5397 12.2949ZM56.9809 11.8693C57.1103 11.9066 57.2435 11.9253 57.3804 11.9253C58.1147 11.9253 58.4818 11.5208 58.4818 10.7119C58.4818 10.4679 58.437 10.2601 58.3474 10.0883C58.2578 9.91409 58.1333 9.79212 57.974 9.72242C57.8172 9.65024 57.6081 9.61415 57.3468 9.61415L56.9771 9.61788C56.9722 9.78216 56.9697 10.219 56.9697 10.9284C56.9697 11.3914 56.9734 11.705 56.9809 11.8693Z" fill="#FDA215"/>
</svg>
