<svg width="162" height="38" viewBox="0 0 162 38" fill="none" xmlns="http://www.w3.org/2000/svg">
<mask id="path-1-inside-1_395_27988" fill="white">
<path d="M160.363 0.566895C160.989 0.566895 161.497 1.07508 161.497 1.70166V24.3579L137.094 37.9556H1.43103C0.804449 37.9556 0.296265 37.4474 0.296265 36.8208V1.70166C0.296265 1.07508 0.804449 0.566895 1.43103 0.566895H160.363Z"/>
</mask>
<path d="M161.497 24.3579L162.801 26.6977L164.176 25.9317V24.3579H161.497ZM137.094 37.9556V40.634H137.79L138.398 40.2953L137.094 37.9556ZM160.363 0.566895V3.24535C159.51 3.24535 158.819 2.55435 158.819 1.70166H161.497H164.176C164.176 -0.40419 162.469 -2.11156 160.363 -2.11156V0.566895ZM161.497 1.70166H158.819V24.3579H161.497H164.176V1.70166H161.497ZM161.497 24.3579L160.194 22.0182L135.79 35.6158L137.094 37.9556L138.398 40.2953L162.801 26.6977L161.497 24.3579ZM137.094 37.9556V35.2771H1.43103V37.9556V40.634H137.094V37.9556ZM1.43103 37.9556V35.2771C2.28372 35.2771 2.97472 35.9681 2.97472 36.8208H0.296265H-2.38219C-2.38219 38.9267 -0.67482 40.634 1.43103 40.634V37.9556ZM0.296265 36.8208H2.97472V1.70166H0.296265H-2.38219V36.8208H0.296265ZM0.296265 1.70166H2.97472C2.97472 2.55435 2.28372 3.24535 1.43103 3.24535V0.566895V-2.11156C-0.67482 -2.11156 -2.38219 -0.40419 -2.38219 1.70166H0.296265ZM1.43103 0.566895V3.24535H160.363V0.566895V-2.11156H1.43103V0.566895Z" fill="#FDA215" mask="url(#path-1-inside-1_395_27988)"/>
</svg>
