<svg width="50" height="44" viewBox="0 0 50 44" fill="none" xmlns="http://www.w3.org/2000/svg">
<path d="M2.11784 0.50951C1.53069 0.930508 1.53069 0.930508 1.60408 5.67229C1.62855 8.26476 1.72641 10.5692 1.7998 10.7686C1.87319 10.9902 1.7998 11.3669 1.65301 11.6106C1.4573 11.943 1.4573 12.2753 1.65301 12.8071C1.94659 13.6048 1.97105 16.4853 1.75087 19.6982C1.53069 22.7117 1.50623 25.8802 1.70194 26.124C1.7998 26.2569 1.70194 26.8109 1.50623 27.3427C1.28604 27.8966 1.13926 28.9823 1.16372 29.8687C1.21265 32.3282 0.968005 35.4968 0.674431 36.6933C0.429785 37.5353 0.454249 37.8455 0.674431 38.0892C0.894612 38.333 0.943541 38.9534 0.821218 40.305L0.649966 42.1663L1.40837 42.5208C1.84873 42.7202 2.24016 42.8532 2.28909 42.8088C2.33802 42.7645 2.43588 38.0449 2.50927 32.306C2.58267 26.5893 2.77838 21.0277 2.90071 19.9419C3.09642 18.5017 3.09642 16.7512 2.87624 13.5162C2.72945 11.0566 2.6316 7.31197 2.68053 5.18481L2.75392 1.30719L4.24626 1.1964C5.05359 1.12993 8.74774 1.15208 12.4419 1.24072C29.9585 1.6174 38.1052 1.70603 38.1052 1.48446C38.1052 0.996983 37.0043 0.908348 29.5426 0.841877C25.3103 0.797562 20.5641 0.708931 19.0229 0.642456C17.4816 0.553825 13.2981 0.48735 9.72632 0.443035C6.15449 0.420876 3.12089 0.332245 2.9741 0.243614C2.80285 0.154984 2.43588 0.28793 2.11784 0.50951Z" fill="#FDA215"/>
<path d="M39.8178 1.3958C39.8178 1.50659 41.6282 1.66169 43.8055 1.75032L47.8177 1.90543L47.94 6.15974C48.0134 8.48631 48.0623 11.1674 48.0379 12.098C48.0134 13.3832 48.0623 13.7377 48.2825 13.5826C48.4782 13.4275 48.625 13.4275 48.7229 13.5826C48.9675 13.9371 48.6006 16.0865 48.2336 16.6404C47.94 17.0392 47.8911 19.3437 47.8911 29.5141V41.9003L47.1816 42.0333C46.7902 42.0998 46.0562 42.0555 45.5669 41.9447C45.0532 41.8117 44.1725 41.7674 43.6342 41.8339C43.0716 41.9003 42.3132 41.9447 41.8973 41.9225C40.0869 41.8339 35.9034 42.1662 35.9034 42.41C35.9034 42.9418 36.8086 43.0526 40.9921 43.0304C44.0746 43.0082 45.5669 43.0969 45.7382 43.252C46.1052 43.5843 47.7932 43.6065 48.0134 43.2963C48.0868 43.1633 48.3804 43.0747 48.625 43.0747C48.992 43.0747 49.1143 42.8531 49.2366 41.7896C49.31 41.1027 49.4323 40.2607 49.4813 39.9283C49.5302 39.5959 49.4813 39.2636 49.359 39.1971C49.2366 39.1306 49.1143 37.8898 49.1143 36.4717C49.1143 33.3696 48.9431 28.5835 48.7718 26.0796C48.6984 25.0825 48.7229 24.019 48.8697 23.7088C49.1388 23.0662 49.2122 12.3639 48.992 7.95452C48.9186 6.35916 48.8452 4.20984 48.8452 3.12411V1.19638H44.3437C41.8483 1.19638 39.8178 1.28501 39.8178 1.3958Z" fill="#FDA215"/>
<path d="M3.78151 2.52582C3.63472 2.83603 3.48793 3.36782 3.46347 3.7445C3.19436 7.22328 3.19436 10.1481 3.39007 14.7348C3.78151 23.4871 3.68365 39.7953 3.21882 40.4379C3.14543 40.5709 3.14543 40.726 3.24328 40.8146C3.439 40.9918 17.5306 40.9032 18.7049 40.7038C19.3899 40.6152 19.4878 40.5044 19.3654 40.1055C19.0963 39.1084 20.7599 38.4215 23.0107 38.5988C24.3807 38.7096 24.4785 38.9533 23.2798 39.4186C22.8149 39.5959 22.1544 39.9283 21.8119 40.172L21.2003 40.6152L26.2889 40.7038C29.0779 40.7703 34.6313 40.9032 38.5946 41.0362C42.5579 41.1691 46.0074 41.2356 46.2765 41.1691C46.6924 41.0362 46.7168 40.8811 46.5945 39.5516C46.3743 37.4909 46.3743 12.6076 46.57 7.33407L46.7413 2.96898L44.9309 2.92466C43.9279 2.9025 42.5823 2.83603 41.8973 2.79171C40.1359 2.68092 39.7444 2.68092 34.1176 2.72524C31.3286 2.74739 28.9066 2.70308 28.7598 2.61445C28.5397 2.4815 14.5704 2.23777 10.338 2.30424C9.79979 2.30424 8.96799 2.30424 8.50317 2.3264C8.03834 2.3264 6.83958 2.23777 5.83653 2.14913C4.07508 1.97187 4.05062 1.97187 3.78151 2.52582ZM7.05976 2.96898C7.57351 3.23487 7.67137 4.07687 7.23101 4.47571C7.01083 4.67513 7.01083 4.80807 7.20655 4.98534C7.52458 5.27339 13.6897 5.76086 20.6376 6.04892C23.0841 6.15971 25.2125 6.31481 25.3593 6.38128C25.5305 6.46991 25.8241 6.4256 26.0198 6.27049C26.2889 6.07107 28.3684 5.98244 34.509 5.98244L42.6312 5.96029L42.7046 5.40634C42.9004 4.23197 44.2214 3.67802 45.0532 4.43139C45.9829 5.25123 44.9554 6.73581 43.2429 7.06818C42.3377 7.24544 41.7995 7.99881 40.4539 10.8129C38.8637 14.203 34.827 25.9467 33.9219 29.8908C33.1145 33.436 32.6986 34.832 32.2338 35.6518C31.72 36.5381 31.8668 36.7154 32.8699 36.4273C33.2613 36.3387 33.3836 36.2279 33.1635 36.2279C32.6252 36.2058 32.6008 35.7183 33.1145 34.832C33.6038 33.99 34.0686 34.278 33.7261 35.2308C33.4815 35.8734 33.4815 35.8734 33.8485 35.3859C34.3867 34.699 34.6803 34.7433 34.6803 35.4745V36.095L35.1696 35.541C35.5121 35.12 35.7078 35.0535 35.9035 35.2308C36.5151 35.7848 36.0747 36.3165 34.9249 36.4495C33.8974 36.5824 33.9219 36.5824 35.4142 36.6268C38.1542 36.6711 43.4141 37.2915 44.4661 37.6682C45.4691 38.0449 45.934 38.5323 45.934 39.2192C45.934 40.3936 43.83 40.8811 43.0961 39.8618C42.8759 39.5516 42.7536 39.1084 42.827 38.8869C42.9248 38.488 42.778 38.4437 41.1878 38.3329C40.2337 38.2664 35.6099 38.1556 30.8883 38.0892C26.1911 38.0449 21.5917 37.8898 20.711 37.7568C18.9495 37.5352 11.9527 37.8011 9.97104 38.2C9.35943 38.3107 8.79674 38.3994 8.72335 38.4215C8.62549 38.4215 8.50317 38.7096 8.42977 39.0641C8.33192 39.5073 8.06281 39.7732 7.54905 39.9283C6.10564 40.3936 4.93134 38.7982 6.00778 37.8898C6.88851 37.1807 11.7814 36.2944 16.0627 36.0728C17.7018 35.9842 19.0229 35.8512 19.0229 35.7404C19.0229 35.0979 16.6499 25.8802 15.9649 23.9081C15.5 22.5565 15.0597 21.1606 14.9863 20.806C14.4481 18.6124 11.4634 10.2589 10.4603 8.13175C9.77533 6.66933 9.7264 6.62502 8.69888 6.44776C6.49707 6.09323 5.54295 5.78302 5.07813 5.22908C3.8549 3.85529 5.34724 2.14913 7.05976 2.96898ZM20.2462 3.96608C20.8333 4.52002 21.4694 4.96318 21.6406 4.96318C21.8119 4.96318 21.9587 5.11829 21.9587 5.31771C21.9587 5.53928 21.8119 5.62791 21.5428 5.56144C21.2981 5.49497 20.711 5.38418 20.2217 5.31771C19.2187 5.1626 18.0444 4.43139 18.0444 3.96608C18.0444 3.65587 18.6804 2.96898 18.9985 2.96898C19.0963 2.96898 19.659 3.41213 20.2462 3.96608ZM9.99551 3.72234C10.2891 4.27629 11.1453 4.7416 11.9282 4.7416C12.1973 4.7416 12.4175 4.83023 12.4175 4.96318C12.4175 5.25123 10.8273 5.25123 9.67747 4.94102C8.74781 4.71944 8.23406 3.96608 8.62549 3.43429C8.8946 2.99113 9.7264 3.1684 9.99551 3.72234ZM14.6927 3.72234C14.9129 3.98824 15.6958 4.45355 16.4542 4.7416C18.0199 5.31771 17.9954 5.82734 16.4297 5.4285C15.8915 5.29555 15.1331 5.18476 14.7416 5.18476C13.7631 5.18476 12.9068 4.63081 12.9068 3.96608C12.9068 3.07976 14.1056 2.9025 14.6927 3.72234ZM24.821 3.78881C25.0412 4.09903 25.7996 4.60865 26.4846 4.89671L27.7079 5.40634L26.24 5.33986C23.9403 5.22908 22.8394 4.54218 23.2798 3.50076C23.5 2.99113 24.3562 3.14624 24.821 3.78881ZM30.2277 3.8996C30.399 4.49787 30.5947 4.67513 31.5733 4.94102C32.2093 5.11829 32.7231 5.33986 32.7231 5.45065C32.7231 5.93813 29.5182 5.4285 28.7598 4.78592C27.9525 4.14334 28.3684 3.19055 29.4693 3.19055C29.8852 3.19055 30.0565 3.36782 30.2277 3.8996ZM35.2919 4.05471C35.3653 4.29845 35.6344 4.56434 35.9035 4.63081C36.1481 4.69728 36.4906 4.91887 36.6864 5.11829C36.9799 5.4285 36.8821 5.47281 35.7078 5.36202C34.7292 5.27339 34.2399 5.09613 33.7751 4.69728L33.1635 4.12118L33.6772 3.65587C34.0931 3.27918 34.3133 3.23487 34.6803 3.41213C34.9249 3.52292 35.194 3.83313 35.2919 4.05471ZM16.8211 3.63371C16.8211 3.7445 16.7233 3.85529 16.5765 3.85529C16.4542 3.85529 16.3318 3.7445 16.3318 3.63371C16.3318 3.50076 16.4542 3.41213 16.5765 3.41213C16.7233 3.41213 16.8211 3.50076 16.8211 3.63371ZM39.9157 4.18766C40.405 4.60865 40.9921 4.96318 41.2612 4.96318C41.9952 4.96318 42.093 5.33986 41.408 5.49497C40.7475 5.65007 38.9371 5.45065 38.301 5.1626C37.7383 4.89671 37.5182 4.12118 37.8607 3.7445C38.3499 3.21271 39.0105 3.36782 39.9157 4.18766ZM5.4451 6.75797C5.4451 6.91307 5.24938 7.09034 5.0292 7.13465C4.58884 7.20112 4.41758 6.73581 4.76009 6.4256C5.00473 6.20402 5.4451 6.40344 5.4451 6.75797ZM6.25243 7.44486C6.10564 7.8437 5.56742 7.91018 5.56742 7.53349C5.56742 7.33407 5.73867 7.17897 5.95885 7.17897C6.17903 7.17897 6.30136 7.28976 6.25243 7.44486ZM9.48175 7.95449C9.84872 8.35333 9.62854 8.64138 8.8946 8.77433C8.64996 8.79649 8.23406 9.19533 7.96495 9.61633C7.20655 10.8793 7.45119 13.2502 8.57656 15.466C9.09032 16.4409 9.55514 17.1722 9.62854 17.0835C9.70193 17.0171 9.53068 16.2415 9.23711 15.3331C8.94353 14.4467 8.62549 13.1616 8.57656 12.4969C8.45424 11.3668 8.50317 11.2117 9.26157 10.3475C9.7264 9.83791 10.2402 9.41691 10.4114 9.41691C10.8518 9.39475 10.7784 11.3003 10.3135 11.9651C10.02 12.3639 9.89765 13.0508 9.87318 14.4467C9.84872 16.1307 9.92211 16.5296 10.5337 17.6153C11.3166 19.0777 12.9068 20.7839 13.9098 21.2714C14.6682 21.6037 15.3532 22.6008 15.3532 23.3542C15.3532 23.9746 15.0841 23.9303 13.2004 22.9554C11.3411 22.0026 9.57961 21.36 8.87014 21.36C8.60103 21.36 8.16066 21.5151 7.91602 21.6924C7.15762 22.202 6.79065 22.0912 6.79065 21.3821C6.79065 19.7203 9.43282 19.6538 11.7814 21.2714C12.4175 21.6924 13.0536 22.0026 13.2248 21.9583C13.3961 21.8918 13.2004 21.7367 12.8334 21.6037C11.5368 21.1384 9.62854 19.0999 8.52763 17.0171C7.94048 15.9313 7.32887 14.8013 7.15762 14.4911C6.17903 12.7627 5.71421 10.0152 6.15457 8.77433C6.52154 7.79939 8.82121 7.22328 9.48175 7.95449ZM4.9558 8.30902C4.76009 8.57491 4.09954 8.57491 4.09954 8.30902C4.09954 8.06528 4.63777 7.86586 4.90688 7.99881C5.00473 8.04312 5.0292 8.19823 4.9558 8.30902ZM44.8086 8.19823C45.2734 8.39765 45.7627 8.81865 45.9095 9.1067C46.2765 9.86007 46.2275 11.5662 45.7872 12.6076C45.5915 13.0951 45.3468 13.6934 45.2734 13.9371C45.2 14.1808 44.4906 15.599 43.7077 17.0835C42.4845 19.3436 42.0686 19.9419 40.8698 20.8947C40.1114 21.5151 39.3285 22.0247 39.1573 22.0247C38.986 22.0247 38.8392 22.1355 38.8392 22.2685C38.8392 22.5787 38.9126 22.5344 40.6252 21.4929C41.6282 20.8725 42.3621 20.6066 43.2184 20.518C44.2948 20.4294 44.4906 20.4958 45.0532 21.0276C46.1786 22.1134 45.5915 22.9997 44.3193 22.1355C43.3896 21.4929 41.7995 21.8475 38.7414 23.4207C36.8087 24.3956 36.3928 24.307 36.9065 22.9997C37.1512 22.4457 37.5671 22.0026 38.2766 21.6037C39.5487 20.8725 40.6496 19.6317 41.5548 17.9255C42.3621 16.3966 42.5089 14.3138 41.9218 12.6741C40.9677 10.0373 41.3102 9.17317 42.6802 10.6134C43.3652 11.3446 43.4875 11.6327 43.4875 12.5855C43.4875 13.2059 43.1939 14.6018 42.8759 15.7097C42.3377 17.5267 42.3377 17.6596 42.7536 17.15C43.5609 16.1972 44.7107 13.2502 44.6863 12.231C44.6618 10.835 44.1725 9.79359 43.2918 9.28396C42.4355 8.77433 42.3132 8.41981 42.9493 8.08744C43.5364 7.77723 43.83 7.79939 44.8086 8.19823ZM12.1729 14.1808C12.1729 14.5797 12.0016 15.3109 11.7814 15.7984C11.4145 16.6404 11.4145 16.7068 12.0505 17.7483C12.4175 18.3244 12.9802 19.0777 13.3227 19.4101C13.6652 19.7203 13.8854 20.1192 13.8364 20.2964C13.6407 20.8282 11.2677 18.3687 10.7294 17.0392C10.1423 15.6654 10.0934 15.0228 10.4603 14.1365C11.0475 12.7627 12.1729 12.7849 12.1729 14.1808ZM41.2857 13.9814C41.7505 14.5132 41.7995 14.8013 41.7016 15.9313C41.5548 17.6375 41.1144 18.4352 39.3041 20.097C38.2521 21.0719 37.7873 21.3821 37.5915 21.2049C37.3958 21.0276 37.616 20.7174 38.4233 20.0527C39.035 19.543 39.6466 18.8118 39.8178 18.413C39.9891 18.0363 40.2337 17.4824 40.3805 17.2165C40.5518 16.8619 40.5518 16.6404 40.3316 16.3966C40.1603 16.1972 39.9646 15.466 39.8912 14.7126C39.7689 13.4718 39.7934 13.3832 40.2582 13.3832C40.5273 13.3832 40.9921 13.6491 41.2857 13.9814ZM6.42368 14.8899C6.69279 15.2887 7.47566 16.3966 8.18513 17.3716C9.55514 19.2772 9.48175 19.6095 7.98941 18.3687C7.45119 17.9477 6.91297 17.5932 6.79065 17.5932C6.64386 17.5932 6.546 17.4602 6.546 17.3051C6.546 16.8398 5.64081 16.1972 5.22491 16.3302C4.44205 16.6182 3.63472 14.4911 4.41758 14.1808C5.15152 13.915 5.93439 14.1808 6.42368 14.8899ZM45.6893 15.7097C45.6893 15.887 45.5915 16.0421 45.4447 16.0421C45.3223 16.0421 45.2 15.887 45.2 15.7097C45.2 15.5325 45.3223 15.3774 45.4447 15.3774C45.5915 15.3774 45.6893 15.5325 45.6893 15.7097ZM45.934 16.9284C45.934 17.0392 45.8361 17.15 45.6893 17.15C45.567 17.15 45.4447 17.0392 45.4447 16.9284C45.4447 16.7955 45.567 16.7068 45.6893 16.7068C45.8361 16.7068 45.934 16.7955 45.934 16.9284ZM5.73867 17.9477C5.7876 18.1028 5.59188 18.1693 5.22491 18.1028C4.88241 18.0363 4.66223 17.8812 4.73562 17.7704C4.93134 17.5045 5.61635 17.6375 5.73867 17.9477ZM6.66832 18.4795C6.74172 18.5903 6.64386 18.701 6.42368 18.701C6.2035 18.701 6.10564 18.5903 6.17903 18.4795C6.25243 18.3465 6.37475 18.2579 6.42368 18.2579C6.47261 18.2579 6.59493 18.3465 6.66832 18.4795ZM46.0074 18.701C46.1052 18.7897 46.0074 19.0777 45.7627 19.3436C45.3957 19.7425 45.0288 19.8533 43.9034 19.8754L42.4845 19.9197L43.463 19.0777C44.2948 18.3908 44.5884 18.2801 45.1266 18.3908C45.5181 18.4795 45.9095 18.6124 46.0074 18.701ZM5.56742 18.9226C5.56742 19.0334 5.46956 19.1442 5.32277 19.1442C5.20045 19.1442 5.07813 19.0334 5.07813 18.9226C5.07813 18.7897 5.20045 18.701 5.32277 18.701C5.46956 18.701 5.56742 18.7897 5.56742 18.9226ZM6.546 23.2434C6.69279 23.8417 6.88851 24.6394 6.9619 25.016C7.03529 25.3706 7.3044 25.9245 7.57351 26.2347C7.81816 26.5449 8.08727 27.2097 8.16066 27.675C8.28299 28.5391 8.28299 28.5613 7.86709 28.0517C7.64691 27.7858 7.3778 27.5642 7.25547 27.5642C6.81511 27.5642 7.05976 28.1846 7.76923 28.805C8.16066 29.1596 8.50317 29.5141 8.50317 29.6027C8.50317 30.0016 7.76923 29.7357 7.27994 29.1817C6.9619 28.805 6.69279 28.6721 6.546 28.805C6.37475 28.9601 6.66832 29.2703 7.40226 29.7578C8.64996 30.5555 8.84567 31.1094 7.86709 31.1094C6.98636 31.1094 5.32277 29.8908 5.32277 29.226C5.32277 28.9601 5.15152 28.6056 4.9558 28.4505C4.66223 28.2289 4.63777 28.096 4.88241 27.8522C5.07813 27.6307 5.07813 27.4756 4.90688 27.3869C4.51544 27.1432 4.63777 24.2627 5.05366 24.1297C5.22491 24.0632 5.32277 23.886 5.24938 23.7309C5.12706 23.4207 5.4451 21.4929 5.73867 20.9168C5.83653 20.6953 5.95885 20.8504 6.05671 21.36C6.17903 21.781 6.37475 22.623 6.546 23.2434ZM43.5364 23.5093C43.4875 24.1076 43.3407 24.6837 43.2429 24.7945C43.1205 24.9274 43.1939 25.1933 43.3652 25.437C43.5854 25.7029 43.6343 25.9688 43.4875 26.2126C43.3652 26.412 42.8514 27.3648 42.3621 28.3397C41.2368 30.5112 40.0135 31.5526 38.5701 31.5526C38.0564 31.5526 37.616 31.4861 37.616 31.3753C37.616 31.2867 38.0074 30.7771 38.4723 30.2453C39.671 28.8937 39.5487 28.8272 38.1053 30.1123C37.4448 30.7106 36.8331 31.1316 36.7598 31.0651C36.6864 30.9987 37.1267 30.068 37.7383 29.0045C38.8392 27.0767 39.0105 26.279 38.0808 27.3426C37.8362 27.6528 37.2735 28.5391 36.8331 29.3368C35.928 31.0208 35.9524 30.9987 35.7812 30.8436C35.7078 30.7771 35.8546 30.201 36.1481 29.5806C36.7108 28.2732 36.7108 28.2289 36.4172 28.2289C36.3194 28.2289 35.9769 28.7164 35.7078 29.3368C35.4142 29.9351 35.0962 30.4447 34.9738 30.4447C34.6313 30.4447 34.4112 29.8243 34.7047 29.647C34.8515 29.5806 34.876 29.226 34.8026 28.8493C34.6558 28.3176 34.7292 28.1846 35.0962 28.096C35.3653 28.0295 35.8301 27.4312 36.2215 26.6557C36.6619 25.7916 37.0289 25.3484 37.298 25.3484C37.5426 25.3484 37.9341 25.0382 38.1787 24.6615C38.5457 24.0632 38.7169 23.9746 39.3041 24.0854C39.7934 24.174 40.1359 24.1076 40.405 23.8195C40.6252 23.5979 41.2368 23.3099 41.775 23.1548C42.2887 23.0218 42.8025 22.8003 42.8759 22.6895C42.9493 22.5565 43.1695 22.4679 43.3407 22.4679C43.5854 22.4679 43.6343 22.7338 43.5364 23.5093ZM12.1729 24.2627C12.1729 24.4621 12.3441 24.7501 12.5398 24.9052C12.76 25.0825 12.8334 25.3927 12.7355 25.8137C12.5888 26.4785 12.8579 26.6336 13.3227 26.2126C13.5429 26.0131 13.6407 26.0796 13.7631 26.5006C13.9588 27.1875 13.3961 28.2732 12.6132 28.7607C11.6836 29.359 11.3655 29.226 11.4878 28.2289C11.5368 27.5863 11.4878 27.3648 11.2921 27.4312C11.0964 27.4977 10.9252 27.1875 10.7784 26.6114L10.5827 25.6808L10.4603 26.8995C10.338 28.096 9.92211 28.4948 9.77533 27.5642C9.62854 26.7222 9.28603 27.3426 9.40836 28.2289C9.50622 28.938 9.45729 29.1152 9.16371 29.1152C8.91907 29.1152 8.74781 28.8272 8.67442 28.2732C8.60103 27.8301 8.4787 27.2318 8.38085 26.9659C8.25852 26.6114 8.33192 26.4563 8.74781 26.3455C9.16371 26.2347 9.21264 26.1461 8.96799 25.8802C8.72335 25.6143 8.79674 25.437 9.33496 24.9274C9.70193 24.595 10.0934 23.9525 10.2402 23.5093L10.4848 22.6895L11.3166 23.2877C11.7814 23.6423 12.1729 24.0632 12.1729 24.2627ZM44.7107 24.5507C44.2948 25.0382 43.9279 24.7501 44.2459 24.1962C44.4416 23.886 44.5884 23.8195 44.7841 23.9968C44.9554 24.1519 44.9309 24.3291 44.7107 24.5507ZM44.4661 25.3484C44.4661 25.4592 44.3682 25.57 44.2214 25.57C44.0991 25.57 43.9768 25.4592 43.9768 25.3484C43.9768 25.2155 44.0991 25.1268 44.2214 25.1268C44.3682 25.1268 44.4661 25.2155 44.4661 25.3484ZM16.0872 25.991C16.0872 26.1018 15.8181 26.3455 15.4756 26.5449C15.1331 26.7443 14.864 26.8108 14.864 26.6779C14.864 26.5671 14.9863 26.4563 15.1086 26.4563C15.2554 26.4563 15.3532 26.3012 15.3532 26.1239C15.3532 25.9467 15.5245 25.7916 15.7202 25.7916C15.9159 25.7916 16.0872 25.8802 16.0872 25.991ZM15.8915 27.1653C15.7202 27.3205 15.5979 27.3426 15.5979 27.2097C15.5979 26.8995 15.8915 26.6336 16.0627 26.7887C16.1116 26.8551 16.0383 27.0324 15.8915 27.1653ZM45.3223 27.3426C46.1297 28.7829 45.4691 30.2453 43.7811 30.6441C41.7016 31.1316 41.5303 31.1538 41.5303 30.8879C41.5303 30.7549 42.093 30.1567 42.7536 29.5584C43.512 28.8937 43.9768 28.2954 43.9768 27.9852C43.9768 27.5642 44.5884 26.6779 44.8575 26.6779C44.9065 26.6779 45.1022 26.9659 45.3223 27.3426ZM15.4756 29.2039C15.867 29.4698 15.8915 29.5584 15.6224 29.8686C15.3532 30.1567 15.3777 30.2453 15.9404 30.4447C16.2829 30.5555 16.5765 30.8214 16.5765 30.9987C16.5765 31.1981 16.7477 31.3975 16.9434 31.464C17.1392 31.5304 17.4083 31.9514 17.5551 32.3946C17.9465 33.6798 17.8976 33.7684 17.0658 33.5247C16.552 33.3474 16.1116 33.3474 15.5734 33.5247C14.4725 33.8792 14.1789 33.8349 14.0077 33.3252C13.9098 33.0815 13.5673 32.5719 13.2248 32.2173C12.8823 31.8407 12.6621 31.4861 12.7355 31.4197C12.8089 31.3532 13.3472 31.5083 13.9343 31.7742L14.9863 32.2395L14.1789 31.5748C13.6163 31.1538 13.4695 30.91 13.6897 30.8214C13.8609 30.7549 13.6163 30.5555 13.078 30.3561C12.0505 29.9572 12.0016 29.6027 12.9313 29.1817C13.7141 28.805 14.9129 28.8272 15.4756 29.2039ZM10.8273 29.3147C10.9741 29.5584 10.02 30.1123 9.79979 29.9129C9.7264 29.8464 9.7264 29.647 9.79979 29.4476C9.97104 29.0709 10.6071 29.0045 10.8273 29.3147ZM11.5612 30.2231C11.8303 30.5998 11.4389 30.91 11.0964 30.5998C10.7539 30.3339 10.8028 30.0016 11.1943 30.0016C11.3166 30.0016 11.4878 30.0902 11.5612 30.2231ZM9.38389 31.2646C9.13925 31.4861 8.91907 31.1538 9.13925 30.8657C9.28603 30.622 9.33496 30.622 9.43282 30.8657C9.48175 31.0208 9.45729 31.1981 9.38389 31.2646ZM10.9007 31.1981C10.9741 31.4861 10.8762 31.5748 10.5582 31.5083C10.2891 31.464 10.0689 31.2646 10.02 31.0208C9.94658 30.7328 10.0444 30.6441 10.3625 30.7106C10.6316 30.7549 10.8518 30.9543 10.9007 31.1981ZM7.52458 31.5526C7.84262 31.752 7.84262 31.7963 7.52458 31.9736C5.93439 32.8599 5.88546 33.4582 7.47566 32.6162C8.62549 32.0401 9.06585 32.2173 8.30745 32.9485C7.74477 33.5025 7.62244 33.7684 7.98941 33.7684C8.11173 33.7684 8.45424 33.4139 8.74781 32.9707C9.09032 32.3946 9.33496 32.2173 9.50622 32.3724C9.70193 32.5497 9.67747 32.7713 9.45729 33.1258C9.28603 33.4139 9.16371 33.9678 9.21264 34.3667C9.28603 35.1643 8.5521 35.9842 7.7937 35.9842C7.54905 35.9842 6.93744 36.2944 6.42368 36.6489C5.90992 37.0256 5.39617 37.2472 5.29831 37.1585C5.22491 37.0478 5.0292 36.095 4.90688 35.0314C4.73562 33.5247 4.76009 33.0372 5.00473 32.8599C5.17599 32.727 5.27384 32.5054 5.24938 32.3724C5.22491 32.2395 5.4451 32.0844 5.73867 32.0401C6.03225 31.9958 6.39921 31.8185 6.546 31.6412C6.91297 31.2646 7.03529 31.2646 7.52458 31.5526ZM45.2 31.7299C45.2 31.9293 45.4202 32.2395 45.6893 32.3946C45.9584 32.5497 46.1786 32.9042 46.1786 33.2144C46.1786 33.8349 45.2979 35.541 44.9798 35.541C44.6863 35.541 44.2214 34.4996 44.2214 33.7905C44.2214 33.015 43.6588 32.5275 42.1909 32.0844C41.5548 31.885 41.041 31.6412 41.041 31.5304C41.041 31.4197 41.9707 31.331 43.1205 31.331C44.9309 31.331 45.2 31.3753 45.2 31.7299ZM34.876 32.0179C34.827 32.1509 34.6803 32.2395 34.5579 32.2395C34.4356 32.2395 34.2888 32.1509 34.2399 32.0179C34.191 31.885 34.3378 31.7742 34.5579 31.7742C34.7781 31.7742 34.9249 31.885 34.876 32.0179ZM37.0044 32.173C37.0044 32.5719 36.5151 32.5054 36.4417 32.0844C36.3683 31.8628 36.4662 31.752 36.6864 31.8185C36.8576 31.885 37.0044 32.0401 37.0044 32.173ZM41.5303 32.3724C41.7995 32.6383 41.8239 32.7491 41.6037 32.8156C41.09 32.9929 41.2368 33.3252 41.8973 33.5468C42.2398 33.6576 42.5089 33.9013 42.5089 34.0786C42.5089 34.2559 42.6802 34.4996 42.9004 34.6104C43.145 34.7212 43.3407 35.2087 43.4141 35.8291L43.5609 36.8483L42.8025 36.6046C42.2398 36.4052 41.8239 36.4052 41.1878 36.5824C40.4539 36.7819 40.2337 36.7597 39.9401 36.4938C39.6221 36.2279 39.4998 36.2058 39.1817 36.4495C38.8392 36.6932 38.7169 36.6489 38.301 36.1171C38.0074 35.7848 37.5426 35.4081 37.2246 35.2973C36.9065 35.2087 36.6374 35.0092 36.6374 34.8763C36.6374 34.5439 37.5182 34.6104 37.8607 34.9871C38.0319 35.1643 38.3255 35.3194 38.5457 35.3194C38.8637 35.3194 38.8637 35.253 38.4967 34.8984C37.8607 34.2559 38.4233 34.1451 39.4509 34.6769C40.4784 35.2308 40.8698 35.12 39.9401 34.5661C39.5732 34.3445 39.353 34.0564 39.4264 33.8792C39.4998 33.6798 39.2551 33.4803 38.6925 33.2809C37.6894 32.9485 37.7139 32.6827 38.8637 32.1509C39.7934 31.7299 40.9187 31.8185 41.5303 32.3724ZM11.9771 32.2395C12.2462 32.3724 12.6132 32.8156 12.8089 33.2366C13.0046 33.6576 13.5918 34.278 14.13 34.6104C14.6682 34.9428 15.0841 35.2751 15.1086 35.3638C15.1086 35.4745 14.2768 35.541 13.2738 35.541C11.023 35.541 10.4603 35.1865 10.4603 33.7019L10.4848 32.7713L11.0719 33.3695C11.8548 34.1894 11.9771 34.1451 11.5368 33.2144C10.9741 31.9958 11.0719 31.7963 11.9771 32.2395ZM36.0503 33.2366C35.9035 33.5911 35.8546 33.5911 35.4876 33.2809C35.2674 33.0593 35.1696 32.7713 35.2674 32.5275C35.4142 32.173 35.4631 32.173 35.8301 32.4832C36.0503 32.7048 36.1481 32.9929 36.0503 33.2366ZM37.3224 33.4803C37.2735 33.6798 37.1267 33.8792 36.9555 33.9235C36.7842 33.99 36.7353 33.857 36.8087 33.569C36.9555 33.015 37.4448 32.9485 37.3224 33.4803ZM35.1696 33.9013C35.1696 34.0786 34.9983 34.2115 34.8026 34.2115C34.4356 34.2115 34.2888 33.7462 34.5824 33.4803C34.827 33.2809 35.1696 33.5247 35.1696 33.9013ZM19.2676 38.1778C19.2676 38.2886 18.8761 38.5102 18.4113 38.6431C17.922 38.7761 17.237 39.1306 16.8701 39.3965C15.7447 40.2606 15.2065 40.4379 14.5215 40.1942C13.7386 39.9283 13.7386 39.7289 14.4725 38.9312C14.9618 38.4215 15.3288 38.2886 16.6254 38.1778C19.0963 37.9562 19.2676 37.9562 19.2676 38.1778ZM12.9068 38.6874C11.8059 39.0863 11.5857 39.2192 11.3411 39.6624C10.7784 40.5487 9.84872 40.7038 9.57961 39.9283C9.45729 39.5737 9.57961 39.33 10.0689 38.9312C10.6071 38.5323 10.9986 38.4215 12.1239 38.4437C13.3227 38.4437 13.445 38.488 12.9068 38.6874ZM31.1574 39.1084C31.6711 39.4851 31.4265 39.5959 29.8852 39.6624C29.0289 39.6845 28.3684 39.8396 28.0748 40.0834C27.5366 40.5265 26.6314 40.4601 26.2644 39.9283C26.0687 39.6402 26.1177 39.4408 26.4846 39.0641C26.925 38.6431 27.1452 38.5988 28.8822 38.7096C29.9341 38.7761 30.9372 38.9533 31.1574 39.1084ZM37.1267 38.9755C37.5671 39.2192 36.8331 39.4851 35.6099 39.5073C35.0228 39.5294 34.5335 39.6845 34.2154 39.9947C33.6038 40.593 32.6252 40.4822 32.5274 39.7953C32.3806 38.8204 32.8943 38.5766 34.9249 38.6874C35.9524 38.7317 36.931 38.8647 37.1267 38.9755ZM41.5548 39.1084C42.2398 39.4408 42.142 39.8175 41.408 39.6624C40.9921 39.5737 40.4784 39.6845 39.8423 40.0169C39.035 40.4379 38.8392 40.4601 38.4967 40.2163C37.9585 39.7953 38.0074 39.3965 38.668 38.9755C39.2307 38.5988 40.6496 38.6653 41.5548 39.1084ZM25.4082 39.1527C25.3837 39.4186 25.0412 39.3522 24.9434 39.0641C24.87 38.9312 24.9678 38.8425 25.1391 38.8869C25.2859 38.9533 25.4082 39.0641 25.4082 39.1527ZM18.4113 39.751C18.3379 39.8618 18.1422 39.9726 18.0199 39.9726C17.8731 39.9726 17.8486 39.8618 17.922 39.751C17.9954 39.6181 18.1911 39.5294 18.3135 39.5294C18.4602 39.5294 18.4847 39.6181 18.4113 39.751Z" fill="#FDA215"/>
<path d="M22.8638 7.09037C22.7905 7.17901 20.8088 7.24548 18.4847 7.26764L14.2523 7.28979L14.3257 8.61927C14.3746 9.35048 14.5459 10.3919 14.7416 10.9458C14.9373 11.4998 15.3043 12.7849 15.5979 13.8264C15.8914 14.8678 16.8211 17.704 17.6774 20.1413C18.5336 22.5787 19.6835 26.0132 20.2461 27.7858C20.8088 29.5584 21.6651 32.0844 22.1299 33.3917L23.0106 35.7848L25.188 35.7183L27.3653 35.6518L28.9555 32.5497C30.9861 28.5835 32.8454 23.8417 34.1909 19.1221C34.4601 18.1915 34.827 17.0836 35.0472 16.6626C35.7077 15.2001 37.3469 7.73295 37.0533 7.46706C36.9799 7.40059 34.0686 7.31195 30.5947 7.26764C27.1207 7.22332 24.0137 7.13469 23.6712 7.06822C23.3287 7.00174 22.9617 7.00174 22.8638 7.09037ZM17.9954 8.10964C18.1911 8.2869 18.3624 8.2869 18.607 8.08748C18.9006 7.88806 19.0963 7.99885 19.6101 8.61927C19.977 9.04027 20.3929 9.35048 20.5152 9.26184C20.8333 9.08458 22.6926 10.8572 22.6926 11.3447C22.6926 11.5663 22.8149 11.8543 22.9862 12.0094C23.2064 12.2088 23.1574 12.3639 22.8149 12.7185C22.3746 13.1616 22.3746 13.1838 23.4021 13.4275C23.818 13.5383 24.0381 14.4911 23.6467 14.4911C23.5244 14.4911 23.451 14.4025 23.5244 14.2917C23.6956 14.0479 23.1085 13.8264 22.3501 13.8264C22.0565 13.8264 21.714 13.7377 21.5917 13.6491C21.1758 13.3167 19.3654 12.94 18.1422 12.9179C17.0902 12.9179 17.0168 12.8736 17.5061 12.6742C18.1177 12.3861 18.2156 12.0537 17.6529 12.0537C17.4572 12.0537 17.1636 11.7435 17.0413 11.389C16.87 10.9902 16.6009 10.7243 16.3318 10.7243C15.8181 10.7243 15.4511 10.0595 15.867 9.83795C16.0627 9.705 16.0627 9.5499 15.867 9.19537C15.4266 8.48632 15.9159 7.84374 16.8945 7.84374C17.3349 7.84374 17.8241 7.95453 17.9954 8.10964ZM25.2369 8.35337C25.3348 8.24258 25.5794 8.37553 25.7751 8.59711C25.9708 8.84085 26.1176 8.90732 26.1176 8.77437C26.1176 8.2869 26.558 8.50848 26.7048 9.06242C26.8516 9.59421 27.3409 9.86011 27.3409 9.39479C27.3409 9.26184 27.4632 9.17321 27.5855 9.17321C27.7323 9.17321 27.8302 9.37263 27.8302 9.59421C27.8302 9.83795 27.9525 10.1038 28.0993 10.1925C28.2705 10.2811 28.3194 10.6578 28.2461 11.0788C28.1727 11.4998 28.1971 11.8322 28.3439 11.8322C28.4662 11.8322 28.6375 11.4333 28.7109 10.9237C28.8332 10.3033 28.9555 10.1038 29.1268 10.2589C29.4693 10.5692 29.7873 10.5692 29.7873 10.2368C29.7873 9.83795 30.5457 9.19537 30.8882 9.30616C31.0595 9.37263 31.3775 9.19537 31.5977 8.92948C31.8913 8.53063 32.0381 8.48632 32.3072 8.68574C32.5763 8.90732 32.7965 8.863 33.2858 8.50848C33.9708 8.021 34.4356 7.93237 34.4356 8.30906C34.4356 8.442 34.6558 8.48632 34.9249 8.39769C35.561 8.22042 35.8545 8.84085 35.4386 9.43911C35.194 9.81579 35.2185 9.88226 35.6344 9.99305C36.2215 10.126 36.0502 10.7243 35.3897 10.7243C34.8515 10.7243 34.827 10.8129 35.2185 11.389C35.4876 11.7657 35.4386 11.8765 34.9738 12.1645C34.6802 12.3639 34.4356 12.6742 34.4356 12.8514C34.4356 13.0287 34.2154 13.1616 33.9463 13.1616C33.6772 13.1616 33.457 13.2503 33.457 13.361C33.457 13.4718 33.2613 13.6048 33.0411 13.6934C32.7965 13.7599 32.4295 13.915 32.2338 14.0258C31.3041 14.5354 29.3225 15.2001 29.0289 15.0894C28.8087 15.0229 28.9066 14.9121 29.347 14.757C29.6895 14.624 30.0564 14.4025 30.1543 14.2695C30.3011 14.0701 30.2032 14.0701 29.8118 14.2474C29.5182 14.4025 29.298 14.4246 29.298 14.2917C29.298 14.1809 29.1023 14.0479 28.8821 14.0036C28.4907 13.9372 28.4907 13.915 28.9066 13.6048C30.1054 12.7406 31.5488 11.3668 31.4264 11.2339C31.3286 11.1674 30.7659 11.5219 30.1298 12.0316C28.9555 13.0287 28.4662 13.0952 29.1512 12.1645C29.5916 11.5663 29.3225 11.389 28.8087 11.9429C28.6375 12.1424 28.3439 12.2532 28.1727 12.1867C28.0014 12.1202 27.7812 12.1645 27.7078 12.2753C27.61 12.4083 27.7323 12.4969 27.928 12.4969C28.1482 12.4969 28.3194 12.6077 28.3194 12.7406C28.3194 12.8736 28.1727 12.94 27.9769 12.8736C27.7812 12.8071 27.5366 12.9844 27.3653 13.2946C26.9005 14.203 26.6069 13.8928 26.5825 12.4304L26.558 11.0566L26.3378 12.0316C26.0932 13.1838 25.873 13.4718 25.873 12.652C25.873 12.3196 25.7507 12.0537 25.6039 12.0537C25.4571 12.0537 25.3837 12.2088 25.4816 12.3861C25.5549 12.5634 25.506 12.7185 25.3837 12.7185C25.2369 12.7185 25.1391 12.6077 25.1391 12.4969C25.1391 12.3639 25.0412 12.2753 24.9189 12.2753C24.821 12.2753 24.7721 12.519 24.821 12.8071C24.9923 13.5605 24.5274 13.6934 24.1849 12.9844C24.0137 12.652 23.6956 12.0316 23.451 11.6106C22.8883 10.547 22.9862 9.35048 23.6956 8.55279C24.2094 7.97669 24.3317 7.93237 24.6742 8.19827C24.8944 8.37553 25.1391 8.442 25.2369 8.35337ZM21.9587 8.73005C21.9587 8.84085 21.8608 8.95163 21.714 8.95163C21.5917 8.95163 21.4694 8.84085 21.4694 8.73005C21.4694 8.59711 21.5917 8.50848 21.714 8.50848C21.8608 8.50848 21.9587 8.59711 21.9587 8.73005ZM22.6926 8.73005C22.6926 8.84085 22.6437 8.95163 22.5947 8.95163C22.5213 8.95163 22.399 8.84085 22.3256 8.73005C22.2522 8.59711 22.3012 8.50848 22.4235 8.50848C22.5703 8.50848 22.6926 8.59711 22.6926 8.73005ZM35.6588 12.94C35.6588 13.0508 35.561 13.1616 35.4142 13.1616C35.2918 13.1616 35.1695 13.0508 35.1695 12.94C35.1695 12.8071 35.2918 12.7185 35.4142 12.7185C35.561 12.7185 35.6588 12.8071 35.6588 12.94ZM20.2951 13.7377C22.0321 14.1366 23.6712 14.8235 23.6712 15.1558C23.6712 15.2888 23.1574 15.3774 22.5458 15.3774C21.9342 15.3774 21.4938 15.466 21.5917 15.5768C21.6651 15.6876 22.081 15.7319 22.5458 15.6655C23.5733 15.5104 23.9648 15.9757 23.0106 16.1751C22.6437 16.2637 21.6162 16.6182 20.7354 16.9728C18.9984 17.6818 17.6284 17.7483 17.7508 17.1279C17.7752 16.9285 17.6529 16.7069 17.4327 16.6182C17.237 16.5518 17.0657 16.308 17.0657 16.0865C17.0657 15.8649 16.9434 15.5768 16.8211 15.466C16.6254 15.2888 16.6743 15.1337 16.9434 14.9343C17.1391 14.7791 17.3104 14.4689 17.3104 14.2252C17.3104 13.8485 17.4082 13.8042 17.9709 13.9372C18.5336 14.0479 18.5825 14.0258 18.3134 13.7377C17.8731 13.2724 18.2645 13.2724 20.2951 13.7377ZM35.0717 13.9372C35.1695 14.1144 35.0227 14.5354 34.7781 14.8899C34.509 15.2223 34.2643 15.8427 34.1909 16.2637C34.0686 17.0614 33.5793 17.3273 32.772 17.0392C32.4295 16.9063 32.454 16.862 32.9432 16.6847C33.7506 16.3967 33.5793 16.3302 31.7689 16.1751C29.4693 15.9978 29.4693 15.6876 31.7445 15.5547C32.3561 15.5104 32.8209 15.3774 32.8209 15.2666C32.7965 15.1337 32.4295 15.0672 32.0136 15.1115C31.5977 15.1558 31.2552 15.0894 31.2552 14.9786C31.2552 14.757 32.0136 14.4911 32.8454 14.4025C33.1145 14.3803 33.6038 14.203 33.9463 13.9815C34.6802 13.5162 34.9004 13.5162 35.0717 13.9372ZM26.6069 14.3803C26.8516 14.6462 26.8516 14.7127 26.5091 14.7127C26.2889 14.7127 26.1176 14.5576 26.1176 14.3803C26.1176 14.203 26.1666 14.0479 26.2155 14.0479C26.2644 14.0479 26.4357 14.203 26.6069 14.3803ZM25.6283 14.9343C25.6283 15.045 25.5305 15.1558 25.3837 15.1558C25.2614 15.1558 25.1391 15.045 25.1391 14.9343C25.1391 14.8013 25.2614 14.7127 25.3837 14.7127C25.5305 14.7127 25.6283 14.8013 25.6283 14.9343ZM27.8302 15.045C27.8302 15.2223 27.6589 15.3774 27.4632 15.3774C27.0718 15.3774 26.9739 15.1115 27.2675 14.8678C27.5366 14.6019 27.8302 14.6905 27.8302 15.045ZM26.6069 15.599C26.6069 15.8427 26.4357 16.0421 26.24 16.0421C26.0442 16.0421 25.873 15.8427 25.873 15.599C25.873 15.3553 26.0442 15.1558 26.24 15.1558C26.4357 15.1558 26.6069 15.3553 26.6069 15.599ZM25.1635 15.887C25.1391 16.1529 24.7965 16.0865 24.6987 15.7984C24.6253 15.6655 24.7232 15.5768 24.8944 15.6211C25.0412 15.6876 25.1635 15.7984 25.1635 15.887ZM28.5641 16.0421C28.5641 16.1529 28.4662 16.2637 28.3194 16.2637C28.1971 16.2637 28.0748 16.1529 28.0748 16.0421C28.0748 15.9092 28.1971 15.8206 28.3194 15.8206C28.4662 15.8206 28.5641 15.9092 28.5641 16.0421ZM27.7323 16.3524C27.9525 16.5518 27.9769 16.729 27.8302 16.8177C27.4877 16.9949 27.0962 16.7512 27.0962 16.3524C27.0962 15.9535 27.2919 15.9535 27.7323 16.3524ZM23.0351 16.729C22.9372 16.9063 23.0596 16.9285 23.4265 16.8177C24.2094 16.5961 23.8424 17.0614 22.8883 17.5046C22.4969 17.6818 22.2278 17.9034 22.3012 17.9699C22.3746 18.0364 22.7171 17.9256 23.0351 17.7261C23.9158 17.2165 24.0871 17.283 23.4265 17.9256C22.6926 18.6346 23.2553 18.6568 24.0381 17.9256C24.454 17.571 24.6498 17.4824 24.6498 17.704C24.6498 18.1471 24.8944 18.125 25.2858 17.6597C25.7507 17.0614 25.8975 17.3938 25.6039 18.3466C25.3592 19.0999 25.5549 19.8533 25.7996 19.1886C26.0198 18.6568 26.3623 18.9227 26.3867 19.6317C26.4357 20.2521 26.4357 20.2743 26.5335 19.809C26.6069 19.4988 26.8026 19.1664 26.9984 19.0778C27.1941 18.9891 27.3409 18.6568 27.3409 18.3687C27.3409 17.5932 27.6589 17.6818 28.0748 18.5238C28.4907 19.4101 28.4173 20.0527 27.8546 20.9833C27.5121 21.5373 27.243 21.7146 26.5335 21.7589C25.8241 21.8253 25.5794 21.7146 25.2369 21.2714C25.0167 20.9612 24.6253 20.6953 24.3562 20.6953C24.1115 20.6953 23.9648 20.6067 24.0381 20.4737C24.1115 20.3629 24.2339 19.9862 24.2828 19.6539C24.3317 19.2994 24.4296 18.8562 24.5274 18.6346C24.6253 18.413 24.6008 18.2579 24.4296 18.2579C24.2828 18.2579 24.1605 18.3466 24.1605 18.4795C24.1605 18.7897 23.1085 19.7203 22.8638 19.6317C22.7415 19.6096 22.5947 19.7647 22.5213 20.0084C22.4479 20.2743 22.2522 20.3851 22.0565 20.3186C21.8608 20.2521 21.714 20.3408 21.714 20.5623C21.714 20.9612 20.4663 21.0055 18.974 20.6731C17.922 20.4294 17.8731 20.3408 18.4358 19.6317C18.6315 19.3658 18.7293 19.0335 18.6559 18.9227C18.5825 18.7897 18.6804 18.7011 18.9006 18.7011C19.0963 18.7011 19.3654 18.4795 19.4877 18.1915C19.6345 17.8369 20.1238 17.5489 20.9067 17.283C21.5428 17.0614 22.3012 16.8177 22.5703 16.7069C23.2308 16.441 23.2308 16.441 23.0351 16.729ZM31.9891 16.7069C31.9891 16.8177 31.8913 16.9285 31.7689 16.9285C31.6222 16.9285 31.4509 16.8177 31.3775 16.7069C31.3041 16.5739 31.402 16.4853 31.5977 16.4853C31.8179 16.4853 31.9891 16.5739 31.9891 16.7069ZM31.4998 17.15C32.2338 17.3716 33.0411 17.7705 33.2858 18.0585C33.6772 18.5017 33.6772 18.5903 33.3347 18.9227C33.139 19.1221 32.9677 19.5874 32.9677 19.9419C32.9677 21.0277 32.6741 21.2271 31.72 20.8504C31.2552 20.6731 30.668 20.3186 30.4234 20.0527C30.1543 19.809 29.8362 19.5874 29.6895 19.5874C29.4448 19.5652 28.0748 17.8148 28.0748 17.5046C28.0748 17.1944 28.6864 17.4159 29.4693 18.0585C30.3011 18.7011 30.8638 18.7897 30.3011 18.1693C30.0809 17.9256 30.1298 17.8369 30.5702 17.7483L31.0839 17.6154L30.4968 17.1722C29.7629 16.6182 29.8362 16.6182 31.4998 17.15ZM27.0962 17.4824C27.0962 17.6597 27.0473 17.8148 26.9984 17.8148C26.9494 17.8148 26.8516 17.6597 26.7537 17.4824C26.6803 17.3051 26.7292 17.15 26.8516 17.15C26.9984 17.15 27.0962 17.3051 27.0962 17.4824ZM24.6498 21.8032C24.6498 21.914 24.5274 22.0248 24.3807 22.0248C24.2583 22.0248 24.2094 21.914 24.2828 21.8032C24.3562 21.6702 24.4785 21.5816 24.5519 21.5816C24.6008 21.5816 24.6498 21.6702 24.6498 21.8032ZM29.7873 21.6702C29.7873 21.7367 29.6895 21.8475 29.5427 21.914C29.4204 21.9804 29.298 21.9361 29.298 21.8253C29.298 21.6924 29.4204 21.5816 29.5427 21.5816C29.6895 21.5816 29.7873 21.6259 29.7873 21.6702ZM22.0565 22.2685C21.9831 22.3793 21.8119 22.4236 21.6895 22.335C21.5672 22.2685 21.5183 22.1134 21.6162 22.0026C21.6895 21.8918 21.8608 21.8475 21.9831 21.9361C22.1054 22.0026 22.1544 22.1577 22.0565 22.2685ZM27.0962 22.8446C27.7812 23.5315 27.8546 23.7752 27.7568 24.5064C27.61 25.5257 26.8026 27.3426 26.5091 27.3426C26.3867 27.3426 26.3623 26.833 26.4601 26.2126C26.5825 25.4592 26.558 25.1269 26.3623 25.2377C26.24 25.3041 26.1176 25.5922 26.1176 25.8581C26.1176 26.6779 25.8241 27.3648 25.5305 27.2762C25.3837 27.2319 25.2858 26.833 25.3348 26.3899C25.3837 25.9024 25.3103 25.57 25.1635 25.57C25.0167 25.57 24.8944 26.0132 24.8944 26.5893C24.8944 27.808 24.5274 27.6972 24.3317 26.412C24.2583 25.8802 24.1115 25.1047 24.0381 24.6837C23.8914 23.9747 23.9648 23.7974 24.8699 22.9554C25.4326 22.4458 25.9708 22.0248 26.0932 22.0248C26.2155 22.0248 26.6559 22.3793 27.0962 22.8446ZM20.7354 23.1327C20.9311 23.3542 21.3226 23.5758 21.5917 23.6201C21.8853 23.6644 22.1054 23.9082 22.1544 24.1962C22.2033 24.4843 22.4724 24.8167 22.766 24.9274C23.3042 25.149 24.2828 26.8552 24.0137 27.0989C23.8669 27.2319 23.0596 26.4342 22.8638 25.9467C22.8149 25.8138 22.6681 25.7473 22.5703 25.8359C22.4724 25.9245 22.6192 26.2569 22.9128 26.5893C23.5244 27.2983 23.5733 28.1182 23.0351 28.3176C22.0321 28.6721 20.344 26.833 19.9281 24.9274C19.7568 24.1741 19.4877 23.465 19.3165 23.3099C19.1452 23.1548 19.0229 22.9111 19.0229 22.756C19.0229 22.335 20.2461 22.623 20.7354 23.1327ZM31.8423 23.5093C31.7689 24.1076 31.5488 24.861 31.3775 25.2377C31.2063 25.5922 31.0105 26.3455 30.9372 26.8552C30.8148 27.8523 30.0075 28.8937 29.3714 28.8937C28.8577 28.8937 29.0045 28.5835 29.7873 27.8966C30.1788 27.5421 30.4723 27.2097 30.3989 27.1654C30.3255 27.0989 30.0075 27.2762 29.665 27.5642C28.9311 28.1846 28.8577 27.8523 29.5671 27.0324C29.8362 26.7222 29.9586 26.4563 29.8118 26.4563C29.665 26.4563 29.3959 26.7444 29.1757 27.0989C28.6375 28.0517 28.1971 28.229 28.4173 27.4313L28.5641 26.7887L28.0748 27.3205L27.5855 27.8301V27.1432C27.5855 26.7665 27.8546 26.0575 28.1971 25.5922C28.5152 25.1047 28.8577 24.4621 28.9555 24.1298C29.0778 23.6866 29.4448 23.3986 30.3745 22.9997C31.0595 22.7338 31.72 22.4901 31.8179 22.4901C31.9402 22.4679 31.9402 22.9332 31.8423 23.5093ZM26.6069 28.3176C26.6069 28.4949 26.5091 28.7164 26.3623 28.7829C26.24 28.8494 26.1176 28.8715 26.1176 28.8051C26.1176 28.7608 26.0442 28.5613 25.9708 28.3619C25.873 28.1182 25.9464 28.0074 26.2155 28.0074C26.4357 28.0074 26.6069 28.1403 26.6069 28.3176ZM21.714 29.0266C21.714 29.2039 21.6162 29.2925 21.4694 29.2261C21.347 29.1596 21.2247 29.0045 21.2247 28.8715C21.2247 28.7608 21.347 28.6721 21.4694 28.6721C21.6162 28.6721 21.714 28.8272 21.714 29.0266ZM23.451 29.2704C22.8394 29.9351 22.9617 30.2453 23.6222 29.7135C24.3317 29.1374 24.4051 29.2704 24.0137 30.2675C23.6222 31.2646 22.7905 32.2174 22.3012 32.2174C21.8853 32.2174 21.396 30.9987 21.5917 30.4004C21.8363 29.6914 22.9372 28.6721 23.4999 28.6721C23.9403 28.6721 23.9158 28.6943 23.451 29.2704ZM25.3837 28.8494C25.3837 29.1374 25.0901 29.3369 24.8455 29.2039C24.6008 29.071 24.821 28.6721 25.1635 28.6721C25.2858 28.6721 25.3837 28.7608 25.3837 28.8494ZM28.4173 29.5806C28.8821 29.913 29.0534 30.2453 29.0534 30.7771C29.0534 31.1981 28.9311 31.597 28.7843 31.6634C28.4418 31.8629 27.3409 30.9322 27.3409 30.4447C27.3409 30.2453 27.2185 29.9794 27.0718 29.8465C26.7537 29.5584 26.9739 29.1153 27.4387 29.1153C27.61 29.1153 28.0503 29.3147 28.4173 29.5806ZM26.4846 29.5584C26.558 29.6692 26.5091 29.78 26.3867 29.78C26.24 29.78 26.1176 29.6692 26.1176 29.5584C26.1176 29.4255 26.1666 29.3369 26.2155 29.3369C26.2889 29.3369 26.4112 29.4255 26.4846 29.5584ZM24.9189 30.3783C25.1146 32.306 25.3837 33.0594 25.3837 31.7077C25.3837 31.2646 25.506 30.8436 25.6283 30.7771C25.7751 30.6885 25.873 31.0209 25.873 31.597C25.873 32.2838 25.9464 32.4611 26.1176 32.2174C26.24 32.0401 26.3623 31.6191 26.3623 31.2646C26.3623 30.5112 26.6069 30.5112 27.1451 31.2867C27.3898 31.6191 27.7078 32.0623 27.8791 32.2838C28.1482 32.6162 28.1237 32.727 27.7812 32.9707C27.5366 33.1258 27.3409 33.3696 27.3409 33.5247C27.3409 33.6576 27.1941 33.7684 27.0228 33.7684C26.8271 33.7684 26.5091 34.1673 26.2889 34.6547C26.0932 35.1422 25.7751 35.5411 25.5794 35.5411C25.2369 35.5411 24.6498 34.5661 24.6498 34.0343C24.6498 33.7684 24.5764 33.7684 24.2828 33.99C23.9648 34.2116 23.9158 34.1894 23.9158 33.7906C23.9158 33.5468 23.769 33.3253 23.5978 33.3253C23.3287 33.3253 23.3042 33.148 23.5489 32.3725C23.8914 31.1981 24.4296 30.2232 24.6987 30.2232C24.7965 30.2232 24.8944 30.2896 24.9189 30.3783Z" fill="#FDA215"/>
<path d="M24.6986 11.6105C24.6986 11.9208 24.7475 12.0315 24.8209 11.8764C24.8699 11.7435 24.8699 11.4776 24.8209 11.3225C24.7475 11.1895 24.6986 11.3003 24.6986 11.6105Z" fill="#FDA215"/>
<path d="M29.665 13.6048C29.1023 14.1809 29.4693 14.1809 30.2766 13.6048C30.7169 13.2946 30.7903 13.1616 30.4968 13.1616C30.2766 13.1616 29.9096 13.3611 29.665 13.6048Z" fill="#FDA215"/>
<path d="M8.74778 41.9004C5.02917 42.0998 4.39309 42.6316 7.89152 42.6316C9.16368 42.6316 10.2157 42.5651 10.2157 42.4543C10.1912 42.0333 9.75083 41.8561 8.74778 41.9004Z" fill="#FDA215"/>
<path d="M10.9496 42.0333C10.9496 42.3656 11.3655 42.4099 14.2034 42.4543C15.9648 42.4764 18.7049 42.4764 20.2461 42.4543C21.7874 42.4321 25.4081 42.5207 28.2705 42.6758C33.4815 42.9639 34.3622 42.9196 33.775 42.3878C33.3591 42.0111 33.5304 42.0333 21.5427 41.8338C11.7814 41.7009 10.9496 41.7009 10.9496 42.0333Z" fill="#FDA215"/>
<path d="M3.85486 42.3657C3.85486 42.6759 4.12397 42.831 4.49094 42.698C5.00469 42.5208 4.90683 42.1884 4.34415 42.1884C4.07504 42.1884 3.85486 42.2771 3.85486 42.3657Z" fill="#FDA215"/>
</svg>
