<?xml version="1.0" encoding="UTF-8"?>
<!DOCTYPE svg PUBLIC "-//W3C//DTD SVG 1.1//EN" "http://www.w3.org/Graphics/SVG/1.1/DTD/svg11.dtd">
<!-- Creator: CorelDRAW 2021 (64-Bit) -->
<svg xmlns="http://www.w3.org/2000/svg" xml:space="preserve" width="27.6128mm" height="21.4958mm" version="1.1" style="shape-rendering:geometricPrecision; text-rendering:geometricPrecision; image-rendering:optimizeQuality; fill-rule:evenodd; clip-rule:evenodd"
viewBox="0 0 659.18 513.15"
 xmlns:xlink="http://www.w3.org/1999/xlink"
 xmlns:xodm="http://www.corel.com/coreldraw/odm/2003">
 <defs>
  <style type="text/css">
   <![CDATA[
    .fil0 {fill:black}
    .fil1 {fill:black;fill-rule:nonzero}
   ]]>
  </style>
 </defs>
 <g id="Слой_x0020_1">
  <metadata id="CorelCorpID_0Corel-Layer"/>
  <g id="_2908321499232">
   <path class="fil0" d="M499.62 324.91l-0 -47.28c6.5,-1.74 48.87,-0.39 59.1,-0.46 8.57,-0.06 18.86,-1.7 26.26,3.2 13.71,9.09 11.89,32.92 0.8,41.17 -7.04,5.24 -17.92,3.5 -26.35,3.5 -12.05,0 -50.94,0.59 -59.81,-0.13zm1.28 -137.05l135.11 -0.21 0.02 -44.56 -199.82 0.11c-0.27,11.37 -0.79,104.72 0.32,108.55 23.21,0.99 47.26,0.73 70.57,1.14l51.94 0.87c4.67,0.1 12.85,-0.8 13.93,4.88 -2.14,4.78 -9.29,3.58 -14.24,3.62 -40.92,0.3 -81.83,0.85 -122.75,1.31l-0.01 108.2c43.04,-1.07 87.45,-0.06 130.65,-0.06 17.98,0 43.22,2.46 59.16,-5.92 46.23,-24.29 42.91,-106.96 -0.54,-128.5 -15.58,-7.72 -42.29,-5.08 -60.05,-5.03 -21.43,0.06 -42.93,0.45 -64.49,0.35l0.22 -44.75z"/>
   <path class="fil0" d="M201.57 252.59c1.12,-11.99 -0.08,-22.38 0.02,-34.19l4.59 0.02c-0.21,10.62 -1.64,24.03 0.1,34.3l13.08 0.01 -0.06 -109.85 -67.64 0.32c-7.13,9.08 -15.17,24.55 -21.75,34.87 -7.6,11.91 -62.02,101.72 -65.2,104.36l-0.22 -139.06 -64.48 0.29 -0 225.83c3.37,1.08 63.55,1.12 68.48,0.17 8.34,-14.46 65.61,-101.21 66.79,-105.9 -2.29,-0.05 -5.09,-0.17 -7.34,-0.09 -6.95,0.26 -6.95,7.16 -12.89,-1.99l-5.11 -0.05c-5.3,9.21 -15.42,7.85 -19.57,2.32 -0.59,-0.78 -3.76,-5.08 -3.91,-5.38 1.27,-2.49 5.69,-8.33 10.07,-9.23 6.98,-1.43 9.63,1.21 13.48,5.98 7.45,0.33 3.65,0.09 7.34,-3.11 2.65,-2.29 3.98,-1.05 6.33,-0.11 3.93,1.57 13.9,0.65 18.56,0.55l12.4 -19.92 0.28 19.98 46.65 -0.12z"/>
   <polygon class="fil0" points="-0,121.59 165.04,121.61 165.04,2.44 118.8,2.48 118.72,97.64 105.51,97.68 105.46,2.54 59.62,2.46 59.37,97.34 46.17,97.7 46.03,2.49 0.23,2.45 "/>
   <path class="fil0" d="M290.37 251.33c0,-7.7 -0.54,-45.52 0.35,-49.89 3.62,-17.79 22.14,-13.92 36.42,-13.92 32.95,0 67.36,0.96 100.26,-0.08l-0.18 -44.02c-12.05,-0.17 -143.54,-1.3 -153.48,0.16 -20.07,2.95 -35.37,15.35 -42.28,34.37 -4.41,12.13 -3.15,22.81 -3.15,35.49 0,12.63 -0.03,25.26 0.02,37.94l62.06 -0.05z"/>
   <path class="fil0" d="M228.68 265.52c-1.37,5.75 -0.39,30.57 -0.39,38.26 0,13.54 -1.22,21.13 3.8,34.1 7.29,18.85 24.02,30.23 43.76,32.97 9.68,1.34 27.81,0.27 38.38,0.27 14.46,0 107.78,0.8 113.68,-0.33l-0 -44.44c-5,-0.98 -91.48,0.04 -99.33,0.03 -12.35,-0.01 -35.65,4.57 -38.05,-11.86 -1.11,-7.6 0.53,-37.23 -0.26,-49.37l-61.59 0.38z"/>
   <path class="fil0" d="M430.87 2.89c-1.2,4.65 -0.33,69.24 -0.32,83.34 0.01,13.14 -0.32,14.82 -14.23,14.6l-0.4 20.79c12.52,-0.18 25.54,0.26 37.89,-1.21 28.24,-3.37 22.92,-24 22.92,-54.26 0,-13.15 -0.29,-26.62 0.08,-39.72l12.97 0.05 0.02 95.19 46 -0.05 0.04 -119.19c-12.82,0.32 -101.35,-0.72 -104.96,0.47z"/>
   <path class="fil0" d="M183.12 121.47c6.27,0.42 42.34,0.9 46.16,-0.48l0.18 -49.78c23.37,1.4 9.2,21.78 14.71,41.33 3.21,11.38 8.98,9.06 19.16,9.06 9.65,0 19.5,-0.19 29.13,0.05 -3.38,-7.8 -5.24,-8.24 -5.46,-18.18 -0.44,-20.04 7.07,-37.45 -27.62,-41.37 10.58,-0.82 26.22,-6.05 27.68,-18.16 1.25,-10.35 -1.52,-23.35 1.09,-33.31 1.18,-4.5 2.92,-4.99 4.15,-8.2l-41.63 0.25c-9.08,2.74 -7.85,26.64 -8.1,34.07 -0.36,10.6 -0.89,15.41 -13.04,15.82l-0.33 -49.74 -45.96 -0.39 -0.12 119.03z"/>
   <path class="fil0" d="M350.8 20.98c10.17,-4.14 10.08,6.36 10.1,12.91 0.03,8.13 0.03,16.25 0.03,24.38 0,6.89 2.15,42.13 -3.35,44.77 -2.97,1.43 -7.85,1.2 -9.32,-2.07 -2,-4.47 -1.13,-51.75 -1.13,-59.9 0,-4.83 -1.56,-17.95 3.66,-20.08zm-9.65 -20.17c-13.41,1.62 -31.49,6.84 -37.36,20.54 -3.92,9.15 -2.78,43.3 -2.69,54.84 0.14,18.04 -0.89,31.11 16.93,40.64 21.38,11.43 74.62,11.59 86.06,-13.89 3.96,-8.82 3.01,-43.46 2.84,-54.71 -0.28,-18.22 1.2,-31.14 -16.75,-40.83 -13.85,-7.48 -33.75,-8.43 -49.04,-6.59z"/>
   <path class="fil0" d="M600.66 32.92l1.29 -2.47 0.81 3.18c-1.16,9.39 4.91,34.08 5.6,45.38l-15.01 -0.24c0.82,-12.21 7.54,-41.36 7.3,-45.85zm-57.29 88.63l47.66 0.05 2.37 -20.96 16.29 -0.38 2.4 21.03 47.08 0.32 -26.11 -119.11c-7.94,-0.19 -62.97,-0.6 -66.66,0.34l-23.03 118.71z"/>
   <path class="fil0" d="M155.09 289.3l-0.37 80.29 64.38 0.05 -0.12 -105.99 -13.15 0.54c-0.63,9.85 1.2,25.45 -0.08,33.57l-4.26 0.05 -0.11 -34.07 -46.28 -0.18 -0.01 25.73z"/>
   <path class="fil0" d="M219.1 369.65l-64.38 -0.05 0.37 -80.29c-0.88,2.24 -1.88,77.36 -0.49,80.98 6.88,0.47 61.62,1 64.51,-0.63z"/>
   <path class="fil0" d="M600.66 32.92c1.69,0.53 0.87,-0.01 2.11,0.71l-0.81 -3.18 -1.29 2.47z"/>
   <path class="fil1" d="M98.75 510.61l-37.81 0 0 -94.56 -11.01 0 0 66.89c0,8.81 -1.41,15.14 -4.19,18.97 -2.81,3.86 -7.03,6.25 -12.7,7.22 -5.69,0.97 -14.71,1.47 -27.13,1.47l-5.9 0 0 -20.32c4.62,0 7.77,-0.47 9.51,-1.39 1.75,-0.92 2.6,-4.08 2.6,-9.49l0 -86.96 86.63 0 0 118.16z"/>
   <path id="_1" class="fil1" d="M188.47 392.45l-10.31 78.25c-1.62,12.35 -3.36,21.04 -5.2,26.02 -1.86,4.98 -5.44,8.54 -10.74,10.68 -5.32,2.14 -14.07,3.21 -26.22,3.21l-22.02 0 0 -15.24 2.26 0c4.99,0 8.08,-0.32 9.24,-1 1.16,-0.65 1.77,-1.64 1.77,-3.01 0,-0.1 -0.73,-3.44 -2.17,-10.01l-19.91 -88.9 32.82 0 11.87 73.67 5.66 -73.67 32.94 0z"/>
   <polygon id="_2" class="fil1" points="261.57,416.06 233.86,416.06 233.86,510.61 196.05,510.61 196.05,392.45 261.57,392.45 "/>
   <path id="_3" class="fil1" d="M336.83 392.45l21.6 118.16 -38.57 0 -2.05 -21.21 -13.61 0 -2.05 21.21 -39.06 0 19.15 -118.16 54.6 0zm-20.04 76.03c-1.8,-13.39 -3.7,-29.97 -5.72,-49.77 -3.73,22.7 -6.09,39.29 -7.1,49.77l12.82 0z"/>
   <polygon id="_4" class="fil1" points="451.53,392.45 451.53,510.61 413.73,510.61 413.73,461.02 402.72,461.02 402.72,510.61 364.91,510.61 364.91,392.45 402.72,392.45 402.72,434.73 413.73,434.73 413.73,392.45 "/>
   <path id="_5" class="fil1" d="M554.9 443.99l-37.81 0 0 -20.52c0,-5.97 -0.4,-9.68 -1.19,-11.18 -0.79,-1.47 -2.57,-2.22 -5.29,-2.22 -3.06,0 -5.02,0.9 -5.84,2.69 -0.83,1.82 -1.26,5.7 -1.26,11.68l0 54.82c0,5.75 0.43,9.48 1.26,11.25 0.83,1.74 2.69,2.61 5.57,2.61 2.78,0 4.62,-0.87 5.48,-2.64 0.86,-1.74 1.28,-5.87 1.28,-12.37l0 -14.86 37.81 0 0 4.6c0,12.25 -1.07,20.94 -3.18,26.04 -2.11,5.13 -6.82,9.61 -14.07,13.47 -7.28,3.86 -16.21,5.78 -26.86,5.78 -11.04,0 -20.16,-1.62 -27.35,-4.88 -7.16,-3.26 -11.93,-7.77 -14.26,-13.55 -2.33,-5.77 -3.49,-14.44 -3.49,-26.02l0 -34.51c0,-8.51 0.37,-14.89 1.07,-19.15 0.73,-4.26 2.85,-8.36 6.42,-12.3 3.55,-3.93 8.47,-7.05 14.77,-9.31 6.3,-2.27 13.55,-3.39 21.75,-3.39 11.11,0 20.28,1.74 27.53,5.25 7.22,3.49 11.96,7.84 14.25,13.07 2.27,5.23 3.4,13.34 3.4,24.37l0 11.23z"/>
   <path id="_6" class="fil1" d="M568.42 392.45l37.81 0 0.18 49.89c7.01,-0.15 10.62,-3.36 10.86,-9.63l0.7 -23.06c0.24,-8.49 2.26,-14.24 6.05,-17.2l34.87 0c-3.37,2.86 -5.02,8.81 -4.96,17.8l0.19 20.27c0.12,12.25 -8.36,19.25 -25.45,20.94 17.1,1.69 25.57,8.79 25.45,21.24l-0.19 18.8c-0.06,8.96 1.59,15.34 4.96,19.12l-34.87 0c-4.04,-2.96 -6.05,-8.71 -6.05,-17.23l0 -23.03c0,-2.94 -1.07,-5.28 -3.22,-7.04 -2.17,-1.77 -4.95,-2.69 -8.35,-2.74l-0.18 50.04 -37.81 0 0 -118.16z"/>
  </g>
 </g>
</svg>
