<?xml version="1.0" encoding="UTF-8"?>
<!DOCTYPE svg PUBLIC "-//W3C//DTD SVG 1.1//EN" "http://www.w3.org/Graphics/SVG/1.1/DTD/svg11.dtd">
<!-- Creator: CorelDRAW 2021 (64-Bit) -->
<svg xmlns="http://www.w3.org/2000/svg" xml:space="preserve" width="27.8619mm" height="21.1071mm" version="1.1" style="shape-rendering:geometricPrecision; text-rendering:geometricPrecision; image-rendering:optimizeQuality; fill-rule:evenodd; clip-rule:evenodd"
viewBox="0 0 1399.34 1060.09"
 xmlns:xlink="http://www.w3.org/1999/xlink"
 xmlns:xodm="http://www.corel.com/coreldraw/odm/2003">
 <defs>
  <style type="text/css">
   <![CDATA[
    .fil0 {fill:black}
    .fil1 {fill:black;fill-rule:nonzero}
   ]]>
  </style>
 </defs>
 <g id="Слой_x0020_1">
  <metadata id="CorelCorpID_0Corel-Layer"/>
  <g id="_2908260261968">
   <path class="fil0" d="M1062.61 555.75c41.62,0.02 83.25,-0.04 124.88,-0.05 19.13,-0.01 40.12,-3.55 56.98,7.06 13.69,8.61 20.05,26.44 19.56,42.38 -0.49,15.6 -8.52,33.58 -22.1,41.52 -13.16,7.69 -40.51,4.99 -56.1,4.99 -40.95,0 -81.91,0.1 -123.52,-0.02l0.31 -95.88zm2.44 -178.3l285.55 0 0.12 -88.89 -421.48 0.01 0.25 215.73c8.05,2.1 128.7,2.65 148.1,2.95 24.96,0.39 49.92,0.84 74.87,1.18 15.41,0.21 68.4,-3.68 65.41,11.05 -6.14,9.93 -21.56,6.81 -32.07,6.9 -37.93,0.34 -252.35,1.09 -255.39,3.94 -4.28,4.99 -1.77,42.92 -1.79,52.98 -0.07,43.82 -2.4,124.91 -0.09,160.57 41.26,2.95 91.79,0.42 134.06,0.42 44.95,0 89.9,0 134.86,0 79.7,0 156.31,11.97 191.2,-78.89 25.13,-65.45 6.29,-158.34 -61.7,-189.34 -32.04,-14.61 -89.99,-9.57 -126.17,-9.4 -45.23,0.22 -90.45,0.38 -135.74,0.6l-0.02 -89.81z"/>
   <path class="fil0" d="M-0 740.41l142.19 0.58c8.2,-3.01 63.74,-89.95 73.58,-104.29l72.26 -107.01c-29.23,-2.81 -20.02,4.84 -31.53,4.63 -11.05,-0.19 -11.89,-18.31 -25.35,-4.98 -13.14,13 -29.38,11.77 -38.82,0.47l-8.59 -10.39c0.7,-1.39 7.39,-9.93 8.96,-11.72 19.09,-21.77 42.7,4.33 43.61,4.5l8.41 0.02c9.08,-14.94 12.86,-6.79 23.86,-5.42 7.42,0.92 25.98,0.31 33.99,-0.12l26.71 -41.18c0.61,11.17 -0.94,31.97 1.65,41.37l97.62 -0.03c4.35,-16.43 0.68,-50.19 0.52,-68.42l10.39 0.18c-0.25,23.86 -1.77,44.19 -0.18,68.25l27.79 0c1.4,-66.68 0.06,-150.11 0.06,-218.62l-143.41 0.02 -185.79 280.11 -0.65 -279.05 -137.15 0.06 -0.13 451.04z"/>
   <path class="fil0" d="M348.38 243.27l0.06 -237.46 -95.21 0.02c-0.04,25.9 -0.82,177.31 -1.19,189.66 -9.65,0.18 -19.94,-0.04 -29.96,-0.29l-0.09 -189.39 -96.29 -0.06 0.07 189.46 -27.76 0.1 -0.81 -190.28 -96.67 -0.09 -0.52 238.03 348.38 0.29z"/>
   <path class="fil0" d="M485.99 504.01c17.66,1.04 120.44,2.68 131.7,-0.22 0.03,-18.91 -2.25,-89.48 1.97,-102.55 10.45,-32.45 51.34,-24.42 79.5,-24.42 70.25,0 140.5,0 210.76,0l-0.03 -87.48c-31.92,-0.1 -295.88,-2.71 -320.06,-0.53 -40.82,3.68 -79.3,25.69 -95.31,64.61 -11.01,26.78 -8.57,42.09 -8.57,70.2 0,26.77 -0.22,53.63 0.04,80.39z"/>
   <path class="fil0" d="M485.94 533.14c0.04,26.8 0.01,53.61 0.01,80.42 0,27.9 -2.48,42.27 10.55,68.14 18.71,37.17 54.97,59.15 96.72,61.35 50.48,2.66 108.44,0.13 159.74,0.13 52.7,0 105.39,-0.01 158.09,-0.01l-0.02 -89.66c-69.49,0.52 -139.01,0.59 -208.49,0.88 -25.32,0.11 -75.45,8.85 -83.71,-21.01 -3.39,-12.26 -1.14,-83.19 -1.12,-101.26l-131.75 1.01z"/>
   <path class="fil0" d="M884.86 201.97c-2.63,8.81 -1.14,30.74 -1.12,41.12 35.02,0.06 113.84,8.7 125.33,-32.99 6.65,-24.13 2.76,-125.39 2.76,-157.35l28.09 0.16 0 190.21 97.13 -0.11 -0.01 -237.52 -222 -0.56c-2.81,25.8 -0.39,129.85 -0.4,169.25 -0.02,26.85 -3.75,27.33 -29.78,27.79z"/>
   <path class="fil0" d="M389.11 242.18c7.5,1.85 90.31,1.83 97.23,-0.11l0.41 -99.86c51.53,2.36 18.97,44.97 32.96,85.36 8.61,19.92 23.14,15.53 43.3,15.53 14.97,0 44.98,0.42 58.14,-0.7 -17.88,-13.92 -9.84,-59 -11.77,-79.81 -3.08,-33.22 -34.33,-29.51 -54.02,-38.85 17.44,-8.96 51.39,-5.49 54.07,-38.81 1.58,-19.75 -6.34,-68.15 11.48,-79.61 -16.56,-1.75 -40.54,-0.39 -57.9,-0.39 -43.96,0 -45.05,-3.59 -47.6,70.11 -0.79,22.78 -4.6,29.16 -28.67,30.18l-0.42 -99.61 -96.97 -0.65 -0.24 237.21z"/>
   <path class="fil0" d="M747.24 41.31c19.69,-6.91 19.62,13.23 19.68,26.96l-0.01 99.18c-0.01,10.58 3.07,36.28 -9.58,39.66 -21.49,5.75 -20.25,-13.08 -20.43,-27.83l-0.04 -99.24c-0.01,-13.79 -3.75,-33.78 10.37,-38.73zm-23.56 -39.68c-27.38,3.14 -64.61,13.47 -77.56,40.57 -9.12,19.1 -6.57,87.65 -6.3,111.8 0.4,37.03 -0.01,63.02 37.63,80.47 29.06,13.49 70.82,15.45 102.25,12.03 26.61,-2.89 65.28,-13.64 77.86,-40.02 9.23,-19.35 6.65,-87.05 6.42,-111.32 -0.37,-38.26 1.29,-62.35 -36.87,-80.91 -29.52,-14.36 -71.31,-16.32 -103.43,-12.63z"/>
   <path class="fil0" d="M1259.94 157.94c1.8,-20.8 11.61,-79.2 18.22,-97.71l14.46 97.75 -32.69 -0.04zm-105.17 84.92l100.26 0.21 5.43 -42.96 34.47 0.15 5.91 42.82 98.49 0.03 -55.37 -237.83 -139.58 -0.32 -49.63 237.91z"/>
   <path class="fil0" d="M438.31 529.27c-1.49,19.15 1.69,61.66 -1.41,67.95l-8.73 0.06 -0.18 -67.96 -98.34 0.07 -0.3 211.6 136.67 0 0.02 -211.71 -27.73 0z"/>
   <path class="fil1" d="M0.02 788.6l61.56 0c19.46,0 34.19,1.47 44.22,4.44 10.03,2.93 18.1,8.93 24.27,17.91 6.16,9.03 9.22,23.53 9.22,43.54 0,13.52 -2.15,22.94 -6.51,28.27 -4.36,5.37 -12.98,9.42 -25.82,12.3 14.33,3.17 24.07,8.39 29.18,15.66 5.11,7.32 7.67,18.5 7.67,33.63l0 21.48c0,15.66 -1.86,27.24 -5.51,34.8 -3.66,7.52 -9.48,12.69 -17.5,15.47 -8.02,2.78 -24.47,4.15 -49.34,4.15l-71.44 0 0 -231.66zm61.97 39.54l0 51.55c2.61,-0.1 4.62,-0.15 6.07,-0.15 5.92,0 9.73,-1.46 11.33,-4.34 1.66,-2.93 2.46,-11.28 2.46,-24.99 0,-7.27 -0.66,-12.35 -2.01,-15.28 -1.35,-2.88 -3.11,-4.73 -5.26,-5.51 -2.15,-0.73 -6.37,-1.17 -12.59,-1.27zm0 87.57l0 65.02c8.52,-0.29 13.99,-1.61 16.34,-4 2.36,-2.39 3.52,-8.3 3.52,-17.67l0 -21.67c0,-9.96 -1.05,-15.96 -3.16,-18.11 -2.1,-2.1 -7.67,-3.27 -16.69,-3.56z"/>
   <path id="_1" class="fil1" d="M307.2 924.4c0,23.28 -0.55,39.73 -1.7,49.4 -1.1,9.71 -4.62,18.55 -10.53,26.55 -5.92,8.01 -13.94,14.15 -24.01,18.45 -10.08,4.3 -21.81,6.44 -35.2,6.44 -12.74,0 -24.12,-2.05 -34.25,-6.1 -10.13,-4.05 -18.3,-10.1 -24.41,-18.21 -6.16,-8.1 -9.83,-16.94 -11.03,-26.45 -1.15,-9.57 -1.75,-26.26 -1.75,-50.08l0 -39.64c0,-23.28 0.55,-39.73 1.7,-49.4 1.1,-9.71 4.61,-18.55 10.53,-26.55 5.92,-8.01 13.94,-14.16 24.02,-18.45 10.07,-4.29 21.81,-6.44 35.2,-6.44 12.74,0 24.12,2.05 34.24,6.1 10.13,4.05 18.3,10.11 24.41,18.21 6.17,8.1 9.83,16.94 11.03,26.46 1.15,9.56 1.75,26.26 1.75,50.08l0 39.64zm-61.97 -76.1c0,-10.74 -0.6,-17.62 -1.8,-20.65 -1.2,-2.98 -3.66,-4.49 -7.37,-4.49 -3.15,0 -5.56,1.22 -7.27,3.66 -1.66,2.39 -2.51,9.57 -2.51,21.48l0 108.12c0,13.42 0.55,21.72 1.65,24.85 1.1,3.17 3.66,4.73 7.67,4.73 4.11,0 6.77,-1.8 7.92,-5.41 1.16,-3.61 1.7,-12.25 1.7,-25.87l0 -106.41z"/>
   <path id="_2" class="fil1" d="M481.47 1020.26l-61.97 0 0 -185.38 -18.05 0 0 131.16c0,17.28 -2.31,29.68 -6.87,37.19 -4.61,7.57 -11.53,12.25 -20.8,14.16 -9.33,1.9 -24.12,2.88 -44.47,2.88l-9.67 0 0 -39.83c7.57,0 12.73,-0.93 15.59,-2.74 2.86,-1.8 4.26,-8.01 4.26,-18.59l0 -170.5 141.98 0 0 231.66z"/>
   <polygon id="_3" class="fil1" points="613.53,834.88 568.11,834.88 568.11,1020.26 506.14,1020.26 506.14,788.6 613.53,788.6 "/>
   <path id="_4" class="fil1" d="M771.21 924.4c0,23.28 -0.55,39.73 -1.7,49.4 -1.1,9.71 -4.62,18.55 -10.53,26.55 -5.92,8.01 -13.94,14.15 -24.01,18.45 -10.08,4.3 -21.81,6.44 -35.2,6.44 -12.74,0 -24.12,-2.05 -34.24,-6.1 -10.13,-4.05 -18.3,-10.1 -24.42,-18.21 -6.16,-8.1 -9.83,-16.94 -11.03,-26.45 -1.15,-9.57 -1.75,-26.26 -1.75,-50.08l0 -39.64c0,-23.28 0.55,-39.73 1.7,-49.4 1.1,-9.71 4.61,-18.55 10.53,-26.55 5.92,-8.01 13.94,-14.16 24.02,-18.45 10.07,-4.29 21.8,-6.44 35.19,-6.44 12.74,0 24.12,2.05 34.24,6.1 10.13,4.05 18.3,10.11 24.41,18.21 6.17,8.1 9.83,16.94 11.03,26.46 1.15,9.56 1.76,26.26 1.76,50.08l0 39.64zm-61.97 -76.1c0,-10.74 -0.61,-17.62 -1.81,-20.65 -1.2,-2.98 -3.66,-4.49 -7.37,-4.49 -3.15,0 -5.56,1.22 -7.27,3.66 -1.66,2.39 -2.51,9.57 -2.51,21.48l0 108.12c0,13.42 0.55,21.72 1.66,24.85 1.1,3.17 3.66,4.73 7.67,4.73 4.11,0 6.77,-1.8 7.92,-5.41 1.16,-3.61 1.71,-12.25 1.71,-25.87l0 -106.41z"/>
   <polygon id="_5" class="fil1" points="901.86,834.88 856.44,834.88 856.44,1020.26 794.47,1020.26 794.47,788.6 901.86,788.6 "/>
   <path id="_6" class="fil1" d="M918.46 788.6l62.32 0c16.85,0 29.78,1.27 38.85,3.86 9.03,2.59 15.85,6.3 20.41,11.13 4.56,4.88 7.62,10.79 9.28,17.67 1.6,6.93 2.4,17.62 2.4,32.12l0 20.16c0,14.74 -1.55,25.53 -4.72,32.26 -3.1,6.79 -8.87,12.01 -17.19,15.62 -8.37,3.61 -19.31,5.41 -32.79,5.41l-16.59 0 0 93.43 -61.97 0 0 -231.66zm61.97 39.54l0 59.01c1.75,0.1 3.26,0.15 4.52,0.15 5.67,0 9.57,-1.37 11.78,-4.1 2.15,-2.69 3.25,-8.35 3.25,-16.94l0 -19.09c0,-7.91 -1.26,-13.08 -3.81,-15.47 -2.51,-2.39 -7.77,-3.57 -15.75,-3.57z"/>
   <path id="_7" class="fil1" d="M1176.21 788.6l35.39 231.66 -63.22 0 -3.36 -41.59 -22.31 0 -3.36 41.59 -64.03 0 31.39 -231.66 89.49 0zm-32.84 149.07c-2.95,-26.26 -6.07,-58.77 -9.37,-97.58 -6.12,44.52 -9.97,77.02 -11.63,97.58l21 0z"/>
   <path id="_8" class="fil1" d="M1399.11 1060.09l-42.72 0 0 -39.83 -99.87 0 0 39.83 -42.72 0 0 -88.15 12.63 0c6.67,-18.99 12.18,-43.93 16.45,-74.88 4.26,-30.95 6.42,-64.77 6.42,-101.43l0 -7.03 137.17 0 0 183.04 12.64 0 0 88.44zm-74.6 -88.44l0 -137.35 -18.35 0 0 1.71c0,44.37 -4.92,89.57 -14.74,135.65l33.09 0z"/>
  </g>
 </g>
</svg>
