<?xml version="1.0" encoding="UTF-8"?>
<!DOCTYPE svg PUBLIC "-//W3C//DTD SVG 1.1//EN" "http://www.w3.org/Graphics/SVG/1.1/DTD/svg11.dtd">
<!-- Creator: CorelDRAW 2021 (64-Bit) -->
<svg xmlns="http://www.w3.org/2000/svg" xml:space="preserve" width="28.419mm" height="20.57mm" version="1.1" style="shape-rendering:geometricPrecision; text-rendering:geometricPrecision; image-rendering:optimizeQuality; fill-rule:evenodd; clip-rule:evenodd"
viewBox="0 0 571.13 413.39"
 xmlns:xlink="http://www.w3.org/1999/xlink"
 xmlns:xodm="http://www.corel.com/coreldraw/odm/2003">
 <defs>
  <style type="text/css">
   <![CDATA[
    .fil0 {fill:black}
   ]]>
  </style>
 </defs>
 <g id="Слой_x0020_1">
  <metadata id="CorelCorpID_0Corel-Layer"/>
  <g id="_2753614023424">
   <path class="fil0" d="M432.12 261.13l0.01 -38.67c2.71,-0.73 20.8,-0.21 25.06,-0.21l38.41 -0.02c4.6,-0.01 7.04,0.3 10.37,2.45 12.79,8.25 10.34,27.68 0.22,34.08 -5.79,3.66 -15.48,2.4 -23.05,2.4 -8.54,0 -17.07,0 -25.61,0 -8.3,0 -17.18,0.3 -25.41,-0.03zm-54.78 -59.51c9.64,0.6 20.51,0.41 30.22,0.5l75.9 1.17c3.82,0.06 11.66,-0.39 12.34,3.24 0.82,4.4 -7.62,3.77 -10.98,3.8l-76.83 0.81c-9.76,0.06 -21.08,-0.31 -30.66,0.35l-0.23 87.3c18.29,-0.46 37.15,-0.03 55.49,-0.03l82.89 0c8.87,0 16.35,-0.62 23.82,-3.82 42.66,-18.29 39.32,-88.7 0.65,-105.3 -7.87,-3.38 -14.74,-3.71 -24.14,-3.65l-68.74 0.3c-3.67,0.02 -10.62,0.45 -13.89,-0.04l-0.05 -36.21 117.04 -0.14 -0.02 -36.03 -172.63 -0.03 -0.19 87.76z"/>
   <path class="fil0" d="M55.77 227.32l-0.05 -113.04 -55.64 -0.11 -0.08 183.2 59 0.04 43.46 -64.31c1.18,-1.76 14.04,-20.22 14.49,-21.6 -1.93,0.03 -3.89,0.03 -5.82,0.01 -4.07,-0.04 -2.2,-0.06 -4.57,1.44 -1.46,0.93 -2.99,0.91 -4.48,0.16 -1.56,-0.78 -1.88,-1.58 -2.76,-3.23l-4.34 0c-2.47,3.88 -5.71,6.1 -11.08,5.2 -4.45,-0.74 -5.67,-2.98 -7.09,-5.33 -1.05,-1.74 -2.12,-0.46 -2.23,-2.37 -0.09,-1.57 0.39,-1.01 1.49,-1.71 1.66,-1.05 1.34,-4.86 7.65,-6.05 2.46,-0.46 5.06,-0.06 7.03,0.88 2.45,1.17 2.73,2.12 4.21,4.06l4.38 0.02c1.11,-1.38 1.6,-2.87 3.55,-3.39 2.6,-0.7 3.55,1.05 5.52,1.25 3.85,0.39 10.51,0.02 14.64,-0.02 0.05,-0.13 8.7,-14.59 10.15,-16.15 0.56,-0.61 -0.1,-0.06 0.65,-0.6l-0 16.57c2.84,0.53 34.48,0.27 40.27,0.15 0.93,-13.08 0.41,-13.59 -0.09,-27.73l4.27 -0.01c0.25,9.51 -1.15,17.87 0,27.63 2.26,0.34 8.85,0.27 11.24,0.03 -0.45,-28.87 0.31,-59.4 -0.03,-88.45l-58.46 -0.15c-1.96,3.64 -24.85,37.7 -28.15,42.67 -5.72,8.62 -45.5,69.64 -47.14,70.93z"/>
   <path class="fil0" d="M130.65 98.27l0.01 -96.21 -35.77 -0.01c0.44,12.68 0.03,26.13 0.03,38.9l0 28.98c0,1.21 0.27,8.09 -0.28,9.11 -0.8,0.35 -1.72,0.23 -2.7,0.22l-7.87 -0.1c-0.53,-1.75 -0.38,-69.93 -0.17,-77.11l-35.75 -0.06c0.13,8.01 0.53,75.1 -0.23,77.17l-10.4 -0.09c-0.04,-0.1 -0.16,-0.07 -0.24,-0.1l-0.05 -76.91 -36.44 -0.08 -0.09 96.25 129.96 0.04z"/>
   <path class="fil0" d="M197.63 201.37l53.46 0.21c-0.08,-7.34 -0.81,-37.05 0.72,-41.86 4.17,-13.01 17.48,-10.07 32.52,-10.07 28.36,0 56.79,-0.18 85.15,0.01 0.45,-1.87 0.45,-32.73 0.07,-35.49l-96.68 -0.33c-19.92,-0.04 -40.36,-3.04 -56.8,8.12 -1.36,0.92 -3.65,2.62 -4.56,3.55 -4.62,4.72 -7.02,7.34 -10.25,14.35 -4.58,9.93 -3.66,17.14 -3.66,28.8 0,10.86 -0.18,21.87 0.02,32.71z"/>
   <path class="fil0" d="M197.87 212.98c-0.71,2.1 -0.25,27.71 -0.25,32.17 0,12.88 -1.32,16.49 4.22,28.25 7.02,14.89 23.24,24.16 39.4,24.91 10.33,0.48 21.85,0.02 32.32,0.02 31.64,0 65.37,-0.54 96.54,0.02l-0.05 -36.42c-27.94,0.62 -56.35,0.24 -84.36,0.38 -7.07,0.03 -14.16,0.09 -21.23,0.08 -5.75,-0.01 -10.91,-2.36 -12.81,-8.13 -1.22,-3.7 -0.66,-35.22 -0.55,-41.58l-53.23 0.3z"/>
   <path class="fil0" d="M422.18 355.29c-0.41,0.83 0.64,0.38 -0.68,0.7l0.02 -44.65 -30.78 -0.01 0.07 99.66 32.36 -0.06 18.57 -44.2 0.39 44.23 31.1 -0.16 -0.13 -99.74 -30.49 -0.02 -20.43 44.25z"/>
   <path class="fil0" d="M519.94 355.4l-0.64 0.51 0.03 -44.59 -30.83 -0.03 0.06 99.67 32.36 -0.04c0.89,-2.9 7.54,-18.09 9.29,-22.34 0.36,-0.86 8.63,-21.6 9.67,-22.24l-0.02 44.61 31.11 -0.13 -0.14 -99.77 -30.27 -0.03c-0.92,1.15 -20.31,42.82 -20.62,44.37z"/>
   <path class="fil0" d="M340.85 75.94c-0.21,6.17 -5.59,5.76 -11.34,5.81l-0.04 16.55c9.64,0 33.97,1.17 41.55,-5.03 3.05,-2.49 4.89,-6.17 5.63,-10.24 1.44,-7.89 0.24,-49.3 0.58,-61.6l10.26 0.01 0.03 76.77 36.37 0.1 0 -96.26 -82.51 -0.06c0.16,12.39 0.02,24.87 0.02,37.27 0,4.72 0.66,35.02 -0.55,36.67z"/>
   <path class="fil0" d="M132.52 326.11c3.49,-0.64 5.72,0.51 6.25,3.95 0.83,5.32 0.44,42.23 0.44,50.21 0,7.6 1.3,15.2 -4.51,15.71 -3.85,0.34 -5.79,-0.48 -6.34,-3.93 -0.46,-2.86 -0.53,-55.85 -0.09,-59.98 0.38,-3.59 0.73,-5.31 4.25,-5.96zm43.7 57.19c0.45,-6.91 0.3,-39.48 -0.1,-46.85 -0.18,-3.34 -0.79,-7.31 -2.01,-10.04 -9.8,-22.01 -63.23,-22.34 -77.28,-5.27 -4.43,5.38 -5.5,9.23 -5.75,18.04 -0.27,9.68 -0.48,37.95 0.12,46.83 0.66,9.7 2.05,11.07 7.33,16.66 11.32,11.99 41.85,12.64 57.24,7.4 5.66,-1.93 12.23,-5.42 14.77,-8.83 4.7,-6.28 5.07,-8.52 5.69,-17.94z"/>
   <path class="fil0" d="M183.54 42.67l-0.6 0.26c-0.99,0.12 -0.29,0.09 -1.03,-0.01l-0.17 -40.79 -36.21 -0.01 0.02 96.17 36.32 0.02 -0 -40.83c3.3,-0.01 6.66,1.07 8.53,2.63 6.92,5.78 -2.38,30.55 7.49,37.66 1.64,1.18 8.35,0.54 10.98,0.54 7.21,0 15.89,0.43 22.92,-0.07 -3.3,-4.87 -4.38,-7.1 -4.49,-14.49 -0.19,-12.55 4.02,-22.99 -7.86,-29.44 -5.47,-2.97 -8.96,-2.78 -14.97,-4.25 1.53,-0.79 5.87,-1.01 7.95,-1.51 24.57,-5.88 11.42,-24.14 15.78,-40.47 0.95,-3.54 2.31,-4.07 3.5,-6.08 -2.29,-0.07 -31.82,-0.29 -33.03,0.15 -1.77,0.65 -3.78,3.87 -4.59,6.5 -1.45,4.71 -1.33,15 -1.63,20.5 -0.45,8.25 -0.14,12.56 -8.9,13.52z"/>
   <path class="fil0" d="M274.75 75.66c-0.5,-12.82 -0.06,-26.52 -0.06,-39.43 0,-4.13 -0.59,-15.41 1.43,-17.99 1.27,-1.62 5.14,-2.34 7.65,-0.98 2.12,1.15 2.01,5.18 2.1,7.84 0.42,12.9 0.03,26.46 0.03,39.43 0,3.76 0.37,15.66 -1.45,17.96 -1.26,1.59 -5.26,2.11 -7.45,0.83 -2.13,-1.25 -2.14,-4.85 -2.25,-7.67zm-0.66 -75.39c-11.91,0.98 -25.12,4.33 -31.64,14.3 -3.47,5.31 -3.59,11.7 -3.72,18.96 -0.14,7.64 -0.09,15.28 -0.09,22.92 -0,17.18 -1.25,27.68 9.89,35.8 13.28,9.68 41.04,10.34 56.94,3.87 14.86,-6.05 16.27,-15.64 16.45,-29.22 0.12,-9.08 0.49,-37.51 -0.75,-44.94 -0.86,-5.13 -2.69,-7.97 -6.18,-10.98 -1.15,-0.99 -1.69,-1.95 -2.9,-2.82 -9.21,-6.64 -24.18,-9.02 -38,-7.88z"/>
   <path class="fil0" d="M240.24 371.16c0,5.91 0.32,12.79 -0.31,18.54 -0.33,3.08 -0.82,5.12 -3.54,5.95 -2.28,0.7 -6.03,0.64 -7.82,-0.74 -2.56,-1.97 -1.81,-13.09 -1.81,-17.01 0,-7.99 -0.33,-41.1 0.39,-46.78 0.42,-3.27 1.08,-4.37 4.44,-4.96 13.99,-2.47 6.4,16.55 8.79,28.67l36.8 0.02c0.92,-3.56 -0.09,-18.21 -0.85,-22.15 -1.39,-7.28 -3.98,-11.39 -8.26,-14.7 -15.41,-11.9 -56.7,-12.47 -71.86,2.1 -3.82,3.67 -6.15,8.8 -6.47,16.34 -0.32,7.53 -0.13,15.36 -0.13,22.92 0,12.84 -1.68,31.82 5,41.2 6.48,9.11 23.14,11.81 33.37,12.5 16.83,1.14 42.94,-2.59 47.62,-20.67 1.76,-6.8 1.74,-14.06 1.79,-21.36l-37.15 0.12z"/>
   <path class="fil0" d="M340.23 371.07c0.04,5.74 0.36,13.14 -0.28,18.67 -0.37,3.2 -0.65,5.02 -3.5,5.89 -2.19,0.67 -6.1,0.6 -7.85,-0.67 -2.57,-1.87 -1.81,-13.19 -1.81,-17.05l-0 -37.74c0,-3.03 0.01,-6.05 0.38,-9.07 0.43,-3.41 1.01,-4.33 4.49,-4.94 7.92,-1.4 8.44,3.26 8.56,9.95 0.07,4.25 -0.54,15.37 0.17,18.73l36.84 0.01c0.88,-3.75 -0.1,-18.09 -0.89,-22.14 -1.38,-7.05 -3.81,-11.44 -8.22,-14.67 -16.68,-12.2 -56.61,-12.22 -71.88,2.02 -4.72,4.4 -6.09,9.85 -6.46,16.38 -0.43,7.46 -0.17,15.41 -0.17,22.93 0,12.1 -1.37,32.91 5.06,41.21 11.38,14.68 57.99,19.45 77.3,-0.4 5.41,-5.56 5.37,-21.5 5.45,-29.14l-37.2 0.02z"/>
   <path class="fil0" d="M474.67 50.02c3.19,0.01 9.35,-0.1 10.79,3.1 1.38,3.07 0.93,9.07 0.93,12.77 -0,3.53 0.37,10.01 -0.89,12.81 -1.4,3.12 -7.01,3.11 -10.81,3.02l-0.02 -31.7zm-36.52 48.09c2.4,0.6 42.91,0.22 48.69,0.14 7.01,-0.1 15.85,-0.25 22.43,-1.82 16.11,-3.84 13.17,-20.75 13.17,-35.6 0,-8.11 -0.45,-15.06 -5.16,-19.32 -8.79,-7.95 -28.6,-6.31 -42.41,-6.48 -0.9,-3.65 0.47,-26.43 -0.27,-33.05l-36.4 -0.01 -0.05 96.13z"/>
   <path class="fil0" d="M38.31 328.25c11.62,0.08 11.62,1.83 11.63,12.93 0,11.31 -0.16,12.33 -11.63,12.37l0 -25.3zm-0 42.48c13.7,0 30.22,1.01 38.49,-7.29 4.19,-4.2 4.25,-11.48 4.25,-18.56 -0,-23.1 -0.08,-32.03 -34.27,-33.63 -14.79,-0.7 -30.73,-0.24 -45.62,-0.19l0.01 99.9 37.12 -0.07 0.01 -40.17z"/>
   <path class="fil0" d="M174.1 239.11c-0.09,-8.67 1.07,-19.15 -0.06,-27.54 -3.5,-0.26 -38.15,-0.38 -39.82,0.01l-0.35 85.86 55.67 -0.16 -0.04 -85.67c-2.17,-0.3 -9.5,-0.47 -11.06,0.13 -1.49,4.48 0.09,21.23 -0.11,27.38l-4.22 -0.01z"/>
   <polygon class="fil0" points="534.59,98.28 571.13,98.3 571.11,1.96 534.72,1.98 "/>
   <path class="fil0" d="M340.85 75.94c1.21,-1.65 0.55,-31.95 0.55,-36.67 0,-12.4 0.14,-24.88 -0.02,-37.27l82.51 0.06 0 96.26c0.04,-0.08 0.1,-0.29 0.11,-0.24 0.01,0.04 0.08,-0.19 0.1,-0.25 0.11,-0.57 0.38,-92.82 0,-95.88 -2.82,-0.57 -35.6,-0.17 -41.37,-0.17 -5.22,0 -39.62,-0.57 -41.58,0.31 -0.37,3.24 -0.07,48.01 -0.07,55.39 0,5.88 0.33,12.74 -0.24,18.48z"/>
   <path class="fil0" d="M37.28 78.96c0.08,0.04 0.2,0.01 0.24,0.1l10.4 0.09c0.77,-2.07 0.37,-69.16 0.23,-77.17l35.75 0.06c-0.21,7.18 -0.36,75.35 0.17,77.11l7.87 0.1c0.97,0.01 1.9,0.13 2.7,-0.22l-10.47 -0.09 -0 -76.95c-1.88,-0.57 -34.54,-0.55 -36.23,0.01l-0.09 76.94 -10.58 0.01z"/>
   <path class="fil0" d="M94.64 79.04c0.55,-1.01 0.28,-7.89 0.28,-9.11l0 -28.98c0,-12.77 0.4,-26.22 -0.03,-38.9l35.77 0.01 -0.01 96.21c0.45,-0.82 0.33,-0.84 0.32,-2.38 -0.11,-13.81 0.38,-90.06 -0.1,-93.87 -1.65,-0.54 -33.42,-0.56 -36.18,-0.1l-0.05 77.12z"/>
   <path class="fil0" d="M390.82 410.98l-0.07 -99.66 30.78 0.01 -0.02 44.65c1.31,-0.32 0.27,0.13 0.68,-0.7 -1.21,-1.45 0.39,-41.03 -0.58,-44.31l-30.94 0.08c-0.81,2.37 -0.06,79.68 -0.25,97.18 -0.03,2.49 -0.22,2.23 0.4,2.75z"/>
   <path class="fil0" d="M488.55 410.96l-0.06 -99.67 30.83 0.03 -0.03 44.59 0.64 -0.51c-0.14,-0.24 -0.21,-0.21 -0.31,-0.76 -0.39,-2.09 0.55,-41.13 -0.27,-43.68l-30.99 0.06c-0.78,3.18 -0.18,20.48 -0.18,25.09l-0.02 73.81c0.19,1.73 -0.01,0.43 0.38,1.03z"/>
   <path class="fil0" d="M145.55 98.28l-0.02 -96.17 36.21 0.01 0.17 40.79c0.74,0.09 0.05,0.12 1.03,0.01l0.6 -0.26 -1.54 0.04 0.02 -40.83 -36.71 -0.03c-0.46,3.99 -0.08,78.77 -0.08,90.66l-0.04 4.4c0,0.12 0.03,0.56 0.04,0.63 0.13,0.67 0.08,0.34 0.32,0.73z"/>
  </g>
 </g>
</svg>
